<svg width="182" height="75" viewBox="0 0 182 75" fill="none" xmlns="http://www.w3.org/2000/svg">
<rect width="182" height="75" rx="20" fill="#F2F3F7"/>
<path d="M56.23 23.52C55.55 25.62 54.7 27.77 53.68 29.97V50.28H51.28V34.44C50.16 36.26 49.09 37.79 48.07 39.03L46.93 36.36C48.23 34.68 49.51 32.61 50.77 30.15C52.05 27.67 53.07 25.23 53.83 22.83L56.23 23.52ZM66.7 41.31C68.78 43.65 71.51 45.95 74.89 48.21L73.39 50.4C69.91 48 67.14 45.62 65.08 43.26C62.92 45.66 60.08 48.03 56.56 50.37L54.94 48.18C58.54 45.92 61.38 43.63 63.46 41.31C62 39.35 60.82 37.23 59.92 34.95C59.02 32.65 58.32 30.05 57.82 27.15H56.83V24.84H72.64V27.09C72.04 30.05 71.27 32.68 70.33 34.98C69.39 37.26 68.18 39.37 66.7 41.31ZM60.25 27.15C60.75 29.67 61.39 31.91 62.17 33.87C62.95 35.81 63.93 37.61 65.11 39.27C66.35 37.57 67.37 35.73 68.17 33.75C68.97 31.77 69.6 29.57 70.06 27.15H60.25ZM84.34 29.76C83.7 29.02 82.87 28.16 81.85 27.18C80.85 26.18 79.99 25.38 79.27 24.78L80.83 23.13C81.45 23.59 82.26 24.29 83.26 25.23C84.26 26.17 85.19 27.08 86.05 27.96L84.34 29.76ZM92.5 28.14C92.5 29.26 92.16 30.31 91.48 31.29C90.8 32.27 89.59 33.31 87.85 34.41L86.17 32.55C87.29 31.87 88.13 31.27 88.69 30.75C89.27 30.23 89.66 29.69 89.86 29.13C90.06 28.57 90.16 27.87 90.16 27.03V24.09H100.36V29.91C100.36 30.35 100.45 30.65 100.63 30.81C100.81 30.97 101.08 31.05 101.44 31.05H104.47L104.14 33.3H101.17C100.05 33.3 99.23 33.12 98.71 32.76C98.21 32.4 97.96 31.72 97.96 30.72V26.22H92.5V28.14ZM88.21 44.22L83.38 48.18C83.06 48.42 82.57 48.86 81.91 49.5L80.44 47.64C80.84 47.24 81.09 46.93 81.19 46.71C81.31 46.49 81.37 46.18 81.37 45.78V34.53H77.44V32.34H83.68V44.97C84.04 44.69 84.59 44.24 85.33 43.62C86.07 43 86.67 42.5 87.13 42.12L88.21 44.22ZM103.63 50.13C100.29 48.83 97.55 47.39 95.41 45.81C93.17 47.39 90.31 48.85 86.83 50.19L85.63 48.06C88.73 47 91.38 45.75 93.58 44.31C91.56 42.45 90 40.17 88.9 37.47H87.28V35.28H102.19V37.5C101.11 40.18 99.45 42.48 97.21 44.4C99.11 45.68 101.63 46.83 104.77 47.85L103.63 50.13ZM91.33 37.47C92.37 39.71 93.72 41.55 95.38 42.99C97.4 41.33 98.82 39.49 99.64 37.47H91.33ZM111.25 28.74C110.43 30.32 109.49 31.87 108.43 33.39L106.81 31.8C107.79 30.4 108.69 28.89 109.51 27.27C110.35 25.63 111.03 24.03 111.55 22.47L113.77 23.07C113.43 24.09 112.96 25.24 112.36 26.52H118.18V28.74H111.25ZM126.88 22.71C127.78 24.87 128.85 26.75 130.09 28.35C131.35 29.95 132.93 31.44 134.83 32.82L133.48 34.65C130.1 32.19 127.53 29.09 125.77 25.35C124.99 27.03 124.05 28.58 122.95 30C121.85 31.42 120.46 32.87 118.78 34.35L117.25 32.7C118.99 31.22 120.45 29.68 121.63 28.08C122.81 26.46 123.82 24.67 124.66 22.71H126.88ZM124.93 30.42C125.35 30.94 125.87 31.64 126.49 32.52C127.13 33.38 127.67 34.14 128.11 34.8L126.4 36.18C126.02 35.54 125.51 34.76 124.87 33.84C124.23 32.92 123.7 32.2 123.28 31.68L124.93 30.42ZM113.92 45.69L117.85 43.32L118.72 45.45L117.34 46.23C115.28 47.41 114.08 48.1 113.74 48.3C112.82 48.88 112.22 49.28 111.94 49.5L110.47 47.55C110.91 47.31 111.21 47.09 111.37 46.89C111.55 46.67 111.64 46.38 111.64 46.02V39.93H107.92V37.71H111.64V34.17H109.51V31.95H116.98V34.17H113.92V37.71H117.94V39.93H113.92V45.69ZM119.23 39.06V36.81H132.43V39.15C130.93 41.09 129.2 43.23 127.24 45.57C128.84 46.77 129.96 47.63 130.6 48.15L129.31 50.34C127.59 48.92 126.03 47.68 124.63 46.62C123.23 45.54 121.63 44.38 119.83 43.14L121.09 41.22C122.23 41.96 123.68 42.97 125.44 44.25C127.38 41.93 128.77 40.2 129.61 39.06H119.23Z" fill="#5187AB"/>
</svg>
