<svg width="426" height="75" viewBox="0 0 426 75" fill="none" xmlns="http://www.w3.org/2000/svg">
<rect width="426" height="75" rx="20" fill="url(#paint0_linear_475_6977)"/>
<path d="M101.94 28.05C100.6 27.21 98.65 26.06 96.09 24.6L97.35 22.62C98.71 23.34 100.65 24.47 103.17 26.01L101.94 28.05ZM105.3 50.31C101.02 48.85 97.67 47.29 95.25 45.63C94.01 46.47 92.57 47.26 90.93 48C89.31 48.76 87.35 49.54 85.05 50.34L84.03 48.09C87.95 46.79 91.01 45.46 93.21 44.1C91.35 42.5 89.81 40.6 88.59 38.4C87.73 40.36 86.66 42.24 85.38 44.04C84.12 45.82 82.57 47.65 80.73 49.53L78.99 47.49C81.41 45.17 83.37 42.71 84.87 40.11C86.37 37.51 87.55 34.57 88.41 31.29H81.24V29.22C81.46 28.5 81.72 27.55 82.02 26.37C82.32 25.19 82.54 24.25 82.68 23.55L85.05 24.06C84.57 26.28 84.16 27.93 83.82 29.01H88.95C89.39 26.99 89.74 24.93 90 22.83L92.43 23.01C92.07 25.53 91.74 27.53 91.44 29.01H106.11V31.29H90.96C90.66 32.51 90.33 33.68 89.97 34.8H102.63V36.9C101.85 38.44 101.02 39.8 100.14 40.98C99.28 42.14 98.31 43.19 97.23 44.13C99.65 45.63 102.7 46.89 106.38 47.91L105.3 50.31ZM90.33 36.93C91.63 39.21 93.26 41.13 95.22 42.69C97.16 41.17 98.72 39.25 99.9 36.93H90.33ZM120.27 28.92C119.37 30.82 118.31 32.62 117.09 34.32H122.91V30.48H125.28V34.32H134.13V44.19C134.13 45.53 133.88 46.46 133.38 46.98C132.9 47.5 132.07 47.76 130.89 47.76C129.61 47.76 128.57 47.71 127.77 47.61L127.32 45.33C128.34 45.47 129.29 45.54 130.17 45.54C130.81 45.54 131.24 45.42 131.46 45.18C131.68 44.94 131.79 44.49 131.79 43.83V36.78H125.28V50.19H122.91V36.78H116.43V47.88H114.06V37.89C112.88 39.13 111.51 40.41 109.95 41.73L108.81 39.42C110.81 37.84 112.5 36.21 113.88 34.53C115.28 32.83 116.51 30.96 117.57 28.92H110.04V26.58H118.68C119.26 25.28 119.81 23.88 120.33 22.38L122.64 22.95C122.06 24.59 121.61 25.8 121.29 26.58H136.56V28.92H120.27ZM166.68 37.38V39.75H159.9V50.16H157.44V39.75H149.01C148.87 41.53 148.58 43.04 148.14 44.28C147.7 45.5 147.05 46.61 146.19 47.61C145.35 48.59 144.19 49.62 142.71 50.7L140.91 48.72C142.31 47.72 143.39 46.81 144.15 45.99C144.93 45.15 145.5 44.25 145.86 43.29C146.24 42.33 146.49 41.15 146.61 39.75H139.32V37.38H146.73V35.82V30.48H140.52V28.17H148.2C147.34 27.03 146.22 25.64 144.84 24L146.79 22.59C148.17 24.17 149.4 25.69 150.48 27.15L149.19 28.17H155.37C156.43 26.67 157.66 24.81 159.06 22.59L161.34 23.88C160.14 25.62 159.11 27.05 158.25 28.17H165.57V30.48H159.9V37.38H166.68ZM157.44 37.38V30.48H149.16V35.52C149.16 36.36 149.15 36.98 149.13 37.38H157.44ZM176.34 29.76C175.7 29.02 174.87 28.16 173.85 27.18C172.85 26.18 171.99 25.38 171.27 24.78L172.83 23.13C173.45 23.59 174.26 24.29 175.26 25.23C176.26 26.17 177.19 27.08 178.05 27.96L176.34 29.76ZM184.5 28.14C184.5 29.26 184.16 30.31 183.48 31.29C182.8 32.27 181.59 33.31 179.85 34.41L178.17 32.55C179.29 31.87 180.13 31.27 180.69 30.75C181.27 30.23 181.66 29.69 181.86 29.13C182.06 28.57 182.16 27.87 182.16 27.03V24.09H192.36V29.91C192.36 30.35 192.45 30.65 192.63 30.81C192.81 30.97 193.08 31.05 193.44 31.05H196.47L196.14 33.3H193.17C192.05 33.3 191.23 33.12 190.71 32.76C190.21 32.4 189.96 31.72 189.96 30.72V26.22H184.5V28.14ZM180.21 44.22L175.38 48.18C175.06 48.42 174.57 48.86 173.91 49.5L172.44 47.64C172.84 47.24 173.09 46.93 173.19 46.71C173.31 46.49 173.37 46.18 173.37 45.78V34.53H169.44V32.34H175.68V44.97C176.04 44.69 176.59 44.24 177.33 43.62C178.07 43 178.67 42.5 179.13 42.12L180.21 44.22ZM195.63 50.13C192.29 48.83 189.55 47.39 187.41 45.81C185.17 47.39 182.31 48.85 178.83 50.19L177.63 48.06C180.73 47 183.38 45.75 185.58 44.31C183.56 42.45 182 40.17 180.9 37.47H179.28V35.28H194.19V37.5C193.11 40.18 191.45 42.48 189.21 44.4C191.11 45.68 193.63 46.83 196.77 47.85L195.63 50.13ZM183.33 37.47C184.37 39.71 185.72 41.55 187.38 42.99C189.4 41.33 190.82 39.49 191.64 37.47H183.33ZM224.61 29.85C224.63 32.71 224.55 35.61 224.37 38.55C224.19 41.47 223.94 43.8 223.62 45.54C223.42 46.56 223.16 47.35 222.84 47.91C222.52 48.47 222.07 48.87 221.49 49.11C220.91 49.37 220.12 49.51 219.12 49.53C217.28 49.55 215.5 49.45 213.78 49.23L213.24 46.77C214.38 46.91 215.31 47.02 216.03 47.1C216.77 47.16 217.6 47.19 218.52 47.19C219.14 47.17 219.62 47.1 219.96 46.98C220.3 46.84 220.57 46.58 220.77 46.2C220.97 45.8 221.16 45.19 221.34 44.37C221.56 43.41 221.74 41.76 221.88 39.42C222.02 37.06 222.09 34.99 222.09 33.21V32.16H212.46C212.08 34.88 211.48 37.27 210.66 39.33C209.84 41.39 208.68 43.3 207.18 45.06C205.68 46.82 203.72 48.55 201.3 50.25L199.65 48.24C201.83 46.8 203.6 45.3 204.96 43.74C206.34 42.16 207.42 40.45 208.2 38.61C208.98 36.75 209.57 34.6 209.97 32.16H200.43V29.85H210.3V29.73C210.42 28.65 210.51 27.42 210.57 26.04C210.65 24.64 210.68 23.59 210.66 22.89H213.15C213.09 25.61 212.96 27.91 212.76 29.79V29.85H224.61ZM206.64 29.1C206.18 28.54 205.51 27.79 204.63 26.85C203.75 25.89 203.09 25.21 202.65 24.81L204.42 23.31C204.92 23.73 205.59 24.39 206.43 25.29C207.27 26.17 207.94 26.91 208.44 27.51L206.64 29.1ZM217.47 42.18C217.09 41.52 216.41 40.55 215.43 39.27C214.47 37.97 213.73 37.05 213.21 36.51L215.13 35.1C215.65 35.64 216.38 36.54 217.32 37.8C218.28 39.04 218.98 40 219.42 40.68L217.47 42.18ZM238.74 40.38L235.71 37.44V50.25H233.46V38.22C232.36 39.5 231.27 40.62 230.19 41.58L229.11 39.27C232.17 36.69 234.68 33.37 236.64 29.31H229.95V27.15H234.03C233.59 25.83 233.1 24.55 232.56 23.31L234.69 22.65C235.29 24.15 235.83 25.65 236.31 27.15H238.98V29.31C238.16 31.21 237.15 33.07 235.95 34.89L240.18 38.52L238.74 40.38ZM252.33 26.19H243.36V41.1H241.05V23.97H254.64V41.04H252.33V26.19ZM256.77 43.32L256.65 45.18C256.65 45.58 256.63 46.04 256.59 46.56C256.53 47.4 256.4 48.04 256.2 48.48C256 48.92 255.68 49.23 255.24 49.41C254.8 49.59 254.16 49.71 253.32 49.77C252.68 49.81 252.18 49.83 251.82 49.83C251.5 49.83 251 49.81 250.32 49.77C249.28 49.71 248.54 49.45 248.1 48.99C247.68 48.53 247.47 47.72 247.47 46.56V41.73C246.79 43.35 245.78 44.83 244.44 46.17C243.1 47.51 241.28 48.89 238.98 50.31L237.51 48.3C239.89 46.92 241.68 45.62 242.88 44.4C244.1 43.16 244.96 41.79 245.46 40.29C245.98 38.79 246.31 36.82 246.45 34.38C246.49 33.56 246.52 32.56 246.54 31.38C246.56 30.18 246.57 29.18 246.57 28.38H248.85L248.76 34.62C248.74 36.28 248.57 37.84 248.25 39.3H249.78V45.66C249.78 46.36 249.87 46.83 250.05 47.07C250.23 47.29 250.56 47.42 251.04 47.46C251.26 47.48 251.59 47.49 252.03 47.49C252.49 47.49 252.83 47.48 253.05 47.46C253.59 47.42 253.95 47.29 254.13 47.07C254.33 46.85 254.44 46.39 254.46 45.69L254.52 42.81L256.77 43.32ZM267.66 42.54H265.5V34.56H259.29V32.37H261.48V25.26H263.61V32.37H265.92V22.71H268.05V26.7H271.71V28.92H268.05V32.37H272.28V34.56H267.66V42.54ZM277.53 29.4C277.79 28.48 278.06 27.41 278.34 26.19H272.49V24.03H286.53V26.19H280.74L279.9 29.4H285.33V43.47H283.05V31.62H275.76V43.47H273.54V29.4H277.53ZM280.11 42.6C283.55 45.36 285.81 47.24 286.89 48.24L285.39 50.28C284.71 49.56 283.78 48.67 282.6 47.61C281.44 46.55 280.32 45.57 279.24 44.67C278.6 45.73 277.67 46.72 276.45 47.64C275.23 48.54 273.65 49.42 271.71 50.28L270.48 48.15C272.6 47.23 274.22 46.33 275.34 45.45C276.48 44.57 277.25 43.67 277.65 42.75C278.07 41.81 278.28 40.7 278.28 39.42V33.3H280.5V39.51C280.5 40.65 280.37 41.68 280.11 42.6ZM264.27 37.62C263.95 38.52 263.47 39.6 262.83 40.86C262.19 42.12 261.53 43.28 260.85 44.34L259.05 43.23C259.65 42.35 260.25 41.31 260.85 40.11C261.45 38.91 261.96 37.76 262.38 36.66L264.27 37.62ZM272.58 38.28C271.86 40.3 270.98 42.03 269.94 43.47C268.92 44.89 267.67 46.13 266.19 47.19C264.73 48.25 262.92 49.28 260.76 50.28L259.44 48.18C261.7 47.14 263.51 46.15 264.87 45.21C266.23 44.27 267.35 43.19 268.23 41.97C269.13 40.75 269.93 39.21 270.63 37.35L272.58 38.28ZM315.03 24.63C313.79 26.07 312.42 27.46 310.92 28.8C309.42 30.12 307.9 31.29 306.36 32.31L305.1 30.33C308.26 28.29 310.99 25.93 313.29 23.25L315.03 24.63ZM304.98 25.86C302.88 26.22 300.43 26.56 297.63 26.88C294.83 27.2 292.4 27.41 290.34 27.51L290.07 25.2C292.25 25.14 294.71 24.96 297.45 24.66C300.19 24.36 302.58 24.01 304.62 23.61L304.98 25.86ZM299.97 33.51C300.47 32.61 301 31.58 301.56 30.42C302.14 29.26 302.61 28.24 302.97 27.36L304.89 28.17C303.79 30.61 302.79 32.68 301.89 34.38L299.97 33.51ZM297.42 32.85L296.79 31.26C296.15 29.64 295.73 28.63 295.53 28.23L297.42 27.42C297.58 27.74 298.03 28.77 298.77 30.51C299.01 31.11 299.21 31.59 299.37 31.95L297.42 32.85ZM292.65 33.9C291.77 31.86 291.01 30.23 290.37 29.01L292.23 27.99C292.59 28.65 293.12 29.76 293.82 31.32L294.54 32.88L292.65 33.9ZM305.67 37.83C307.39 36.89 308.91 35.88 310.23 34.8C311.57 33.7 312.87 32.39 314.13 30.87L315.84 32.22C314.62 33.78 313.29 35.18 311.85 36.42C310.43 37.66 308.81 38.83 306.99 39.93L305.67 37.83ZM303.66 45.99C301.98 44.65 300.33 43.39 298.71 42.21V50.28H296.49V40.74C294.77 43.54 292.72 46.05 290.34 48.27L289.2 46.17C290.52 44.97 291.67 43.77 292.65 42.57C293.63 41.37 294.55 40.04 295.41 38.58H289.95V36.42H296.49V33.72H298.71V36.42H304.98V38.58H298.71V39.78C300.55 40.94 302.63 42.35 304.95 44.01L303.66 45.99ZM316.8 40.32C315.26 42.24 313.38 44.09 311.16 45.87C308.96 47.63 306.7 49.13 304.38 50.37L303.24 48.24C305.46 47.14 307.58 45.8 309.6 44.22C311.64 42.64 313.45 40.9 315.03 39L316.8 40.32ZM323.25 28.74C322.43 30.32 321.49 31.87 320.43 33.39L318.81 31.8C319.79 30.4 320.69 28.89 321.51 27.27C322.35 25.63 323.03 24.03 323.55 22.47L325.77 23.07C325.43 24.09 324.96 25.24 324.36 26.52H330.18V28.74H323.25ZM338.88 22.71C339.78 24.87 340.85 26.75 342.09 28.35C343.35 29.95 344.93 31.44 346.83 32.82L345.48 34.65C342.1 32.19 339.53 29.09 337.77 25.35C336.99 27.03 336.05 28.58 334.95 30C333.85 31.42 332.46 32.87 330.78 34.35L329.25 32.7C330.99 31.22 332.45 29.68 333.63 28.08C334.81 26.46 335.82 24.67 336.66 22.71H338.88ZM336.93 30.42C337.35 30.94 337.87 31.64 338.49 32.52C339.13 33.38 339.67 34.14 340.11 34.8L338.4 36.18C338.02 35.54 337.51 34.76 336.87 33.84C336.23 32.92 335.7 32.2 335.28 31.68L336.93 30.42ZM325.92 45.69L329.85 43.32L330.72 45.45L329.34 46.23C327.28 47.41 326.08 48.1 325.74 48.3C324.82 48.88 324.22 49.28 323.94 49.5L322.47 47.55C322.91 47.31 323.21 47.09 323.37 46.89C323.55 46.67 323.64 46.38 323.64 46.02V39.93H319.92V37.71H323.64V34.17H321.51V31.95H328.98V34.17H325.92V37.71H329.94V39.93H325.92V45.69ZM331.23 39.06V36.81H344.43V39.15C342.93 41.09 341.2 43.23 339.24 45.57C340.84 46.77 341.96 47.63 342.6 48.15L341.31 50.34C339.59 48.92 338.03 47.68 336.63 46.62C335.23 45.54 333.63 44.38 331.83 43.14L333.09 41.22C334.23 41.96 335.68 42.97 337.44 44.25C339.38 41.93 340.77 40.2 341.61 39.06H331.23Z" fill="white"/>
<defs>
<linearGradient id="paint0_linear_475_6977" x1="0" y1="37.5" x2="426" y2="37.5" gradientUnits="userSpaceOnUse">
<stop stop-color="#FEB44C"/>
<stop offset="1" stop-color="#FE5088"/>
</linearGradient>
</defs>
</svg>
