<svg width="720" height="1280" viewBox="0 0 720 1280" fill="none" xmlns="http://www.w3.org/2000/svg">
<rect width="720" height="1280" fill="url(#paint0_linear_358_314)"/>
<rect x="173" y="184" width="375" height="49" rx="20" fill="url(#paint1_linear_358_314)"/>
<path d="M206.88 207.64C206.912 207.448 206.928 207.304 206.928 207.208H202.872V205.504H209.184V202H205.776C205.44 202.912 205.08 203.728 204.696 204.448L202.896 203.704C203.408 202.792 203.832 201.872 204.168 200.944C204.52 200 204.84 198.928 205.128 197.728L206.928 198.088C206.688 199.016 206.488 199.76 206.328 200.32H209.184V196.816H211.008V200.32H216.384V202H211.008V205.504H217.344V207.208H212.736V211.936C212.736 212.384 212.792 212.696 212.904 212.872C213.032 213.048 213.256 213.152 213.576 213.184C213.736 213.2 213.968 213.208 214.272 213.208C214.576 213.208 214.8 213.2 214.944 213.184C215.328 213.152 215.584 213.056 215.712 212.896C215.84 212.72 215.912 212.376 215.928 211.864C215.976 210.712 216 210.056 216 209.896L217.68 210.28L217.632 211.984L217.608 212.536C217.592 213.16 217.504 213.624 217.344 213.928C217.184 214.232 216.944 214.448 216.624 214.576C216.304 214.688 215.832 214.776 215.208 214.84C214.728 214.872 214.36 214.888 214.104 214.888C213.864 214.888 213.488 214.872 212.976 214.84C212.256 214.776 211.736 214.576 211.416 214.24C211.112 213.888 210.96 213.256 210.96 212.344V207.208H208.752C208.752 207.32 208.736 207.472 208.704 207.664C208.56 208.752 208.336 209.68 208.032 210.448C207.744 211.2 207.296 211.936 206.688 212.656C206.08 213.376 205.224 214.152 204.12 214.984L202.92 213.544C203.88 212.856 204.616 212.248 205.128 211.72C205.64 211.192 206.024 210.624 206.28 210.016C206.536 209.392 206.736 208.6 206.88 207.64ZM200.4 202.912C200.032 202.384 199.464 201.648 198.696 200.704C197.944 199.76 197.344 199.032 196.896 198.52L198.264 197.32C198.712 197.8 199.304 198.48 200.04 199.36C200.776 200.24 201.392 201 201.888 201.64L200.4 202.912ZM207.72 216.52C209.32 216.6 210.752 216.64 212.016 216.64C213.696 216.64 215.68 216.584 217.968 216.472L217.536 218.368C216 218.432 214.296 218.464 212.424 218.464C210.456 218.464 208.784 218.424 207.408 218.344C206.24 218.28 205.264 218.144 204.48 217.936C203.696 217.728 202.984 217.416 202.344 217C201.72 216.584 201.056 216 200.352 215.248L197.376 218.464L196.08 216.976L199.416 213.688V206.92H196.248V205.168H201.216V213.544C201.808 214.28 202.392 214.848 202.968 215.248C203.544 215.648 204.2 215.944 204.936 216.136C205.672 216.328 206.6 216.456 207.72 216.52ZM227.592 207.664C227.048 207.856 226.168 208.208 224.952 208.72V215.728C224.952 216.464 224.88 217.008 224.736 217.36C224.592 217.728 224.352 217.976 224.016 218.104C223.68 218.248 223.184 218.32 222.528 218.32C222.144 218.32 221.584 218.288 220.848 218.224L220.44 216.424C221.064 216.52 221.696 216.568 222.336 216.568C222.656 216.568 222.872 216.464 222.984 216.256C223.112 216.048 223.176 215.68 223.176 215.152V209.464L220.344 210.664L219.888 208.792L223.176 207.472V203.08H220.368V201.256H223.176V196.984H224.952V201.256H227.496V203.08H224.952V206.728L227.16 205.744L227.592 207.664ZM227.88 206.248C229.928 205.624 231.728 204.912 233.28 204.112C232 203.024 230.84 201.592 229.8 199.816H228.888V198.088H240.312V199.816C239.816 200.712 239.256 201.52 238.632 202.24C238.008 202.944 237.28 203.6 236.448 204.208C237.84 204.928 239.672 205.592 241.944 206.2L241.296 207.88C238.608 207.128 236.456 206.248 234.84 205.24C233.288 206.104 231.184 206.976 228.528 207.856L227.88 206.248ZM231.696 199.816C232.656 201.224 233.696 202.352 234.816 203.2C236.256 202.256 237.392 201.128 238.224 199.816H231.696ZM240.864 210.784H235.536V213.328H241.896V215.032H235.536V218.752H233.736V215.032H227.352V213.328H233.736V210.784H228.384V209.128H233.736V206.8H235.536V209.128H240.864V210.784ZM257.496 200.392C257.112 201.128 256.608 201.968 255.984 202.912V218.656H254.016V205.6C251.76 208.448 248.896 211.176 245.424 213.784L244.176 212.008C246.608 210.328 248.752 208.504 250.608 206.536C252.48 204.552 254 202.504 255.168 200.392H245.016V198.4H265.056V200.392H257.496ZM257.808 204.832C258.928 205.712 260.296 206.864 261.912 208.288C263.528 209.696 264.808 210.872 265.752 211.816L264.264 213.496C263.352 212.52 262.136 211.328 260.616 209.92C259.112 208.496 257.768 207.296 256.584 206.32L257.808 204.832ZM288.288 215.464C288.288 216.248 288.208 216.856 288.048 217.288C287.904 217.72 287.648 218.024 287.28 218.2C286.928 218.392 286.424 218.496 285.768 218.512C284.792 218.528 283.816 218.48 282.84 218.368L282.48 216.568C283.264 216.696 284.152 216.76 285.144 216.76C285.624 216.76 285.944 216.632 286.104 216.376C286.28 216.104 286.368 215.632 286.368 214.96V199.984H271.32V218.56H269.424V198.184H288.288V215.464ZM272.832 202.6H284.88V204.328H272.832V202.6ZM274.248 206.872H283.44V214.528H274.248V206.872ZM276 208.528V212.872H281.688V208.528H276ZM302.952 200.176V202.12H292.272V200.176H297.144C296.792 199.2 296.408 198.24 295.992 197.296L297.744 196.696C298.256 197.944 298.68 199.104 299.016 200.176H302.952ZM309.336 212.176C310.568 214.032 312.184 215.744 314.184 217.312L312.96 219.016C311.104 217.544 309.536 215.872 308.256 214C307.104 215.712 305.536 217.4 303.552 219.064L302.256 217.456C304.352 215.856 305.992 214.12 307.176 212.248C306.056 210.152 305.248 207.768 304.752 205.096C304.24 205.976 303.912 206.52 303.768 206.728L302.616 205.192C303.352 204.04 304.024 202.712 304.632 201.208C305.24 199.704 305.672 198.264 305.928 196.888L307.824 197.152C307.488 198.544 307.12 199.784 306.72 200.872H313.896V202.792H312C311.76 204.712 311.424 206.432 310.992 207.952C310.576 209.472 310.024 210.88 309.336 212.176ZM306.024 202.792C306.424 205.672 307.16 208.176 308.232 210.304C308.728 209.248 309.128 208.112 309.432 206.896C309.736 205.664 309.984 204.296 310.176 202.792H306.024ZM301.944 209.08C300.824 207.16 299.704 205.432 298.584 203.896L299.928 202.936C301.192 204.584 302.344 206.256 303.384 207.952L301.944 209.08ZM296.976 203.896C295.632 206.344 294.312 208.272 293.016 209.68L291.744 208.528C292.896 207.248 294.112 205.408 295.392 203.008L296.976 203.896ZM300.84 217.096C300.04 216.104 299.152 215.04 298.176 213.904C296.88 215.808 295.144 217.52 292.968 219.04L291.768 217.456C292.92 216.704 293.912 215.928 294.744 215.128C295.592 214.312 296.328 213.432 296.952 212.488C295.96 211.368 294.992 210.304 294.048 209.296L295.368 208.12C296.328 209.08 297.176 209.968 297.912 210.784C298.36 209.904 298.792 208.816 299.208 207.52L300.912 208.144C300.416 209.664 299.848 211.016 299.208 212.2C300.632 213.8 301.664 215.016 302.304 215.848L300.84 217.096ZM329.928 211.312C331.016 212.32 332.2 213.216 333.48 214C334.776 214.768 336.288 215.504 338.016 216.208L337.152 218.008C335.12 217.08 333.36 216.096 331.872 215.056C330.4 214 329.104 212.792 327.984 211.432V218.752H326.088V211.504C324.952 212.864 323.592 214.12 322.008 215.272C320.424 216.408 318.712 217.352 316.872 218.104L316.056 216.256C319.144 215.136 321.824 213.488 324.096 211.312H316.704V209.608H326.088V207.544H318.768V198.088H335.28V207.544H327.984V209.608H337.344V211.312H329.928ZM326.088 202V199.768H320.64V202H326.088ZM327.984 202H333.408V199.768H327.984V202ZM320.64 203.608V205.84H326.088V203.608H320.64ZM327.984 203.608V205.84H333.408V203.608H327.984ZM352.656 202.096H350.928V200.776H347.76V199.096H350.928V196.84H352.656V199.096H356.424V196.84H358.152V199.096H361.68V200.776H358.152V202.096H356.424V200.776H352.656V202.096ZM346.944 209.68C346.672 209.28 346.28 208.688 345.768 207.904L345.096 206.872V218.752H343.344V207.088C342.48 209.568 341.6 211.52 340.704 212.944L339.528 211.288C340.248 210.184 340.936 208.904 341.592 207.448C342.264 205.992 342.808 204.56 343.224 203.152H340.272V201.424H343.344V196.888H345.096V201.424H347.688V203.152H345.096V204.472C346.472 206.104 347.416 207.264 347.928 207.952L346.944 209.68ZM355.968 213.52C356.544 214.384 357.296 215.112 358.224 215.704C359.168 216.28 360.416 216.76 361.968 217.144L361.32 218.848C358.312 218.048 356.08 216.6 354.624 214.504C353.52 216.312 351.2 217.76 347.664 218.848L346.944 217.12C348.544 216.704 349.848 216.2 350.856 215.608C351.88 215.016 352.616 214.32 353.064 213.52H347.376V211.864H353.568L353.592 211.576C353.608 211.352 353.616 210.92 353.616 210.28H348.984V202.792H360.384V210.28H355.488L355.44 211.576V211.864H361.68V213.52H355.968ZM358.752 205.84V204.256H350.664V205.84H358.752ZM358.752 207.16H350.664V208.816H358.752V207.16ZM371.472 209.608L369.528 207.88L369.12 207.496V218.776H367.32V207.544C366.52 209.72 365.656 211.496 364.728 212.872L363.456 211.336C364.16 210.264 364.856 208.984 365.544 207.496C366.248 205.992 366.8 204.56 367.2 203.2H364.344V201.376H367.32V196.864H369.12V201.376H371.88V203.2H369.12V205.336C369.28 205.48 369.568 205.712 369.984 206.032C371.264 207.056 372.088 207.744 372.456 208.096L371.472 209.608ZM381.048 213.472C382.344 214.896 384.056 216.192 386.184 217.36L385.152 219.184C383.024 217.92 381.248 216.504 379.824 214.936C378.496 216.36 376.72 217.736 374.496 219.064L373.368 217.312C375.576 216.048 377.312 214.752 378.576 213.424C377.008 211.28 375.864 208.688 375.144 205.648H374.856C374.84 208.672 374.576 211.192 374.064 213.208C373.552 215.208 372.696 217.136 371.496 218.992L369.816 217.744C370.6 216.56 371.216 215.4 371.664 214.264C372.128 213.112 372.464 211.816 372.672 210.376C372.896 208.92 373.008 207.168 373.008 205.12V199.048C376.72 198.808 380.616 198.304 384.696 197.536L385.104 199.408C383.472 199.712 381.744 199.992 379.92 200.248C378.112 200.504 376.424 200.696 374.856 200.824V203.8H384.504V205.648C384.12 207.248 383.648 208.688 383.088 209.968C382.528 211.248 381.848 212.416 381.048 213.472ZM376.992 205.648C377.712 208.192 378.656 210.296 379.824 211.96C380.48 211.064 381.024 210.104 381.456 209.08C381.888 208.056 382.248 206.912 382.536 205.648H376.992ZM400.512 216.016H409.776V217.96H388.728V216.016H398.424V210.184H390.864V208.24H398.424V203.512H392.808C392.104 205.048 391.248 206.576 390.24 208.096L388.344 207.064C389.368 205.624 390.224 204.16 390.912 202.672C391.616 201.184 392.2 199.544 392.664 197.752L394.728 198.208C394.424 199.312 394.064 200.416 393.648 201.52H398.424V196.936H400.512V201.52H408.864V203.512H400.512V208.24H408.048V210.184H400.512V216.016ZM434.088 212.344C433.864 213.56 433.648 214.6 433.44 215.464C433.184 216.584 432.824 217.36 432.36 217.792C431.896 218.24 431.336 218.464 430.68 218.464C430.088 218.464 429.552 218.256 429.072 217.84C428.592 217.44 428.024 216.736 427.368 215.728C427.048 215.184 426.768 214.656 426.528 214.144C425.12 215.68 423.432 217.16 421.464 218.584L420.192 217.12C422.432 215.52 424.304 213.88 425.808 212.2C425.04 209.752 424.448 206.512 424.032 202.48H416.112V205.864H422.256C422.24 207.016 422.192 208.08 422.112 209.056C422.048 210.016 421.952 211.184 421.824 212.56C421.712 213.696 421.424 214.504 420.96 214.984C420.496 215.448 419.696 215.68 418.56 215.68C418.176 215.68 417.616 215.648 416.88 215.584L416.472 213.664C417.192 213.744 417.824 213.784 418.368 213.784C418.944 213.784 419.328 213.664 419.52 213.424C419.728 213.168 419.88 212.696 419.976 212.008C420.088 211.08 420.16 210.328 420.192 209.752C420.24 209.176 420.264 208.504 420.264 207.736H416.112C416.08 210.248 415.872 212.304 415.488 213.904C415.104 215.488 414.424 217.12 413.448 218.8L411.576 217.912C412.296 216.776 412.84 215.728 413.208 214.768C413.576 213.792 413.84 212.704 414 211.504C414.16 210.288 414.24 208.744 414.24 206.872V200.584H423.864L423.576 196.768H425.472C425.568 198.256 425.664 199.528 425.76 200.584H430.032C429.088 199.56 428.152 198.624 427.224 197.776L428.496 196.528C429.312 197.28 430.296 198.248 431.448 199.432L430.176 200.584H433.44V202.48H425.928C426.248 205.776 426.68 208.424 427.224 210.424C428.6 208.536 429.688 206.392 430.488 203.992L432.192 204.712C431.184 207.608 429.752 210.224 427.896 212.56C428.248 213.52 428.656 214.36 429.12 215.08C429.456 215.576 429.744 215.92 429.984 216.112C430.24 216.288 430.48 216.368 430.704 216.352C430.96 216.368 431.184 216.256 431.376 216.016C431.568 215.76 431.736 215.28 431.88 214.576C432.024 213.952 432.2 213.016 432.408 211.768L434.088 212.344ZM456.624 198.304C455.632 199.456 454.536 200.568 453.336 201.64C452.136 202.696 450.92 203.632 449.688 204.448L448.68 202.864C451.208 201.232 453.392 199.344 455.232 197.2L456.624 198.304ZM448.584 199.288C446.904 199.576 444.944 199.848 442.704 200.104C440.464 200.36 438.52 200.528 436.872 200.608L436.656 198.76C438.4 198.712 440.368 198.568 442.56 198.328C444.752 198.088 446.664 197.808 448.296 197.488L448.584 199.288ZM444.576 205.408C444.976 204.688 445.4 203.864 445.848 202.936C446.312 202.008 446.688 201.192 446.976 200.488L448.512 201.136C447.632 203.088 446.832 204.744 446.112 206.104L444.576 205.408ZM442.536 204.88L442.032 203.608C441.52 202.312 441.184 201.504 441.024 201.184L442.536 200.536C442.664 200.792 443.024 201.616 443.616 203.008C443.808 203.488 443.968 203.872 444.096 204.16L442.536 204.88ZM438.72 205.72C438.016 204.088 437.408 202.784 436.896 201.808L438.384 200.992C438.672 201.52 439.096 202.408 439.656 203.656L440.232 204.904L438.72 205.72ZM449.136 208.864C450.512 208.112 451.728 207.304 452.784 206.44C453.856 205.56 454.896 204.512 455.904 203.296L457.272 204.376C456.296 205.624 455.232 206.744 454.08 207.736C452.944 208.728 451.648 209.664 450.192 210.544L449.136 208.864ZM447.528 215.392C446.184 214.32 444.864 213.312 443.568 212.368V218.824H441.792V211.192C440.416 213.432 438.776 215.44 436.872 217.216L435.96 215.536C437.016 214.576 437.936 213.616 438.72 212.656C439.504 211.696 440.24 210.632 440.928 209.464H436.56V207.736H441.792V205.576H443.568V207.736H448.584V209.464H443.568V210.424C445.04 211.352 446.704 212.48 448.56 213.808L447.528 215.392ZM458.04 210.856C456.808 212.392 455.304 213.872 453.528 215.296C451.768 216.704 449.96 217.904 448.104 218.896L447.192 217.192C448.968 216.312 450.664 215.24 452.28 213.976C453.912 212.712 455.36 211.32 456.624 209.8L458.04 210.856ZM463.2 201.592C462.544 202.856 461.792 204.096 460.944 205.312L459.648 204.04C460.432 202.92 461.152 201.712 461.808 200.416C462.48 199.104 463.024 197.824 463.44 196.576L465.216 197.056C464.944 197.872 464.568 198.792 464.088 199.816H468.744V201.592H463.2ZM475.704 196.768C476.424 198.496 477.28 200 478.272 201.28C479.28 202.56 480.544 203.752 482.064 204.856L480.984 206.32C478.28 204.352 476.224 201.872 474.816 198.88C474.192 200.224 473.44 201.464 472.56 202.6C471.68 203.736 470.568 204.896 469.224 206.08L468 204.76C469.392 203.576 470.56 202.344 471.504 201.064C472.448 199.768 473.256 198.336 473.928 196.768H475.704ZM474.144 202.936C474.48 203.352 474.896 203.912 475.392 204.616C475.904 205.304 476.336 205.912 476.688 206.44L475.32 207.544C475.016 207.032 474.608 206.408 474.096 205.672C473.584 204.936 473.16 204.36 472.824 203.944L474.144 202.936ZM465.336 215.152L468.48 213.256L469.176 214.96L468.072 215.584C466.424 216.528 465.464 217.08 465.192 217.24C464.456 217.704 463.976 218.024 463.752 218.2L462.576 216.64C462.928 216.448 463.168 216.272 463.296 216.112C463.44 215.936 463.512 215.704 463.512 215.416V210.544H460.536V208.768H463.512V205.936H461.808V204.16H467.784V205.936H465.336V208.768H468.552V210.544H465.336V215.152ZM469.584 209.848V208.048H480.144V209.92C478.944 211.472 477.56 213.184 475.992 215.056C477.272 216.016 478.168 216.704 478.68 217.12L477.648 218.872C476.272 217.736 475.024 216.744 473.904 215.896C472.784 215.032 471.504 214.104 470.064 213.112L471.072 211.576C471.984 212.168 473.144 212.976 474.552 214C476.104 212.144 477.216 210.76 477.888 209.848H469.584ZM491.592 210.904L489.168 208.552V218.8H487.368V209.176C486.488 210.2 485.616 211.096 484.752 211.864L483.888 210.016C486.336 207.952 488.344 205.296 489.912 202.048H484.56V200.32H487.824C487.472 199.264 487.08 198.24 486.648 197.248L488.352 196.72C488.832 197.92 489.264 199.12 489.648 200.32H491.784V202.048C491.128 203.568 490.32 205.056 489.36 206.512L492.744 209.416L491.592 210.904ZM502.464 199.552H495.288V211.48H493.44V197.776H504.312V211.432H502.464V199.552ZM506.016 213.256L505.92 214.744C505.92 215.064 505.904 215.432 505.872 215.848C505.824 216.52 505.72 217.032 505.56 217.384C505.4 217.736 505.144 217.984 504.792 218.128C504.44 218.272 503.928 218.368 503.256 218.416C502.744 218.448 502.344 218.464 502.056 218.464C501.8 218.464 501.4 218.448 500.856 218.416C500.024 218.368 499.432 218.16 499.08 217.792C498.744 217.424 498.576 216.776 498.576 215.848V211.984C498.032 213.28 497.224 214.464 496.152 215.536C495.08 216.608 493.624 217.712 491.784 218.848L490.608 217.24C492.512 216.136 493.944 215.096 494.904 214.12C495.88 213.128 496.568 212.032 496.968 210.832C497.384 209.632 497.648 208.056 497.76 206.104C497.792 205.448 497.816 204.648 497.832 203.704C497.848 202.744 497.856 201.944 497.856 201.304H499.68L499.608 206.296C499.592 207.624 499.456 208.872 499.2 210.04H500.424V215.128C500.424 215.688 500.496 216.064 500.64 216.256C500.784 216.432 501.048 216.536 501.432 216.568C501.608 216.584 501.872 216.592 502.224 216.592C502.592 216.592 502.864 216.584 503.04 216.568C503.472 216.536 503.76 216.432 503.904 216.256C504.064 216.08 504.152 215.712 504.168 215.152L504.216 212.848L506.016 213.256ZM514.728 212.632H513V206.248H508.032V204.496H509.784V198.808H511.488V204.496H513.336V196.768H515.04V199.96H517.968V201.736H515.04V204.496H518.424V206.248H514.728V212.632ZM522.624 202.12C522.832 201.384 523.048 200.528 523.272 199.552H518.592V197.824H529.824V199.552H525.192L524.52 202.12H528.864V213.376H527.04V203.896H521.208V213.376H519.432V202.12H522.624ZM524.688 212.68C527.44 214.888 529.248 216.392 530.112 217.192L528.912 218.824C528.368 218.248 527.624 217.536 526.68 216.688C525.752 215.84 524.856 215.056 523.992 214.336C523.48 215.184 522.736 215.976 521.76 216.712C520.784 217.432 519.52 218.136 517.968 218.824L516.984 217.12C518.68 216.384 519.976 215.664 520.872 214.96C521.784 214.256 522.4 213.536 522.72 212.8C523.056 212.048 523.224 211.16 523.224 210.136V205.24H525V210.208C525 211.12 524.896 211.944 524.688 212.68ZM512.016 208.696C511.76 209.416 511.376 210.28 510.864 211.288C510.352 212.296 509.824 213.224 509.28 214.072L507.84 213.184C508.32 212.48 508.8 211.648 509.28 210.688C509.76 209.728 510.168 208.808 510.504 207.928L512.016 208.696ZM518.664 209.224C518.088 210.84 517.384 212.224 516.552 213.376C515.736 214.512 514.736 215.504 513.552 216.352C512.384 217.2 510.936 218.024 509.208 218.824L508.152 217.144C509.96 216.312 511.408 215.52 512.496 214.768C513.584 214.016 514.48 213.152 515.184 212.176C515.904 211.2 516.544 209.968 517.104 208.48L518.664 209.224Z" fill="black"/>
<g clip-path="url(#clip0_358_314)">
<path d="M356.029 295.966C356.19 295.938 356.337 295.857 356.447 295.737L367.862 284.322C368.189 283.995 368.189 283.505 367.862 283.178C367.536 282.852 367.046 282.852 366.719 283.178L356.646 293.251L356.646 272.317C356.646 259.25 367.263 248.633 380.33 248.633C380.82 248.633 381.146 248.307 381.146 247.817C381.146 247.327 380.821 247 380.331 247C366.448 247 355.015 258.433 355.015 272.317L355.015 293.032L345.161 283.178C344.834 282.852 344.344 282.852 344.017 283.178C343.854 283.342 343.854 283.668 343.854 283.832L343.854 284.322L355.117 295.585C355.184 295.716 355.287 295.824 355.413 295.898C355.54 295.971 355.685 296.007 355.831 296L355.846 295.997C355.908 295.998 355.967 295.979 356.029 295.966Z" fill="#231F20"/>
</g>
<defs>
<linearGradient id="paint0_linear_358_314" x1="360" y1="0" x2="360" y2="1280" gradientUnits="userSpaceOnUse">
<stop stop-color="#DAF5FF"/>
<stop offset="1" stop-color="#F8FFF3"/>
</linearGradient>
<linearGradient id="paint1_linear_358_314" x1="173" y1="208.5" x2="548" y2="208.5" gradientUnits="userSpaceOnUse">
<stop stop-color="#85CFFC"/>
<stop offset="1" stop-color="#AAE1FF"/>
</linearGradient>
<clipPath id="clip0_358_314">
<rect width="49" height="49" fill="white" transform="translate(387 247) rotate(90)"/>
</clipPath>
</defs>
</svg>
