<svg width="720" height="1280" viewBox="0 0 720 1280" fill="none" xmlns="http://www.w3.org/2000/svg">
<rect width="720" height="1280" fill="url(#paint0_linear_238_95)"/>
<rect x="134" y="135" width="453" height="49" rx="20" fill="url(#paint1_linear_238_95)"/>
<path d="M176.896 160.824C176.32 160.04 175.664 159.208 174.928 158.328V169.56H173.104V157.968C172.384 160.288 171.464 162.368 170.344 164.208L169.456 162.288C170.144 161.2 170.792 159.928 171.4 158.472C172.024 157 172.528 155.568 172.912 154.176H170.152V152.376H173.104V147.792H174.928V152.376H177.808V154.176H174.928V155.976C175.776 156.808 176.816 157.912 178.048 159.288L176.896 160.824ZM187.048 164.208C188.2 165.504 189.816 166.592 191.896 167.472L190.72 169.08C188.512 167.96 186.776 166.664 185.512 165.192C184.248 163.704 183.264 161.808 182.56 159.504H180.664V167.136L184.192 165.528L184.552 167.376C183.368 167.824 182.144 168.336 180.88 168.912C180.608 169.024 179.944 169.336 178.888 169.848L178 168.168C178.352 167.992 178.576 167.832 178.672 167.688C178.784 167.544 178.84 167.336 178.84 167.064V149.04H189.808V159.504H184.408C184.856 160.768 185.392 161.888 186.016 162.864C187.056 162.192 188.344 161.264 189.88 160.08L190.936 161.424C189.768 162.336 188.472 163.264 187.048 164.208ZM187.984 153.48V150.72H180.664V153.48H187.984ZM187.984 155.136H180.664V157.8H187.984V155.136ZM201.304 158.976L199 159.936V166.944C199 167.648 198.912 168.176 198.736 168.528C198.576 168.896 198.296 169.152 197.896 169.296C197.496 169.44 196.92 169.512 196.168 169.512C195.848 169.512 195.352 169.48 194.68 169.416L194.368 167.64C194.896 167.736 195.432 167.784 195.976 167.784C196.44 167.784 196.752 167.688 196.912 167.496C197.088 167.288 197.176 166.912 197.176 166.368V160.68L194.272 161.832L193.864 159.912C194.824 159.592 195.928 159.192 197.176 158.712V154.224H194.344V152.4H197.176V148.032H199V152.4H201.16V154.224H199V157.968C199.96 157.552 200.616 157.256 200.968 157.08L201.304 158.976ZM215.944 159.336H210.592V161.88H214.456V169.8H212.656V168.6H206.704V169.824H204.904V161.88H208.792V159.336H204.016C203.936 161.624 203.712 163.528 203.344 165.048C202.976 166.568 202.376 168.104 201.544 169.656L199.84 168.672C200.496 167.424 200.992 166.248 201.328 165.144C201.664 164.04 201.896 162.792 202.024 161.4C202.168 160.008 202.24 158.224 202.24 156.048V149.208H214.864V155.232H210.592V157.704H215.944V159.336ZM213.016 153.576V150.864H204.064V153.576H213.016ZM204.064 157.704H208.792V155.232H204.064V156.288V157.704ZM206.704 167.016H212.656V163.512H206.704V167.016ZM223.96 154.08C224.824 153.12 225.632 152.048 226.384 150.864C227.136 149.68 227.728 148.584 228.16 147.576L229.816 148.104C229.528 148.808 229.216 149.464 228.88 150.072H239.176V151.704L237.568 154.272L235.816 153.744L237.112 151.776H227.896C227.24 152.848 226.408 153.968 225.4 155.136L223.96 154.08ZM224.584 148.248C224.104 149.512 223.472 150.808 222.688 152.136V161.328H220.888V154.776C220.232 155.624 219.472 156.488 218.608 157.368L217.864 155.448C218.856 154.36 219.8 153.112 220.696 151.704C221.592 150.296 222.28 148.968 222.76 147.72L224.584 148.248ZM233.032 158.952C233.032 159.832 232.832 160.464 232.432 160.848C232.032 161.232 231.392 161.424 230.512 161.424C229.92 161.424 229.264 161.384 228.544 161.304L228.112 159.552C228.832 159.664 229.448 159.72 229.96 159.72C230.456 159.72 230.792 159.624 230.968 159.432C231.144 159.224 231.232 158.832 231.232 158.256V152.904H233.032V158.952ZM228.928 155.4C227.728 157.736 226.528 159.544 225.328 160.824L223.84 159.816C224.976 158.6 226.152 156.856 227.368 154.584L228.928 155.4ZM235.816 154.68C236.808 155.912 238.04 157.576 239.512 159.672L237.976 160.704C237.496 159.92 236.984 159.152 236.44 158.4C235.896 157.648 235.232 156.752 234.448 155.712L235.816 154.68ZM229.144 161.808C229.512 162.176 229.944 162.648 230.44 163.224C230.952 163.784 231.36 164.272 231.664 164.688L230.248 165.864C229.288 164.6 228.464 163.6 227.776 162.864L229.144 161.808ZM236.344 161.856C236.872 162.544 237.504 163.448 238.24 164.568C238.976 165.688 239.568 166.632 240.016 167.4L238.384 168.456C237.968 167.672 237.408 166.736 236.704 165.648C236 164.544 235.376 163.608 234.832 162.84L236.344 161.856ZM232.912 164.016L234.688 164.496C234.624 165.424 234.552 166.264 234.472 167.016C234.408 167.928 234.16 168.552 233.728 168.888C233.312 169.24 232.64 169.456 231.712 169.536C230.752 169.616 229.872 169.656 229.072 169.656C228.304 169.656 227.424 169.616 226.432 169.536C225.52 169.456 224.872 169.2 224.488 168.768C224.12 168.352 223.936 167.616 223.936 166.56V162.168H225.784V166.032C225.784 166.656 225.872 167.088 226.048 167.328C226.224 167.552 226.56 167.688 227.056 167.736C227.696 167.8 228.408 167.832 229.192 167.832C229.992 167.832 230.704 167.8 231.328 167.736C231.872 167.688 232.248 167.56 232.456 167.352C232.664 167.144 232.776 166.768 232.792 166.224L232.912 164.016ZM217.864 167.976C218.376 167.176 218.88 166.28 219.376 165.288C219.872 164.28 220.288 163.344 220.624 162.48L222.352 163.128C221.968 164.12 221.528 165.136 221.032 166.176C220.536 167.216 220.056 168.104 219.592 168.84L217.864 167.976ZM263.104 151.464V152.472C263.104 154.488 263.048 156.848 262.936 159.552C262.84 162.256 262.72 164.48 262.576 166.224C262.512 167.008 262.368 167.608 262.144 168.024C261.92 168.456 261.592 168.76 261.16 168.936C260.744 169.112 260.176 169.216 259.456 169.248C259.28 169.264 259.024 169.272 258.688 169.272C258.416 169.272 258.104 169.264 257.752 169.248C257.416 169.232 257.152 169.216 256.96 169.2L256.312 169.152L255.976 167.16C257.128 167.304 258.024 167.376 258.664 167.376C259.16 167.376 259.536 167.328 259.792 167.232C260.064 167.12 260.272 166.92 260.416 166.632C260.576 166.328 260.688 165.864 260.752 165.24C260.992 162.52 261.112 159.16 261.112 155.16V153.312H255.16C254.616 154.672 254.096 155.864 253.6 156.888L251.92 155.784C252.544 154.584 253.128 153.248 253.672 151.776C254.216 150.288 254.648 148.88 254.968 147.552L256.888 147.936C256.552 149.232 256.2 150.408 255.832 151.464H263.104ZM248.776 148.08C248.552 149.136 248.248 150.336 247.864 151.68H251.248V168.792H243.16V151.68H245.752C246.136 150.544 246.472 149.224 246.76 147.72L248.776 148.08ZM245.032 158.328H249.352V153.552H245.032V158.328ZM257.488 163.464C256.976 162.664 256.352 161.76 255.616 160.752C254.88 159.744 254.256 158.944 253.744 158.352L255.184 157.224C255.712 157.832 256.336 158.616 257.056 159.576C257.792 160.536 258.432 161.408 258.976 162.192L257.488 163.464ZM245.032 160.176V166.896H249.352V160.176H245.032ZM273.04 155.448C272.656 154.936 272.08 154.2 271.312 153.24V169.68H269.488V147.792H271.312V150.84L273.952 153.72L273.04 155.448ZM281.968 166.992H287.872V168.864H273.304V166.992H280.048V161.448H274.6V159.552H280.048V154.56H276.52C276.12 156 275.672 157.376 275.176 158.688L273.328 158.04C274.432 155.24 275.232 152.264 275.728 149.112L277.576 149.352C277.4 150.6 277.2 151.704 276.976 152.664H280.048V147.912H281.968V152.664H287.44V154.56H281.968V159.552H286.864V161.448H281.968V166.992ZM265.84 160.416C266.064 159.344 266.296 157.976 266.536 156.312C266.776 154.648 266.96 153.112 267.088 151.704L268.816 151.944C268.688 153.096 268.488 154.6 268.216 156.456C267.944 158.312 267.712 159.76 267.52 160.8L265.84 160.416ZM308.44 148.176H310.216V166.512C310.216 167.552 309.992 168.304 309.544 168.768C309.112 169.232 308.352 169.472 307.264 169.488C306.208 169.52 305.256 169.48 304.408 169.368L304.072 167.496C304.92 167.624 305.712 167.688 306.448 167.688C306.992 167.688 307.392 167.656 307.648 167.592C307.92 167.512 308.12 167.344 308.248 167.088C308.376 166.832 308.44 166.424 308.44 165.864V148.176ZM295.984 156.48L295.888 159.36H301.456C301.456 160.272 301.424 161.4 301.36 162.744C301.296 164.072 301.208 165.128 301.096 165.912C300.936 167.064 300.6 167.872 300.088 168.336C299.592 168.816 298.76 169.056 297.592 169.056C297.096 169.056 296.352 169.024 295.36 168.96L294.976 167.208C295.728 167.32 296.384 167.376 296.944 167.376C297.536 167.376 297.984 167.32 298.288 167.208C298.592 167.096 298.816 166.888 298.96 166.584C299.12 166.264 299.24 165.784 299.32 165.144C299.48 163.944 299.56 162.616 299.56 161.16H295.744C295.616 162.472 295.392 163.6 295.072 164.544C294.752 165.472 294.312 166.328 293.752 167.112C293.208 167.896 292.448 168.8 291.472 169.824L289.888 168.6C290.784 167.768 291.496 167.008 292.024 166.32C292.552 165.616 292.96 164.864 293.248 164.064C293.552 163.248 293.768 162.28 293.896 161.16H290.272V159.36H294.04C294.04 159.136 294.056 158.768 294.088 158.256C294.12 157.392 294.136 156.8 294.136 156.48H291.52V149.04H301.144V156.48H295.984ZM303.76 150.168H305.536V163.992H303.76V150.168ZM299.272 150.768H293.344V154.68H299.272V150.768ZM324.88 158.64C324.912 158.448 324.928 158.304 324.928 158.208H320.872V156.504H327.184V153H323.776C323.44 153.912 323.08 154.728 322.696 155.448L320.896 154.704C321.408 153.792 321.832 152.872 322.168 151.944C322.52 151 322.84 149.928 323.128 148.728L324.928 149.088C324.688 150.016 324.488 150.76 324.328 151.32H327.184V147.816H329.008V151.32H334.384V153H329.008V156.504H335.344V158.208H330.736V162.936C330.736 163.384 330.792 163.696 330.904 163.872C331.032 164.048 331.256 164.152 331.576 164.184C331.736 164.2 331.968 164.208 332.272 164.208C332.576 164.208 332.8 164.2 332.944 164.184C333.328 164.152 333.584 164.056 333.712 163.896C333.84 163.72 333.912 163.376 333.928 162.864C333.976 161.712 334 161.056 334 160.896L335.68 161.28L335.632 162.984L335.608 163.536C335.592 164.16 335.504 164.624 335.344 164.928C335.184 165.232 334.944 165.448 334.624 165.576C334.304 165.688 333.832 165.776 333.208 165.84C332.728 165.872 332.36 165.888 332.104 165.888C331.864 165.888 331.488 165.872 330.976 165.84C330.256 165.776 329.736 165.576 329.416 165.24C329.112 164.888 328.96 164.256 328.96 163.344V158.208H326.752C326.752 158.32 326.736 158.472 326.704 158.664C326.56 159.752 326.336 160.68 326.032 161.448C325.744 162.2 325.296 162.936 324.688 163.656C324.08 164.376 323.224 165.152 322.12 165.984L320.92 164.544C321.88 163.856 322.616 163.248 323.128 162.72C323.64 162.192 324.024 161.624 324.28 161.016C324.536 160.392 324.736 159.6 324.88 158.64ZM318.4 153.912C318.032 153.384 317.464 152.648 316.696 151.704C315.944 150.76 315.344 150.032 314.896 149.52L316.264 148.32C316.712 148.8 317.304 149.48 318.04 150.36C318.776 151.24 319.392 152 319.888 152.64L318.4 153.912ZM325.72 167.52C327.32 167.6 328.752 167.64 330.016 167.64C331.696 167.64 333.68 167.584 335.968 167.472L335.536 169.368C334 169.432 332.296 169.464 330.424 169.464C328.456 169.464 326.784 169.424 325.408 169.344C324.24 169.28 323.264 169.144 322.48 168.936C321.696 168.728 320.984 168.416 320.344 168C319.72 167.584 319.056 167 318.352 166.248L315.376 169.464L314.08 167.976L317.416 164.688V157.92H314.248V156.168H319.216V164.544C319.808 165.28 320.392 165.848 320.968 166.248C321.544 166.648 322.2 166.944 322.936 167.136C323.672 167.328 324.6 167.456 325.72 167.52ZM345.592 158.664C345.048 158.856 344.168 159.208 342.952 159.72V166.728C342.952 167.464 342.88 168.008 342.736 168.36C342.592 168.728 342.352 168.976 342.016 169.104C341.68 169.248 341.184 169.32 340.528 169.32C340.144 169.32 339.584 169.288 338.848 169.224L338.44 167.424C339.064 167.52 339.696 167.568 340.336 167.568C340.656 167.568 340.872 167.464 340.984 167.256C341.112 167.048 341.176 166.68 341.176 166.152V160.464L338.344 161.664L337.888 159.792L341.176 158.472V154.08H338.368V152.256H341.176V147.984H342.952V152.256H345.496V154.08H342.952V157.728L345.16 156.744L345.592 158.664ZM345.88 157.248C347.928 156.624 349.728 155.912 351.28 155.112C350 154.024 348.84 152.592 347.8 150.816H346.888V149.088H358.312V150.816C357.816 151.712 357.256 152.52 356.632 153.24C356.008 153.944 355.28 154.6 354.448 155.208C355.84 155.928 357.672 156.592 359.944 157.2L359.296 158.88C356.608 158.128 354.456 157.248 352.84 156.24C351.288 157.104 349.184 157.976 346.528 158.856L345.88 157.248ZM349.696 150.816C350.656 152.224 351.696 153.352 352.816 154.2C354.256 153.256 355.392 152.128 356.224 150.816H349.696ZM358.864 161.784H353.536V164.328H359.896V166.032H353.536V169.752H351.736V166.032H345.352V164.328H351.736V161.784H346.384V160.128H351.736V157.8H353.536V160.128H358.864V161.784ZM369.568 165.336C370.416 164.376 371.008 163.552 371.344 162.864C371.68 162.16 371.904 161.28 372.016 160.224H368.68V158.352H372.112C372.128 158.064 372.136 157.592 372.136 156.936V153.648H369.424V151.824H372.136V148.008H374.008V151.824H378.232V148.008H380.08V151.824H383.224V153.648H380.08V158.352H383.776V160.224H380.08V166.344H378.232V160.224H373.888C373.776 161.632 373.52 162.776 373.12 163.656C372.72 164.52 372.056 165.472 371.128 166.512L369.568 165.336ZM366.568 154.152C366.184 153.592 365.616 152.832 364.864 151.872C364.112 150.912 363.504 150.168 363.04 149.64L364.528 148.44C365.008 148.952 365.616 149.664 366.352 150.576C367.104 151.488 367.68 152.232 368.08 152.808L366.568 154.152ZM374.008 156.768C374.008 157.504 374 158.032 373.984 158.352H378.232V153.648H374.008V156.768ZM373.384 167.328C374.632 167.408 376.136 167.448 377.896 167.448C379.832 167.448 381.912 167.384 384.136 167.256L383.656 169.104C382.024 169.216 380.264 169.272 378.376 169.272C376.504 169.272 374.736 169.216 373.072 169.104C371.872 169.024 370.88 168.88 370.096 168.672C369.328 168.48 368.632 168.168 368.008 167.736C367.384 167.288 366.744 166.664 366.088 165.864L362.92 169.344L361.864 167.544L365.2 164.04V158.088H362.224V156.192H366.976V164.016C367.536 164.816 368.096 165.448 368.656 165.912C369.232 166.36 369.888 166.696 370.624 166.92C371.36 167.128 372.28 167.264 373.384 167.328ZM397.96 151.248C398.344 154.736 399.328 157.824 400.912 160.512C402.512 163.184 404.872 165.576 407.992 167.688L406.672 169.368C404.064 167.448 401.976 165.416 400.408 163.272C398.856 161.128 397.72 158.608 397 155.712C395.608 160.72 392.352 165.288 387.232 169.416L385.768 167.784C389.112 165.288 391.584 162.68 393.184 159.96C394.784 157.224 395.76 154.408 396.112 151.512C395.952 151.272 395.704 151.104 395.368 151.008C395.048 150.896 394.608 150.84 394.048 150.84H390.64V148.824H394.792C395.816 148.824 396.576 149.008 397.072 149.376C397.584 149.744 397.88 150.368 397.96 151.248ZM423.496 151.392C423.112 152.128 422.608 152.968 421.984 153.912V169.656H420.016V156.6C417.76 159.448 414.896 162.176 411.424 164.784L410.176 163.008C412.608 161.328 414.752 159.504 416.608 157.536C418.48 155.552 420 153.504 421.168 151.392H411.016V149.4H431.056V151.392H423.496ZM423.808 155.832C424.928 156.712 426.296 157.864 427.912 159.288C429.528 160.696 430.808 161.872 431.752 162.816L430.264 164.496C429.352 163.52 428.136 162.328 426.616 160.92C425.112 159.496 423.768 158.296 422.584 157.32L423.808 155.832ZM454.288 166.464C454.288 167.248 454.208 167.856 454.048 168.288C453.904 168.72 453.648 169.024 453.28 169.2C452.928 169.392 452.424 169.496 451.768 169.512C450.792 169.528 449.816 169.48 448.84 169.368L448.48 167.568C449.264 167.696 450.152 167.76 451.144 167.76C451.624 167.76 451.944 167.632 452.104 167.376C452.28 167.104 452.368 166.632 452.368 165.96V150.984H437.32V169.56H435.424V149.184H454.288V166.464ZM438.832 153.6H450.88V155.328H438.832V153.6ZM440.248 157.872H449.44V165.528H440.248V157.872ZM442 159.528V163.872H447.688V159.528H442ZM468.952 151.176V153.12H458.272V151.176H463.144C462.792 150.2 462.408 149.24 461.992 148.296L463.744 147.696C464.256 148.944 464.68 150.104 465.016 151.176H468.952ZM475.336 163.176C476.568 165.032 478.184 166.744 480.184 168.312L478.96 170.016C477.104 168.544 475.536 166.872 474.256 165C473.104 166.712 471.536 168.4 469.552 170.064L468.256 168.456C470.352 166.856 471.992 165.12 473.176 163.248C472.056 161.152 471.248 158.768 470.752 156.096C470.24 156.976 469.912 157.52 469.768 157.728L468.616 156.192C469.352 155.04 470.024 153.712 470.632 152.208C471.24 150.704 471.672 149.264 471.928 147.888L473.824 148.152C473.488 149.544 473.12 150.784 472.72 151.872H479.896V153.792H478C477.76 155.712 477.424 157.432 476.992 158.952C476.576 160.472 476.024 161.88 475.336 163.176ZM472.024 153.792C472.424 156.672 473.16 159.176 474.232 161.304C474.728 160.248 475.128 159.112 475.432 157.896C475.736 156.664 475.984 155.296 476.176 153.792H472.024ZM467.944 160.08C466.824 158.16 465.704 156.432 464.584 154.896L465.928 153.936C467.192 155.584 468.344 157.256 469.384 158.952L467.944 160.08ZM462.976 154.896C461.632 157.344 460.312 159.272 459.016 160.68L457.744 159.528C458.896 158.248 460.112 156.408 461.392 154.008L462.976 154.896ZM466.84 168.096C466.04 167.104 465.152 166.04 464.176 164.904C462.88 166.808 461.144 168.52 458.968 170.04L457.768 168.456C458.92 167.704 459.912 166.928 460.744 166.128C461.592 165.312 462.328 164.432 462.952 163.488C461.96 162.368 460.992 161.304 460.048 160.296L461.368 159.12C462.328 160.08 463.176 160.968 463.912 161.784C464.36 160.904 464.792 159.816 465.208 158.52L466.912 159.144C466.416 160.664 465.848 162.016 465.208 163.2C466.632 164.8 467.664 166.016 468.304 166.848L466.84 168.096ZM495.928 162.312C497.016 163.32 498.2 164.216 499.48 165C500.776 165.768 502.288 166.504 504.016 167.208L503.152 169.008C501.12 168.08 499.36 167.096 497.872 166.056C496.4 165 495.104 163.792 493.984 162.432V169.752H492.088V162.504C490.952 163.864 489.592 165.12 488.008 166.272C486.424 167.408 484.712 168.352 482.872 169.104L482.056 167.256C485.144 166.136 487.824 164.488 490.096 162.312H482.704V160.608H492.088V158.544H484.768V149.088H501.28V158.544H493.984V160.608H503.344V162.312H495.928ZM492.088 153V150.768H486.64V153H492.088ZM493.984 153H499.408V150.768H493.984V153ZM486.64 154.608V156.84H492.088V154.608H486.64ZM493.984 154.608V156.84H499.408V154.608H493.984ZM513.592 161.904L511.168 159.552V169.8H509.368V160.176C508.488 161.2 507.616 162.096 506.752 162.864L505.888 161.016C508.336 158.952 510.344 156.296 511.912 153.048H506.56V151.32H509.824C509.472 150.264 509.08 149.24 508.648 148.248L510.352 147.72C510.832 148.92 511.264 150.12 511.648 151.32H513.784V153.048C513.128 154.568 512.32 156.056 511.36 157.512L514.744 160.416L513.592 161.904ZM524.464 150.552H517.288V162.48H515.44V148.776H526.312V162.432H524.464V150.552ZM528.016 164.256L527.92 165.744C527.92 166.064 527.904 166.432 527.872 166.848C527.824 167.52 527.72 168.032 527.56 168.384C527.4 168.736 527.144 168.984 526.792 169.128C526.44 169.272 525.928 169.368 525.256 169.416C524.744 169.448 524.344 169.464 524.056 169.464C523.8 169.464 523.4 169.448 522.856 169.416C522.024 169.368 521.432 169.16 521.08 168.792C520.744 168.424 520.576 167.776 520.576 166.848V162.984C520.032 164.28 519.224 165.464 518.152 166.536C517.08 167.608 515.624 168.712 513.784 169.848L512.608 168.24C514.512 167.136 515.944 166.096 516.904 165.12C517.88 164.128 518.568 163.032 518.968 161.832C519.384 160.632 519.648 159.056 519.76 157.104C519.792 156.448 519.816 155.648 519.832 154.704C519.848 153.744 519.856 152.944 519.856 152.304H521.68L521.608 157.296C521.592 158.624 521.456 159.872 521.2 161.04H522.424V166.128C522.424 166.688 522.496 167.064 522.64 167.256C522.784 167.432 523.048 167.536 523.432 167.568C523.608 167.584 523.872 167.592 524.224 167.592C524.592 167.592 524.864 167.584 525.04 167.568C525.472 167.536 525.76 167.432 525.904 167.256C526.064 167.08 526.152 166.712 526.168 166.152L526.216 163.848L528.016 164.256ZM536.728 163.632H535V157.248H530.032V155.496H531.784V149.808H533.488V155.496H535.336V147.768H537.04V150.96H539.968V152.736H537.04V155.496H540.424V157.248H536.728V163.632ZM544.624 153.12C544.832 152.384 545.048 151.528 545.272 150.552H540.592V148.824H551.824V150.552H547.192L546.52 153.12H550.864V164.376H549.04V154.896H543.208V164.376H541.432V153.12H544.624ZM546.688 163.68C549.44 165.888 551.248 167.392 552.112 168.192L550.912 169.824C550.368 169.248 549.624 168.536 548.68 167.688C547.752 166.84 546.856 166.056 545.992 165.336C545.48 166.184 544.736 166.976 543.76 167.712C542.784 168.432 541.52 169.136 539.968 169.824L538.984 168.12C540.68 167.384 541.976 166.664 542.872 165.96C543.784 165.256 544.4 164.536 544.72 163.8C545.056 163.048 545.224 162.16 545.224 161.136V156.24H547V161.208C547 162.12 546.896 162.944 546.688 163.68ZM534.016 159.696C533.76 160.416 533.376 161.28 532.864 162.288C532.352 163.296 531.824 164.224 531.28 165.072L529.84 164.184C530.32 163.48 530.8 162.648 531.28 161.688C531.76 160.728 532.168 159.808 532.504 158.928L534.016 159.696ZM540.664 160.224C540.088 161.84 539.384 163.224 538.552 164.376C537.736 165.512 536.736 166.504 535.552 167.352C534.384 168.2 532.936 169.024 531.208 169.824L530.152 168.144C531.96 167.312 533.408 166.52 534.496 165.768C535.584 165.016 536.48 164.152 537.184 163.176C537.904 162.2 538.544 160.968 539.104 159.48L540.664 160.224Z" fill="black"/>
<g clip-path="url(#clip0_238_95)">
<path d="M354.029 246.966C354.19 246.938 354.337 246.857 354.447 246.737L365.862 235.322C366.189 234.995 366.189 234.505 365.862 234.178C365.536 233.852 365.046 233.852 364.719 234.178L354.646 244.251L354.646 223.317C354.646 210.25 365.263 199.633 378.33 199.633C378.82 199.633 379.146 199.307 379.146 198.817C379.146 198.327 378.821 198 378.331 198C364.448 198 353.015 209.433 353.015 223.317L353.015 244.032L343.161 234.178C342.834 233.852 342.344 233.852 342.017 234.178C341.854 234.342 341.854 234.668 341.854 234.832L341.854 235.322L353.117 246.585C353.184 246.716 353.287 246.824 353.413 246.898C353.54 246.971 353.685 247.007 353.831 247L353.846 246.997C353.908 246.998 353.967 246.979 354.029 246.966Z" fill="#231F20"/>
</g>
<defs>
<linearGradient id="paint0_linear_238_95" x1="360" y1="0" x2="360" y2="1280" gradientUnits="userSpaceOnUse">
<stop stop-color="#D9F4FF"/>
<stop offset="1" stop-color="#F2E7FF"/>
</linearGradient>
<linearGradient id="paint1_linear_238_95" x1="134" y1="159.5" x2="587" y2="159.5" gradientUnits="userSpaceOnUse">
<stop stop-color="#85CFFC"/>
<stop offset="1" stop-color="#AAE1FF"/>
</linearGradient>
<clipPath id="clip0_238_95">
<rect width="49" height="49" fill="white" transform="translate(385 198) rotate(90)"/>
</clipPath>
</defs>
</svg>
