<svg width="720" height="1280" viewBox="0 0 720 1280" fill="none" xmlns="http://www.w3.org/2000/svg">
<rect width="720" height="1280" fill="url(#paint0_linear_132_233)"/>
<rect x="178" y="184" width="375" height="49" rx="20" fill="url(#paint1_linear_132_233)"/>
<path d="M211.88 207.64C211.912 207.448 211.928 207.304 211.928 207.208H207.872V205.504H214.184V202H210.776C210.44 202.912 210.08 203.728 209.696 204.448L207.896 203.704C208.408 202.792 208.832 201.872 209.168 200.944C209.52 200 209.84 198.928 210.128 197.728L211.928 198.088C211.688 199.016 211.488 199.76 211.328 200.32H214.184V196.816H216.008V200.32H221.384V202H216.008V205.504H222.344V207.208H217.736V211.936C217.736 212.384 217.792 212.696 217.904 212.872C218.032 213.048 218.256 213.152 218.576 213.184C218.736 213.2 218.968 213.208 219.272 213.208C219.576 213.208 219.8 213.2 219.944 213.184C220.328 213.152 220.584 213.056 220.712 212.896C220.84 212.72 220.912 212.376 220.928 211.864C220.976 210.712 221 210.056 221 209.896L222.68 210.28L222.632 211.984L222.608 212.536C222.592 213.16 222.504 213.624 222.344 213.928C222.184 214.232 221.944 214.448 221.624 214.576C221.304 214.688 220.832 214.776 220.208 214.84C219.728 214.872 219.36 214.888 219.104 214.888C218.864 214.888 218.488 214.872 217.976 214.84C217.256 214.776 216.736 214.576 216.416 214.24C216.112 213.888 215.96 213.256 215.96 212.344V207.208H213.752C213.752 207.32 213.736 207.472 213.704 207.664C213.56 208.752 213.336 209.68 213.032 210.448C212.744 211.2 212.296 211.936 211.688 212.656C211.08 213.376 210.224 214.152 209.12 214.984L207.92 213.544C208.88 212.856 209.616 212.248 210.128 211.72C210.64 211.192 211.024 210.624 211.28 210.016C211.536 209.392 211.736 208.6 211.88 207.64ZM205.4 202.912C205.032 202.384 204.464 201.648 203.696 200.704C202.944 199.76 202.344 199.032 201.896 198.52L203.264 197.32C203.712 197.8 204.304 198.48 205.04 199.36C205.776 200.24 206.392 201 206.888 201.64L205.4 202.912ZM212.72 216.52C214.32 216.6 215.752 216.64 217.016 216.64C218.696 216.64 220.68 216.584 222.968 216.472L222.536 218.368C221 218.432 219.296 218.464 217.424 218.464C215.456 218.464 213.784 218.424 212.408 218.344C211.24 218.28 210.264 218.144 209.48 217.936C208.696 217.728 207.984 217.416 207.344 217C206.72 216.584 206.056 216 205.352 215.248L202.376 218.464L201.08 216.976L204.416 213.688V206.92H201.248V205.168H206.216V213.544C206.808 214.28 207.392 214.848 207.968 215.248C208.544 215.648 209.2 215.944 209.936 216.136C210.672 216.328 211.6 216.456 212.72 216.52ZM232.592 207.664C232.048 207.856 231.168 208.208 229.952 208.72V215.728C229.952 216.464 229.88 217.008 229.736 217.36C229.592 217.728 229.352 217.976 229.016 218.104C228.68 218.248 228.184 218.32 227.528 218.32C227.144 218.32 226.584 218.288 225.848 218.224L225.44 216.424C226.064 216.52 226.696 216.568 227.336 216.568C227.656 216.568 227.872 216.464 227.984 216.256C228.112 216.048 228.176 215.68 228.176 215.152V209.464L225.344 210.664L224.888 208.792L228.176 207.472V203.08H225.368V201.256H228.176V196.984H229.952V201.256H232.496V203.08H229.952V206.728L232.16 205.744L232.592 207.664ZM232.88 206.248C234.928 205.624 236.728 204.912 238.28 204.112C237 203.024 235.84 201.592 234.8 199.816H233.888V198.088H245.312V199.816C244.816 200.712 244.256 201.52 243.632 202.24C243.008 202.944 242.28 203.6 241.448 204.208C242.84 204.928 244.672 205.592 246.944 206.2L246.296 207.88C243.608 207.128 241.456 206.248 239.84 205.24C238.288 206.104 236.184 206.976 233.528 207.856L232.88 206.248ZM236.696 199.816C237.656 201.224 238.696 202.352 239.816 203.2C241.256 202.256 242.392 201.128 243.224 199.816H236.696ZM245.864 210.784H240.536V213.328H246.896V215.032H240.536V218.752H238.736V215.032H232.352V213.328H238.736V210.784H233.384V209.128H238.736V206.8H240.536V209.128H245.864V210.784ZM262.496 200.392C262.112 201.128 261.608 201.968 260.984 202.912V218.656H259.016V205.6C256.76 208.448 253.896 211.176 250.424 213.784L249.176 212.008C251.608 210.328 253.752 208.504 255.608 206.536C257.48 204.552 259 202.504 260.168 200.392H250.016V198.4H270.056V200.392H262.496ZM262.808 204.832C263.928 205.712 265.296 206.864 266.912 208.288C268.528 209.696 269.808 210.872 270.752 211.816L269.264 213.496C268.352 212.52 267.136 211.328 265.616 209.92C264.112 208.496 262.768 207.296 261.584 206.32L262.808 204.832ZM293.288 215.464C293.288 216.248 293.208 216.856 293.048 217.288C292.904 217.72 292.648 218.024 292.28 218.2C291.928 218.392 291.424 218.496 290.768 218.512C289.792 218.528 288.816 218.48 287.84 218.368L287.48 216.568C288.264 216.696 289.152 216.76 290.144 216.76C290.624 216.76 290.944 216.632 291.104 216.376C291.28 216.104 291.368 215.632 291.368 214.96V199.984H276.32V218.56H274.424V198.184H293.288V215.464ZM277.832 202.6H289.88V204.328H277.832V202.6ZM279.248 206.872H288.44V214.528H279.248V206.872ZM281 208.528V212.872H286.688V208.528H281ZM307.952 200.176V202.12H297.272V200.176H302.144C301.792 199.2 301.408 198.24 300.992 197.296L302.744 196.696C303.256 197.944 303.68 199.104 304.016 200.176H307.952ZM314.336 212.176C315.568 214.032 317.184 215.744 319.184 217.312L317.96 219.016C316.104 217.544 314.536 215.872 313.256 214C312.104 215.712 310.536 217.4 308.552 219.064L307.256 217.456C309.352 215.856 310.992 214.12 312.176 212.248C311.056 210.152 310.248 207.768 309.752 205.096C309.24 205.976 308.912 206.52 308.768 206.728L307.616 205.192C308.352 204.04 309.024 202.712 309.632 201.208C310.24 199.704 310.672 198.264 310.928 196.888L312.824 197.152C312.488 198.544 312.12 199.784 311.72 200.872H318.896V202.792H317C316.76 204.712 316.424 206.432 315.992 207.952C315.576 209.472 315.024 210.88 314.336 212.176ZM311.024 202.792C311.424 205.672 312.16 208.176 313.232 210.304C313.728 209.248 314.128 208.112 314.432 206.896C314.736 205.664 314.984 204.296 315.176 202.792H311.024ZM306.944 209.08C305.824 207.16 304.704 205.432 303.584 203.896L304.928 202.936C306.192 204.584 307.344 206.256 308.384 207.952L306.944 209.08ZM301.976 203.896C300.632 206.344 299.312 208.272 298.016 209.68L296.744 208.528C297.896 207.248 299.112 205.408 300.392 203.008L301.976 203.896ZM305.84 217.096C305.04 216.104 304.152 215.04 303.176 213.904C301.88 215.808 300.144 217.52 297.968 219.04L296.768 217.456C297.92 216.704 298.912 215.928 299.744 215.128C300.592 214.312 301.328 213.432 301.952 212.488C300.96 211.368 299.992 210.304 299.048 209.296L300.368 208.12C301.328 209.08 302.176 209.968 302.912 210.784C303.36 209.904 303.792 208.816 304.208 207.52L305.912 208.144C305.416 209.664 304.848 211.016 304.208 212.2C305.632 213.8 306.664 215.016 307.304 215.848L305.84 217.096ZM334.928 211.312C336.016 212.32 337.2 213.216 338.48 214C339.776 214.768 341.288 215.504 343.016 216.208L342.152 218.008C340.12 217.08 338.36 216.096 336.872 215.056C335.4 214 334.104 212.792 332.984 211.432V218.752H331.088V211.504C329.952 212.864 328.592 214.12 327.008 215.272C325.424 216.408 323.712 217.352 321.872 218.104L321.056 216.256C324.144 215.136 326.824 213.488 329.096 211.312H321.704V209.608H331.088V207.544H323.768V198.088H340.28V207.544H332.984V209.608H342.344V211.312H334.928ZM331.088 202V199.768H325.64V202H331.088ZM332.984 202H338.408V199.768H332.984V202ZM325.64 203.608V205.84H331.088V203.608H325.64ZM332.984 203.608V205.84H338.408V203.608H332.984ZM357.656 202.096H355.928V200.776H352.76V199.096H355.928V196.84H357.656V199.096H361.424V196.84H363.152V199.096H366.68V200.776H363.152V202.096H361.424V200.776H357.656V202.096ZM351.944 209.68C351.672 209.28 351.28 208.688 350.768 207.904L350.096 206.872V218.752H348.344V207.088C347.48 209.568 346.6 211.52 345.704 212.944L344.528 211.288C345.248 210.184 345.936 208.904 346.592 207.448C347.264 205.992 347.808 204.56 348.224 203.152H345.272V201.424H348.344V196.888H350.096V201.424H352.688V203.152H350.096V204.472C351.472 206.104 352.416 207.264 352.928 207.952L351.944 209.68ZM360.968 213.52C361.544 214.384 362.296 215.112 363.224 215.704C364.168 216.28 365.416 216.76 366.968 217.144L366.32 218.848C363.312 218.048 361.08 216.6 359.624 214.504C358.52 216.312 356.2 217.76 352.664 218.848L351.944 217.12C353.544 216.704 354.848 216.2 355.856 215.608C356.88 215.016 357.616 214.32 358.064 213.52H352.376V211.864H358.568L358.592 211.576C358.608 211.352 358.616 210.92 358.616 210.28H353.984V202.792H365.384V210.28H360.488L360.44 211.576V211.864H366.68V213.52H360.968ZM363.752 205.84V204.256H355.664V205.84H363.752ZM363.752 207.16H355.664V208.816H363.752V207.16ZM376.472 209.608L374.528 207.88L374.12 207.496V218.776H372.32V207.544C371.52 209.72 370.656 211.496 369.728 212.872L368.456 211.336C369.16 210.264 369.856 208.984 370.544 207.496C371.248 205.992 371.8 204.56 372.2 203.2H369.344V201.376H372.32V196.864H374.12V201.376H376.88V203.2H374.12V205.336C374.28 205.48 374.568 205.712 374.984 206.032C376.264 207.056 377.088 207.744 377.456 208.096L376.472 209.608ZM386.048 213.472C387.344 214.896 389.056 216.192 391.184 217.36L390.152 219.184C388.024 217.92 386.248 216.504 384.824 214.936C383.496 216.36 381.72 217.736 379.496 219.064L378.368 217.312C380.576 216.048 382.312 214.752 383.576 213.424C382.008 211.28 380.864 208.688 380.144 205.648H379.856C379.84 208.672 379.576 211.192 379.064 213.208C378.552 215.208 377.696 217.136 376.496 218.992L374.816 217.744C375.6 216.56 376.216 215.4 376.664 214.264C377.128 213.112 377.464 211.816 377.672 210.376C377.896 208.92 378.008 207.168 378.008 205.12V199.048C381.72 198.808 385.616 198.304 389.696 197.536L390.104 199.408C388.472 199.712 386.744 199.992 384.92 200.248C383.112 200.504 381.424 200.696 379.856 200.824V203.8H389.504V205.648C389.12 207.248 388.648 208.688 388.088 209.968C387.528 211.248 386.848 212.416 386.048 213.472ZM381.992 205.648C382.712 208.192 383.656 210.296 384.824 211.96C385.48 211.064 386.024 210.104 386.456 209.08C386.888 208.056 387.248 206.912 387.536 205.648H381.992ZM405.512 216.016H414.776V217.96H393.728V216.016H403.424V210.184H395.864V208.24H403.424V203.512H397.808C397.104 205.048 396.248 206.576 395.24 208.096L393.344 207.064C394.368 205.624 395.224 204.16 395.912 202.672C396.616 201.184 397.2 199.544 397.664 197.752L399.728 198.208C399.424 199.312 399.064 200.416 398.648 201.52H403.424V196.936H405.512V201.52H413.864V203.512H405.512V208.24H413.048V210.184H405.512V216.016ZM439.088 212.344C438.864 213.56 438.648 214.6 438.44 215.464C438.184 216.584 437.824 217.36 437.36 217.792C436.896 218.24 436.336 218.464 435.68 218.464C435.088 218.464 434.552 218.256 434.072 217.84C433.592 217.44 433.024 216.736 432.368 215.728C432.048 215.184 431.768 214.656 431.528 214.144C430.12 215.68 428.432 217.16 426.464 218.584L425.192 217.12C427.432 215.52 429.304 213.88 430.808 212.2C430.04 209.752 429.448 206.512 429.032 202.48H421.112V205.864H427.256C427.24 207.016 427.192 208.08 427.112 209.056C427.048 210.016 426.952 211.184 426.824 212.56C426.712 213.696 426.424 214.504 425.96 214.984C425.496 215.448 424.696 215.68 423.56 215.68C423.176 215.68 422.616 215.648 421.88 215.584L421.472 213.664C422.192 213.744 422.824 213.784 423.368 213.784C423.944 213.784 424.328 213.664 424.52 213.424C424.728 213.168 424.88 212.696 424.976 212.008C425.088 211.08 425.16 210.328 425.192 209.752C425.24 209.176 425.264 208.504 425.264 207.736H421.112C421.08 210.248 420.872 212.304 420.488 213.904C420.104 215.488 419.424 217.12 418.448 218.8L416.576 217.912C417.296 216.776 417.84 215.728 418.208 214.768C418.576 213.792 418.84 212.704 419 211.504C419.16 210.288 419.24 208.744 419.24 206.872V200.584H428.864L428.576 196.768H430.472C430.568 198.256 430.664 199.528 430.76 200.584H435.032C434.088 199.56 433.152 198.624 432.224 197.776L433.496 196.528C434.312 197.28 435.296 198.248 436.448 199.432L435.176 200.584H438.44V202.48H430.928C431.248 205.776 431.68 208.424 432.224 210.424C433.6 208.536 434.688 206.392 435.488 203.992L437.192 204.712C436.184 207.608 434.752 210.224 432.896 212.56C433.248 213.52 433.656 214.36 434.12 215.08C434.456 215.576 434.744 215.92 434.984 216.112C435.24 216.288 435.48 216.368 435.704 216.352C435.96 216.368 436.184 216.256 436.376 216.016C436.568 215.76 436.736 215.28 436.88 214.576C437.024 213.952 437.2 213.016 437.408 211.768L439.088 212.344ZM461.624 198.304C460.632 199.456 459.536 200.568 458.336 201.64C457.136 202.696 455.92 203.632 454.688 204.448L453.68 202.864C456.208 201.232 458.392 199.344 460.232 197.2L461.624 198.304ZM453.584 199.288C451.904 199.576 449.944 199.848 447.704 200.104C445.464 200.36 443.52 200.528 441.872 200.608L441.656 198.76C443.4 198.712 445.368 198.568 447.56 198.328C449.752 198.088 451.664 197.808 453.296 197.488L453.584 199.288ZM449.576 205.408C449.976 204.688 450.4 203.864 450.848 202.936C451.312 202.008 451.688 201.192 451.976 200.488L453.512 201.136C452.632 203.088 451.832 204.744 451.112 206.104L449.576 205.408ZM447.536 204.88L447.032 203.608C446.52 202.312 446.184 201.504 446.024 201.184L447.536 200.536C447.664 200.792 448.024 201.616 448.616 203.008C448.808 203.488 448.968 203.872 449.096 204.16L447.536 204.88ZM443.72 205.72C443.016 204.088 442.408 202.784 441.896 201.808L443.384 200.992C443.672 201.52 444.096 202.408 444.656 203.656L445.232 204.904L443.72 205.72ZM454.136 208.864C455.512 208.112 456.728 207.304 457.784 206.44C458.856 205.56 459.896 204.512 460.904 203.296L462.272 204.376C461.296 205.624 460.232 206.744 459.08 207.736C457.944 208.728 456.648 209.664 455.192 210.544L454.136 208.864ZM452.528 215.392C451.184 214.32 449.864 213.312 448.568 212.368V218.824H446.792V211.192C445.416 213.432 443.776 215.44 441.872 217.216L440.96 215.536C442.016 214.576 442.936 213.616 443.72 212.656C444.504 211.696 445.24 210.632 445.928 209.464H441.56V207.736H446.792V205.576H448.568V207.736H453.584V209.464H448.568V210.424C450.04 211.352 451.704 212.48 453.56 213.808L452.528 215.392ZM463.04 210.856C461.808 212.392 460.304 213.872 458.528 215.296C456.768 216.704 454.96 217.904 453.104 218.896L452.192 217.192C453.968 216.312 455.664 215.24 457.28 213.976C458.912 212.712 460.36 211.32 461.624 209.8L463.04 210.856ZM468.2 201.592C467.544 202.856 466.792 204.096 465.944 205.312L464.648 204.04C465.432 202.92 466.152 201.712 466.808 200.416C467.48 199.104 468.024 197.824 468.44 196.576L470.216 197.056C469.944 197.872 469.568 198.792 469.088 199.816H473.744V201.592H468.2ZM480.704 196.768C481.424 198.496 482.28 200 483.272 201.28C484.28 202.56 485.544 203.752 487.064 204.856L485.984 206.32C483.28 204.352 481.224 201.872 479.816 198.88C479.192 200.224 478.44 201.464 477.56 202.6C476.68 203.736 475.568 204.896 474.224 206.08L473 204.76C474.392 203.576 475.56 202.344 476.504 201.064C477.448 199.768 478.256 198.336 478.928 196.768H480.704ZM479.144 202.936C479.48 203.352 479.896 203.912 480.392 204.616C480.904 205.304 481.336 205.912 481.688 206.44L480.32 207.544C480.016 207.032 479.608 206.408 479.096 205.672C478.584 204.936 478.16 204.36 477.824 203.944L479.144 202.936ZM470.336 215.152L473.48 213.256L474.176 214.96L473.072 215.584C471.424 216.528 470.464 217.08 470.192 217.24C469.456 217.704 468.976 218.024 468.752 218.2L467.576 216.64C467.928 216.448 468.168 216.272 468.296 216.112C468.44 215.936 468.512 215.704 468.512 215.416V210.544H465.536V208.768H468.512V205.936H466.808V204.16H472.784V205.936H470.336V208.768H473.552V210.544H470.336V215.152ZM474.584 209.848V208.048H485.144V209.92C483.944 211.472 482.56 213.184 480.992 215.056C482.272 216.016 483.168 216.704 483.68 217.12L482.648 218.872C481.272 217.736 480.024 216.744 478.904 215.896C477.784 215.032 476.504 214.104 475.064 213.112L476.072 211.576C476.984 212.168 478.144 212.976 479.552 214C481.104 212.144 482.216 210.76 482.888 209.848H474.584ZM496.592 210.904L494.168 208.552V218.8H492.368V209.176C491.488 210.2 490.616 211.096 489.752 211.864L488.888 210.016C491.336 207.952 493.344 205.296 494.912 202.048H489.56V200.32H492.824C492.472 199.264 492.08 198.24 491.648 197.248L493.352 196.72C493.832 197.92 494.264 199.12 494.648 200.32H496.784V202.048C496.128 203.568 495.32 205.056 494.36 206.512L497.744 209.416L496.592 210.904ZM507.464 199.552H500.288V211.48H498.44V197.776H509.312V211.432H507.464V199.552ZM511.016 213.256L510.92 214.744C510.92 215.064 510.904 215.432 510.872 215.848C510.824 216.52 510.72 217.032 510.56 217.384C510.4 217.736 510.144 217.984 509.792 218.128C509.44 218.272 508.928 218.368 508.256 218.416C507.744 218.448 507.344 218.464 507.056 218.464C506.8 218.464 506.4 218.448 505.856 218.416C505.024 218.368 504.432 218.16 504.08 217.792C503.744 217.424 503.576 216.776 503.576 215.848V211.984C503.032 213.28 502.224 214.464 501.152 215.536C500.08 216.608 498.624 217.712 496.784 218.848L495.608 217.24C497.512 216.136 498.944 215.096 499.904 214.12C500.88 213.128 501.568 212.032 501.968 210.832C502.384 209.632 502.648 208.056 502.76 206.104C502.792 205.448 502.816 204.648 502.832 203.704C502.848 202.744 502.856 201.944 502.856 201.304H504.68L504.608 206.296C504.592 207.624 504.456 208.872 504.2 210.04H505.424V215.128C505.424 215.688 505.496 216.064 505.64 216.256C505.784 216.432 506.048 216.536 506.432 216.568C506.608 216.584 506.872 216.592 507.224 216.592C507.592 216.592 507.864 216.584 508.04 216.568C508.472 216.536 508.76 216.432 508.904 216.256C509.064 216.08 509.152 215.712 509.168 215.152L509.216 212.848L511.016 213.256ZM519.728 212.632H518V206.248H513.032V204.496H514.784V198.808H516.488V204.496H518.336V196.768H520.04V199.96H522.968V201.736H520.04V204.496H523.424V206.248H519.728V212.632ZM527.624 202.12C527.832 201.384 528.048 200.528 528.272 199.552H523.592V197.824H534.824V199.552H530.192L529.52 202.12H533.864V213.376H532.04V203.896H526.208V213.376H524.432V202.12H527.624ZM529.688 212.68C532.44 214.888 534.248 216.392 535.112 217.192L533.912 218.824C533.368 218.248 532.624 217.536 531.68 216.688C530.752 215.84 529.856 215.056 528.992 214.336C528.48 215.184 527.736 215.976 526.76 216.712C525.784 217.432 524.52 218.136 522.968 218.824L521.984 217.12C523.68 216.384 524.976 215.664 525.872 214.96C526.784 214.256 527.4 213.536 527.72 212.8C528.056 212.048 528.224 211.16 528.224 210.136V205.24H530V210.208C530 211.12 529.896 211.944 529.688 212.68ZM517.016 208.696C516.76 209.416 516.376 210.28 515.864 211.288C515.352 212.296 514.824 213.224 514.28 214.072L512.84 213.184C513.32 212.48 513.8 211.648 514.28 210.688C514.76 209.728 515.168 208.808 515.504 207.928L517.016 208.696ZM523.664 209.224C523.088 210.84 522.384 212.224 521.552 213.376C520.736 214.512 519.736 215.504 518.552 216.352C517.384 217.2 515.936 218.024 514.208 218.824L513.152 217.144C514.96 216.312 516.408 215.52 517.496 214.768C518.584 214.016 519.48 213.152 520.184 212.176C520.904 211.2 521.544 209.968 522.104 208.48L523.664 209.224Z" fill="black"/>
<g clip-path="url(#clip0_132_233)">
<path d="M361.029 295.966C361.19 295.938 361.337 295.857 361.447 295.737L372.862 284.322C373.189 283.995 373.189 283.505 372.862 283.178C372.536 282.852 372.046 282.852 371.719 283.178L361.646 293.251L361.646 272.317C361.646 259.25 372.263 248.633 385.33 248.633C385.82 248.633 386.146 248.307 386.146 247.817C386.146 247.327 385.821 247 385.331 247C371.448 247 360.015 258.433 360.015 272.317L360.015 293.032L350.161 283.178C349.834 282.852 349.344 282.852 349.017 283.178C348.854 283.342 348.854 283.668 348.854 283.832L348.854 284.322L360.117 295.585C360.184 295.716 360.287 295.824 360.413 295.898C360.54 295.971 360.685 296.007 360.831 296L360.846 295.997C360.908 295.998 360.967 295.979 361.029 295.966Z" fill="#231F20"/>
</g>
<defs>
<linearGradient id="paint0_linear_132_233" x1="360" y1="0" x2="360" y2="1280" gradientUnits="userSpaceOnUse">
<stop stop-color="#D9F4FF"/>
<stop offset="1" stop-color="#F2E7FF"/>
</linearGradient>
<linearGradient id="paint1_linear_132_233" x1="178" y1="208.5" x2="553" y2="208.5" gradientUnits="userSpaceOnUse">
<stop stop-color="#85CFFC"/>
<stop offset="1" stop-color="#AAE1FF"/>
</linearGradient>
<clipPath id="clip0_132_233">
<rect width="49" height="49" fill="white" transform="translate(392 247) rotate(90)"/>
</clipPath>
</defs>
</svg>
