<svg width="124" height="49" viewBox="0 0 124 49" fill="none" xmlns="http://www.w3.org/2000/svg">
<path d="M23.0731 41C15.6933 35.4953 7 23.7536 7 23.7536C7 23.7536 15.6286 11.6612 23.0731 6H101.932C109.001 11.7197 117 23.7536 117 23.7536C117 23.7536 108.936 35.4384 101.932 41H23.0731Z" fill="#5187AB" stroke="white" stroke-opacity="0.2"/>
<g filter="url(#filter0_f_358_188)">
<path d="M23.0731 42C15.6933 36.4953 7 24.7536 7 24.7536C7 24.7536 15.6286 12.6612 23.0731 7H101.932C109.001 12.7197 117 24.7536 117 24.7536C117 24.7536 108.936 36.4384 101.932 42H23.0731Z" stroke="white" stroke-opacity="0.5" stroke-width="2"/>
</g>
<path d="M51.88 19.032C51.464 18.408 50.872 17.632 50.104 16.704C49.336 15.76 48.72 15.064 48.256 14.616L49.672 13.392C50.136 13.888 50.752 14.592 51.52 15.504C52.288 16.4 52.896 17.144 53.344 17.736L51.88 19.032ZM53.344 28.92C53.968 27.976 54.424 27.12 54.712 26.352C55.016 25.568 55.216 24.688 55.312 23.712C55.424 22.72 55.48 21.368 55.48 19.656V14.616C57.528 14.552 59.616 14.416 61.744 14.208C63.872 14 65.824 13.736 67.6 13.416L67.936 15.36C64.736 15.936 61.2 16.312 57.328 16.488V19.128H67.336V20.976C66.6 23.04 65.488 24.872 64 26.472C65.856 27.944 67.12 28.96 67.792 29.52L66.568 31.032C65.64 30.216 64.336 29.12 62.656 27.744C61.264 28.928 59.536 30.016 57.472 31.008L56.392 29.304C58.232 28.456 59.8 27.512 61.096 26.472L57.832 23.88L58.984 22.536L62.464 25.248C63.664 24.048 64.6 22.624 65.272 20.976H57.328C57.312 22.448 57.232 23.68 57.088 24.672C56.944 25.664 56.704 26.584 56.368 27.432C56.032 28.28 55.544 29.2 54.904 30.192L53.344 28.92ZM58.768 32.184C60.4 32.28 62.04 32.328 63.688 32.328C65.448 32.328 67.2 32.28 68.944 32.184L68.536 34.08C66.648 34.16 64.952 34.2 63.448 34.2C61.8 34.2 60.144 34.152 58.48 34.056C57.312 33.992 56.328 33.848 55.528 33.624C54.744 33.416 54.032 33.096 53.392 32.664C52.768 32.232 52.104 31.64 51.4 30.888L48.376 34.224L47.176 32.544L50.368 29.16V22.8H47.224V20.976H52.24V29.016C52.848 29.768 53.44 30.36 54.016 30.792C54.608 31.224 55.272 31.552 56.008 31.776C56.76 31.984 57.68 32.12 58.768 32.184ZM72.352 34.536V14.016H91.312V34.536H89.368V33.024H74.344V34.536H72.352ZM74.344 16.008V31.128H89.368V16.008H74.344ZM77.368 27.936V19.176H86.296V27.936H77.368ZM79.096 26.184H84.568V20.928H79.096V26.184Z" fill="white"/>
<path d="M36 30L30 24L36 18" stroke="white" stroke-width="2.5" stroke-linecap="round" stroke-linejoin="round"/>
<defs>
<filter id="filter0_f_358_188" x="0.463794" y="0.7" width="123.044" height="47.6" filterUnits="userSpaceOnUse" color-interpolation-filters="sRGB">
<feFlood flood-opacity="0" result="BackgroundImageFix"/>
<feBlend mode="normal" in="SourceGraphic" in2="BackgroundImageFix" result="shape"/>
<feGaussianBlur stdDeviation="2.65" result="effect1_foregroundBlur_358_188"/>
</filter>
</defs>
</svg>
