<svg width="108" height="48" viewBox="0 0 108 48" fill="none" xmlns="http://www.w3.org/2000/svg">
<g filter="url(#filter0_d_241_136)">
<rect x="4" width="100" height="40" rx="20" fill="#FECD3C" shape-rendering="crispEdges"/>
<path d="M60.912 14.608C60.416 16.848 59.84 18.704 59.184 20.176C58.544 21.632 57.696 22.888 56.64 23.944C59.248 25.288 61.752 26.632 64.152 27.976L62.952 29.872C60.472 28.4 57.792 26.896 54.912 25.36C53.744 26.192 52.288 26.96 50.544 27.664C48.8 28.352 46.624 29.072 44.016 29.824L43.08 27.832C45.304 27.256 47.192 26.68 48.744 26.104C50.312 25.528 51.648 24.904 52.752 24.232C50.064 22.84 47.984 21.816 46.512 21.16C47.568 19.016 48.488 16.832 49.272 14.608H43.176V12.616H49.944C50.472 11.016 50.936 9.344 51.336 7.6L53.448 8.008C53.128 9.32 52.696 10.856 52.152 12.616H64.992V14.608H60.912ZM49.224 20.248C50.712 20.92 52.504 21.8 54.6 22.888C55.672 21.944 56.528 20.824 57.168 19.528C57.824 18.216 58.384 16.576 58.848 14.608H51.48C50.696 16.848 49.944 18.728 49.224 20.248Z" fill="black"/>
</g>
<defs>
<filter id="filter0_d_241_136" x="0" y="0" width="108" height="48" filterUnits="userSpaceOnUse" color-interpolation-filters="sRGB">
<feFlood flood-opacity="0" result="BackgroundImageFix"/>
<feColorMatrix in="SourceAlpha" type="matrix" values="0 0 0 0 0 0 0 0 0 0 0 0 0 0 0 0 0 0 127 0" result="hardAlpha"/>
<feOffset dy="4"/>
<feGaussianBlur stdDeviation="2"/>
<feComposite in2="hardAlpha" operator="out"/>
<feColorMatrix type="matrix" values="0 0 0 0 0 0 0 0 0 0 0 0 0 0 0 0 0 0 0.25 0"/>
<feBlend mode="normal" in2="BackgroundImageFix" result="effect1_dropShadow_241_136"/>
<feBlend mode="normal" in="SourceGraphic" in2="effect1_dropShadow_241_136" result="shape"/>
</filter>
</defs>
</svg>
