<svg width="153" height="49" viewBox="0 0 153 49" fill="none" xmlns="http://www.w3.org/2000/svg">
<path d="M27.3105 42C17.9852 36.4953 7 24.7536 7 24.7536C7 24.7536 17.9034 12.6612 27.3105 7H126.959C135.893 12.7197 146 24.7536 146 24.7536C146 24.7536 135.81 36.4384 126.959 42H27.3105Z" fill="black" fill-opacity="0.5" stroke="white" stroke-opacity="0.2"/>
<g filter="url(#filter0_f_475_7032)">
<path d="M27.3105 42C17.9852 36.4953 7 24.7536 7 24.7536C7 24.7536 17.9034 12.6612 27.3105 7H126.959C135.893 12.7197 146 24.7536 146 24.7536C146 24.7536 135.81 36.4384 126.959 42H27.3105Z" stroke="white" stroke-opacity="0.5" stroke-width="2"/>
</g>
<path d="M36.8 15.744C35.632 17.424 34.184 19.048 32.456 20.616H41.072C41.088 21.784 41.032 23.504 40.904 25.776C40.856 26.624 40.736 27.256 40.544 27.672C40.352 28.088 40.024 28.384 39.56 28.56C39.112 28.72 38.44 28.8 37.544 28.8C37.032 28.8 36.512 28.776 35.984 28.728L35.672 27.072C36.296 27.168 36.928 27.216 37.568 27.216C38.048 27.216 38.384 27.184 38.576 27.12C38.784 27.04 38.928 26.888 39.008 26.664C39.088 26.44 39.152 26.056 39.2 25.512C39.296 24.36 39.344 23.32 39.344 22.392H34.184V30.312C34.184 30.872 34.224 31.272 34.304 31.512C34.384 31.752 34.536 31.92 34.76 32.016C35 32.112 35.392 32.176 35.936 32.208C36.64 32.24 37.16 32.256 37.496 32.256C37.832 32.256 38.352 32.24 39.056 32.208C39.584 32.176 39.968 32.12 40.208 32.04C40.448 31.944 40.608 31.792 40.688 31.584C40.784 31.376 40.848 31.04 40.88 30.576C40.928 29.808 40.952 29.192 40.952 28.728L42.752 29.112C42.752 29.448 42.736 29.84 42.704 30.288C42.688 30.72 42.656 31.12 42.608 31.488C42.544 32.16 42.408 32.664 42.2 33C42.008 33.336 41.696 33.576 41.264 33.72C40.832 33.864 40.176 33.96 39.296 34.008C38.864 34.04 38.216 34.056 37.352 34.056C36.488 34.056 35.832 34.04 35.384 34.008C34.6 33.96 33.992 33.84 33.56 33.648C33.128 33.472 32.816 33.168 32.624 32.736C32.432 32.288 32.336 31.656 32.336 30.84V20.712C31.808 21.176 31.32 21.584 30.872 21.936L29.72 20.496C31.112 19.376 32.416 18.096 33.632 16.656C34.864 15.2 35.832 13.8 36.536 12.456L38.288 13.296C38.064 13.712 37.888 14.024 37.76 14.232C38.576 14.888 39.552 15.72 40.688 16.728C41.84 17.72 42.8 18.592 43.568 19.344L42.272 20.832C41.52 20.096 40.608 19.232 39.536 18.24C38.464 17.232 37.552 16.4 36.8 15.744ZM48.824 13.104H50.648V31.584C50.648 32.336 50.552 32.904 50.36 33.288C50.168 33.688 49.832 33.968 49.352 34.128C48.872 34.288 48.16 34.368 47.216 34.368C46.528 34.368 45.768 34.328 44.936 34.248L44.504 32.256C45.576 32.4 46.464 32.472 47.168 32.472C47.84 32.472 48.28 32.36 48.488 32.136C48.712 31.912 48.824 31.456 48.824 30.768V13.104ZM44.624 14.952H46.448V28.848H44.624V14.952ZM75.488 18.312H68V22.08H74.312V24.024H68V27.792H74.816V29.76H68V34.824H66.104V18.312H64.76C63.704 20.328 62.512 22.168 61.184 23.832L59.864 22.2C60.92 20.936 61.88 19.504 62.744 17.904C63.624 16.288 64.368 14.584 64.976 12.792L66.848 13.344C66.464 14.464 66.072 15.472 65.672 16.368H75.488V18.312ZM60.992 13.728C60.384 15.536 59.728 17.184 59.024 18.672V34.68H57.08V22.2C56.408 23.272 55.608 24.384 54.68 25.536L53.744 23.472C54.736 22.224 55.704 20.688 56.648 18.864C57.592 17.04 58.392 15.128 59.048 13.128L60.992 13.728ZM81.032 13.272C81.624 13.848 82.296 14.552 83.048 15.384C83.816 16.2 84.424 16.904 84.872 17.496L83.456 18.792C82.992 18.168 82.368 17.424 81.584 16.56C80.8 15.68 80.152 15 79.64 14.52L81.032 13.272ZM86.72 14.352H98.12V23.472H89.432V30.168C89.432 30.76 89.488 31.192 89.6 31.464C89.712 31.72 89.904 31.896 90.176 31.992C90.464 32.088 90.92 32.16 91.544 32.208C92.2 32.256 92.848 32.28 93.488 32.28C94.144 32.28 94.784 32.256 95.408 32.208C96.048 32.16 96.504 32.088 96.776 31.992C97.048 31.896 97.232 31.736 97.328 31.512C97.424 31.272 97.496 30.864 97.544 30.288C97.576 29.872 97.6 29.376 97.616 28.8C97.648 28.224 97.664 27.728 97.664 27.312L99.632 27.744C99.6 28.816 99.544 29.896 99.464 30.984C99.4 31.864 99.28 32.504 99.104 32.904C98.928 33.304 98.624 33.592 98.192 33.768C97.776 33.944 97.104 34.072 96.176 34.152C95.392 34.216 94.496 34.248 93.488 34.248C92.512 34.248 91.616 34.216 90.8 34.152C89.872 34.088 89.184 33.96 88.736 33.768C88.288 33.576 87.968 33.256 87.776 32.808C87.584 32.36 87.488 31.68 87.488 30.768V21.504H96.176V16.248H86.72V14.352ZM78.176 20.4H83.216V30.576C84.864 29.328 85.824 28.576 86.096 28.32L86.648 30.336C86.536 30.4 86.336 30.552 86.048 30.792C84.176 32.168 83.112 32.968 82.856 33.192C82.536 33.416 82.192 33.736 81.824 34.152L80.648 32.616C80.952 32.328 81.144 32.096 81.224 31.92C81.304 31.744 81.344 31.496 81.344 31.176V22.152H78.176V20.4ZM117.272 28.536C118.92 29.88 121.104 31.064 123.824 32.088L122.84 33.936C120.568 32.896 118.744 31.872 117.368 30.864C115.992 29.84 114.832 28.64 113.888 27.264V31.872C113.888 32.624 113.792 33.192 113.6 33.576C113.424 33.96 113.12 34.216 112.688 34.344C112.272 34.488 111.672 34.56 110.888 34.56C110.344 34.56 109.624 34.512 108.728 34.416L108.392 32.496C109.256 32.64 110.12 32.712 110.984 32.712C111.384 32.712 111.656 32.624 111.8 32.448C111.944 32.272 112.016 31.944 112.016 31.464V28.128L111.128 28.68C107.992 30.712 105.352 32.296 103.208 33.432L102.32 31.752C104.128 30.84 105.904 29.888 107.648 28.896C109.392 27.888 110.848 26.984 112.016 26.184V23.088H102.512V21.384H118.208V19.416H105.56V17.76H118.208V15.6H104.888V13.872H120.104V21.384H123.584V23.088H113.888V24.384C114.496 25.488 115.192 26.464 115.976 27.312C117.608 26.08 119 24.792 120.152 23.448L121.544 24.84C120.216 26.168 118.792 27.4 117.272 28.536ZM105.32 23.76C106.6 24.56 107.856 25.488 109.088 26.544L107.984 27.984C106.432 26.672 105.2 25.728 104.288 25.152L105.32 23.76Z" fill="white"/>
<defs>
<filter id="filter0_f_475_7032" x="0.342212" y="0.7" width="152.274" height="47.6" filterUnits="userSpaceOnUse" color-interpolation-filters="sRGB">
<feFlood flood-opacity="0" result="BackgroundImageFix"/>
<feBlend mode="normal" in="SourceGraphic" in2="BackgroundImageFix" result="shape"/>
<feGaussianBlur stdDeviation="2.65" result="effect1_foregroundBlur_475_7032"/>
</filter>
</defs>
</svg>
