<svg width="273" height="64" viewBox="0 0 273 64" fill="none" xmlns="http://www.w3.org/2000/svg">
<g filter="url(#filter0_f_358_191)">
<mask id="path-1-outside-1_358_191" maskUnits="userSpaceOnUse" x="3" y="7" width="268" height="48" fill="black">
<rect fill="white" x="3" y="7" width="268" height="48"/>
<path d="M27.1084 14.7275C32.7839 33.3115 35.7111 42.9258 35.8901 43.5703C35.9618 43.7493 36.4899 45.4591 37.4746 48.6997H29.4985C29.4985 48.646 28.2721 44.6087 25.8193 36.5879H16.5273C16.4915 36.5879 16.3394 37.0444 16.0708 37.9575L12.7944 48.6997H6.26855C6.73405 47.1421 9.57178 37.8411 14.7817 20.7969L16.6348 14.7275H27.1084ZM21.1465 21.334L17.6553 32.7476H24.6377V32.7207C22.4355 25.5234 21.2808 21.7279 21.1733 21.334H21.1465ZM40.1602 14.6738H64.0615V18.4604C64.0615 18.4963 64.0436 18.5142 64.0078 18.5142H56.0854V44.8862H64.8672V48.6997H39.3545V44.8862H48.1362V18.5142H40.2139C40.1781 18.5142 40.1602 18.4963 40.1602 18.4604V14.6738ZM67.9019 27.2422H115.678V31.0825H67.9019C67.866 31.0825 67.8481 31.0646 67.8481 31.0288V27.2959C67.8481 27.2601 67.866 27.2422 67.9019 27.2422ZM151.933 10.5649H152.953C156.623 10.5649 159.64 11.2363 162.003 12.5791C163.633 13.5638 164.743 14.9245 165.333 16.6611C165.602 17.5205 165.736 18.6305 165.736 19.9912V51.7881C163.624 51.7881 162.469 51.797 162.272 51.8149C157.76 51.797 153.759 51.7881 150.268 51.7881H139.982C135.524 51.7881 129.866 51.797 123.009 51.8149C122.83 51.797 122.383 51.7881 121.667 51.7881V11.3975C121.667 11.3617 121.684 11.3438 121.72 11.3438H129.589C129.625 11.3438 129.643 11.3617 129.643 11.3975V14.9155C132.955 13.7339 136.983 12.6597 141.728 11.6929C145.72 10.9409 149.122 10.5649 151.933 10.5649ZM137.27 17.0103C137.323 17.064 137.789 17.2878 138.666 17.6816C139.4 18.0218 139.875 18.2546 140.089 18.3799L139.069 20.2598H154.967V23.9927C154.824 24.5835 154.35 25.4787 153.544 26.6782C153.15 27.2332 152.497 27.9583 151.583 28.8535C151.046 29.3369 150.411 29.8472 149.677 30.3843V30.4111C151.127 30.6081 152.479 30.7065 153.732 30.7065H154.242C154.887 30.7065 155.701 30.6797 156.686 30.626V35.7554C154.036 35.6121 151.771 35.3615 149.892 35.0034C147.618 34.52 145.756 33.9829 144.306 33.3921L144.037 33.2847C142.981 33.6965 141.665 34.1082 140.089 34.52V34.5469C141.128 35.1735 142.166 35.6838 143.205 36.0776C145.371 36.8833 147.94 37.2861 150.912 37.2861H151.369C151.727 37.2861 152.264 37.2772 152.98 37.2593C153.016 38.3872 153.034 39.2913 153.034 39.9717C151.387 40.2223 149.739 40.3477 148.092 40.3477C144.046 40.3477 140.492 39.7568 137.431 38.5752C136.679 38.2529 136.016 37.9038 135.443 37.5278C136.285 36.006 136.706 35.2272 136.706 35.1914H136.679C135.443 35.4062 133.823 35.5853 131.818 35.7285C131.531 35.7285 131.281 35.7375 131.066 35.7554V30.626C132.051 30.6797 132.919 30.7065 133.671 30.7065H133.698C135.524 30.7065 137.278 30.5633 138.961 30.2769C137.744 29.131 137.046 28.388 136.867 28.0479C136.383 27.4033 136.016 26.8394 135.766 26.356H135.739C135.166 27.466 134.853 28.0299 134.799 28.0479H134.772L130.502 26.0337V26.0068L135.148 17.4668H135.094C133.179 17.8786 131.361 18.353 129.643 18.8901V47.9746H157.76V20.8506C157.76 18.4694 155.943 16.9297 152.309 16.2314C150.876 15.9987 149.417 15.8823 147.931 15.8823C144.995 15.8823 141.441 16.2583 137.27 17.0103ZM139.042 24.1001V24.127C140.206 26.0605 141.96 27.6182 144.306 28.7998C147.242 27.5645 149.363 25.9979 150.67 24.1001H139.042ZM136.168 39.0586C138.263 40.6699 140.797 41.8158 143.769 42.4961C146.114 43.069 148.62 43.3555 151.288 43.3555H151.798C152.64 43.3555 153.231 43.3376 153.571 43.3018L153.678 46.0142C152.085 46.229 150.259 46.3364 148.2 46.3364C142.793 46.3364 138.415 45.674 135.067 44.3491C134.548 44.0985 134.083 43.8478 133.671 43.5972C135.264 40.661 136.097 39.1481 136.168 39.0586ZM189.772 10.0278H197.748V15.5063H217.729V19.3198H199.01C198.598 19.3198 196.486 19.9733 192.672 21.2803C188.035 23.0527 184.535 24.8521 182.172 26.6782C180.686 27.9494 179.943 28.8893 179.943 29.498V29.5786C179.943 30.1515 180.632 30.5723 182.011 30.8408C182.637 30.9661 183.336 31.0288 184.105 31.0288H184.884C186.406 31.0288 188.125 30.8498 190.041 30.4917C194.91 28.0031 200.819 25.3981 207.765 22.6768C209.359 26.0785 210.182 27.8688 210.236 28.0479C207.371 29.1579 204.068 30.5633 200.326 32.2642C195.456 34.52 190.998 36.8385 186.952 39.2197C185.198 40.3118 183.703 41.3324 182.467 42.2812C180.659 43.7135 179.647 44.9041 179.433 45.853C179.415 45.8709 179.406 45.9336 179.406 46.041V46.1484C179.406 46.8467 180.561 47.2943 182.87 47.4912C183.694 47.527 184.267 47.5449 184.589 47.5449C189.172 47.5449 194.776 46.7393 201.4 45.1279C203.334 44.6087 204.963 44.0985 206.288 43.5972C204.426 39.7479 203.432 37.6621 203.307 37.3398L208.625 34.9497L215.902 50.1768V50.2036C212.393 51.7791 210.621 52.5669 210.585 52.5669C209.009 49.2368 208.114 47.3838 207.899 47.0078C204.82 48.2611 200.532 49.4964 195.036 50.7139C189.951 51.7344 185.618 52.2446 182.038 52.2446C176.684 52.2446 173.319 51.1257 171.94 48.8877C171.582 48.1895 171.403 47.4823 171.403 46.7661V46.605C171.403 44.3849 172.862 42.0127 175.78 39.4883C177.284 38.1634 179.003 36.8743 180.937 35.6211H180.883C180.614 35.6211 180.417 35.63 180.292 35.6479C176.192 35.6479 173.578 34.7259 172.45 32.8818C172.074 32.2373 171.886 31.5391 171.886 30.7871V30.5454C171.886 27.0363 174.858 23.6794 180.802 20.4746C181.393 20.1344 182.109 19.7674 182.951 19.3735C182.986 19.3735 183.004 19.3556 183.004 19.3198H169.792V15.5063H189.772V10.0278ZM234.218 10.1353C237.136 12.2658 238.765 13.4743 239.105 13.7607C234.594 20.0807 231.971 23.7689 231.237 24.8252C230.932 25.3444 230.771 25.783 230.753 26.1411C230.753 26.6603 231.174 26.9647 232.016 27.0542H232.553C233.161 27.0542 233.86 26.9647 234.647 26.7856C238.013 21.9338 239.768 19.4272 239.911 19.2661C242.991 21.4146 244.674 22.6051 244.96 22.8379L230.968 44.0537C230.682 44.6445 230.539 45.0832 230.539 45.3696V45.5039C230.539 46.0589 230.959 46.3991 231.801 46.5244C232.213 46.5423 232.427 46.5602 232.445 46.5781C233.824 46.5781 236.223 46.1037 239.643 45.1548C238.586 40.6968 238.058 38.432 238.058 38.3604L243.375 37.2056C245.506 46.2111 246.589 50.8302 246.625 51.063H246.598C243.214 51.797 241.442 52.173 241.281 52.1909V52.1641C240.779 50.0335 240.529 48.9414 240.529 48.8877C236.465 50.1051 232.723 50.7139 229.303 50.7139C225.651 50.7139 223.332 49.9261 222.348 48.3506C222.097 47.8672 221.972 47.339 221.972 46.7661C221.972 45.3338 222.876 43.4271 224.684 41.0459C224.738 40.9564 227.021 37.68 231.532 31.2168H231.505C229.912 31.4674 228.578 31.5928 227.504 31.5928C225.123 31.5928 223.493 31.0825 222.616 30.062C222.24 29.5965 222.052 29.0594 222.052 28.4507V28.3164C222.052 26.8841 222.974 24.9774 224.818 22.5962L234.218 10.1353ZM259.516 10.6992H259.757C263.732 10.6992 266.31 11.8003 267.492 14.0024C267.921 14.826 268.136 15.8018 268.136 16.9297V52.3252H260.16V19.105C260.16 17.8875 259.551 16.9655 258.334 16.3389C257.493 15.9629 256.391 15.7749 255.031 15.7749C252.238 15.7749 248.29 16.5806 243.188 18.1919V18.165C242.418 15.8913 242.033 14.7275 242.033 14.6738C244.861 13.528 248.335 12.4806 252.453 11.5317C255.192 10.9767 257.546 10.6992 259.516 10.6992Z"/>
</mask>
<path d="M27.1084 14.7275L29.0212 14.1434L28.5888 12.7275H27.1084V14.7275ZM35.8901 43.5703L33.9631 44.1056L33.9925 44.2113L34.0332 44.3131L35.8901 43.5703ZM37.4746 48.6997V50.6997H40.1726L39.3882 48.1182L37.4746 48.6997ZM29.4985 48.6997H27.4985V50.6997H29.4985V48.6997ZM25.8193 36.5879L27.7319 36.003L27.2992 34.5879H25.8193V36.5879ZM16.0708 37.9575L17.9838 38.541L17.9867 38.5314L17.9895 38.5219L16.0708 37.9575ZM12.7944 48.6997V50.6997H14.2754L14.7074 49.2832L12.7944 48.6997ZM6.26855 48.6997L4.3523 48.127L3.58345 50.6997H6.26855V48.6997ZM14.7817 20.7969L16.6944 21.3815L16.6946 21.3809L14.7817 20.7969ZM16.6348 14.7275V12.7275H15.1542L14.7219 14.1435L16.6348 14.7275ZM21.1465 21.334V19.334H19.6668L19.234 20.749L21.1465 21.334ZM17.6553 32.7476L15.7427 32.1625L14.952 34.7476H17.6553V32.7476ZM24.6377 32.7476V34.7476H26.6377V32.7476H24.6377ZM24.6377 32.7207H26.6377V32.4216L26.5502 32.1355L24.6377 32.7207ZM21.1733 21.334L23.1029 20.8077L22.7009 19.334H21.1733V21.334ZM27.1084 14.7275L25.1956 15.3117C30.8797 33.9239 33.7931 43.4937 33.9631 44.1056L35.8901 43.5703L37.8172 43.035C37.6291 42.3579 34.688 32.6992 29.0212 14.1434L27.1084 14.7275ZM35.8901 43.5703L34.0332 44.3131C34.0297 44.3043 34.1449 44.6573 34.4291 45.5772C34.6918 46.4277 35.0689 47.6618 35.561 49.2812L37.4746 48.6997L39.3882 48.1182C38.8956 46.4971 38.5163 45.256 38.2509 44.3967C38.0069 43.6068 37.8222 43.0154 37.7471 42.8275L35.8901 43.5703ZM37.4746 48.6997V46.6997H29.4985V48.6997V50.6997H37.4746V48.6997ZM29.4985 48.6997H31.4985C31.4985 48.5235 31.4737 48.3846 31.4715 48.3716C31.4642 48.3269 31.4567 48.2915 31.4529 48.2737C31.4449 48.2366 31.4373 48.2062 31.4337 48.192C31.4257 48.1602 31.4173 48.1295 31.4111 48.1075C31.398 48.0601 31.3807 48 31.3608 47.932C31.3205 47.7939 31.2613 47.595 31.1844 47.3382C31.03 46.8232 30.7992 46.06 30.4924 45.0502C29.8786 43.0297 28.9584 40.0137 27.7319 36.003L25.8193 36.5879L23.9068 37.1728C25.1331 41.1829 26.0524 44.196 26.6651 46.2128C26.9715 47.2215 27.2006 47.9791 27.3528 48.4868C27.4291 48.7414 27.485 48.9294 27.5213 49.0536C27.5398 49.1169 27.5512 49.1569 27.5572 49.1784C27.5606 49.1909 27.5594 49.1869 27.5561 49.174C27.5549 49.1692 27.5491 49.1464 27.5423 49.1148C27.5391 49.0999 27.5322 49.0667 27.5251 49.0238C27.5232 49.0127 27.4985 48.8751 27.4985 48.6997H29.4985ZM25.8193 36.5879V34.5879H16.5273V36.5879V38.5879H25.8193V36.5879ZM16.5273 36.5879V34.5879C15.9953 34.5879 15.61 34.7955 15.4192 34.9218C15.2204 35.0535 15.088 35.1925 15.0196 35.27C14.8833 35.4245 14.8006 35.5667 14.7699 35.6207C14.6985 35.7463 14.6505 35.8606 14.6293 35.912C14.5789 36.0345 14.5307 36.1727 14.489 36.2978C14.4012 36.5611 14.2879 36.9313 14.1521 37.3932L16.0708 37.9575L17.9895 38.5219C18.1222 38.0707 18.2193 37.7561 18.2837 37.5628C18.3181 37.4596 18.3315 37.4267 18.328 37.435C18.3259 37.4401 18.3195 37.4555 18.3091 37.4779C18.3 37.4976 18.2791 37.5415 18.247 37.5979C18.2244 37.6376 18.149 37.7691 18.0189 37.9165C17.9537 37.9904 17.8242 38.1267 17.628 38.2567C17.44 38.3812 17.0571 38.5879 16.5273 38.5879V36.5879ZM16.0708 37.9575L14.1578 37.3741L10.8814 48.1162L12.7944 48.6997L14.7074 49.2832L17.9838 38.541L16.0708 37.9575ZM12.7944 48.6997V46.6997H6.26855V48.6997V50.6997H12.7944V48.6997ZM6.26855 48.6997L8.18481 49.2724C8.64795 47.7226 11.4828 38.4312 16.6944 21.3815L14.7817 20.7969L12.8691 20.2122C7.66079 37.2511 4.82014 46.5615 4.3523 48.127L6.26855 48.6997ZM14.7817 20.7969L16.6946 21.3809L18.5476 15.3115L16.6348 14.7275L14.7219 14.1435L12.8689 20.2129L14.7817 20.7969ZM16.6348 14.7275V16.7275H27.1084V14.7275V12.7275H16.6348V14.7275ZM21.1465 21.334L19.234 20.749L15.7427 32.1625L17.6553 32.7476L19.5678 33.3326L23.059 21.919L21.1465 21.334ZM17.6553 32.7476V34.7476H24.6377V32.7476V30.7476H17.6553V32.7476ZM24.6377 32.7476H26.6377V32.7207H24.6377H22.6377V32.7476H24.6377ZM24.6377 32.7207L26.5502 32.1355C24.3385 24.907 23.1996 21.1624 23.1029 20.8077L21.1733 21.334L19.2438 21.8602C19.3619 22.2934 20.5326 26.1399 22.7252 33.3059L24.6377 32.7207ZM21.1733 21.334V19.334H21.1465V21.334V23.334H21.1733V21.334ZM40.1602 14.6738V12.6738H38.1602V14.6738H40.1602ZM64.0615 14.6738H66.0615V12.6738H64.0615V14.6738ZM56.0854 18.5142V16.5142H54.0854V18.5142H56.0854ZM56.0854 44.8862H54.0854V46.8862H56.0854V44.8862ZM64.8672 44.8862H66.8672V42.8862H64.8672V44.8862ZM64.8672 48.6997V50.6997H66.8672V48.6997H64.8672ZM39.3545 48.6997H37.3545V50.6997H39.3545V48.6997ZM39.3545 44.8862V42.8862H37.3545V44.8862H39.3545ZM48.1362 44.8862V46.8862H50.1362V44.8862H48.1362ZM48.1362 18.5142H50.1362V16.5142H48.1362V18.5142ZM40.1602 14.6738V16.6738H64.0615V14.6738V12.6738H40.1602V14.6738ZM64.0615 14.6738H62.0615V18.4604H64.0615H66.0615V14.6738H64.0615ZM64.0615 18.4604H62.0615C62.0615 18.1701 62.1355 17.5849 62.6339 17.0865C63.1323 16.5881 63.7174 16.5142 64.0078 16.5142V18.5142V20.5142C64.334 20.5142 64.946 20.4313 65.4623 19.9149C65.9786 19.3986 66.0615 18.7866 66.0615 18.4604H64.0615ZM64.0078 18.5142V16.5142H56.0854V18.5142V20.5142H64.0078V18.5142ZM56.0854 18.5142H54.0854V44.8862H56.0854H58.0854V18.5142H56.0854ZM56.0854 44.8862V46.8862H64.8672V44.8862V42.8862H56.0854V44.8862ZM64.8672 44.8862H62.8672V48.6997H64.8672H66.8672V44.8862H64.8672ZM64.8672 48.6997V46.6997H39.3545V48.6997V50.6997H64.8672V48.6997ZM39.3545 48.6997H41.3545V44.8862H39.3545H37.3545V48.6997H39.3545ZM39.3545 44.8862V46.8862H48.1362V44.8862V42.8862H39.3545V44.8862ZM48.1362 44.8862H50.1362V18.5142H48.1362H46.1362V44.8862H48.1362ZM48.1362 18.5142V16.5142H40.2139V18.5142V20.5142H48.1362V18.5142ZM40.2139 18.5142V16.5142C40.5043 16.5142 41.0894 16.5881 41.5878 17.0865C42.0862 17.5849 42.1602 18.1701 42.1602 18.4604H40.1602H38.1602C38.1602 18.7866 38.2431 19.3986 38.7594 19.9149C39.2757 20.4313 39.8877 20.5142 40.2139 20.5142V18.5142ZM40.1602 18.4604H42.1602V14.6738H40.1602H38.1602V18.4604H40.1602ZM115.678 27.2422H117.678V25.2422H115.678V27.2422ZM115.678 31.0825V33.0825H117.678V31.0825H115.678ZM67.9019 27.2422V29.2422H115.678V27.2422V25.2422H67.9019V27.2422ZM115.678 27.2422H113.678V31.0825H115.678H117.678V27.2422H115.678ZM115.678 31.0825V29.0825H67.9019V31.0825V33.0825H115.678V31.0825ZM67.9019 31.0825V29.0825C68.1922 29.0825 68.7774 29.1565 69.2758 29.6549C69.7742 30.1533 69.8481 30.7384 69.8481 31.0288H67.8481H65.8481C65.8481 31.355 65.931 31.967 66.4474 32.4833C66.9637 32.9996 67.5757 33.0825 67.9019 33.0825V31.0825ZM67.8481 31.0288H69.8481V27.2959H67.8481H65.8481V31.0288H67.8481ZM67.8481 27.2959H69.8481C69.8481 27.5863 69.7742 28.1714 69.2758 28.6698C68.7774 29.1682 68.1922 29.2422 67.9019 29.2422V27.2422V25.2422C67.5757 25.2422 66.9637 25.3251 66.4474 25.8414C65.931 26.3577 65.8481 26.9697 65.8481 27.2959H67.8481ZM162.003 12.5791L163.038 10.8674L163.015 10.8535L162.991 10.8402L162.003 12.5791ZM165.333 16.6611L167.242 16.0646L167.235 16.0407L167.227 16.017L165.333 16.6611ZM165.736 51.7881V53.7881H167.736V51.7881H165.736ZM162.272 51.8149L162.264 53.8149L162.359 53.8153L162.453 53.8067L162.272 51.8149ZM123.009 51.8149L122.81 53.805L122.912 53.8152L123.014 53.8149L123.009 51.8149ZM121.667 51.7881H119.667V53.7881H121.667V51.7881ZM129.643 14.9155H127.643V17.7525L130.315 16.7992L129.643 14.9155ZM141.728 11.6929L141.357 9.72743L141.343 9.73018L141.328 9.73314L141.728 11.6929ZM137.27 17.0103L136.915 15.042L133.151 15.7204L135.855 18.4245L137.27 17.0103ZM138.666 17.6816L139.507 15.867L139.496 15.862L139.485 15.8571L138.666 17.6816ZM140.089 18.3799L141.847 19.3341L142.772 17.6296L141.097 16.6523L140.089 18.3799ZM139.069 20.2598L137.311 19.3056L135.707 22.2598H139.069V20.2598ZM154.967 20.2598H156.967V18.2598H154.967V20.2598ZM154.967 23.9927L156.911 24.4639L156.967 24.2316V23.9927H154.967ZM153.544 26.6782L155.175 27.8357L155.19 27.8147L155.204 27.7933L153.544 26.6782ZM151.583 28.8535L152.921 30.3401L152.953 30.3115L152.984 30.2817L151.583 28.8535ZM149.677 30.3843L148.496 28.7702L147.677 29.3695V30.3843H149.677ZM149.677 30.4111H147.677V32.1579L149.408 32.3929L149.677 30.4111ZM156.686 30.626H158.686V28.5139L156.577 28.6289L156.686 30.626ZM156.686 35.7554L156.578 37.7525L158.686 37.8664V35.7554H156.686ZM149.892 35.0034L149.476 36.9597L149.496 36.9641L149.517 36.9681L149.892 35.0034ZM144.306 33.3921L145.06 31.5399L145.048 31.5351L144.306 33.3921ZM144.037 33.2847L144.78 31.4277L144.047 31.1344L143.311 31.4213L144.037 33.2847ZM140.089 34.52L139.584 32.585L138.089 32.9756V34.52H140.089ZM140.089 34.5469H138.089V35.6759L139.056 36.2593L140.089 34.5469ZM143.205 36.0776L142.495 37.9477L142.507 37.9522L143.205 36.0776ZM152.98 37.2593L154.979 37.1958L154.916 35.2103L152.93 35.2599L152.98 37.2593ZM153.034 39.9717L153.335 41.9489L155.034 41.6904V39.9717H153.034ZM137.431 38.5752L136.643 40.4135L136.676 40.4279L136.711 40.441L137.431 38.5752ZM135.443 37.5278L133.693 36.56L132.796 38.1826L134.346 39.1999L135.443 37.5278ZM136.706 35.1914H138.706V33.1914H136.706V35.1914ZM136.679 35.1914V33.1914H136.506L136.336 33.221L136.679 35.1914ZM131.818 35.7285V37.7285H131.889L131.96 37.7234L131.818 35.7285ZM131.066 35.7554H129.066V37.929L131.232 37.7485L131.066 35.7554ZM131.066 30.626L131.175 28.6289L129.066 28.5139V30.626H131.066ZM138.961 30.2769L139.297 32.2485L143.258 31.5743L140.332 28.8205L138.961 30.2769ZM136.867 28.0479L138.637 27.1164L138.562 26.9753L138.467 26.8479L136.867 28.0479ZM135.766 26.356L137.541 25.4353L136.981 24.356H135.766V26.356ZM135.739 26.356V24.356H134.52L133.962 25.4387L135.739 26.356ZM134.799 28.0479V30.0479H135.123L135.431 29.9452L134.799 28.0479ZM134.772 28.0479L133.919 29.8567L134.324 30.0479H134.772V28.0479ZM130.502 26.0337H128.502V27.3016L129.649 27.8426L130.502 26.0337ZM130.502 26.0068L128.745 25.0511L128.502 25.498V26.0068H130.502ZM135.148 17.4668L136.905 18.4226L138.513 15.4668H135.148V17.4668ZM135.094 17.4668V15.4668H134.882L134.674 15.5115L135.094 17.4668ZM129.643 18.8901L129.046 16.9812L127.643 17.4198V18.8901H129.643ZM129.643 47.9746H127.643V49.9746H129.643V47.9746ZM157.76 47.9746V49.9746H159.76V47.9746H157.76ZM152.309 16.2314L152.686 14.2674L152.658 14.2619L152.629 14.2573L152.309 16.2314ZM139.042 24.1001V22.1001H137.042V24.1001H139.042ZM139.042 24.127H137.042V24.6824L137.328 25.1583L139.042 24.127ZM144.306 28.7998L143.406 30.5859L144.23 31.0013L145.081 30.6433L144.306 28.7998ZM150.67 24.1001L152.318 25.2345L154.476 22.1001H150.67V24.1001ZM136.168 39.0586L137.388 37.4733L135.833 36.2769L134.607 37.8092L136.168 39.0586ZM143.769 42.4961L144.243 40.5532L144.229 40.5498L144.215 40.5465L143.769 42.4961ZM153.571 43.3018L155.569 43.2226L155.485 41.0892L153.361 41.3127L153.571 43.3018ZM153.678 46.0142L153.945 47.9962L155.749 47.7531L155.677 45.935L153.678 46.0142ZM135.067 44.3491L134.198 46.1502L134.264 46.182L134.331 46.2088L135.067 44.3491ZM133.671 43.5972L131.913 42.6432L131.005 44.316L132.631 45.3056L133.671 43.5972ZM151.933 10.5649V12.5649H152.953V10.5649V8.56494H151.933V10.5649ZM152.953 10.5649V12.5649C156.394 12.5649 159.041 13.196 161.015 14.318L162.003 12.5791L162.991 10.8402C160.24 9.27667 156.853 8.56494 152.953 8.56494V10.5649ZM162.003 12.5791L160.969 14.2908C162.212 15.0419 163.007 16.0325 163.44 17.3053L165.333 16.6611L167.227 16.017C166.478 13.8165 165.054 12.0857 163.038 10.8674L162.003 12.5791ZM165.333 16.6611L163.425 17.2577C163.61 17.8521 163.736 18.7405 163.736 19.9912H165.736H167.736C167.736 18.5205 167.594 17.1889 167.242 16.0646L165.333 16.6611ZM165.736 19.9912H163.736V51.7881H165.736H167.736V19.9912H165.736ZM165.736 51.7881V49.7881C163.705 49.7881 162.407 49.7945 162.091 49.8232L162.272 51.8149L162.453 53.8067C162.446 53.8074 162.673 53.7996 163.301 53.7947C163.871 53.7903 164.682 53.7881 165.736 53.7881V51.7881ZM162.272 51.8149L162.28 49.815C157.766 49.797 153.762 49.7881 150.268 49.7881V51.7881V53.7881C153.756 53.7881 157.754 53.797 162.264 53.8149L162.272 51.8149ZM150.268 51.7881V49.7881H139.982V51.7881V53.7881H150.268V51.7881ZM139.982 51.7881V49.7881C135.522 49.7881 129.862 49.797 123.004 49.8149L123.009 51.8149L123.014 53.8149C129.871 53.797 135.526 53.7881 139.982 53.7881V51.7881ZM123.009 51.8149L123.208 49.8249C122.908 49.7948 122.346 49.7881 121.667 49.7881V51.7881V53.7881C122.018 53.7881 122.294 53.7903 122.499 53.7944C122.602 53.7965 122.681 53.7989 122.739 53.8014C122.803 53.8041 122.821 53.8061 122.81 53.805L123.009 51.8149ZM121.667 51.7881H123.667V11.3975H121.667H119.667V51.7881H121.667ZM121.667 11.3975H123.667C123.667 11.6878 123.593 12.273 123.094 12.7714C122.596 13.2698 122.011 13.3438 121.72 13.3438V11.3438V9.34375C121.394 9.34375 120.782 9.42665 120.266 9.94296C119.749 10.4593 119.667 11.0713 119.667 11.3975H121.667ZM121.72 11.3438V13.3438H129.589V11.3438V9.34375H121.72V11.3438ZM129.589 11.3438V13.3438C129.298 13.3438 128.713 13.2698 128.215 12.7714C127.717 12.273 127.643 11.6878 127.643 11.3975H129.643H131.643C131.643 11.0713 131.56 10.4593 131.043 9.94296C130.527 9.42665 129.915 9.34375 129.589 9.34375V11.3438ZM129.643 11.3975H127.643V14.9155H129.643H131.643V11.3975H129.643ZM129.643 14.9155L130.315 16.7992C133.512 15.6587 137.443 14.607 142.127 13.6526L141.728 11.6929L141.328 9.73314C136.523 10.7123 132.398 11.8091 128.971 13.0318L129.643 14.9155ZM141.728 11.6929L142.098 13.6583C146.017 12.9202 149.287 12.5649 151.933 12.5649V10.5649V8.56494C148.956 8.56494 145.423 8.96168 141.357 9.72743L141.728 11.6929ZM137.27 17.0103L135.855 18.4245C136.046 18.6154 136.244 18.7315 136.262 18.7425C136.33 18.7841 136.395 18.8198 136.444 18.8463C136.546 18.9007 136.666 18.9603 136.792 19.0209C137.049 19.1442 137.403 19.307 137.847 19.5062L138.666 17.6816L139.485 15.8571C139.051 15.6624 138.735 15.5164 138.526 15.4159C138.419 15.3646 138.358 15.3335 138.33 15.3186C138.314 15.3104 138.327 15.3167 138.356 15.3342C138.37 15.343 138.403 15.3635 138.445 15.3937C138.476 15.4154 138.573 15.4855 138.684 15.596L137.27 17.0103ZM138.666 17.6816L137.825 19.4963C138.579 19.8454 138.963 20.0384 139.082 20.1074L140.089 18.3799L141.097 16.6523C140.786 16.4707 140.222 16.1982 139.507 15.867L138.666 17.6816ZM140.089 18.3799L138.332 17.4257L137.311 19.3056L139.069 20.2598L140.827 21.2139L141.847 19.3341L140.089 18.3799ZM139.069 20.2598V22.2598H154.967V20.2598V18.2598H139.069V20.2598ZM154.967 20.2598H152.967V23.9927H154.967H156.967V20.2598H154.967ZM154.967 23.9927L153.024 23.5215C152.973 23.7303 152.69 24.3631 151.884 25.5631L153.544 26.6782L155.204 27.7933C156.01 26.5942 156.675 25.4367 156.911 24.4639L154.967 23.9927ZM153.544 26.6782L151.913 25.5207C151.624 25.9284 151.072 26.5545 150.183 27.4254L151.583 28.8535L152.984 30.2817C153.922 29.3622 154.677 28.538 155.175 27.8357L153.544 26.6782ZM151.583 28.8535L150.246 27.3669C149.769 27.7955 149.189 28.2633 148.496 28.7702L149.677 30.3843L150.858 31.9983C151.633 31.4311 152.323 30.8784 152.921 30.3401L151.583 28.8535ZM149.677 30.3843H147.677V30.4111H149.677H151.677V30.3843H149.677ZM149.677 30.4111L149.408 32.3929C150.933 32.6 152.375 32.7065 153.732 32.7065V30.7065V28.7065C152.582 28.7065 151.321 28.6161 149.946 28.4293L149.677 30.4111ZM153.732 30.7065V32.7065H154.242V30.7065V28.7065H153.732V30.7065ZM154.242 30.7065V32.7065C154.937 32.7065 155.791 32.6778 156.795 32.623L156.686 30.626L156.577 28.6289C155.612 28.6816 154.837 28.7065 154.242 28.7065V30.7065ZM156.686 30.626H154.686V35.7554H156.686H158.686V30.626H156.686ZM156.686 35.7554L156.794 33.7583C154.202 33.6182 152.032 33.3751 150.266 33.0387L149.892 35.0034L149.517 36.9681C151.511 37.3479 153.87 37.6061 156.578 37.7525L156.686 35.7554ZM149.892 35.0034L150.308 33.0471C148.1 32.5778 146.362 32.0703 145.06 31.5399L144.306 33.3921L143.551 35.2443C145.15 35.8955 147.136 36.4623 149.476 36.9597L149.892 35.0034ZM144.306 33.3921L145.048 31.5351L144.78 31.4277L144.037 33.2847L143.294 35.1416L143.563 35.249L144.306 33.3921ZM144.037 33.2847L143.311 31.4213C142.35 31.7957 141.114 32.1852 139.584 32.585L140.089 34.52L140.595 36.455C142.216 36.0313 143.612 35.5972 144.764 35.1481L144.037 33.2847ZM140.089 34.52H138.089V34.5469H140.089H142.089V34.52H140.089ZM140.089 34.5469L139.056 36.2593C140.188 36.9424 141.335 37.5074 142.495 37.9476L143.205 36.0776L143.914 34.2076C142.998 33.8601 142.067 33.4046 141.123 32.8345L140.089 34.5469ZM143.205 36.0776L142.507 37.9522C144.95 38.8607 147.767 39.2861 150.912 39.2861V37.2861V35.2861C148.113 35.2861 145.791 34.9059 143.902 34.2031L143.205 36.0776ZM150.912 37.2861V39.2861H151.369V37.2861V35.2861H150.912V37.2861ZM151.369 37.2861V39.2861C151.753 39.2861 152.31 39.2766 153.03 39.2587L152.98 37.2593L152.93 35.2599C152.218 35.2777 151.701 35.2861 151.369 35.2861V37.2861ZM152.98 37.2593L150.981 37.3227C151.016 38.4413 151.034 39.3217 151.034 39.9717H153.034H155.034C155.034 39.261 155.015 38.3331 154.979 37.1958L152.98 37.2593ZM153.034 39.9717L152.733 37.9944C151.184 38.2301 149.638 38.3477 148.092 38.3477V40.3477V42.3477C149.841 42.3477 151.589 42.2145 153.335 41.9489L153.034 39.9717ZM148.092 40.3477V38.3477C144.237 38.3477 140.936 37.7843 138.151 36.7094L137.431 38.5752L136.711 40.441C140.048 41.7293 143.855 42.3477 148.092 42.3477V40.3477ZM137.431 38.5752L138.219 36.7369C137.554 36.4523 136.999 36.1564 136.541 35.8557L135.443 37.5278L134.346 39.1999C135.034 39.6512 135.803 40.0536 136.643 40.4135L137.431 38.5752ZM135.443 37.5278L137.194 38.4956C137.615 37.7333 137.934 37.1513 138.15 36.753C138.256 36.5554 138.342 36.3941 138.404 36.2754C138.433 36.2184 138.465 36.1557 138.493 36.0974C138.505 36.0712 138.528 36.0219 138.552 35.9635C138.563 35.9363 138.586 35.8791 138.609 35.806C138.621 35.7694 138.64 35.7071 138.657 35.6285C138.671 35.568 138.706 35.4041 138.706 35.1914H136.706H134.706C134.706 34.9798 134.74 34.8174 134.753 34.7588C134.77 34.682 134.788 34.6219 134.799 34.5879C134.821 34.52 134.841 34.4693 134.849 34.4502C134.859 34.426 134.867 34.4082 134.871 34.3996C134.875 34.3902 134.878 34.3839 134.879 34.3819C134.88 34.3791 134.873 34.3949 134.85 34.4398C134.806 34.5247 134.734 34.6599 134.63 34.8518C134.425 35.2323 134.113 35.8005 133.693 36.56L135.443 37.5278ZM136.706 35.1914V33.1914H136.679V35.1914V37.1914H136.706V35.1914ZM136.679 35.1914L136.336 33.221C135.194 33.4196 133.648 33.5927 131.675 33.7336L131.818 35.7285L131.96 37.7234C133.998 37.5779 135.693 37.3929 137.021 37.1618L136.679 35.1914ZM131.818 35.7285V33.7285C131.493 33.7285 131.184 33.7386 130.9 33.7623L131.066 35.7554L131.232 37.7485C131.377 37.7364 131.57 37.7285 131.818 37.7285V35.7285ZM131.066 35.7554H133.066V30.626H131.066H129.066V35.7554H131.066ZM131.066 30.626L130.957 32.623C131.968 32.6781 132.873 32.7065 133.671 32.7065V30.7065V28.7065C132.964 28.7065 132.134 28.6812 131.175 28.6289L131.066 30.626ZM133.671 30.7065V32.7065H133.698V30.7065V28.7065H133.671V30.7065ZM133.698 30.7065V32.7065C135.629 32.7065 137.496 32.5551 139.297 32.2485L138.961 30.2769L138.626 28.3052C137.061 28.5715 135.419 28.7065 133.698 28.7065V30.7065ZM138.961 30.2769L140.332 28.8205C139.737 28.2603 139.291 27.8196 138.982 27.4906C138.827 27.3259 138.721 27.204 138.653 27.1197C138.57 27.0183 138.59 27.0278 138.637 27.1164L136.867 28.0479L135.097 28.9793C135.33 29.4219 135.733 29.8744 136.067 30.2299C136.456 30.6439 136.968 31.1476 137.591 31.7333L138.961 30.2769ZM136.867 28.0479L138.467 26.8479C138.021 26.2539 137.723 25.7866 137.541 25.4353L135.766 26.356L133.99 27.2766C134.309 27.8921 134.745 28.5528 135.267 29.2479L136.867 28.0479ZM135.766 26.356V24.356H135.739V26.356V28.356H135.766V26.356ZM135.739 26.356L133.962 25.4387C133.678 25.989 133.467 26.3856 133.326 26.6402C133.253 26.7715 133.212 26.8399 133.196 26.865C133.185 26.8822 133.204 26.85 133.245 26.7972C133.263 26.7734 133.316 26.7051 133.398 26.6239C133.439 26.5826 133.511 26.5141 133.611 26.44C133.697 26.3755 133.889 26.2431 134.166 26.1505L134.799 28.0479L135.431 29.9452C135.912 29.785 136.198 29.4803 136.226 29.4523C136.318 29.3603 136.384 29.277 136.417 29.2339C136.487 29.1424 136.544 29.0546 136.579 28.999C136.655 28.8787 136.739 28.7334 136.822 28.5827C136.994 28.2733 137.227 27.833 137.516 27.2732L135.739 26.356ZM134.799 28.0479V26.0479H134.772V28.0479V30.0479H134.799V28.0479ZM134.772 28.0479L135.625 26.239L131.355 24.2248L130.502 26.0337L129.649 27.8426L133.919 29.8567L134.772 28.0479ZM130.502 26.0337H132.502V26.0068H130.502H128.502V26.0337H130.502ZM130.502 26.0068L132.259 26.9626L136.905 18.4226L135.148 17.4668L133.391 16.511L128.745 25.0511L130.502 26.0068ZM135.148 17.4668V15.4668H135.094V17.4668V19.4668H135.148V17.4668ZM135.094 17.4668L134.674 15.5115C132.704 15.9349 130.828 16.4244 129.046 16.9812L129.643 18.8901L130.239 20.7991C131.895 20.2816 133.653 19.8222 135.515 19.4221L135.094 17.4668ZM129.643 18.8901H127.643V47.9746H129.643H131.643V18.8901H129.643ZM129.643 47.9746V49.9746H157.76V47.9746V45.9746H129.643V47.9746ZM157.76 47.9746H159.76V20.8506H157.76H155.76V47.9746H157.76ZM157.76 20.8506H159.76C159.76 19.072 159.047 17.5337 157.69 16.384C156.413 15.3015 154.671 14.6486 152.686 14.2674L152.309 16.2314L151.931 18.1955C153.581 18.5125 154.565 18.9786 155.104 19.4358C155.565 19.8258 155.76 20.248 155.76 20.8506H157.76ZM152.309 16.2314L152.629 14.2573C151.089 14.0069 149.522 13.8823 147.931 13.8823V15.8823V17.8823C149.312 17.8823 150.664 17.9904 151.988 18.2056L152.309 16.2314ZM147.931 15.8823V13.8823C144.836 13.8823 141.157 14.2773 136.915 15.042L137.27 17.0103L137.624 18.9785C141.725 18.2393 145.153 17.8823 147.931 17.8823V15.8823ZM139.042 24.1001H137.042V24.127H139.042H141.042V24.1001H139.042ZM139.042 24.127L137.328 25.1583C138.717 27.4652 140.78 29.2628 143.406 30.5859L144.306 28.7998L145.206 27.0137C143.141 25.9735 141.695 24.6559 140.756 23.0956L139.042 24.127ZM144.306 28.7998L145.081 30.6433C148.24 29.3143 150.726 27.5458 152.318 25.2345L150.67 24.1001L149.023 22.9657C148.001 24.4499 146.244 25.8146 143.53 26.9563L144.306 28.7998ZM150.67 24.1001V22.1001H139.042V24.1001V26.1001H150.67V24.1001ZM136.168 39.0586L134.949 40.6438C137.305 42.4559 140.112 43.7109 143.322 44.4457L143.769 42.4961L144.215 40.5465C141.481 39.9207 139.222 38.8839 137.388 37.4733L136.168 39.0586ZM143.769 42.4961L143.294 44.439C145.81 45.0536 148.477 45.3555 151.288 45.3555V43.3555V41.3555C148.764 41.3555 146.418 41.0845 144.243 40.5532L143.769 42.4961ZM151.288 43.3555V45.3555H151.798V43.3555V41.3555H151.288V43.3555ZM151.798 43.3555V45.3555C152.638 45.3555 153.324 45.3388 153.78 45.2908L153.571 43.3018L153.361 41.3127C153.137 41.3363 152.641 41.3555 151.798 41.3555V43.3555ZM153.571 43.3018L151.572 43.3809L151.68 46.0933L153.678 46.0142L155.677 45.935L155.569 43.2226L153.571 43.3018ZM153.678 46.0142L153.411 44.0321C151.927 44.2322 150.193 44.3364 148.2 44.3364V46.3364V48.3364C150.325 48.3364 152.243 48.2258 153.945 47.9962L153.678 46.0142ZM148.2 46.3364V44.3364C142.931 44.3364 138.83 43.6873 135.803 42.4894L135.067 44.3491L134.331 46.2088C138.001 47.6607 142.655 48.3364 148.2 48.3364V46.3364ZM135.067 44.3491L135.937 42.548C135.465 42.3202 135.058 42.1 134.711 41.8888L133.671 43.5972L132.631 45.3056C133.107 45.5956 133.631 45.8767 134.198 46.1502L135.067 44.3491ZM133.671 43.5972L135.429 44.5511C136.225 43.0839 136.829 41.9758 137.243 41.2246C137.45 40.8482 137.606 40.5664 137.714 40.3754C137.768 40.279 137.806 40.2131 137.83 40.1725C137.896 40.0606 137.833 40.1796 137.73 40.308L136.168 39.0586L134.607 37.8092C134.518 37.9197 134.453 38.0274 134.449 38.034C134.425 38.0716 134.402 38.1106 134.382 38.1452C134.34 38.216 134.289 38.3059 134.23 38.4098C134.112 38.6194 133.947 38.9161 133.738 39.2961C133.319 40.0578 132.71 41.1742 131.913 42.6432L133.671 43.5972ZM189.772 10.0278V8.02783H187.772V10.0278H189.772ZM197.748 10.0278H199.748V8.02783H197.748V10.0278ZM197.748 15.5063H195.748V17.5063H197.748V15.5063ZM217.729 15.5063H219.729V13.5063H217.729V15.5063ZM217.729 19.3198V21.3198H219.729V19.3198H217.729ZM192.672 21.2803L192.024 19.3883L191.991 19.3996L191.958 19.4121L192.672 21.2803ZM182.172 26.6782L180.949 25.0957L180.91 25.1261L180.872 25.1584L182.172 26.6782ZM182.011 30.8408L182.403 28.8796L182.393 28.8777L182.011 30.8408ZM190.041 30.4917L190.408 32.4577L190.693 32.4044L190.951 32.2726L190.041 30.4917ZM207.765 22.6768L209.576 21.8284L208.781 20.1308L207.036 20.8146L207.765 22.6768ZM210.236 28.0479L210.958 29.9127L212.683 29.2445L212.151 27.4732L210.236 28.0479ZM200.326 32.2642L199.499 30.4434L199.492 30.4464L199.486 30.4494L200.326 32.2642ZM186.952 39.2197L185.938 37.4961L185.916 37.5087L185.895 37.5218L186.952 39.2197ZM182.467 42.2812L181.249 40.6951L181.237 40.7042L181.225 40.7135L182.467 42.2812ZM179.433 45.853L180.847 47.2672L181.256 46.8585L181.383 46.2947L179.433 45.853ZM182.87 47.4912L182.7 49.484L182.742 49.4875L182.783 49.4893L182.87 47.4912ZM201.4 45.1279L201.873 47.0713L201.896 47.0657L201.919 47.0595L201.4 45.1279ZM206.288 43.5972L206.996 45.4677L209.04 44.6941L208.089 42.7263L206.288 43.5972ZM203.307 37.3398L202.487 35.5157L200.755 36.2944L201.443 38.0647L203.307 37.3398ZM208.625 34.9497L210.429 34.0872L209.587 32.3245L207.805 33.1255L208.625 34.9497ZM215.902 50.1768H217.902V49.7234L217.707 49.3143L215.902 50.1768ZM215.902 50.2036L216.722 52.0282L217.902 51.498V50.2036H215.902ZM210.585 52.5669L208.777 53.4222L209.319 54.5669H210.585V52.5669ZM207.899 47.0078L209.636 46.0155L208.767 44.4953L207.146 45.1553L207.899 47.0078ZM195.036 50.7139L195.429 52.6748L195.449 52.6708L195.468 52.6665L195.036 50.7139ZM171.94 48.8877L170.16 49.8003L170.196 49.87L170.237 49.9366L171.94 48.8877ZM175.78 39.4883L177.089 41.0009L177.096 40.995L177.102 40.989L175.78 39.4883ZM180.937 35.6211L182.024 37.2994L187.699 33.6211H180.937V35.6211ZM180.292 35.6479V37.6479H180.434L180.575 37.6278L180.292 35.6479ZM172.45 32.8818L170.723 33.8896L170.733 33.9076L170.744 33.9254L172.45 32.8818ZM180.802 20.4746L181.751 22.235L181.776 22.2218L181.8 22.2079L180.802 20.4746ZM182.951 19.3735V17.3735H182.506L182.103 17.5622L182.951 19.3735ZM183.004 19.3198H185.004V17.3198H183.004V19.3198ZM169.792 19.3198H167.792V21.3198H169.792V19.3198ZM169.792 15.5063V13.5063H167.792V15.5063H169.792ZM189.772 15.5063V17.5063H191.772V15.5063H189.772ZM189.772 10.0278V12.0278H197.748V10.0278V8.02783H189.772V10.0278ZM197.748 10.0278H195.748V15.5063H197.748H199.748V10.0278H197.748ZM197.748 15.5063V17.5063H217.729V15.5063V13.5063H197.748V15.5063ZM217.729 15.5063H215.729V19.3198H217.729H219.729V15.5063H217.729ZM217.729 19.3198V17.3198H199.01V19.3198V21.3198H217.729V19.3198ZM199.01 19.3198V17.3198C198.607 17.3198 198.144 17.4382 197.881 17.5062C197.522 17.5992 197.066 17.7321 196.526 17.8993C195.441 18.2349 193.937 18.7327 192.024 19.3883L192.672 21.2803L193.321 23.1722C195.221 22.5209 196.68 22.0384 197.708 21.7206C198.224 21.5611 198.612 21.4489 198.884 21.3785C199.252 21.2832 199.208 21.3198 199.01 21.3198V19.3198ZM192.672 21.2803L191.958 19.4121C187.242 21.2147 183.535 23.097 180.949 25.0957L182.172 26.6782L183.395 28.2608C185.535 26.6071 188.828 24.8907 193.386 23.1484L192.672 21.2803ZM182.172 26.6782L180.872 25.1584C180.084 25.8326 179.417 26.4814 178.931 27.0963C178.51 27.6294 177.943 28.4773 177.943 29.498H179.943H181.943C181.943 29.7423 181.872 29.8718 181.885 29.8445C181.895 29.825 181.942 29.7376 182.069 29.5768C182.326 29.2518 182.774 28.795 183.472 28.198L182.172 26.6782ZM179.943 29.498H177.943V29.5786H179.943H181.943V29.498H179.943ZM179.943 29.5786H177.943C177.943 30.8279 178.747 31.6215 179.418 32.031C180.062 32.4243 180.852 32.6527 181.628 32.8039L182.011 30.8408L182.393 28.8777C182.11 28.8226 181.896 28.7659 181.739 28.7135C181.577 28.6597 181.509 28.6214 181.502 28.6167C181.492 28.6105 181.599 28.6721 181.715 28.8398C181.848 29.0308 181.943 29.2911 181.943 29.5786H179.943ZM182.011 30.8408L181.619 32.802C182.397 32.9577 183.23 33.0288 184.105 33.0288V31.0288V29.0288C183.442 29.0288 182.877 28.9745 182.403 28.8797L182.011 30.8408ZM184.105 31.0288V33.0288H184.884V31.0288V29.0288H184.105V31.0288ZM184.884 31.0288V33.0288C186.558 33.0288 188.403 32.8324 190.408 32.4577L190.041 30.4917L189.673 28.5257C187.847 28.8671 186.254 29.0288 184.884 29.0288V31.0288ZM190.041 30.4917L190.951 32.2726C195.745 29.8226 201.589 27.2442 208.495 24.539L207.765 22.6768L207.036 20.8146C200.048 23.552 194.076 26.1835 189.13 28.7108L190.041 30.4917ZM207.765 22.6768L205.954 23.5251C206.75 25.2248 207.352 26.5178 207.761 27.4066C207.966 27.8518 208.12 28.1901 208.224 28.4253C208.365 28.7421 208.354 28.7339 208.32 28.6225L210.236 28.0479L212.151 27.4732C212.091 27.2723 211.956 26.9732 211.878 26.7976C211.764 26.5404 211.602 26.185 211.395 25.735C210.98 24.8334 210.374 23.5304 209.576 21.8284L207.765 22.6768ZM210.236 28.0479L209.513 26.183C206.604 27.3104 203.264 28.7317 199.499 30.4434L200.326 32.2642L201.154 34.0849C204.872 32.3949 208.139 31.0054 210.958 29.9127L210.236 28.0479ZM200.326 32.2642L199.486 30.4494C194.565 32.729 190.048 35.0774 185.938 37.4961L186.952 39.2197L187.967 40.9434C191.949 38.5997 196.348 36.3111 201.167 34.0789L200.326 32.2642ZM186.952 39.2197L185.895 37.5218C184.102 38.6381 182.55 39.6959 181.249 40.6951L182.467 42.2812L183.686 43.8674C184.855 42.9688 186.293 41.9856 188.009 40.9177L186.952 39.2197ZM182.467 42.2812L181.225 40.7135C180.262 41.4765 179.449 42.2232 178.828 42.9534C178.227 43.6615 177.691 44.4873 177.482 45.4114L179.433 45.853L181.383 46.2947C181.383 46.2952 181.399 46.2293 181.478 46.0907C181.557 45.9533 181.683 45.771 181.877 45.5434C182.268 45.0831 182.864 44.5183 183.709 43.849L182.467 42.2812ZM179.433 45.853L178.018 44.4388C177.693 44.7637 177.567 45.1123 177.523 45.2424C177.469 45.407 177.444 45.5479 177.433 45.6306C177.409 45.798 177.406 45.9481 177.406 46.041H179.406H181.406C181.406 46.0413 181.406 46.0442 181.406 46.0493C181.406 46.0544 181.405 46.0627 181.405 46.074C181.404 46.0933 181.401 46.1369 181.392 46.1963C181.385 46.2477 181.366 46.3629 181.318 46.5073C181.282 46.6173 181.163 46.9513 180.847 47.2672L179.433 45.853ZM179.406 46.041H177.406V46.1484H179.406H181.406V46.041H179.406ZM179.406 46.1484H177.406C177.406 47.8459 178.846 48.5999 179.549 48.8726C180.396 49.201 181.49 49.3808 182.7 49.484L182.87 47.4912L183.04 45.4984C181.94 45.4047 181.302 45.2622 180.995 45.143C180.842 45.0837 180.905 45.0803 181.031 45.2054C181.198 45.3707 181.406 45.7017 181.406 46.1484H179.406ZM182.87 47.4912L182.783 49.4893C183.605 49.525 184.218 49.5449 184.589 49.5449V47.5449V45.5449C184.315 45.5449 183.783 45.529 182.957 45.4931L182.87 47.4912ZM184.589 47.5449V49.5449C189.388 49.5449 195.161 48.7039 201.873 47.0713L201.4 45.1279L200.928 43.1846C194.391 44.7747 188.956 45.5449 184.589 45.5449V47.5449ZM201.4 45.1279L201.919 47.0595C203.893 46.5295 205.59 45.9999 206.996 45.4677L206.288 43.5972L205.58 41.7266C204.337 42.1971 202.775 42.6879 200.882 43.1964L201.4 45.1279ZM206.288 43.5972L208.089 42.7263C207.158 40.8027 206.446 39.3232 205.952 38.2857C205.705 37.7665 205.514 37.3619 205.378 37.0694C205.31 36.9228 205.257 36.8087 205.22 36.7246C205.177 36.6292 205.166 36.6028 205.171 36.615L203.307 37.3398L201.443 38.0647C201.607 38.4849 202.659 40.6869 204.488 44.4681L206.288 43.5972ZM203.307 37.3398L204.127 39.164L209.444 36.7739L208.625 34.9497L207.805 33.1255L202.487 35.5157L203.307 37.3398ZM208.625 34.9497L206.82 35.8122L214.098 51.0392L215.902 50.1768L217.707 49.3143L210.429 34.0872L208.625 34.9497ZM215.902 50.1768H213.902V50.2036H215.902H217.902V50.1768H215.902ZM215.902 50.2036L215.083 48.3791C213.329 49.1666 212.012 49.7562 211.129 50.1485C210.687 50.3449 210.358 50.4902 210.139 50.5856C210.028 50.6339 209.952 50.6663 209.907 50.6854C209.882 50.6957 209.878 50.6972 209.886 50.694C209.888 50.6933 209.912 50.6837 209.948 50.6717C209.964 50.6663 210.005 50.6522 210.061 50.6371C210.088 50.6296 210.138 50.6164 210.202 50.6039C210.246 50.5954 210.393 50.5669 210.585 50.5669V52.5669V54.5669C210.777 54.5669 210.925 54.5383 210.97 54.5296C211.035 54.5169 211.086 54.5034 211.115 54.4956C211.173 54.4797 211.219 54.4644 211.239 54.4575C211.283 54.4424 211.32 54.4282 211.338 54.4214C211.378 54.4058 211.419 54.3888 211.453 54.3746C211.525 54.3444 211.621 54.303 211.736 54.2528C211.969 54.1512 212.309 54.0011 212.753 53.8037C213.643 53.4082 214.966 52.8162 216.722 52.0282L215.902 50.2036ZM210.585 52.5669L212.393 51.7116C210.844 48.4375 209.901 46.479 209.636 46.0155L207.899 47.0078L206.163 48.0001C206.163 48.0001 206.163 48.0009 206.164 48.0028C206.165 48.0047 206.167 48.0072 206.169 48.0107C206.173 48.0176 206.178 48.0269 206.184 48.039C206.197 48.0634 206.214 48.0953 206.235 48.1359C206.277 48.2172 206.331 48.324 206.398 48.4583C206.531 48.7267 206.709 49.0895 206.931 49.5495C207.375 50.4688 207.99 51.7589 208.777 53.4222L210.585 52.5669ZM207.899 47.0078L207.146 45.1553C204.217 46.3471 200.054 47.5539 194.603 48.7612L195.036 50.7139L195.468 52.6665C201.01 51.439 205.423 50.175 208.653 48.8603L207.899 47.0078ZM195.036 50.7139L194.642 48.753C189.635 49.7579 185.442 50.2446 182.038 50.2446V52.2446V54.2446C185.795 54.2446 190.267 53.7108 195.429 52.6748L195.036 50.7139ZM182.038 52.2446V50.2446C179.478 50.2446 177.533 49.9742 176.129 49.5075C174.736 49.0443 174.011 48.4368 173.643 47.8387L171.94 48.8877L170.237 49.9366C171.247 51.5766 172.895 52.6475 174.867 53.3033C176.829 53.9555 179.244 54.2446 182.038 54.2446V52.2446ZM171.94 48.8877L173.72 47.9751C173.492 47.5317 173.403 47.1353 173.403 46.7661H171.403H169.403C169.403 47.8292 169.672 48.8472 170.16 49.8003L171.94 48.8877ZM171.403 46.7661H173.403V46.605H171.403H169.403V46.7661H171.403ZM171.403 46.605H173.403C173.403 45.2761 174.302 43.4115 177.089 41.0009L175.78 39.4883L174.472 37.9757C171.422 40.6138 169.403 43.4937 169.403 46.605H171.403ZM175.78 39.4883L177.102 40.989C178.523 39.7377 180.161 38.507 182.024 37.2994L180.937 35.6211L179.849 33.9428C177.845 35.2417 176.046 36.5891 174.458 37.9876L175.78 39.4883ZM180.937 35.6211V33.6211H180.883V35.6211V37.6211H180.937V35.6211ZM180.883 35.6211V33.6211C180.6 33.6211 180.284 33.6288 180.009 33.668L180.292 35.6479L180.575 37.6278C180.549 37.6315 180.559 37.6287 180.625 37.6257C180.684 37.623 180.769 37.6211 180.883 37.6211V35.6211ZM180.292 35.6479V33.6479C176.286 33.6479 174.69 32.7108 174.156 31.8383L172.45 32.8818L170.744 33.9254C172.466 36.741 176.099 37.6479 180.292 37.6479V35.6479ZM172.45 32.8818L174.178 31.8741C173.982 31.5379 173.886 31.1878 173.886 30.7871H171.886H169.886C169.886 31.8903 170.167 32.9367 170.723 33.8896L172.45 32.8818ZM171.886 30.7871H173.886V30.5454H171.886H169.886V30.7871H171.886ZM171.886 30.5454H173.886C173.886 28.2573 175.868 25.4069 181.751 22.235L180.802 20.4746L179.853 18.7142C173.848 21.9518 169.886 25.8153 169.886 30.5454H171.886ZM180.802 20.4746L181.8 22.2079C182.328 21.9038 182.991 21.5628 183.799 21.1849L182.951 19.3735L182.103 17.5622C181.227 17.972 180.458 18.3651 179.804 18.7414L180.802 20.4746ZM182.951 19.3735V21.3735C183.277 21.3735 183.889 21.2906 184.405 20.7743C184.921 20.258 185.004 19.646 185.004 19.3198H183.004H181.004C181.004 19.0294 181.078 18.4443 181.577 17.9459C182.075 17.4475 182.66 17.3735 182.951 17.3735V19.3735ZM183.004 19.3198V17.3198H169.792V19.3198V21.3198H183.004V19.3198ZM169.792 19.3198H171.792V15.5063H169.792H167.792V19.3198H169.792ZM169.792 15.5063V17.5063H189.772V15.5063V13.5063H169.792V15.5063ZM189.772 15.5063H191.772V10.0278H189.772H187.772V15.5063H189.772ZM234.218 10.1353L235.397 8.51993L233.807 7.35894L232.621 8.93085L234.218 10.1353ZM239.105 13.7607L240.733 14.9228L241.806 13.4201L240.394 12.2309L239.105 13.7607ZM231.237 24.8252L229.594 23.6839L229.55 23.7472L229.511 23.8138L231.237 24.8252ZM230.753 26.1411L228.756 26.0412L228.753 26.0911V26.1411H230.753ZM232.016 27.0542L231.804 29.043L231.91 29.0542H232.016V27.0542ZM234.647 26.7856L235.091 28.7359L235.848 28.5638L236.291 27.9256L234.647 26.7856ZM239.911 19.2661L241.055 17.6259L239.597 16.6086L238.416 17.9374L239.911 19.2661ZM244.96 22.8379L246.63 23.939L247.626 22.4274L246.221 21.2857L244.96 22.8379ZM230.968 44.0537L229.299 42.9526L229.226 43.0626L229.169 43.1812L230.968 44.0537ZM231.801 46.5244L231.506 48.5026L231.61 48.518L231.714 48.5225L231.801 46.5244ZM232.445 46.5781L231.031 47.9923L231.617 48.5781H232.445V46.5781ZM239.643 45.1548L240.177 47.082L242.033 46.5672L241.589 44.6937L239.643 45.1548ZM238.058 38.3604L237.634 36.4059L236.058 36.7481V38.3604H238.058ZM243.375 37.2056L245.322 36.7451L244.87 34.8344L242.951 35.2511L243.375 37.2056ZM246.625 51.063V53.063H248.956L248.602 50.7589L246.625 51.063ZM246.598 51.063V49.063H246.384L246.174 49.1084L246.598 51.063ZM241.281 52.1909H239.281V54.4254L241.502 54.1787L241.281 52.1909ZM241.281 52.1641H243.281V51.9319L243.228 51.706L241.281 52.1641ZM240.529 48.8877H242.529V46.2008L239.955 46.9718L240.529 48.8877ZM222.348 48.3506L220.572 49.2712L220.609 49.3425L220.652 49.4106L222.348 48.3506ZM224.684 41.0459L226.277 42.2555L226.343 42.1685L226.399 42.0749L224.684 41.0459ZM231.532 31.2168L233.172 32.3616L235.367 29.2168H231.532V31.2168ZM231.505 31.2168V29.2168H231.349L231.195 29.2411L231.505 31.2168ZM222.616 30.062L221.06 31.3187L221.08 31.3425L221.1 31.3658L222.616 30.062ZM224.818 22.5962L226.4 23.8208L226.407 23.8107L226.415 23.8006L224.818 22.5962ZM267.492 14.0024L269.265 13.0773L269.259 13.067L269.254 13.0568L267.492 14.0024ZM268.136 52.3252V54.3252H270.136V52.3252H268.136ZM260.16 52.3252H258.16V54.3252H260.16V52.3252ZM258.334 16.3389L259.249 14.5606L259.2 14.5354L259.15 14.5128L258.334 16.3389ZM243.188 18.1919H241.188V20.9208L243.79 20.0991L243.188 18.1919ZM243.188 18.165H245.188V17.8356L245.082 17.5236L243.188 18.165ZM242.033 14.6738L241.282 12.8201L240.033 13.3261V14.6738H242.033ZM252.453 11.5317L252.055 9.57157L252.029 9.57685L252.004 9.58281L252.453 11.5317ZM234.218 10.1353L233.038 11.7506C236.001 13.913 237.546 15.0622 237.817 15.2906L239.105 13.7607L240.394 12.2309C239.985 11.8864 238.272 10.6185 235.397 8.51993L234.218 10.1353ZM239.105 13.7607L237.478 12.5987C232.971 18.9122 230.338 22.6142 229.594 23.6839L231.237 24.8252L232.879 25.9665C233.604 24.9235 236.217 21.2493 240.733 14.9228L239.105 13.7607ZM231.237 24.8252L229.511 23.8138C229.141 24.4453 228.797 25.2136 228.756 26.0412L230.753 26.1411L232.751 26.241C232.747 26.3139 232.734 26.3172 232.765 26.2332C232.795 26.1519 232.854 26.0213 232.962 25.8366L231.237 24.8252ZM230.753 26.1411H228.753C228.753 27.0425 229.167 27.851 229.897 28.3792C230.515 28.8264 231.232 28.9821 231.804 29.043L232.016 27.0542L232.227 25.0654C231.958 25.0368 232.044 24.9955 232.241 25.1383C232.36 25.2246 232.505 25.3686 232.613 25.5804C232.722 25.7921 232.753 25.9939 232.753 26.1411H230.753ZM232.016 27.0542V29.0542H232.553V27.0542V25.0542H232.016V27.0542ZM232.553 27.0542V29.0542C233.35 29.0542 234.202 28.938 235.091 28.7359L234.647 26.7856L234.204 24.8354C233.518 24.9914 232.973 25.0542 232.553 25.0542V27.0542ZM234.647 26.7856L236.291 27.9256C237.973 25.5003 239.251 23.6635 240.126 22.4138C240.564 21.7884 240.898 21.3133 241.131 20.9861C241.416 20.5864 241.464 20.53 241.406 20.5948L239.911 19.2661L238.416 17.9374C238.287 18.0828 238.062 18.4001 237.872 18.6674C237.63 19.0071 237.289 19.492 236.849 20.1199C235.97 21.3767 234.688 23.2191 233.004 25.6456L234.647 26.7856ZM239.911 19.2661L238.767 20.9064C240.305 21.9798 241.492 22.8116 242.328 23.4031C242.746 23.6991 243.074 23.9325 243.312 24.1047C243.431 24.1909 243.525 24.2593 243.594 24.3111C243.629 24.337 243.656 24.357 243.675 24.3719C243.696 24.3878 243.702 24.3929 243.699 24.3901L244.96 22.8379L246.221 21.2857C245.86 20.9924 244.082 19.7375 241.055 17.6259L239.911 19.2661ZM244.96 22.8379L243.29 21.7368L229.299 42.9526L230.968 44.0537L232.638 45.1548L246.63 23.939L244.96 22.8379ZM230.968 44.0537L229.169 43.1812C228.878 43.7797 228.539 44.5834 228.539 45.3696H230.539H232.539C232.539 45.4592 232.528 45.5114 232.528 45.5138C232.527 45.5186 232.531 45.4977 232.547 45.4466C232.582 45.3409 232.649 45.1712 232.768 44.9263L230.968 44.0537ZM230.539 45.3696H228.539V45.5039H230.539H232.539V45.3696H230.539ZM230.539 45.5039H228.539C228.539 46.3673 228.903 47.1695 229.597 47.7306C230.2 48.2185 230.916 48.4147 231.506 48.5026L231.801 46.5244L232.095 44.5462C231.844 44.5088 231.929 44.4723 232.112 44.62C232.219 44.7069 232.34 44.8425 232.428 45.0292C232.515 45.2143 232.539 45.3847 232.539 45.5039H230.539ZM231.801 46.5244L231.714 48.5225C231.913 48.5312 232.038 48.5388 232.105 48.5444C232.143 48.5476 232.131 48.5475 232.091 48.5414C232.076 48.5391 232.007 48.5285 231.914 48.5039C231.869 48.4919 231.777 48.4656 231.664 48.418C231.605 48.3936 231.521 48.3546 231.423 48.297C231.332 48.2426 231.184 48.1456 231.031 47.9923L232.445 46.5781L233.86 45.1639C233.582 44.8863 233.293 44.7642 233.216 44.7315C233.097 44.6817 232.998 44.6532 232.945 44.6389C232.835 44.6098 232.743 44.5948 232.699 44.588C232.601 44.5729 232.506 44.5639 232.437 44.5582C232.289 44.5459 232.101 44.5356 231.888 44.5263L231.801 46.5244ZM232.445 46.5781V48.5781C234.13 48.5781 236.773 48.0266 240.177 47.082L239.643 45.1548L239.108 43.2276C235.673 44.1807 233.518 44.5781 232.445 44.5781V46.5781ZM239.643 45.1548L241.589 44.6937C241.061 42.4652 240.665 40.7873 240.402 39.6585C240.27 39.0934 240.172 38.6696 240.108 38.3843C240.075 38.2406 240.053 38.1385 240.039 38.0734C240.036 38.0576 240.033 38.0455 240.031 38.0365C240.029 38.0271 240.029 38.0235 240.029 38.0244C240.029 38.025 240.03 38.0281 240.03 38.0332C240.031 38.0379 240.033 38.0477 240.035 38.061C240.037 38.0724 240.041 38.0979 240.045 38.1314C240.047 38.1477 240.058 38.2405 240.058 38.3604H238.058H236.058C236.058 38.4825 236.07 38.5786 236.072 38.5992C236.077 38.6371 236.081 38.668 236.084 38.686C236.09 38.7226 236.096 38.7547 236.1 38.7746C236.108 38.8169 236.117 38.8631 236.127 38.9067C236.146 38.9965 236.173 39.1179 236.206 39.2663C236.274 39.5651 236.374 39.9995 236.506 40.5669C236.771 41.7029 237.168 43.3864 237.696 45.6159L239.643 45.1548ZM238.058 38.3604L238.483 40.3148L243.8 39.16L243.375 37.2056L242.951 35.2511L237.634 36.4059L238.058 38.3604ZM243.375 37.2056L241.429 37.666C242.494 42.1685 243.297 45.5731 243.839 47.8807C244.109 49.0348 244.314 49.9126 244.453 50.5154C244.608 51.1863 244.654 51.405 244.648 51.3671L246.625 51.063L248.602 50.7589C248.568 50.5405 248.255 49.1947 247.733 46.9675C247.191 44.6559 246.387 41.2482 245.322 36.7451L243.375 37.2056ZM246.625 51.063V49.063H246.598V51.063V53.063H246.625V51.063ZM246.598 51.063L246.174 49.1084C244.483 49.4753 243.198 49.752 242.316 49.939C241.875 50.0327 241.538 50.103 241.305 50.1506C241.007 50.2113 240.985 50.2114 241.06 50.2032L241.281 52.1909L241.502 54.1787C241.657 54.1614 241.917 54.1079 242.103 54.0701C242.353 54.0193 242.701 53.9463 243.146 53.852C244.037 53.663 245.329 53.3847 247.022 53.0175L246.598 51.063ZM241.281 52.1909H243.281V52.1641H241.281H239.281V52.1909H241.281ZM241.281 52.1641L243.228 51.706C242.977 50.6416 242.79 49.8402 242.666 49.2997C242.604 49.0285 242.559 48.8283 242.53 48.6953C242.515 48.6275 242.506 48.5858 242.502 48.5643C242.499 48.5522 242.501 48.5577 242.503 48.5733C242.504 48.5805 242.508 48.6029 242.512 48.6339C242.513 48.6382 242.529 48.7477 242.529 48.8877H240.529H238.529C238.529 49.0311 238.545 49.146 238.547 49.1576C238.552 49.196 238.557 49.2279 238.56 49.2465C238.567 49.2851 238.574 49.3217 238.579 49.3487C238.591 49.4056 238.606 49.4747 238.622 49.5501C238.656 49.7035 238.704 49.9196 238.767 50.1945C238.894 50.746 239.083 51.556 239.334 52.6221L241.281 52.1641ZM240.529 48.8877L239.955 46.9718C236.034 48.1463 232.488 48.7139 229.303 48.7139V50.7139V52.7139C232.957 52.7139 236.895 52.064 241.103 50.8036L240.529 48.8877ZM229.303 50.7139V48.7139C225.711 48.7139 224.422 47.8963 224.044 47.2906L222.348 48.3506L220.652 49.4106C222.242 51.9559 225.59 52.7139 229.303 52.7139V50.7139ZM222.348 48.3506L224.123 47.43C224.028 47.2459 223.972 47.0358 223.972 46.7661H221.972H219.972C219.972 47.6422 220.166 48.4884 220.572 49.2712L222.348 48.3506ZM221.972 46.7661H223.972C223.972 46.0439 224.497 44.5989 226.277 42.2555L224.684 41.0459L223.091 39.8363C221.254 42.2552 219.972 44.6238 219.972 46.7661H221.972ZM224.684 41.0459L226.399 42.0749C226.379 42.1079 226.889 41.37 228.077 39.6648C229.218 38.0274 230.916 35.5931 233.172 32.3616L231.532 31.2168L229.892 30.072C227.636 33.3037 225.937 35.7392 224.795 37.3782C223.701 38.9493 223.043 39.8944 222.969 40.0169L224.684 41.0459ZM231.532 31.2168V29.2168H231.505V31.2168V33.2168H231.532V31.2168ZM231.505 31.2168L231.195 29.2411C229.658 29.4827 228.436 29.5928 227.504 29.5928V31.5928V33.5928C228.72 33.5928 230.165 33.4522 231.816 33.1925L231.505 31.2168ZM227.504 31.5928V29.5928C225.283 29.5928 224.422 29.0942 224.133 28.7582L222.616 30.062L221.1 31.3658C222.565 33.0708 224.962 33.5928 227.504 33.5928V31.5928ZM222.616 30.062L224.172 28.8053C224.089 28.7023 224.052 28.6107 224.052 28.4507H222.052H220.052C220.052 29.5081 220.392 30.4908 221.06 31.3187L222.616 30.062ZM222.052 28.4507H224.052V28.3164H222.052H220.052V28.4507H222.052ZM222.052 28.3164H224.052C224.052 27.6072 224.582 26.1679 226.4 23.8208L224.818 22.5962L223.237 21.3716C221.367 23.7869 220.052 26.161 220.052 28.3164H222.052ZM224.818 22.5962L226.415 23.8006L235.814 11.3397L234.218 10.1353L232.621 8.93085L223.222 21.3918L224.818 22.5962ZM259.516 10.6992V12.6992H259.757V10.6992V8.69922H259.516V10.6992ZM259.757 10.6992V12.6992C263.463 12.6992 265.072 13.7232 265.729 14.9481L267.492 14.0024L269.254 13.0568C267.548 9.87743 264.001 8.69922 259.757 8.69922V10.6992ZM267.492 14.0024L265.719 14.9276C265.971 15.4106 266.136 16.0556 266.136 16.9297H268.136H270.136C270.136 15.5479 269.872 14.2414 269.265 13.0773L267.492 14.0024ZM268.136 16.9297H266.136V52.3252H268.136H270.136V16.9297H268.136ZM268.136 52.3252V50.3252H260.16V52.3252V54.3252H268.136V52.3252ZM260.16 52.3252H262.16V19.105H260.16H258.16V52.3252H260.16ZM260.16 19.105H262.16C262.16 18.146 261.915 17.2194 261.373 16.3985C260.839 15.5902 260.091 14.9938 259.249 14.5606L258.334 16.3389L257.419 18.1171C257.794 18.3106 257.959 18.4885 258.035 18.6023C258.101 18.7033 258.16 18.8465 258.16 19.105H260.16ZM258.334 16.3389L259.15 14.5128C257.959 13.981 256.55 13.7749 255.031 13.7749V15.7749V17.7749C256.233 17.7749 257.026 17.9448 257.518 18.1649L258.334 16.3389ZM255.031 15.7749V13.7749C251.923 13.7749 247.739 14.6573 242.585 16.2847L243.188 18.1919L243.79 20.0991C248.841 18.5038 252.552 17.7749 255.031 17.7749V15.7749ZM243.188 18.1919H245.188V18.165H243.188H241.188V18.1919H243.188ZM243.188 18.165L245.082 17.5236C244.697 16.3879 244.41 15.5338 244.22 14.9588C244.125 14.6702 244.056 14.4586 244.012 14.3193C243.989 14.2479 243.977 14.2067 243.971 14.188C243.968 14.1767 243.972 14.188 243.978 14.2118C243.98 14.2226 243.988 14.2547 243.997 14.2985C243.997 14.2988 244.033 14.4637 244.033 14.6738H242.033H240.033C240.033 14.8873 240.069 15.0577 240.071 15.0658C240.081 15.1172 240.091 15.1592 240.097 15.182C240.109 15.2298 240.121 15.2739 240.13 15.304C240.149 15.3681 240.172 15.4444 240.198 15.5252C240.25 15.6902 240.326 15.9218 240.423 16.215C240.617 16.8037 240.908 17.6685 241.293 18.8064L243.188 18.165ZM242.033 14.6738L242.784 16.5275C245.485 15.4332 248.851 14.4141 252.902 13.4807L252.453 11.5317L252.004 9.58281C247.819 10.5471 244.238 11.6228 241.282 12.8201L242.033 14.6738ZM252.453 11.5317L252.85 13.4919C255.508 12.9533 257.722 12.6992 259.516 12.6992V10.6992V8.69922C257.37 8.69922 254.876 9.00012 252.055 9.57157L252.453 11.5317Z" fill="white" mask="url(#path-1-outside-1_358_191)"/>
</g>
<path d="M27.1084 14.7275C32.7839 33.3115 35.7111 42.9258 35.8901 43.5703C35.9618 43.7493 36.4899 45.4591 37.4746 48.6997H29.4985C29.4985 48.646 28.2721 44.6087 25.8193 36.5879H16.5273C16.4915 36.5879 16.3394 37.0444 16.0708 37.9575L12.7944 48.6997H6.26855C6.73405 47.1421 9.57178 37.8411 14.7817 20.7969L16.6348 14.7275H27.1084ZM21.1465 21.334L17.6553 32.7476H24.6377V32.7207C22.4355 25.5234 21.2808 21.7279 21.1733 21.334H21.1465ZM40.1602 14.6738H64.0615V18.4604C64.0615 18.4963 64.0436 18.5142 64.0078 18.5142H56.0854V44.8862H64.8672V48.6997H39.3545V44.8862H48.1362V18.5142H40.2139C40.1781 18.5142 40.1602 18.4963 40.1602 18.4604V14.6738ZM67.9019 27.2422H115.678V31.0825H67.9019C67.866 31.0825 67.8481 31.0646 67.8481 31.0288V27.2959C67.8481 27.2601 67.866 27.2422 67.9019 27.2422ZM151.933 10.5649H152.953C156.623 10.5649 159.64 11.2363 162.003 12.5791C163.633 13.5638 164.743 14.9245 165.333 16.6611C165.602 17.5205 165.736 18.6305 165.736 19.9912V51.7881C163.624 51.7881 162.469 51.797 162.272 51.8149C157.76 51.797 153.759 51.7881 150.268 51.7881H139.982C135.524 51.7881 129.866 51.797 123.009 51.8149C122.83 51.797 122.383 51.7881 121.667 51.7881V11.3975C121.667 11.3617 121.684 11.3438 121.72 11.3438H129.589C129.625 11.3438 129.643 11.3617 129.643 11.3975V14.9155C132.955 13.7339 136.983 12.6597 141.728 11.6929C145.72 10.9409 149.122 10.5649 151.933 10.5649ZM137.27 17.0103C137.323 17.064 137.789 17.2878 138.666 17.6816C139.4 18.0218 139.875 18.2546 140.089 18.3799L139.069 20.2598H154.967V23.9927C154.824 24.5835 154.35 25.4787 153.544 26.6782C153.15 27.2332 152.497 27.9583 151.583 28.8535C151.046 29.3369 150.411 29.8472 149.677 30.3843V30.4111C151.127 30.6081 152.479 30.7065 153.732 30.7065H154.242C154.887 30.7065 155.701 30.6797 156.686 30.626V35.7554C154.036 35.6121 151.771 35.3615 149.892 35.0034C147.618 34.52 145.756 33.9829 144.306 33.3921L144.037 33.2847C142.981 33.6965 141.665 34.1082 140.089 34.52V34.5469C141.128 35.1735 142.166 35.6838 143.205 36.0776C145.371 36.8833 147.94 37.2861 150.912 37.2861H151.369C151.727 37.2861 152.264 37.2772 152.98 37.2593C153.016 38.3872 153.034 39.2913 153.034 39.9717C151.387 40.2223 149.739 40.3477 148.092 40.3477C144.046 40.3477 140.492 39.7568 137.431 38.5752C136.679 38.2529 136.016 37.9038 135.443 37.5278C136.285 36.006 136.706 35.2272 136.706 35.1914H136.679C135.443 35.4062 133.823 35.5853 131.818 35.7285C131.531 35.7285 131.281 35.7375 131.066 35.7554V30.626C132.051 30.6797 132.919 30.7065 133.671 30.7065H133.698C135.524 30.7065 137.278 30.5633 138.961 30.2769C137.744 29.131 137.046 28.388 136.867 28.0479C136.383 27.4033 136.016 26.8394 135.766 26.356H135.739C135.166 27.466 134.853 28.0299 134.799 28.0479H134.772L130.502 26.0337V26.0068L135.148 17.4668H135.094C133.179 17.8786 131.361 18.353 129.643 18.8901V47.9746H157.76V20.8506C157.76 18.4694 155.943 16.9297 152.309 16.2314C150.876 15.9987 149.417 15.8823 147.931 15.8823C144.995 15.8823 141.441 16.2583 137.27 17.0103ZM139.042 24.1001V24.127C140.206 26.0605 141.96 27.6182 144.306 28.7998C147.242 27.5645 149.363 25.9979 150.67 24.1001H139.042ZM136.168 39.0586C138.263 40.6699 140.797 41.8158 143.769 42.4961C146.114 43.069 148.62 43.3555 151.288 43.3555H151.798C152.64 43.3555 153.231 43.3376 153.571 43.3018L153.678 46.0142C152.085 46.229 150.259 46.3364 148.2 46.3364C142.793 46.3364 138.415 45.674 135.067 44.3491C134.548 44.0985 134.083 43.8478 133.671 43.5972C135.264 40.661 136.097 39.1481 136.168 39.0586ZM189.772 10.0278H197.748V15.5063H217.729V19.3198H199.01C198.598 19.3198 196.486 19.9733 192.672 21.2803C188.035 23.0527 184.535 24.8521 182.172 26.6782C180.686 27.9494 179.943 28.8893 179.943 29.498V29.5786C179.943 30.1515 180.632 30.5723 182.011 30.8408C182.637 30.9661 183.336 31.0288 184.105 31.0288H184.884C186.406 31.0288 188.125 30.8498 190.041 30.4917C194.91 28.0031 200.819 25.3981 207.765 22.6768C209.359 26.0785 210.182 27.8688 210.236 28.0479C207.371 29.1579 204.068 30.5633 200.326 32.2642C195.456 34.52 190.998 36.8385 186.952 39.2197C185.198 40.3118 183.703 41.3324 182.467 42.2812C180.659 43.7135 179.647 44.9041 179.433 45.853C179.415 45.8709 179.406 45.9336 179.406 46.041V46.1484C179.406 46.8467 180.561 47.2943 182.87 47.4912C183.694 47.527 184.267 47.5449 184.589 47.5449C189.172 47.5449 194.776 46.7393 201.4 45.1279C203.334 44.6087 204.963 44.0985 206.288 43.5972C204.426 39.7479 203.432 37.6621 203.307 37.3398L208.625 34.9497L215.902 50.1768V50.2036C212.393 51.7791 210.621 52.5669 210.585 52.5669C209.009 49.2368 208.114 47.3838 207.899 47.0078C204.82 48.2611 200.532 49.4964 195.036 50.7139C189.951 51.7344 185.618 52.2446 182.038 52.2446C176.684 52.2446 173.319 51.1257 171.94 48.8877C171.582 48.1895 171.403 47.4823 171.403 46.7661V46.605C171.403 44.3849 172.862 42.0127 175.78 39.4883C177.284 38.1634 179.003 36.8743 180.937 35.6211H180.883C180.614 35.6211 180.417 35.63 180.292 35.6479C176.192 35.6479 173.578 34.7259 172.45 32.8818C172.074 32.2373 171.886 31.5391 171.886 30.7871V30.5454C171.886 27.0363 174.858 23.6794 180.802 20.4746C181.393 20.1344 182.109 19.7674 182.951 19.3735C182.986 19.3735 183.004 19.3556 183.004 19.3198H169.792V15.5063H189.772V10.0278ZM234.218 10.1353C237.136 12.2658 238.765 13.4743 239.105 13.7607C234.594 20.0807 231.971 23.7689 231.237 24.8252C230.932 25.3444 230.771 25.783 230.753 26.1411C230.753 26.6603 231.174 26.9647 232.016 27.0542H232.553C233.161 27.0542 233.86 26.9647 234.647 26.7856C238.013 21.9338 239.768 19.4272 239.911 19.2661C242.991 21.4146 244.674 22.6051 244.96 22.8379L230.968 44.0537C230.682 44.6445 230.539 45.0832 230.539 45.3696V45.5039C230.539 46.0589 230.959 46.3991 231.801 46.5244C232.213 46.5423 232.427 46.5602 232.445 46.5781C233.824 46.5781 236.223 46.1037 239.643 45.1548C238.586 40.6968 238.058 38.432 238.058 38.3604L243.375 37.2056C245.506 46.2111 246.589 50.8302 246.625 51.063H246.598C243.214 51.797 241.442 52.173 241.281 52.1909V52.1641C240.779 50.0335 240.529 48.9414 240.529 48.8877C236.465 50.1051 232.723 50.7139 229.303 50.7139C225.651 50.7139 223.332 49.9261 222.348 48.3506C222.097 47.8672 221.972 47.339 221.972 46.7661C221.972 45.3338 222.876 43.4271 224.684 41.0459C224.738 40.9564 227.021 37.68 231.532 31.2168H231.505C229.912 31.4674 228.578 31.5928 227.504 31.5928C225.123 31.5928 223.493 31.0825 222.616 30.062C222.24 29.5965 222.052 29.0594 222.052 28.4507V28.3164C222.052 26.8841 222.974 24.9774 224.818 22.5962L234.218 10.1353ZM259.516 10.6992H259.757C263.732 10.6992 266.31 11.8003 267.492 14.0024C267.921 14.826 268.136 15.8018 268.136 16.9297V52.3252H260.16V19.105C260.16 17.8875 259.551 16.9655 258.334 16.3389C257.493 15.9629 256.391 15.7749 255.031 15.7749C252.238 15.7749 248.29 16.5806 243.188 18.1919V18.165C242.418 15.8913 242.033 14.7275 242.033 14.6738C244.861 13.528 248.335 12.4806 252.453 11.5317C255.192 10.9767 257.546 10.6992 259.516 10.6992Z" fill="black"/>
<defs>
<filter id="filter0_f_358_191" x="0.983496" y="4.75889" width="271.753" height="52.408" filterUnits="userSpaceOnUse" color-interpolation-filters="sRGB">
<feFlood flood-opacity="0" result="BackgroundImageFix"/>
<feBlend mode="normal" in="SourceGraphic" in2="BackgroundImageFix" result="shape"/>
<feGaussianBlur stdDeviation="1.3" result="effect1_foregroundBlur_358_191"/>
</filter>
</defs>
</svg>
