<svg width="477" height="39" viewBox="0 0 477 39" fill="none" xmlns="http://www.w3.org/2000/svg">
<path d="M18.64 16.48V32.76H35.76V36.44H0.28V32.76H14.6V1.48H18.64V12.76H33.16V16.48H18.64ZM76.24 17.76H60.48C60.1067 19.04 59.72 20.2533 59.32 21.4H73.28V24.8C71.7867 26.9867 69.9067 29.5867 67.64 32.6L73.36 35.2L71.8 38.64C69.0533 37.2533 65.9733 35.76 62.56 34.16C59.1733 32.5333 56.3333 31.2533 54.04 30.32L55.4 27.2C57.5867 28.08 60.56 29.3733 64.32 31.08C65.0933 30.0933 65.92 28.9867 66.8 27.76C67.7067 26.5333 68.3867 25.56 68.84 24.84H55.28V21.68C55.6533 20.6133 56.08 19.3067 56.56 17.76H50.6V14.28H57.56C57.9867 12.6267 58.3333 11.24 58.6 10.12H52.72V6.68H59.36C59.8133 4.62667 60.16 2.78667 60.4 1.16L64.16 1.56C63.8667 3.26667 63.5467 4.97333 63.2 6.68H74.76V10.12H62.44L61.44 14.28H76.24V17.76ZM51.68 2.24C50.6667 5.36 49.5333 8.25333 48.28 10.92V38.08H44.72V17.48C43.6533 19.2133 42.32 21.1067 40.72 23.16L39.12 19.04C40.7733 16.8 42.4 14.1333 44 11.04C45.6 7.92 46.96 4.69333 48.08 1.36L51.68 2.24ZM79.92 16.52H116.08V20.64H79.92V16.52ZM147.12 20.32C147.973 23.4667 149.147 26.1333 150.64 28.32C152.16 30.48 154.187 32.36 156.72 33.96L154.2 36.76C151.4 34.8133 149.2 32.56 147.6 30C146.027 27.44 144.733 24.2133 143.72 20.32H140.2V32.72L142.08 31.88C144.213 30.92 145.467 30.36 145.84 30.2L146.24 34.08C143.04 35.36 140.773 36.3067 139.44 36.92C138.16 37.5333 137.333 37.96 136.96 38.2L135.24 34.68C135.72 34.36 136.053 34.0667 136.24 33.8C136.427 33.5333 136.52 33.2267 136.52 32.88V20.32H133.48V16.64H136.52V1.72H140.2V16.64H155.72V20.32H147.12ZM154.56 6.16C152.773 7.68 150.853 9.17333 148.8 10.64C146.747 12.1067 144.813 13.3467 143 14.36L141.04 11.32C142.773 10.36 144.68 9.12 146.76 7.6C148.84 6.05333 150.68 4.56 152.28 3.12L154.56 6.16ZM120.8 7V3.44H132.36V15.64H125.28L124.84 20.8H132.2C132.173 22.4 132.08 24.4533 131.92 26.96C131.787 29.44 131.627 31.4533 131.44 33C131.307 34.2267 131.08 35.16 130.76 35.8C130.44 36.44 129.947 36.8933 129.28 37.16C128.613 37.4267 127.667 37.56 126.44 37.56C124.76 37.56 123.32 37.4933 122.12 37.36L121.48 33.84C123.027 34.0267 124.347 34.12 125.44 34.12C126.293 34.12 126.893 33.96 127.24 33.64C127.587 33.32 127.813 32.6933 127.92 31.76C128.053 30.8267 128.16 29.6 128.24 28.08C128.347 26.5333 128.413 25.24 128.44 24.2H121.08L122 12.2H128.76V7H120.8ZM195.84 4.64V7.72H160.28V4.64H176.36C175.88 3.52 175.44 2.57333 175.04 1.8L178.96 0.799999C179.573 1.97333 180.173 3.25333 180.76 4.64H195.84ZM165.76 17.8V10H190.36V17.8H165.76ZM169.44 15.2H186.68V12.52H169.44V15.2ZM162.44 37.8V19.96H193.72V33.04C193.72 34.2933 193.56 35.2533 193.24 35.92C192.92 36.6133 192.373 37.0933 191.6 37.36C190.853 37.6533 189.787 37.8 188.4 37.8C187.2 37.8 185.973 37.72 184.72 37.56L184.08 34.36C185.44 34.5733 186.733 34.68 187.96 34.68C188.813 34.68 189.387 34.4933 189.68 34.12C190 33.7467 190.16 33.1067 190.16 32.2V22.96H165.96V37.8H162.44ZM169.96 25.2H186.16V33.32H169.96V25.2ZM173.48 30.64H182.64V27.84H173.48V30.64ZM207.4 16.32C207.4 20.1067 207.28 23.1733 207.04 25.52C206.8 27.8667 206.347 30 205.68 31.92C205.013 33.8133 204.027 35.84 202.72 38L199.24 36.08C200.6 33.8667 201.587 31.9333 202.2 30.28C202.84 28.6267 203.267 26.8 203.48 24.8C203.72 22.8 203.84 20.0667 203.84 16.6V4.08C207.947 4 212.88 3.77333 218.64 3.4C224.4 3 229.453 2.57333 233.8 2.12L234.48 5.6C230.587 6 225.96 6.38667 220.6 6.76C215.267 7.10667 210.867 7.33333 207.4 7.44V16.32ZM235.8 10.92V14.2H223.64V17.68H232.76V30H229.16V20.96H214.36V30.08H210.8V17.68H220V14.2H208.84V10.92H220V7.68H223.64V10.92H235.8ZM234.36 38.04C232.787 37.24 230.653 36.2133 227.96 34.96C225.293 33.68 223 32.6267 221.08 31.8C220.013 33.1333 218.48 34.2667 216.48 35.2C214.507 36.16 211.773 37.1067 208.28 38.04L206.88 34.64C210.373 33.76 212.987 32.9333 214.72 32.16C216.48 31.3867 217.733 30.4667 218.48 29.4C219.253 28.3067 219.733 26.8133 219.92 24.92C220.027 23.8533 220.08 22.9733 220.08 22.28L223.72 22.32C223.667 23.3333 223.6 24.2133 223.52 24.96C223.36 26.4267 223.08 27.7467 222.68 28.92C224.787 29.7733 227.147 30.7733 229.76 31.92C232.4 33.0667 234.493 34.0133 236.04 34.76L234.36 38.04ZM243.84 2.64H272.08V12.36H243.84V2.64ZM268.4 6.52V4.96H247.56V6.52H268.4ZM247.56 8.52V10.16H268.4V8.52H247.56ZM239.88 16.6V14.16H276.04V16.6H239.88ZM273.08 32.8H259.76V34.68H275.76V37.16H240.12V34.68H256.2V32.8H242.84V30.44H256.2V28.56H243.84V18.36H272.08V28.56H259.76V30.44H273.08V32.8ZM256.2 22.4V20.64H247.52V22.4H256.2ZM259.76 22.4H268.4V20.64H259.76V22.4ZM247.52 24.56V26.32H256.2V24.56H247.52ZM259.76 24.56V26.32H268.4V24.56H259.76ZM315.8 28.12V31.64H299.88V38.08H296.16V31.64H280.2V28.12H296.16V24.36H283.68V6.96H291.28C290.213 5.46667 289.147 4.10667 288.08 2.88L291.16 1.08C292.12 2.14667 293.347 3.73333 294.84 5.84L293 6.96H300.6C301.32 6.08 302.44 4.53333 303.96 2.32L304.76 1.12L308.2 2.56L307.32 3.84C307.08 4.18667 306.773 4.62667 306.4 5.16C306.027 5.69333 305.587 6.29333 305.08 6.96H312.32V24.36H299.88V28.12H315.8ZM296.16 14.08V10.32H287.44V14.08H296.16ZM299.88 14.08H308.6V10.32H299.88V14.08ZM287.44 17.28V21.08H296.16V17.28H287.44ZM299.88 17.28V21.08H308.6V17.28H299.88ZM339.64 9.84C340.413 15.0133 342.173 19.64 344.92 23.72C347.667 27.8 351.4 31.4933 356.12 34.8L353.48 38.24C349.533 35.0933 346.293 31.8933 343.76 28.64C341.253 25.36 339.36 21.88 338.08 18.2C336.907 21.88 335.053 25.3333 332.52 28.56C330.013 31.7867 326.733 34.88 322.68 37.84L319.96 34.64C323.853 31.92 326.933 29.16 329.2 26.36C331.493 23.56 333.147 20.52 334.16 17.24C335.2 13.9333 335.747 10.0933 335.8 5.72C335.853 4.81333 335.88 3.53333 335.88 1.88H339.8C339.747 3 339.72 4.76 339.72 7.16C339.72 7.77333 339.693 8.66667 339.64 9.84ZM381.72 20.88V32.68H396.16V36.44H359.8V32.68H365.72V12.84H369.56V32.68H377.76V7.88H361.68V4.12H394.88V7.88H381.72V17.16H393.56V20.88H381.72ZM435.48 6.68H419.68C419.227 8.14667 418.72 9.49333 418.16 10.72H433.48V37.88H429.88V35.56H405.88V37.84H402.24V10.72H413.84C414.4 9.57333 414.92 8.22667 415.4 6.68H400.24V3.24H435.48V6.68ZM410.6 14.12H405.88V32.28H410.6V14.12ZM414.12 18.08H421.56V14.12H414.12V18.08ZM425.12 32.28H429.88V14.12H425.12V32.28ZM414.12 25.24H421.56V21.2H414.12V25.24ZM421.56 28.28H414.12V32.28H421.56V28.28ZM463.92 7.88C463.493 9.64 462.76 11.0533 461.72 12.12C460.68 13.16 459.027 14.32 456.76 15.6L454.76 12.76C456.52 11.9067 457.84 11.0267 458.72 10.12C459.6 9.18667 460.253 8.05333 460.68 6.72L460.8 6.32H455.84V3.08H474.32C474.293 4.25333 474.227 5.61333 474.12 7.16C474.013 8.70667 473.893 9.93333 473.76 10.84C473.547 12.28 473.12 13.28 472.48 13.84C471.84 14.3733 470.747 14.6533 469.2 14.68C467.973 14.7067 466.733 14.6533 465.48 14.52L464.96 11.52C466.4 11.68 467.467 11.76 468.16 11.76C469.013 11.76 469.6 11.6267 469.92 11.36C470.267 11.0667 470.48 10.5867 470.56 9.92C470.72 8.42667 470.8 7.22667 470.8 6.32H464.28L463.92 7.88ZM442 3.36H453.64V26.84H442V3.36ZM450.28 13.48V6.44H445.32V13.48H450.28ZM456.8 16.64H473.76V27.2H456.8V16.64ZM445.32 16.68V23.56H450.28V16.68H445.32ZM460.16 24.16H470.48V19.56H460.16V24.16ZM471.04 28.04C471.893 29.24 472.813 30.64 473.8 32.24C474.787 33.84 475.573 35.2133 476.16 36.36L472.72 38.2C471.867 36.3333 470.253 33.4533 467.88 29.56L471.04 28.04ZM440.16 36.76C440.96 35.5867 441.653 34.3333 442.24 33C442.827 31.6667 443.453 30.08 444.12 28.24L447.52 29.4C446.267 33.2933 445 36.2933 443.72 38.4L440.16 36.76ZM462.64 28.8C463.12 29.84 463.64 31.12 464.2 32.64C464.787 34.16 465.28 35.52 465.68 36.72L462.24 37.72C461.92 36.5733 461.493 35.24 460.96 33.72C460.427 32.2 459.92 30.8533 459.44 29.68L462.64 28.8ZM454.04 28.96C454.707 31.3333 455.373 34.0933 456.04 37.24L452.36 37.96C452.227 36.84 451.987 35.4933 451.64 33.92C451.293 32.32 450.96 30.88 450.64 29.6L454.04 28.96Z" fill="black"/>
</svg>
