<svg width="118" height="29" viewBox="0 0 118 29" fill="none" xmlns="http://www.w3.org/2000/svg">
<path d="M22.94 6.05C21.6 5.21 19.65 4.06 17.09 2.6L18.35 0.62C19.71 1.34 21.65 2.47 24.17 4.01L22.94 6.05ZM26.3 28.31C22.02 26.85 18.67 25.29 16.25 23.63C15.01 24.47 13.57 25.26 11.93 26C10.31 26.76 8.35 27.54 6.05 28.34L5.03 26.09C8.95 24.79 12.01 23.46 14.21 22.1C12.35 20.5 10.81 18.6 9.59 16.4C8.73 18.36 7.66 20.24 6.38 22.04C5.12 23.82 3.57 25.65 1.73 27.53L-0.01 25.49C2.41 23.17 4.37 20.71 5.87 18.11C7.37 15.51 8.55 12.57 9.41 9.29H2.24V7.22C2.46 6.5 2.72 5.55 3.02 4.37C3.32 3.19 3.54 2.25 3.68 1.55L6.05 2.06C5.57 4.28 5.16 5.93 4.82 7.01H9.95C10.39 4.99 10.74 2.93 11 0.829999L13.43 1.01C13.07 3.53 12.74 5.53 12.44 7.01H27.11V9.29H11.96C11.66 10.51 11.33 11.68 10.97 12.8H23.63V14.9C22.85 16.44 22.02 17.8 21.14 18.98C20.28 20.14 19.31 21.19 18.23 22.13C20.65 23.63 23.7 24.89 27.38 25.91L26.3 28.31ZM11.33 14.93C12.63 17.21 14.26 19.13 16.22 20.69C18.16 19.17 19.72 17.25 20.9 14.93H11.33ZM41.27 6.92C40.37 8.82 39.31 10.62 38.09 12.32H43.91V8.48H46.28V12.32H55.13V22.19C55.13 23.53 54.88 24.46 54.38 24.98C53.9 25.5 53.07 25.76 51.89 25.76C50.61 25.76 49.57 25.71 48.77 25.61L48.32 23.33C49.34 23.47 50.29 23.54 51.17 23.54C51.81 23.54 52.24 23.42 52.46 23.18C52.68 22.94 52.79 22.49 52.79 21.83V14.78H46.28V28.19H43.91V14.78H37.43V25.88H35.06V15.89C33.88 17.13 32.51 18.41 30.95 19.73L29.81 17.42C31.81 15.84 33.5 14.21 34.88 12.53C36.28 10.83 37.51 8.96 38.57 6.92H31.04V4.58H39.68C40.26 3.28 40.81 1.88 41.33 0.379999L43.64 0.949999C43.06 2.59 42.61 3.8 42.29 4.58H57.56V6.92H41.27ZM69.74 18.38L66.71 15.44V28.25H64.46V16.22C63.36 17.5 62.27 18.62 61.19 19.58L60.11 17.27C63.17 14.69 65.68 11.37 67.64 7.31H60.95V5.15H65.03C64.59 3.83 64.1 2.55 63.56 1.31L65.69 0.649999C66.29 2.15 66.83 3.65 67.31 5.15H69.98V7.31C69.16 9.21 68.15 11.07 66.95 12.89L71.18 16.52L69.74 18.38ZM83.33 4.19H74.36V19.1H72.05V1.97H85.64V19.04H83.33V4.19ZM87.77 21.32L87.65 23.18C87.65 23.58 87.63 24.04 87.59 24.56C87.53 25.4 87.4 26.04 87.2 26.48C87 26.92 86.68 27.23 86.24 27.41C85.8 27.59 85.16 27.71 84.32 27.77C83.68 27.81 83.18 27.83 82.82 27.83C82.5 27.83 82 27.81 81.32 27.77C80.28 27.71 79.54 27.45 79.1 26.99C78.68 26.53 78.47 25.72 78.47 24.56V19.73C77.79 21.35 76.78 22.83 75.44 24.17C74.1 25.51 72.28 26.89 69.98 28.31L68.51 26.3C70.89 24.92 72.68 23.62 73.88 22.4C75.1 21.16 75.96 19.79 76.46 18.29C76.98 16.79 77.31 14.82 77.45 12.38C77.49 11.56 77.52 10.56 77.54 9.38C77.56 8.18 77.57 7.18 77.57 6.38H79.85L79.76 12.62C79.74 14.28 79.57 15.84 79.25 17.3H80.78V23.66C80.78 24.36 80.87 24.83 81.05 25.07C81.23 25.29 81.56 25.42 82.04 25.46C82.26 25.48 82.59 25.49 83.03 25.49C83.49 25.49 83.83 25.48 84.05 25.46C84.59 25.42 84.95 25.29 85.13 25.07C85.33 24.85 85.44 24.39 85.46 23.69L85.52 20.81L87.77 21.32ZM98.66 20.54H96.5V12.56H90.29V10.37H92.48V3.26H94.61V10.37H96.92V0.709998H99.05V4.7H102.71V6.92H99.05V10.37H103.28V12.56H98.66V20.54ZM108.53 7.4C108.79 6.48 109.06 5.41 109.34 4.19H103.49V2.03H117.53V4.19H111.74L110.9 7.4H116.33V21.47H114.05V9.62H106.76V21.47H104.54V7.4H108.53ZM111.11 20.6C114.55 23.36 116.81 25.24 117.89 26.24L116.39 28.28C115.71 27.56 114.78 26.67 113.6 25.61C112.44 24.55 111.32 23.57 110.24 22.67C109.6 23.73 108.67 24.72 107.45 25.64C106.23 26.54 104.65 27.42 102.71 28.28L101.48 26.15C103.6 25.23 105.22 24.33 106.34 23.45C107.48 22.57 108.25 21.67 108.65 20.75C109.07 19.81 109.28 18.7 109.28 17.42V11.3H111.5V17.51C111.5 18.65 111.37 19.68 111.11 20.6ZM95.27 15.62C94.95 16.52 94.47 17.6 93.83 18.86C93.19 20.12 92.53 21.28 91.85 22.34L90.05 21.23C90.65 20.35 91.25 19.31 91.85 18.11C92.45 16.91 92.96 15.76 93.38 14.66L95.27 15.62ZM103.58 16.28C102.86 18.3 101.98 20.03 100.94 21.47C99.92 22.89 98.67 24.13 97.19 25.19C95.73 26.25 93.92 27.28 91.76 28.28L90.44 26.18C92.7 25.14 94.51 24.15 95.87 23.21C97.23 22.27 98.35 21.19 99.23 19.97C100.13 18.75 100.93 17.21 101.63 15.35L103.58 16.28Z" fill="black"/>
</svg>
