<svg width="117" height="29" viewBox="0 0 117 29" fill="none" xmlns="http://www.w3.org/2000/svg">
<path d="M26.57 13.49V25.46C26.57 26.32 26.44 26.93 26.18 27.29C25.92 27.65 25.44 27.83 24.74 27.83C24.26 27.83 23.78 27.8 23.3 27.74L22.88 25.7L23.78 25.85C24.12 25.89 24.34 25.85 24.44 25.73C24.56 25.61 24.62 25.38 24.62 25.04V21.35H22.43V26.54H20.63V21.35H18.41V26.54H16.64V21.35H14.42V27.95H12.47V14.24C12.15 20.16 11.05 24.57 9.17 27.47L7.34 26.3C8.56 24.44 9.4 22.27 9.86 19.79C10.34 17.31 10.58 14.08 10.58 10.1V3.74H17.72C17.24 2.5 16.87 1.58 16.61 0.979998L18.95 0.499999C19.29 1.3 19.7 2.38 20.18 3.74H26.21V10.79H12.56C12.56 11.43 12.54 12.33 12.5 13.49H26.57ZM2.54 12.2C1.94 12.32 1.32 12.46 0.68 12.62L0.2 10.37C0.66 10.17 0.98 9.91 1.16 9.59C1.64 8.73 2.26 7.43 3.02 5.69C3.8 3.93 4.44 2.37 4.94 1.01L7.01 1.91C6.39 3.41 5.7 4.99 4.94 6.65C4.18 8.31 3.6 9.5 3.2 10.22L6.17 9.74C7.07 7.94 7.7 6.66 8.06 5.9L9.83 6.8C9.19 8.36 8.33 10.2 7.25 12.32C6.19 14.44 5.26 16.08 4.46 17.24L8.93 15.95L8.99 18.05L2.96 19.55L1.52 19.94L1.01 17.63C1.37 17.55 1.63 17.45 1.79 17.33C1.97 17.21 2.14 17.02 2.3 16.76C2.72 16.12 3.67 14.44 5.15 11.72C3.97 11.9 3.1 12.06 2.54 12.2ZM24.08 8.75V5.81H12.56V8.75H24.08ZM14.42 15.44V19.4H16.64V15.44H14.42ZM18.41 15.44V19.4H20.63V15.44H18.41ZM22.43 15.44V19.4H24.62V15.44H22.43ZM8.48 23.36C7.56 23.66 6.28 24.06 4.64 24.56C3 25.06 1.71 25.44 0.77 25.7L0.41 23.39C1.37 23.13 2.68 22.76 4.34 22.28C6 21.8 7.33 21.41 8.33 21.11L8.48 23.36ZM41.27 21.71C41.13 21.73 40.43 21.85 39.17 22.07L38.03 22.28V28.34H35.78V22.67L30.32 23.69L30.11 21.41C31.25 21.25 33.14 20.93 35.78 20.45V16.07H31.04V13.76C31.68 12.22 32.41 9.97 33.23 7.01H30.47V4.88H33.8C34.2 3.24 34.51 1.93 34.73 0.949999L36.89 1.1L35.93 4.88H40.97V7.01H35.36C34.64 9.73 33.93 12.05 33.23 13.97H35.87V8.72H38.03V13.97H40.91V16.07H38.03V20.06L41.21 19.49L41.27 21.71ZM42.92 2.12H55.46V8.63H42.92V2.12ZM45.17 6.8H53.18V4.07H45.17V6.8ZM54.98 22.76L57.62 22.64V24.68L54.98 24.8V28.25H52.76V24.89L40.46 25.43L40.4 23.45L43.13 23.33V12.44H41.24V10.49H57.26V12.44H54.98V22.76ZM52.76 14.81V12.44H45.35V14.81H52.76ZM52.76 16.67H45.35V18.83H52.76V16.67ZM45.35 20.66V23.21L52.76 22.88V20.66H45.35ZM61.94 28.31V2.15H86.06V28.31H83.84V26.75H64.19V28.31H61.94ZM64.19 4.31V24.68H83.84V4.31H64.19ZM75.95 12.77C77.65 13.49 80.03 14.18 83.09 14.84L82.28 16.79C78.74 15.83 75.98 14.85 74 13.85C71.9 14.91 69.14 15.96 65.72 17L64.91 15.14C67.65 14.38 70.01 13.57 71.99 12.71C70.97 12.05 69.95 11.21 68.93 10.19C68.07 11.05 67.2 11.82 66.32 12.5L65.15 11.06C66.23 10.2 67.28 9.18 68.3 8C69.32 6.82 70.15 5.7 70.79 4.64L72.62 5.33C72.28 5.93 71.88 6.55 71.42 7.19H80.84V8.9C79.24 10.46 77.61 11.75 75.95 12.77ZM70.13 8.9C71.19 10.02 72.45 10.99 73.91 11.81C75.63 10.87 76.99 9.9 77.99 8.9H70.13ZM70.13 16.01L73.94 16.79C75.7 17.13 77.19 17.43 78.41 17.69L78.14 19.52C77.04 19.26 74.62 18.75 70.88 17.99C70.66 17.95 70.46 17.91 70.28 17.87C70.12 17.83 69.97 17.8 69.83 17.78L70.13 16.01ZM67.43 19.52C71.97 20.38 76.09 21.21 79.79 22.01L79.46 23.78C73.48 22.54 69.38 21.71 67.16 21.29L67.43 19.52ZM116.15 10.94H97.46C97.46 12.58 97.41 14.22 97.31 15.86H111.62V28.19H109.22V18.14H97.13C96.89 20.24 96.48 22.09 95.9 23.69C95.32 25.29 94.49 26.88 93.41 28.46L91.04 27.08C92.14 25.58 92.98 24.07 93.56 22.55C94.14 21.01 94.54 19.28 94.76 17.36C94.98 15.44 95.09 13 95.09 10.04V1.43H97.46V8.66H107.33V1.04H109.73V8.66H116.15V10.94Z" fill="black"/>
</svg>
