<svg width="274" height="64" viewBox="0 0 274 64" fill="none" xmlns="http://www.w3.org/2000/svg">
<g filter="url(#filter0_f_11_39)">
<mask id="path-1-outside-1_11_39" maskUnits="userSpaceOnUse" x="3" y="8" width="269" height="47" fill="black">
<rect fill="white" x="3" y="8" width="269" height="47"/>
<path d="M27.1084 14.7275C32.7839 33.3115 35.7111 42.9258 35.8901 43.5703C35.9618 43.7493 36.4899 45.4591 37.4746 48.6997H29.4985C29.4985 48.646 28.2721 44.6087 25.8193 36.5879H16.5273C16.4915 36.5879 16.3394 37.0444 16.0708 37.9575L12.7944 48.6997H6.26855C6.73405 47.1421 9.57178 37.8411 14.7817 20.7969L16.6348 14.7275H27.1084ZM21.1465 21.334L17.6553 32.7476H24.6377V32.7207C22.4355 25.5234 21.2808 21.7279 21.1733 21.334H21.1465ZM40.1602 14.6738H64.0615V18.4604C64.0615 18.4963 64.0436 18.5142 64.0078 18.5142H56.0854V44.8862H64.8672V48.6997H39.3545V44.8862H48.1362V18.5142H40.2139C40.1781 18.5142 40.1602 18.4963 40.1602 18.4604V14.6738ZM67.9019 27.2422H115.678V31.0825H67.9019C67.866 31.0825 67.8481 31.0646 67.8481 31.0288V27.2959C67.8481 27.2601 67.866 27.2422 67.9019 27.2422ZM151.933 10.5649H152.953C156.623 10.5649 159.64 11.2363 162.003 12.5791C163.633 13.5638 164.743 14.9245 165.333 16.6611C165.602 17.5205 165.736 18.6305 165.736 19.9912V51.7881C163.624 51.7881 162.469 51.797 162.272 51.8149C157.76 51.797 153.759 51.7881 150.268 51.7881H139.982C135.524 51.7881 129.866 51.797 123.009 51.8149C122.83 51.797 122.383 51.7881 121.667 51.7881V11.3975C121.667 11.3617 121.684 11.3438 121.72 11.3438H129.589C129.625 11.3438 129.643 11.3617 129.643 11.3975V14.9155C132.955 13.7339 136.983 12.6597 141.728 11.6929C145.72 10.9409 149.122 10.5649 151.933 10.5649ZM137.27 17.0103C137.323 17.064 137.789 17.2878 138.666 17.6816C139.4 18.0218 139.875 18.2546 140.089 18.3799L139.069 20.2598H154.967V23.9927C154.824 24.5835 154.35 25.4787 153.544 26.6782C153.15 27.2332 152.497 27.9583 151.583 28.8535C151.046 29.3369 150.411 29.8472 149.677 30.3843V30.4111C151.127 30.6081 152.479 30.7065 153.732 30.7065H154.242C154.887 30.7065 155.701 30.6797 156.686 30.626V35.7554C154.036 35.6121 151.771 35.3615 149.892 35.0034C147.618 34.52 145.756 33.9829 144.306 33.3921L144.037 33.2847C142.981 33.6965 141.665 34.1082 140.089 34.52V34.5469C141.128 35.1735 142.166 35.6838 143.205 36.0776C145.371 36.8833 147.94 37.2861 150.912 37.2861H151.369C151.727 37.2861 152.264 37.2772 152.98 37.2593C153.016 38.3872 153.034 39.2913 153.034 39.9717C151.387 40.2223 149.739 40.3477 148.092 40.3477C144.046 40.3477 140.492 39.7568 137.431 38.5752C136.679 38.2529 136.016 37.9038 135.443 37.5278C136.285 36.006 136.706 35.2272 136.706 35.1914H136.679C135.443 35.4062 133.823 35.5853 131.818 35.7285C131.531 35.7285 131.281 35.7375 131.066 35.7554V30.626C132.051 30.6797 132.919 30.7065 133.671 30.7065H133.698C135.524 30.7065 137.278 30.5633 138.961 30.2769C137.744 29.131 137.046 28.388 136.867 28.0479C136.383 27.4033 136.016 26.8394 135.766 26.356H135.739C135.166 27.466 134.853 28.0299 134.799 28.0479H134.772L130.502 26.0337V26.0068L135.148 17.4668H135.094C133.179 17.8786 131.361 18.353 129.643 18.8901V47.9746H157.76V20.8506C157.76 18.4694 155.943 16.9297 152.309 16.2314C150.876 15.9987 149.417 15.8823 147.931 15.8823C144.995 15.8823 141.441 16.2583 137.27 17.0103ZM139.042 24.1001V24.127C140.206 26.0605 141.96 27.6182 144.306 28.7998C147.242 27.5645 149.363 25.9979 150.67 24.1001H139.042ZM136.168 39.0586C138.263 40.6699 140.797 41.8158 143.769 42.4961C146.114 43.069 148.62 43.3555 151.288 43.3555H151.798C152.64 43.3555 153.231 43.3376 153.571 43.3018L153.678 46.0142C152.085 46.229 150.259 46.3364 148.2 46.3364C142.793 46.3364 138.415 45.674 135.067 44.3491C134.548 44.0985 134.083 43.8478 133.671 43.5972C135.264 40.661 136.097 39.1481 136.168 39.0586ZM204.354 10.9946C211.086 10.9946 215.195 12.1315 216.681 14.4053C217.039 14.9961 217.218 15.7212 217.218 16.5806V21.3071C217.218 21.3429 217.2 21.3608 217.165 21.3608H209.269V18.729C209.269 17.3504 206.825 16.4731 201.938 16.0972C200.237 15.9539 198.348 15.8823 196.271 15.8823C190.81 15.8823 185.171 16.3031 179.352 17.1445V20.5015H183.81V24.3955H215.634V28.2358H183.81V33.5264H183.837C189.53 32.3447 194.812 31.7539 199.682 31.7539C207.219 31.7539 212.125 33.2131 214.398 36.1313C215.115 37.1698 215.473 38.2798 215.473 39.4614V52.1909H207.523V41.1533C207.523 38.9512 204.354 37.6084 198.017 37.125C196.638 37.0534 195.421 37.0176 194.364 37.0176H193.908C190.596 37.0176 187.23 37.2593 183.81 37.7427V39.5957H175.861V21.3608H171.43C171.394 21.3608 171.376 21.3429 171.376 21.3071V11.6123C171.376 11.5765 171.394 11.5586 171.43 11.5586H179.298C179.334 11.5586 179.352 11.5765 179.352 11.6123V13.9219C189.593 11.9704 197.927 10.9946 204.354 10.9946ZM171.967 42.5229H205.106V46.3364H171.967V42.5229ZM240.717 10.0815H248.693V12.4717H267.733V16.1509C267.733 16.1867 267.715 16.2046 267.68 16.2046H248.693V17.6816C249.481 17.6458 250.206 17.6279 250.868 17.6279H251.835C256.15 17.6279 259.444 18.3083 261.718 19.6689C263.222 20.6895 263.974 21.9785 263.974 23.5361V41.7441H268.163C268.199 41.7441 268.217 41.762 268.217 41.7979V45.4233C268.217 45.4591 268.199 45.4771 268.163 45.4771H253.688V45.5039C263.356 47.6882 268.387 48.8429 268.781 48.9683C268.136 51.3315 267.796 52.54 267.76 52.5938C256.839 50.1051 251.334 48.8429 251.244 48.8071C251.853 46.6587 252.157 45.5487 252.157 45.4771H238.031C238.497 45.8709 238.729 46.0768 238.729 46.0947C237.333 47.4554 236.366 48.279 235.829 48.5654C234.862 49.2458 233.985 49.765 233.197 50.123C230.458 51.4658 226.886 52.1372 222.482 52.1372H222.052C221.784 52.1372 221.426 52.1283 220.978 52.1104V47.3301C222.804 47.4733 224.281 47.5449 225.409 47.5449C228.918 47.5449 231.98 46.8646 234.594 45.5039V45.4771H221.542C221.506 45.4771 221.488 45.4591 221.488 45.4233V41.7441H225.651V17.7354H233.6V20.0449H233.627C235.811 19.472 238.174 18.9797 240.717 18.5679V16.2046H222.025C221.99 16.2046 221.972 16.1867 221.972 16.1509V12.4717H240.717V10.0815ZM233.6 23.563V24.2075H255.434C255.04 23.7778 254.637 23.4735 254.225 23.2944C252.488 22.4351 249.866 22.0054 246.356 22.0054C242.292 22.0054 238.04 22.5246 233.6 23.563ZM233.6 27.9404V30.062H256.024V27.9404H233.6ZM233.6 33.7681V35.8896H256.024V33.8218C256.024 33.786 256.007 33.7681 255.971 33.7681H233.6ZM233.6 39.6226V41.7441H256.024V39.6226H233.6Z"/>
</mask>
<path d="M27.1084 14.7275L29.0212 14.1434L28.5888 12.7275H27.1084V14.7275ZM35.8901 43.5703L33.9631 44.1056L33.9925 44.2113L34.0332 44.3131L35.8901 43.5703ZM37.4746 48.6997V50.6997H40.1726L39.3882 48.1182L37.4746 48.6997ZM29.4985 48.6997H27.4985V50.6997H29.4985V48.6997ZM25.8193 36.5879L27.7319 36.003L27.2992 34.5879H25.8193V36.5879ZM16.0708 37.9575L17.9838 38.541L17.9867 38.5314L17.9895 38.5219L16.0708 37.9575ZM12.7944 48.6997V50.6997H14.2754L14.7074 49.2832L12.7944 48.6997ZM6.26855 48.6997L4.3523 48.127L3.58345 50.6997H6.26855V48.6997ZM14.7817 20.7969L16.6944 21.3815L16.6946 21.3809L14.7817 20.7969ZM16.6348 14.7275V12.7275H15.1542L14.7219 14.1435L16.6348 14.7275ZM21.1465 21.334V19.334H19.6668L19.234 20.749L21.1465 21.334ZM17.6553 32.7476L15.7427 32.1625L14.952 34.7476H17.6553V32.7476ZM24.6377 32.7476V34.7476H26.6377V32.7476H24.6377ZM24.6377 32.7207H26.6377V32.4216L26.5502 32.1355L24.6377 32.7207ZM21.1733 21.334L23.1029 20.8077L22.7009 19.334H21.1733V21.334ZM27.1084 14.7275L25.1956 15.3117C30.8797 33.9239 33.7931 43.4937 33.9631 44.1056L35.8901 43.5703L37.8172 43.035C37.6291 42.3579 34.688 32.6992 29.0212 14.1434L27.1084 14.7275ZM35.8901 43.5703L34.0332 44.3131C34.0297 44.3043 34.1449 44.6573 34.4291 45.5772C34.6918 46.4277 35.0689 47.6618 35.561 49.2812L37.4746 48.6997L39.3882 48.1182C38.8956 46.4971 38.5163 45.256 38.2509 44.3967C38.0069 43.6068 37.8222 43.0154 37.7471 42.8275L35.8901 43.5703ZM37.4746 48.6997V46.6997H29.4985V48.6997V50.6997H37.4746V48.6997ZM29.4985 48.6997H31.4985C31.4985 48.5235 31.4737 48.3846 31.4715 48.3716C31.4642 48.3269 31.4567 48.2915 31.4529 48.2737C31.4449 48.2366 31.4373 48.2062 31.4337 48.192C31.4257 48.1602 31.4173 48.1295 31.4111 48.1075C31.398 48.0601 31.3807 48 31.3608 47.932C31.3205 47.7939 31.2613 47.595 31.1844 47.3382C31.03 46.8232 30.7992 46.06 30.4924 45.0502C29.8786 43.0297 28.9584 40.0137 27.7319 36.003L25.8193 36.5879L23.9068 37.1728C25.1331 41.1829 26.0524 44.196 26.6651 46.2128C26.9715 47.2215 27.2006 47.9791 27.3528 48.4868C27.4291 48.7414 27.485 48.9294 27.5213 49.0536C27.5398 49.1169 27.5512 49.1569 27.5572 49.1784C27.5606 49.1909 27.5594 49.1869 27.5561 49.174C27.5549 49.1692 27.5491 49.1464 27.5423 49.1148C27.5391 49.0999 27.5322 49.0667 27.5251 49.0238C27.5232 49.0127 27.4985 48.8751 27.4985 48.6997H29.4985ZM25.8193 36.5879V34.5879H16.5273V36.5879V38.5879H25.8193V36.5879ZM16.5273 36.5879V34.5879C15.9953 34.5879 15.61 34.7955 15.4192 34.9218C15.2204 35.0535 15.088 35.1925 15.0196 35.27C14.8833 35.4245 14.8006 35.5667 14.7699 35.6207C14.6985 35.7463 14.6505 35.8606 14.6293 35.912C14.5789 36.0345 14.5307 36.1727 14.489 36.2978C14.4012 36.5611 14.2879 36.9313 14.1521 37.3932L16.0708 37.9575L17.9895 38.5219C18.1222 38.0707 18.2193 37.7561 18.2837 37.5628C18.3181 37.4596 18.3315 37.4267 18.328 37.435C18.3259 37.4401 18.3195 37.4555 18.3091 37.4779C18.3 37.4976 18.2791 37.5415 18.247 37.5979C18.2244 37.6376 18.149 37.7691 18.0189 37.9165C17.9537 37.9904 17.8242 38.1267 17.628 38.2567C17.44 38.3812 17.0571 38.5879 16.5273 38.5879V36.5879ZM16.0708 37.9575L14.1578 37.3741L10.8814 48.1162L12.7944 48.6997L14.7074 49.2832L17.9838 38.541L16.0708 37.9575ZM12.7944 48.6997V46.6997H6.26855V48.6997V50.6997H12.7944V48.6997ZM6.26855 48.6997L8.18481 49.2724C8.64795 47.7226 11.4828 38.4312 16.6944 21.3815L14.7817 20.7969L12.8691 20.2122C7.66079 37.2511 4.82014 46.5615 4.3523 48.127L6.26855 48.6997ZM14.7817 20.7969L16.6946 21.3809L18.5476 15.3115L16.6348 14.7275L14.7219 14.1435L12.8689 20.2129L14.7817 20.7969ZM16.6348 14.7275V16.7275H27.1084V14.7275V12.7275H16.6348V14.7275ZM21.1465 21.334L19.234 20.749L15.7427 32.1625L17.6553 32.7476L19.5678 33.3326L23.059 21.919L21.1465 21.334ZM17.6553 32.7476V34.7476H24.6377V32.7476V30.7476H17.6553V32.7476ZM24.6377 32.7476H26.6377V32.7207H24.6377H22.6377V32.7476H24.6377ZM24.6377 32.7207L26.5502 32.1355C24.3385 24.907 23.1996 21.1624 23.1029 20.8077L21.1733 21.334L19.2438 21.8602C19.3619 22.2934 20.5326 26.1399 22.7252 33.3059L24.6377 32.7207ZM21.1733 21.334V19.334H21.1465V21.334V23.334H21.1733V21.334ZM40.1602 14.6738V12.6738H38.1602V14.6738H40.1602ZM64.0615 14.6738H66.0615V12.6738H64.0615V14.6738ZM56.0854 18.5142V16.5142H54.0854V18.5142H56.0854ZM56.0854 44.8862H54.0854V46.8862H56.0854V44.8862ZM64.8672 44.8862H66.8672V42.8862H64.8672V44.8862ZM64.8672 48.6997V50.6997H66.8672V48.6997H64.8672ZM39.3545 48.6997H37.3545V50.6997H39.3545V48.6997ZM39.3545 44.8862V42.8862H37.3545V44.8862H39.3545ZM48.1362 44.8862V46.8862H50.1362V44.8862H48.1362ZM48.1362 18.5142H50.1362V16.5142H48.1362V18.5142ZM40.1602 14.6738V16.6738H64.0615V14.6738V12.6738H40.1602V14.6738ZM64.0615 14.6738H62.0615V18.4604H64.0615H66.0615V14.6738H64.0615ZM64.0615 18.4604H62.0615C62.0615 18.1701 62.1355 17.5849 62.6339 17.0865C63.1323 16.5881 63.7174 16.5142 64.0078 16.5142V18.5142V20.5142C64.334 20.5142 64.946 20.4313 65.4623 19.9149C65.9786 19.3986 66.0615 18.7866 66.0615 18.4604H64.0615ZM64.0078 18.5142V16.5142H56.0854V18.5142V20.5142H64.0078V18.5142ZM56.0854 18.5142H54.0854V44.8862H56.0854H58.0854V18.5142H56.0854ZM56.0854 44.8862V46.8862H64.8672V44.8862V42.8862H56.0854V44.8862ZM64.8672 44.8862H62.8672V48.6997H64.8672H66.8672V44.8862H64.8672ZM64.8672 48.6997V46.6997H39.3545V48.6997V50.6997H64.8672V48.6997ZM39.3545 48.6997H41.3545V44.8862H39.3545H37.3545V48.6997H39.3545ZM39.3545 44.8862V46.8862H48.1362V44.8862V42.8862H39.3545V44.8862ZM48.1362 44.8862H50.1362V18.5142H48.1362H46.1362V44.8862H48.1362ZM48.1362 18.5142V16.5142H40.2139V18.5142V20.5142H48.1362V18.5142ZM40.2139 18.5142V16.5142C40.5043 16.5142 41.0894 16.5881 41.5878 17.0865C42.0862 17.5849 42.1602 18.1701 42.1602 18.4604H40.1602H38.1602C38.1602 18.7866 38.2431 19.3986 38.7594 19.9149C39.2757 20.4313 39.8877 20.5142 40.2139 20.5142V18.5142ZM40.1602 18.4604H42.1602V14.6738H40.1602H38.1602V18.4604H40.1602ZM115.678 27.2422H117.678V25.2422H115.678V27.2422ZM115.678 31.0825V33.0825H117.678V31.0825H115.678ZM67.9019 27.2422V29.2422H115.678V27.2422V25.2422H67.9019V27.2422ZM115.678 27.2422H113.678V31.0825H115.678H117.678V27.2422H115.678ZM115.678 31.0825V29.0825H67.9019V31.0825V33.0825H115.678V31.0825ZM67.9019 31.0825V29.0825C68.1922 29.0825 68.7774 29.1565 69.2758 29.6549C69.7742 30.1533 69.8481 30.7384 69.8481 31.0288H67.8481H65.8481C65.8481 31.355 65.931 31.967 66.4474 32.4833C66.9637 32.9996 67.5757 33.0825 67.9019 33.0825V31.0825ZM67.8481 31.0288H69.8481V27.2959H67.8481H65.8481V31.0288H67.8481ZM67.8481 27.2959H69.8481C69.8481 27.5863 69.7742 28.1714 69.2758 28.6698C68.7774 29.1682 68.1922 29.2422 67.9019 29.2422V27.2422V25.2422C67.5757 25.2422 66.9637 25.3251 66.4474 25.8414C65.931 26.3577 65.8481 26.9697 65.8481 27.2959H67.8481ZM162.003 12.5791L163.038 10.8674L163.015 10.8535L162.991 10.8402L162.003 12.5791ZM165.333 16.6611L167.242 16.0646L167.235 16.0407L167.227 16.017L165.333 16.6611ZM165.736 51.7881V53.7881H167.736V51.7881H165.736ZM162.272 51.8149L162.264 53.8149L162.359 53.8153L162.453 53.8067L162.272 51.8149ZM123.009 51.8149L122.81 53.805L122.912 53.8152L123.014 53.8149L123.009 51.8149ZM121.667 51.7881H119.667V53.7881H121.667V51.7881ZM129.643 14.9155H127.643V17.7525L130.315 16.7992L129.643 14.9155ZM141.728 11.6929L141.357 9.72743L141.343 9.73018L141.328 9.73314L141.728 11.6929ZM137.27 17.0103L136.915 15.042L133.151 15.7204L135.855 18.4245L137.27 17.0103ZM138.666 17.6816L139.507 15.867L139.496 15.862L139.485 15.8571L138.666 17.6816ZM140.089 18.3799L141.847 19.3341L142.772 17.6296L141.097 16.6523L140.089 18.3799ZM139.069 20.2598L137.311 19.3056L135.707 22.2598H139.069V20.2598ZM154.967 20.2598H156.967V18.2598H154.967V20.2598ZM154.967 23.9927L156.911 24.4639L156.967 24.2316V23.9927H154.967ZM153.544 26.6782L155.175 27.8357L155.19 27.8147L155.204 27.7933L153.544 26.6782ZM151.583 28.8535L152.921 30.3401L152.953 30.3115L152.984 30.2817L151.583 28.8535ZM149.677 30.3843L148.496 28.7702L147.677 29.3695V30.3843H149.677ZM149.677 30.4111H147.677V32.1579L149.408 32.3929L149.677 30.4111ZM156.686 30.626H158.686V28.5139L156.577 28.6289L156.686 30.626ZM156.686 35.7554L156.578 37.7525L158.686 37.8664V35.7554H156.686ZM149.892 35.0034L149.476 36.9597L149.496 36.9641L149.517 36.9681L149.892 35.0034ZM144.306 33.3921L145.06 31.5399L145.048 31.5351L144.306 33.3921ZM144.037 33.2847L144.78 31.4277L144.047 31.1344L143.311 31.4213L144.037 33.2847ZM140.089 34.52L139.584 32.585L138.089 32.9756V34.52H140.089ZM140.089 34.5469H138.089V35.6759L139.056 36.2593L140.089 34.5469ZM143.205 36.0776L142.495 37.9477L142.507 37.9522L143.205 36.0776ZM152.98 37.2593L154.979 37.1958L154.916 35.2103L152.93 35.2599L152.98 37.2593ZM153.034 39.9717L153.335 41.9489L155.034 41.6904V39.9717H153.034ZM137.431 38.5752L136.643 40.4135L136.676 40.4279L136.711 40.441L137.431 38.5752ZM135.443 37.5278L133.693 36.56L132.796 38.1826L134.346 39.1999L135.443 37.5278ZM136.706 35.1914H138.706V33.1914H136.706V35.1914ZM136.679 35.1914V33.1914H136.506L136.336 33.221L136.679 35.1914ZM131.818 35.7285V37.7285H131.889L131.96 37.7234L131.818 35.7285ZM131.066 35.7554H129.066V37.929L131.232 37.7485L131.066 35.7554ZM131.066 30.626L131.175 28.6289L129.066 28.5139V30.626H131.066ZM138.961 30.2769L139.297 32.2485L143.258 31.5743L140.332 28.8205L138.961 30.2769ZM136.867 28.0479L138.637 27.1164L138.562 26.9753L138.467 26.8479L136.867 28.0479ZM135.766 26.356L137.541 25.4353L136.981 24.356H135.766V26.356ZM135.739 26.356V24.356H134.52L133.962 25.4387L135.739 26.356ZM134.799 28.0479V30.0479H135.123L135.431 29.9452L134.799 28.0479ZM134.772 28.0479L133.919 29.8567L134.324 30.0479H134.772V28.0479ZM130.502 26.0337H128.502V27.3016L129.649 27.8426L130.502 26.0337ZM130.502 26.0068L128.745 25.0511L128.502 25.498V26.0068H130.502ZM135.148 17.4668L136.905 18.4226L138.513 15.4668H135.148V17.4668ZM135.094 17.4668V15.4668H134.882L134.674 15.5115L135.094 17.4668ZM129.643 18.8901L129.046 16.9812L127.643 17.4198V18.8901H129.643ZM129.643 47.9746H127.643V49.9746H129.643V47.9746ZM157.76 47.9746V49.9746H159.76V47.9746H157.76ZM152.309 16.2314L152.686 14.2674L152.658 14.2619L152.629 14.2573L152.309 16.2314ZM139.042 24.1001V22.1001H137.042V24.1001H139.042ZM139.042 24.127H137.042V24.6824L137.328 25.1583L139.042 24.127ZM144.306 28.7998L143.406 30.5859L144.23 31.0013L145.081 30.6433L144.306 28.7998ZM150.67 24.1001L152.318 25.2345L154.476 22.1001H150.67V24.1001ZM136.168 39.0586L137.388 37.4733L135.833 36.2769L134.607 37.8092L136.168 39.0586ZM143.769 42.4961L144.243 40.5532L144.229 40.5498L144.215 40.5465L143.769 42.4961ZM153.571 43.3018L155.569 43.2226L155.485 41.0892L153.361 41.3127L153.571 43.3018ZM153.678 46.0142L153.945 47.9962L155.749 47.7531L155.677 45.935L153.678 46.0142ZM135.067 44.3491L134.198 46.1502L134.264 46.182L134.331 46.2088L135.067 44.3491ZM133.671 43.5972L131.913 42.6432L131.005 44.316L132.631 45.3056L133.671 43.5972ZM151.933 10.5649V12.5649H152.953V10.5649V8.56494H151.933V10.5649ZM152.953 10.5649V12.5649C156.394 12.5649 159.041 13.196 161.015 14.318L162.003 12.5791L162.991 10.8402C160.24 9.27667 156.853 8.56494 152.953 8.56494V10.5649ZM162.003 12.5791L160.969 14.2908C162.212 15.0419 163.007 16.0325 163.44 17.3053L165.333 16.6611L167.227 16.017C166.478 13.8165 165.054 12.0857 163.038 10.8674L162.003 12.5791ZM165.333 16.6611L163.425 17.2577C163.61 17.8521 163.736 18.7405 163.736 19.9912H165.736H167.736C167.736 18.5205 167.594 17.1889 167.242 16.0646L165.333 16.6611ZM165.736 19.9912H163.736V51.7881H165.736H167.736V19.9912H165.736ZM165.736 51.7881V49.7881C163.705 49.7881 162.407 49.7945 162.091 49.8232L162.272 51.8149L162.453 53.8067C162.446 53.8074 162.673 53.7996 163.301 53.7947C163.871 53.7903 164.682 53.7881 165.736 53.7881V51.7881ZM162.272 51.8149L162.28 49.815C157.766 49.797 153.762 49.7881 150.268 49.7881V51.7881V53.7881C153.756 53.7881 157.754 53.797 162.264 53.8149L162.272 51.8149ZM150.268 51.7881V49.7881H139.982V51.7881V53.7881H150.268V51.7881ZM139.982 51.7881V49.7881C135.522 49.7881 129.862 49.797 123.004 49.8149L123.009 51.8149L123.014 53.8149C129.871 53.797 135.526 53.7881 139.982 53.7881V51.7881ZM123.009 51.8149L123.208 49.8249C122.908 49.7948 122.346 49.7881 121.667 49.7881V51.7881V53.7881C122.018 53.7881 122.294 53.7903 122.499 53.7944C122.602 53.7965 122.681 53.7989 122.739 53.8014C122.803 53.8041 122.821 53.8061 122.81 53.805L123.009 51.8149ZM121.667 51.7881H123.667V11.3975H121.667H119.667V51.7881H121.667ZM121.667 11.3975H123.667C123.667 11.6878 123.593 12.273 123.094 12.7714C122.596 13.2698 122.011 13.3438 121.72 13.3438V11.3438V9.34375C121.394 9.34375 120.782 9.42665 120.266 9.94296C119.749 10.4593 119.667 11.0713 119.667 11.3975H121.667ZM121.72 11.3438V13.3438H129.589V11.3438V9.34375H121.72V11.3438ZM129.589 11.3438V13.3438C129.298 13.3438 128.713 13.2698 128.215 12.7714C127.717 12.273 127.643 11.6878 127.643 11.3975H129.643H131.643C131.643 11.0713 131.56 10.4593 131.043 9.94296C130.527 9.42665 129.915 9.34375 129.589 9.34375V11.3438ZM129.643 11.3975H127.643V14.9155H129.643H131.643V11.3975H129.643ZM129.643 14.9155L130.315 16.7992C133.512 15.6587 137.443 14.607 142.127 13.6526L141.728 11.6929L141.328 9.73314C136.523 10.7123 132.398 11.8091 128.971 13.0318L129.643 14.9155ZM141.728 11.6929L142.098 13.6583C146.017 12.9202 149.287 12.5649 151.933 12.5649V10.5649V8.56494C148.956 8.56494 145.423 8.96168 141.357 9.72743L141.728 11.6929ZM137.27 17.0103L135.855 18.4245C136.046 18.6154 136.244 18.7315 136.262 18.7425C136.33 18.7841 136.395 18.8198 136.444 18.8463C136.546 18.9007 136.666 18.9603 136.792 19.0209C137.049 19.1442 137.403 19.307 137.847 19.5062L138.666 17.6816L139.485 15.8571C139.051 15.6624 138.735 15.5164 138.526 15.4159C138.419 15.3646 138.358 15.3335 138.33 15.3186C138.314 15.3104 138.327 15.3167 138.356 15.3342C138.37 15.343 138.403 15.3635 138.445 15.3937C138.476 15.4154 138.573 15.4855 138.684 15.596L137.27 17.0103ZM138.666 17.6816L137.825 19.4963C138.579 19.8454 138.963 20.0384 139.082 20.1074L140.089 18.3799L141.097 16.6523C140.786 16.4707 140.222 16.1982 139.507 15.867L138.666 17.6816ZM140.089 18.3799L138.332 17.4257L137.311 19.3056L139.069 20.2598L140.827 21.2139L141.847 19.3341L140.089 18.3799ZM139.069 20.2598V22.2598H154.967V20.2598V18.2598H139.069V20.2598ZM154.967 20.2598H152.967V23.9927H154.967H156.967V20.2598H154.967ZM154.967 23.9927L153.024 23.5215C152.973 23.7303 152.69 24.3631 151.884 25.5631L153.544 26.6782L155.204 27.7933C156.01 26.5942 156.675 25.4367 156.911 24.4639L154.967 23.9927ZM153.544 26.6782L151.913 25.5207C151.624 25.9284 151.072 26.5545 150.183 27.4254L151.583 28.8535L152.984 30.2817C153.922 29.3622 154.677 28.538 155.175 27.8357L153.544 26.6782ZM151.583 28.8535L150.246 27.3669C149.769 27.7955 149.189 28.2633 148.496 28.7702L149.677 30.3843L150.858 31.9983C151.633 31.4311 152.323 30.8784 152.921 30.3401L151.583 28.8535ZM149.677 30.3843H147.677V30.4111H149.677H151.677V30.3843H149.677ZM149.677 30.4111L149.408 32.3929C150.933 32.6 152.375 32.7065 153.732 32.7065V30.7065V28.7065C152.582 28.7065 151.321 28.6161 149.946 28.4293L149.677 30.4111ZM153.732 30.7065V32.7065H154.242V30.7065V28.7065H153.732V30.7065ZM154.242 30.7065V32.7065C154.937 32.7065 155.791 32.6778 156.795 32.623L156.686 30.626L156.577 28.6289C155.612 28.6816 154.837 28.7065 154.242 28.7065V30.7065ZM156.686 30.626H154.686V35.7554H156.686H158.686V30.626H156.686ZM156.686 35.7554L156.794 33.7583C154.202 33.6182 152.032 33.3751 150.266 33.0387L149.892 35.0034L149.517 36.9681C151.511 37.3479 153.87 37.6061 156.578 37.7525L156.686 35.7554ZM149.892 35.0034L150.308 33.0471C148.1 32.5778 146.362 32.0703 145.06 31.5399L144.306 33.3921L143.551 35.2443C145.15 35.8955 147.136 36.4623 149.476 36.9597L149.892 35.0034ZM144.306 33.3921L145.048 31.5351L144.78 31.4277L144.037 33.2847L143.294 35.1416L143.563 35.249L144.306 33.3921ZM144.037 33.2847L143.311 31.4213C142.35 31.7957 141.114 32.1852 139.584 32.585L140.089 34.52L140.595 36.455C142.216 36.0313 143.612 35.5972 144.764 35.1481L144.037 33.2847ZM140.089 34.52H138.089V34.5469H140.089H142.089V34.52H140.089ZM140.089 34.5469L139.056 36.2593C140.188 36.9424 141.335 37.5074 142.495 37.9476L143.205 36.0776L143.914 34.2076C142.998 33.8601 142.067 33.4046 141.123 32.8345L140.089 34.5469ZM143.205 36.0776L142.507 37.9522C144.95 38.8607 147.767 39.2861 150.912 39.2861V37.2861V35.2861C148.113 35.2861 145.791 34.9059 143.902 34.2031L143.205 36.0776ZM150.912 37.2861V39.2861H151.369V37.2861V35.2861H150.912V37.2861ZM151.369 37.2861V39.2861C151.753 39.2861 152.31 39.2766 153.03 39.2587L152.98 37.2593L152.93 35.2599C152.218 35.2777 151.701 35.2861 151.369 35.2861V37.2861ZM152.98 37.2593L150.981 37.3227C151.016 38.4413 151.034 39.3217 151.034 39.9717H153.034H155.034C155.034 39.261 155.015 38.3331 154.979 37.1958L152.98 37.2593ZM153.034 39.9717L152.733 37.9944C151.184 38.2301 149.638 38.3477 148.092 38.3477V40.3477V42.3477C149.841 42.3477 151.589 42.2145 153.335 41.9489L153.034 39.9717ZM148.092 40.3477V38.3477C144.237 38.3477 140.936 37.7843 138.151 36.7094L137.431 38.5752L136.711 40.441C140.048 41.7293 143.855 42.3477 148.092 42.3477V40.3477ZM137.431 38.5752L138.219 36.7369C137.554 36.4523 136.999 36.1564 136.541 35.8557L135.443 37.5278L134.346 39.1999C135.034 39.6512 135.803 40.0536 136.643 40.4135L137.431 38.5752ZM135.443 37.5278L137.194 38.4956C137.615 37.7333 137.934 37.1513 138.15 36.753C138.256 36.5554 138.342 36.3941 138.404 36.2754C138.433 36.2184 138.465 36.1557 138.493 36.0974C138.505 36.0712 138.528 36.0219 138.552 35.9635C138.563 35.9363 138.586 35.8791 138.609 35.806C138.621 35.7694 138.64 35.7071 138.657 35.6285C138.671 35.568 138.706 35.4041 138.706 35.1914H136.706H134.706C134.706 34.9798 134.74 34.8174 134.753 34.7588C134.77 34.682 134.788 34.6219 134.799 34.5879C134.821 34.52 134.841 34.4693 134.849 34.4502C134.859 34.426 134.867 34.4082 134.871 34.3996C134.875 34.3902 134.878 34.3839 134.879 34.3819C134.88 34.3791 134.873 34.3949 134.85 34.4398C134.806 34.5247 134.734 34.6599 134.63 34.8518C134.425 35.2323 134.113 35.8005 133.693 36.56L135.443 37.5278ZM136.706 35.1914V33.1914H136.679V35.1914V37.1914H136.706V35.1914ZM136.679 35.1914L136.336 33.221C135.194 33.4196 133.648 33.5927 131.675 33.7336L131.818 35.7285L131.96 37.7234C133.998 37.5779 135.693 37.3929 137.021 37.1618L136.679 35.1914ZM131.818 35.7285V33.7285C131.493 33.7285 131.184 33.7386 130.9 33.7623L131.066 35.7554L131.232 37.7485C131.377 37.7364 131.57 37.7285 131.818 37.7285V35.7285ZM131.066 35.7554H133.066V30.626H131.066H129.066V35.7554H131.066ZM131.066 30.626L130.957 32.623C131.968 32.6781 132.873 32.7065 133.671 32.7065V30.7065V28.7065C132.964 28.7065 132.134 28.6812 131.175 28.6289L131.066 30.626ZM133.671 30.7065V32.7065H133.698V30.7065V28.7065H133.671V30.7065ZM133.698 30.7065V32.7065C135.629 32.7065 137.496 32.5551 139.297 32.2485L138.961 30.2769L138.626 28.3052C137.061 28.5715 135.419 28.7065 133.698 28.7065V30.7065ZM138.961 30.2769L140.332 28.8205C139.737 28.2603 139.291 27.8196 138.982 27.4906C138.827 27.3259 138.721 27.204 138.653 27.1197C138.57 27.0183 138.59 27.0278 138.637 27.1164L136.867 28.0479L135.097 28.9793C135.33 29.4219 135.733 29.8744 136.067 30.2299C136.456 30.6439 136.968 31.1476 137.591 31.7333L138.961 30.2769ZM136.867 28.0479L138.467 26.8479C138.021 26.2539 137.723 25.7866 137.541 25.4353L135.766 26.356L133.99 27.2766C134.309 27.8921 134.745 28.5528 135.267 29.2479L136.867 28.0479ZM135.766 26.356V24.356H135.739V26.356V28.356H135.766V26.356ZM135.739 26.356L133.962 25.4387C133.678 25.989 133.467 26.3856 133.326 26.6402C133.253 26.7715 133.212 26.8399 133.196 26.865C133.185 26.8822 133.204 26.85 133.245 26.7972C133.263 26.7734 133.316 26.7051 133.398 26.6239C133.439 26.5826 133.511 26.5141 133.611 26.44C133.697 26.3755 133.889 26.2431 134.166 26.1505L134.799 28.0479L135.431 29.9452C135.912 29.785 136.198 29.4803 136.226 29.4523C136.318 29.3603 136.384 29.277 136.417 29.2339C136.487 29.1424 136.544 29.0546 136.579 28.999C136.655 28.8787 136.739 28.7334 136.822 28.5827C136.994 28.2733 137.227 27.833 137.516 27.2732L135.739 26.356ZM134.799 28.0479V26.0479H134.772V28.0479V30.0479H134.799V28.0479ZM134.772 28.0479L135.625 26.239L131.355 24.2248L130.502 26.0337L129.649 27.8426L133.919 29.8567L134.772 28.0479ZM130.502 26.0337H132.502V26.0068H130.502H128.502V26.0337H130.502ZM130.502 26.0068L132.259 26.9626L136.905 18.4226L135.148 17.4668L133.391 16.511L128.745 25.0511L130.502 26.0068ZM135.148 17.4668V15.4668H135.094V17.4668V19.4668H135.148V17.4668ZM135.094 17.4668L134.674 15.5115C132.704 15.9349 130.828 16.4244 129.046 16.9812L129.643 18.8901L130.239 20.7991C131.895 20.2816 133.653 19.8222 135.515 19.4221L135.094 17.4668ZM129.643 18.8901H127.643V47.9746H129.643H131.643V18.8901H129.643ZM129.643 47.9746V49.9746H157.76V47.9746V45.9746H129.643V47.9746ZM157.76 47.9746H159.76V20.8506H157.76H155.76V47.9746H157.76ZM157.76 20.8506H159.76C159.76 19.072 159.047 17.5337 157.69 16.384C156.413 15.3015 154.671 14.6486 152.686 14.2674L152.309 16.2314L151.931 18.1955C153.581 18.5125 154.565 18.9786 155.104 19.4358C155.565 19.8258 155.76 20.248 155.76 20.8506H157.76ZM152.309 16.2314L152.629 14.2573C151.089 14.0069 149.522 13.8823 147.931 13.8823V15.8823V17.8823C149.312 17.8823 150.664 17.9904 151.988 18.2056L152.309 16.2314ZM147.931 15.8823V13.8823C144.836 13.8823 141.157 14.2773 136.915 15.042L137.27 17.0103L137.624 18.9785C141.725 18.2393 145.153 17.8823 147.931 17.8823V15.8823ZM139.042 24.1001H137.042V24.127H139.042H141.042V24.1001H139.042ZM139.042 24.127L137.328 25.1583C138.717 27.4652 140.78 29.2628 143.406 30.5859L144.306 28.7998L145.206 27.0137C143.141 25.9735 141.695 24.6559 140.756 23.0956L139.042 24.127ZM144.306 28.7998L145.081 30.6433C148.24 29.3143 150.726 27.5458 152.318 25.2345L150.67 24.1001L149.023 22.9657C148.001 24.4499 146.244 25.8146 143.53 26.9563L144.306 28.7998ZM150.67 24.1001V22.1001H139.042V24.1001V26.1001H150.67V24.1001ZM136.168 39.0586L134.949 40.6438C137.305 42.4559 140.112 43.7109 143.322 44.4457L143.769 42.4961L144.215 40.5465C141.481 39.9207 139.222 38.8839 137.388 37.4733L136.168 39.0586ZM143.769 42.4961L143.294 44.439C145.81 45.0536 148.477 45.3555 151.288 45.3555V43.3555V41.3555C148.764 41.3555 146.418 41.0845 144.243 40.5532L143.769 42.4961ZM151.288 43.3555V45.3555H151.798V43.3555V41.3555H151.288V43.3555ZM151.798 43.3555V45.3555C152.638 45.3555 153.324 45.3388 153.78 45.2908L153.571 43.3018L153.361 41.3127C153.137 41.3363 152.641 41.3555 151.798 41.3555V43.3555ZM153.571 43.3018L151.572 43.3809L151.68 46.0933L153.678 46.0142L155.677 45.935L155.569 43.2226L153.571 43.3018ZM153.678 46.0142L153.411 44.0321C151.927 44.2322 150.193 44.3364 148.2 44.3364V46.3364V48.3364C150.325 48.3364 152.243 48.2258 153.945 47.9962L153.678 46.0142ZM148.2 46.3364V44.3364C142.931 44.3364 138.83 43.6873 135.803 42.4894L135.067 44.3491L134.331 46.2088C138.001 47.6607 142.655 48.3364 148.2 48.3364V46.3364ZM135.067 44.3491L135.937 42.548C135.465 42.3202 135.058 42.1 134.711 41.8888L133.671 43.5972L132.631 45.3056C133.107 45.5956 133.631 45.8767 134.198 46.1502L135.067 44.3491ZM133.671 43.5972L135.429 44.5511C136.225 43.0839 136.829 41.9758 137.243 41.2246C137.45 40.8482 137.606 40.5664 137.714 40.3754C137.768 40.279 137.806 40.2131 137.83 40.1725C137.896 40.0606 137.833 40.1796 137.73 40.308L136.168 39.0586L134.607 37.8092C134.518 37.9197 134.453 38.0274 134.449 38.034C134.425 38.0716 134.402 38.1106 134.382 38.1452C134.34 38.216 134.289 38.3059 134.23 38.4098C134.112 38.6194 133.947 38.9161 133.738 39.2961C133.319 40.0578 132.71 41.1742 131.913 42.6432L133.671 43.5972ZM216.681 14.4053L218.392 13.3687L218.374 13.3396L218.355 13.3111L216.681 14.4053ZM209.269 21.3608H207.269V23.3608H209.269V21.3608ZM201.938 16.0972L201.77 18.0901L201.777 18.0907L201.784 18.0913L201.938 16.0972ZM179.352 17.1445L179.066 15.1651L177.352 15.413V17.1445H179.352ZM179.352 20.5015H177.352V22.5015H179.352V20.5015ZM183.81 20.5015H185.81V18.5015H183.81V20.5015ZM183.81 24.3955H181.81V26.3955H183.81V24.3955ZM215.634 24.3955H217.634V22.3955H215.634V24.3955ZM215.634 28.2358V30.2358H217.634V28.2358H215.634ZM183.81 28.2358V26.2358H181.81V28.2358H183.81ZM183.81 33.5264H181.81V35.5264H183.81V33.5264ZM183.837 33.5264V35.5264H184.042L184.243 35.4846L183.837 33.5264ZM214.398 36.1313L216.045 34.9959L216.012 34.948L215.976 34.9021L214.398 36.1313ZM215.473 52.1909V54.1909H217.473V52.1909H215.473ZM207.523 52.1909H205.523V54.1909H207.523V52.1909ZM198.017 37.125L198.169 35.1308L198.145 35.1289L198.12 35.1277L198.017 37.125ZM183.81 37.7427L183.53 35.7624L181.81 36.0055V37.7427H183.81ZM183.81 39.5957V41.5957H185.81V39.5957H183.81ZM175.861 39.5957H173.861V41.5957H175.861V39.5957ZM175.861 21.3608H177.861V19.3608H175.861V21.3608ZM179.352 13.9219H177.352V16.339L179.726 15.8865L179.352 13.9219ZM171.967 42.5229V40.5229H169.967V42.5229H171.967ZM205.106 42.5229H207.106V40.5229H205.106V42.5229ZM205.106 46.3364V48.3364H207.106V46.3364H205.106ZM171.967 46.3364H169.967V48.3364H171.967V46.3364ZM204.354 10.9946V12.9946C207.631 12.9946 210.141 13.2739 211.952 13.7749C213.792 14.2839 214.646 14.9468 215.007 15.4994L216.681 14.4053L218.355 13.3111C217.23 11.5899 215.287 10.5475 213.018 9.91971C210.72 9.2838 207.809 8.99463 204.354 8.99463V10.9946ZM216.681 14.4053L214.971 15.4419C215.098 15.6521 215.218 15.9981 215.218 16.5806H217.218H219.218C219.218 15.4443 218.98 14.34 218.392 13.3687L216.681 14.4053ZM217.218 16.5806H215.218V21.3071H217.218H219.218V16.5806H217.218ZM217.218 21.3071H215.218C215.218 21.0167 215.292 20.4316 215.791 19.9332C216.289 19.4348 216.874 19.3608 217.165 19.3608V21.3608V23.3608C217.491 23.3608 218.103 23.2779 218.619 22.7616C219.135 22.2453 219.218 21.6333 219.218 21.3071H217.218ZM217.165 21.3608V19.3608H209.269V21.3608V23.3608H217.165V21.3608ZM209.269 21.3608H211.269V18.729H209.269H207.269V21.3608H209.269ZM209.269 18.729H211.269C211.269 17.7127 210.791 16.8955 210.167 16.3195C209.586 15.7825 208.849 15.4192 208.112 15.1547C206.633 14.6238 204.585 14.2949 202.091 14.1031L201.938 16.0972L201.784 18.0913C204.178 18.2754 205.796 18.5731 206.76 18.9195C207.245 19.0936 207.425 19.2316 207.454 19.2587C207.459 19.2628 207.408 19.2173 207.357 19.1119C207.302 18.9988 207.269 18.8639 207.269 18.729H209.269ZM201.938 16.0972L202.105 14.1042C200.338 13.9554 198.392 13.8823 196.271 13.8823V15.8823V17.8823C198.303 17.8823 200.135 17.9525 201.77 18.0901L201.938 16.0972ZM196.271 15.8823V13.8823C190.708 13.8823 184.972 14.311 179.066 15.1651L179.352 17.1445L179.638 19.1239C185.369 18.2951 190.913 17.8823 196.271 17.8823V15.8823ZM179.352 17.1445H177.352V20.5015H179.352H181.352V17.1445H179.352ZM179.352 20.5015V22.5015H183.81V20.5015V18.5015H179.352V20.5015ZM183.81 20.5015H181.81V24.3955H183.81H185.81V20.5015H183.81ZM183.81 24.3955V26.3955H215.634V24.3955V22.3955H183.81V24.3955ZM215.634 24.3955H213.634V28.2358H215.634H217.634V24.3955H215.634ZM215.634 28.2358V26.2358H183.81V28.2358V30.2358H215.634V28.2358ZM183.81 28.2358H181.81V33.5264H183.81H185.81V28.2358H183.81ZM183.81 33.5264V35.5264H183.837V33.5264V31.5264H183.81V33.5264ZM183.837 33.5264L184.243 35.4846C189.828 34.3256 194.972 33.7539 199.682 33.7539V31.7539V29.7539C194.652 29.7539 189.233 30.3639 183.43 31.5681L183.837 33.5264ZM199.682 31.7539V33.7539C203.339 33.7539 206.241 34.1101 208.444 34.7653C210.646 35.4205 212.021 36.3345 212.821 37.3606L214.398 36.1313L215.976 34.9021C214.502 33.0099 212.287 31.7352 209.584 30.9313C206.881 30.1273 203.561 29.7539 199.682 29.7539V31.7539ZM214.398 36.1313L212.752 37.2668C213.254 37.9951 213.473 38.7133 213.473 39.4614H215.473H217.473C217.473 37.8463 216.975 36.3444 216.045 34.9959L214.398 36.1313ZM215.473 39.4614H213.473V52.1909H215.473H217.473V39.4614H215.473ZM215.473 52.1909V50.1909H207.523V52.1909V54.1909H215.473V52.1909ZM207.523 52.1909H209.523V41.1533H207.523H205.523V52.1909H207.523ZM207.523 41.1533H209.523C209.523 38.8391 207.781 37.4386 205.927 36.6531C204.04 35.8534 201.403 35.3775 198.169 35.1308L198.017 37.125L197.865 39.1192C200.968 39.3559 203.085 39.7931 204.366 40.3361C205 40.6044 205.306 40.8482 205.438 40.9958C205.535 41.1039 205.523 41.1355 205.523 41.1533H207.523ZM198.017 37.125L198.12 35.1277C196.717 35.0548 195.464 35.0176 194.364 35.0176V37.0176V39.0176C195.377 39.0176 196.559 39.052 197.913 39.1223L198.017 37.125ZM194.364 37.0176V35.0176H193.908V37.0176V39.0176H194.364V37.0176ZM193.908 37.0176V35.0176C190.498 35.0176 187.039 35.2664 183.53 35.7624L183.81 37.7427L184.09 39.723C187.421 39.2521 190.693 39.0176 193.908 39.0176V37.0176ZM183.81 37.7427H181.81V39.5957H183.81H185.81V37.7427H183.81ZM183.81 39.5957V37.5957H175.861V39.5957V41.5957H183.81V39.5957ZM175.861 39.5957H177.861V21.3608H175.861H173.861V39.5957H175.861ZM175.861 21.3608V19.3608H171.43V21.3608V23.3608H175.861V21.3608ZM171.43 21.3608V19.3608C171.72 19.3608 172.305 19.4348 172.804 19.9332C173.302 20.4316 173.376 21.0167 173.376 21.3071H171.376H169.376C169.376 21.6333 169.459 22.2453 169.975 22.7616C170.492 23.2779 171.104 23.3608 171.43 23.3608V21.3608ZM171.376 21.3071H173.376V11.6123H171.376H169.376V21.3071H171.376ZM171.376 11.6123H173.376C173.376 11.9027 173.302 12.4878 172.804 12.9862C172.305 13.4846 171.72 13.5586 171.43 13.5586V11.5586V9.55859C171.104 9.55859 170.492 9.6415 169.975 10.1578C169.459 10.6741 169.376 11.2861 169.376 11.6123H171.376ZM171.43 11.5586V13.5586H179.298V11.5586V9.55859H171.43V11.5586ZM179.298 11.5586V13.5586C179.008 13.5586 178.423 13.4846 177.924 12.9862C177.426 12.4878 177.352 11.9027 177.352 11.6123H179.352H181.352C181.352 11.2861 181.269 10.6741 180.753 10.1578C180.237 9.6415 179.625 9.55859 179.298 9.55859V11.5586ZM179.352 11.6123H177.352V13.9219H179.352H181.352V11.6123H179.352ZM179.352 13.9219L179.726 15.8865C189.91 13.946 198.106 12.9946 204.354 12.9946V10.9946V8.99463C197.749 8.99463 189.276 9.99477 178.978 11.9572L179.352 13.9219ZM171.967 42.5229V44.5229H205.106V42.5229V40.5229H171.967V42.5229ZM205.106 42.5229H203.106V46.3364H205.106H207.106V42.5229H205.106ZM205.106 46.3364V44.3364H171.967V46.3364V48.3364H205.106V46.3364ZM171.967 46.3364H173.967V42.5229H171.967H169.967V46.3364H171.967ZM240.717 10.0815V8.08154H238.717V10.0815H240.717ZM248.693 10.0815H250.693V8.08154H248.693V10.0815ZM248.693 12.4717H246.693V14.4717H248.693V12.4717ZM267.733 12.4717H269.733V10.4717H267.733V12.4717ZM248.693 16.2046V14.2046H246.693V16.2046H248.693ZM248.693 17.6816H246.693V19.7746L248.784 19.6796L248.693 17.6816ZM261.718 19.6689L262.841 18.014L262.794 17.982L262.745 17.9528L261.718 19.6689ZM263.974 41.7441H261.974V43.7441H263.974V41.7441ZM253.688 45.4771V43.4771H251.688V45.4771H253.688ZM253.688 45.5039H251.688V47.1025L253.247 47.4547L253.688 45.5039ZM268.781 48.9683L270.71 49.4945L271.215 47.644L269.387 47.0624L268.781 48.9683ZM267.76 52.5938L267.316 54.5438L268.66 54.85L269.424 53.7032L267.76 52.5938ZM251.244 48.8071L249.32 48.2619L248.829 49.9951L250.501 50.6641L251.244 48.8071ZM252.157 45.4771H254.157V43.4771H252.157V45.4771ZM238.031 45.4771V43.4771H232.571L236.739 47.0038L238.031 45.4771ZM238.729 46.0947L240.125 47.5272L240.729 46.9384V46.0947H238.729ZM235.829 48.5654L234.888 46.8007L234.779 46.8588L234.678 46.9298L235.829 48.5654ZM233.197 50.123L232.37 48.3023L232.343 48.3144L232.317 48.3272L233.197 50.123ZM220.978 52.1104H218.978V54.032L220.898 54.1088L220.978 52.1104ZM220.978 47.3301L221.134 45.3362L218.978 45.1671V47.3301H220.978ZM234.594 45.5039L235.517 47.2779L236.594 46.7176V45.5039H234.594ZM234.594 45.4771H236.594V43.4771H234.594V45.4771ZM221.488 41.7441V39.7441H219.488V41.7441H221.488ZM225.651 41.7441V43.7441H227.651V41.7441H225.651ZM225.651 17.7354V15.7354H223.651V17.7354H225.651ZM233.6 17.7354H235.6V15.7354H233.6V17.7354ZM233.6 20.0449H231.6V22.0449H233.6V20.0449ZM233.627 20.0449V22.0449H233.885L234.134 21.9795L233.627 20.0449ZM240.717 18.5679L241.037 20.5421L242.717 20.27V18.5679H240.717ZM240.717 16.2046H242.717V14.2046H240.717V16.2046ZM221.972 12.4717V10.4717H219.972V12.4717H221.972ZM240.717 12.4717V14.4717H242.717V12.4717H240.717ZM233.6 23.563L233.145 21.6155L231.6 21.9768V23.563H233.6ZM233.6 24.2075H231.6V26.2075H233.6V24.2075ZM255.434 24.2075V26.2075H259.98L256.908 22.8561L255.434 24.2075ZM254.225 23.2944L253.338 25.087L253.382 25.1089L253.428 25.1286L254.225 23.2944ZM233.6 27.9404V25.9404H231.6V27.9404H233.6ZM233.6 30.062H231.6V32.062H233.6V30.062ZM256.024 30.062V32.062H258.024V30.062H256.024ZM256.024 27.9404H258.024V25.9404H256.024V27.9404ZM233.6 33.7681V31.7681H231.6V33.7681H233.6ZM233.6 35.8896H231.6V37.8896H233.6V35.8896ZM256.024 35.8896V37.8896H258.024V35.8896H256.024ZM233.6 39.6226V37.6226H231.6V39.6226H233.6ZM233.6 41.7441H231.6V43.7441H233.6V41.7441ZM256.024 41.7441V43.7441H258.024V41.7441H256.024ZM256.024 39.6226H258.024V37.6226H256.024V39.6226ZM240.717 10.0815V12.0815H248.693V10.0815V8.08154H240.717V10.0815ZM248.693 10.0815H246.693V12.4717H248.693H250.693V10.0815H248.693ZM248.693 12.4717V14.4717H267.733V12.4717V10.4717H248.693V12.4717ZM267.733 12.4717H265.733V16.1509H267.733H269.733V12.4717H267.733ZM267.733 16.1509H265.733C265.733 15.8605 265.807 15.2754 266.306 14.7769C266.804 14.2785 267.389 14.2046 267.68 14.2046V16.2046V18.2046C268.006 18.2046 268.618 18.1217 269.134 17.6054C269.65 17.0891 269.733 16.4771 269.733 16.1509H267.733ZM267.68 16.2046V14.2046H248.693V16.2046V18.2046H267.68V16.2046ZM248.693 16.2046H246.693V17.6816H248.693H250.693V16.2046H248.693ZM248.693 17.6816L248.784 19.6796C249.547 19.6449 250.241 19.6279 250.868 19.6279V17.6279V15.6279C250.17 15.6279 249.415 15.6468 248.602 15.6837L248.693 17.6816ZM250.868 17.6279V19.6279H251.835V17.6279V15.6279H250.868V17.6279ZM251.835 17.6279V19.6279C255.992 19.6279 258.865 20.2927 260.691 21.3851L261.718 19.6689L262.745 17.9528C260.023 16.3239 256.307 15.6279 251.835 15.6279V17.6279ZM261.718 19.6689L260.595 21.3239C261.656 22.0439 261.974 22.7597 261.974 23.5361H263.974H265.974C265.974 21.1973 264.788 19.335 262.841 18.014L261.718 19.6689ZM263.974 23.5361H261.974V41.7441H263.974H265.974V23.5361H263.974ZM263.974 41.7441V43.7441H268.163V41.7441V39.7441H263.974V41.7441ZM268.163 41.7441V43.7441C267.873 43.7441 267.288 43.6702 266.789 43.1718C266.291 42.6734 266.217 42.0882 266.217 41.7979H268.217H270.217C270.217 41.4717 270.134 40.8597 269.618 40.3434C269.101 39.827 268.489 39.7441 268.163 39.7441V41.7441ZM268.217 41.7979H266.217V45.4233H268.217H270.217V41.7979H268.217ZM268.217 45.4233H266.217C266.217 45.133 266.291 44.5478 266.789 44.0494C267.288 43.551 267.873 43.4771 268.163 43.4771V45.4771V47.4771C268.489 47.4771 269.101 47.3941 269.618 46.8778C270.134 46.3615 270.217 45.7495 270.217 45.4233H268.217ZM268.163 45.4771V43.4771H253.688V45.4771V47.4771H268.163V45.4771ZM253.688 45.4771H251.688V45.5039H253.688H255.688V45.4771H253.688ZM253.688 45.5039L253.247 47.4547C258.081 48.5467 261.753 49.3809 264.265 49.9575C265.521 50.2459 266.484 50.4692 267.157 50.6278C267.493 50.7072 267.752 50.7694 267.937 50.8149C268.154 50.8684 268.202 50.8831 268.174 50.8741L268.781 48.9683L269.387 47.0624C269.087 46.9668 267.598 46.6187 265.16 46.0589C262.641 45.4807 258.963 44.6453 254.129 43.5531L253.688 45.5039ZM268.781 48.9683L266.851 48.442C266.529 49.6224 266.285 50.509 266.117 51.1052C266.033 51.4046 265.97 51.623 265.927 51.766C265.906 51.8393 265.893 51.8805 265.887 51.8982C265.883 51.9089 265.887 51.8963 265.897 51.8714C265.901 51.8597 265.913 51.8282 265.931 51.7867C265.936 51.7749 265.993 51.6395 266.096 51.4843L267.76 52.5938L269.424 53.7032C269.53 53.5447 269.59 53.4036 269.598 53.384C269.62 53.3346 269.636 53.2929 269.645 53.2689C269.663 53.2193 269.679 53.1728 269.689 53.1407C269.711 53.0729 269.736 52.9923 269.761 52.9079C269.812 52.7354 269.882 52.4938 269.967 52.189C270.14 51.5767 270.388 50.6775 270.71 49.4945L268.781 48.9683ZM267.76 52.5938L268.205 50.6437C262.744 49.3995 258.639 48.462 255.887 47.8312C254.511 47.5158 253.476 47.2773 252.779 47.1157C252.43 47.0347 252.169 46.9737 251.993 46.932C251.905 46.9111 251.843 46.8961 251.803 46.8864C251.783 46.8814 251.776 46.8795 251.777 46.8797C251.777 46.8799 251.78 46.8806 251.784 46.8816C251.787 46.8826 251.794 46.8845 251.803 46.8871C251.811 46.8893 251.828 46.8942 251.849 46.901C251.862 46.9048 251.917 46.9223 251.987 46.9502L251.244 48.8071L250.501 50.6641C250.573 50.6925 250.63 50.7107 250.645 50.7154C250.669 50.7231 250.69 50.7289 250.701 50.7324C250.726 50.7393 250.747 50.745 250.76 50.7484C250.788 50.7557 250.818 50.7632 250.845 50.77C250.902 50.784 250.978 50.8022 251.07 50.824C251.255 50.868 251.524 50.9309 251.875 51.0122C252.577 51.175 253.617 51.4144 254.993 51.7301C257.747 52.3615 261.855 53.2994 267.316 54.5438L267.76 52.5938ZM251.244 48.8071L253.168 49.3523C253.473 48.2767 253.703 47.4555 253.858 46.8921C253.935 46.6117 253.995 46.3873 254.037 46.2243C254.057 46.1445 254.077 46.0672 254.092 46.0004C254.1 45.9684 254.11 45.9232 254.119 45.8739C254.124 45.8496 254.131 45.8102 254.137 45.7628C254.141 45.7343 254.157 45.621 254.157 45.4771H252.157H250.157C250.157 45.3376 250.173 45.2308 250.175 45.2108C250.181 45.1719 250.186 45.1431 250.188 45.1314C250.193 45.1073 250.196 45.0954 250.194 45.1048C250.19 45.1208 250.181 45.1587 250.163 45.2266C250.129 45.3591 250.075 45.5598 250 45.8344C249.85 46.381 249.624 47.1891 249.32 48.2619L251.244 48.8071ZM252.157 45.4771V43.4771H238.031V45.4771V47.4771H252.157V45.4771ZM238.031 45.4771L236.739 47.0038C236.969 47.1984 237.13 47.3369 237.23 47.4249C237.282 47.4714 237.301 47.4892 237.3 47.4877C237.298 47.486 237.291 47.4798 237.282 47.47C237.273 47.4614 237.254 47.4418 237.229 47.4143C237.212 47.395 237.155 47.3309 237.09 47.2391C237.059 47.1948 236.996 47.1015 236.933 46.9733C236.901 46.9074 236.856 46.8067 236.817 46.6788C236.78 46.5574 236.729 46.353 236.729 46.0947H238.729H240.729C240.729 45.6285 240.564 45.2927 240.524 45.2116C240.461 45.0816 240.396 44.9861 240.363 44.9393C240.295 44.8423 240.232 44.7715 240.208 44.7441C240.151 44.6805 240.098 44.6291 240.072 44.6044C240.012 44.547 239.944 44.4853 239.88 44.4289C239.747 44.3109 239.559 44.1495 239.323 43.9503L238.031 45.4771ZM238.729 46.0947L237.334 44.6623C236.653 45.326 236.097 45.8385 235.66 46.2104C235.195 46.6068 234.955 46.7648 234.888 46.8007L235.829 48.5654L236.77 50.3301C237.24 50.0796 237.752 49.6826 238.254 49.2554C238.784 48.8038 239.41 48.2241 240.125 47.5272L238.729 46.0947ZM235.829 48.5654L234.678 46.9298C233.779 47.5626 233.012 48.0106 232.37 48.3023L233.197 50.123L234.025 51.9438C234.959 51.5194 235.946 50.929 236.98 50.201L235.829 48.5654ZM233.197 50.123L232.317 48.3272C229.946 49.4896 226.707 50.1372 222.482 50.1372V52.1372V54.1372C227.066 54.1372 230.97 53.4421 234.078 51.9189L233.197 50.123ZM222.482 52.1372V50.1372H222.052V52.1372V54.1372H222.482V52.1372ZM222.052 52.1372V50.1372C221.822 50.1372 221.494 50.1294 221.058 50.1119L220.978 52.1104L220.898 54.1088C221.357 54.1271 221.745 54.1372 222.052 54.1372V52.1372ZM220.978 52.1104H222.978V47.3301H220.978H218.978V52.1104H220.978ZM220.978 47.3301L220.822 49.324C222.672 49.4691 224.207 49.5449 225.409 49.5449V47.5449V45.5449C224.355 45.5449 222.936 45.4775 221.134 45.3362L220.978 47.3301ZM225.409 47.5449V49.5449C229.179 49.5449 232.568 48.8129 235.517 47.2779L234.594 45.5039L233.67 43.7299C231.391 44.9163 228.658 45.5449 225.409 45.5449V47.5449ZM234.594 45.5039H236.594V45.4771H234.594H232.594V45.5039H234.594ZM234.594 45.4771V43.4771H221.542V45.4771V47.4771H234.594V45.4771ZM221.542 45.4771V43.4771C221.832 43.4771 222.418 43.551 222.916 44.0494C223.414 44.5478 223.488 45.133 223.488 45.4233H221.488H219.488C219.488 45.7495 219.571 46.3615 220.087 46.8778C220.604 47.3941 221.216 47.4771 221.542 47.4771V45.4771ZM221.488 45.4233H223.488V41.7441H221.488H219.488V45.4233H221.488ZM221.488 41.7441V43.7441H225.651V41.7441V39.7441H221.488V41.7441ZM225.651 41.7441H227.651V17.7354H225.651H223.651V41.7441H225.651ZM225.651 17.7354V19.7354H233.6V17.7354V15.7354H225.651V17.7354ZM233.6 17.7354H231.6V20.0449H233.6H235.6V17.7354H233.6ZM233.6 20.0449V22.0449H233.627V20.0449V18.0449H233.6V20.0449ZM233.627 20.0449L234.134 21.9795C236.249 21.4249 238.549 20.9451 241.037 20.5421L240.717 18.5679L240.397 16.5936C237.8 17.0142 235.374 17.5192 233.12 18.1104L233.627 20.0449ZM240.717 18.5679H242.717V16.2046H240.717H238.717V18.5679H240.717ZM240.717 16.2046V14.2046H222.025V16.2046V18.2046H240.717V16.2046ZM222.025 16.2046V14.2046C222.316 14.2046 222.901 14.2785 223.399 14.7769C223.898 15.2754 223.972 15.8605 223.972 16.1509H221.972H219.972C219.972 16.4771 220.055 17.0891 220.571 17.6054C221.087 18.1217 221.699 18.2046 222.025 18.2046V16.2046ZM221.972 16.1509H223.972V12.4717H221.972H219.972V16.1509H221.972ZM221.972 12.4717V14.4717H240.717V12.4717V10.4717H221.972V12.4717ZM240.717 12.4717H242.717V10.0815H240.717H238.717V12.4717H240.717ZM233.6 23.563H231.6V24.2075H233.6H235.6V23.563H233.6ZM233.6 24.2075V26.2075H255.434V24.2075V22.2075H233.6V24.2075ZM255.434 24.2075L256.908 22.8561C256.379 22.2788 255.756 21.7791 255.023 21.4603L254.225 23.2944L253.428 25.1286C253.518 25.1679 253.701 25.2768 253.959 25.559L255.434 24.2075ZM254.225 23.2944L255.112 21.5019C252.958 20.4361 249.962 20.0054 246.356 20.0054V22.0054V24.0054C249.769 24.0054 252.019 24.4341 253.338 25.087L254.225 23.2944ZM246.356 22.0054V20.0054C242.122 20.0054 237.716 20.5464 233.145 21.6155L233.6 23.563L234.056 25.5104C238.364 24.5028 242.463 24.0054 246.356 24.0054V22.0054ZM233.6 27.9404H231.6V30.062H233.6H235.6V27.9404H233.6ZM233.6 30.062V32.062H256.024V30.062V28.062H233.6V30.062ZM256.024 30.062H258.024V27.9404H256.024H254.024V30.062H256.024ZM256.024 27.9404V25.9404H233.6V27.9404V29.9404H256.024V27.9404ZM233.6 33.7681H231.6V35.8896H233.6H235.6V33.7681H233.6ZM233.6 35.8896V37.8896H256.024V35.8896V33.8896H233.6V35.8896ZM256.024 35.8896H258.024V33.8218H256.024H254.024V35.8896H256.024ZM256.024 33.8218H258.024C258.024 33.4956 257.942 32.8836 257.425 32.3673C256.909 31.851 256.297 31.7681 255.971 31.7681V33.7681V35.7681C255.68 35.7681 255.095 35.6941 254.597 35.1957C254.098 34.6973 254.024 34.1122 254.024 33.8218H256.024ZM255.971 33.7681V31.7681H233.6V33.7681V35.7681H255.971V33.7681ZM233.6 39.6226H231.6V41.7441H233.6H235.6V39.6226H233.6ZM233.6 41.7441V43.7441H256.024V41.7441V39.7441H233.6V41.7441ZM256.024 41.7441H258.024V39.6226H256.024H254.024V41.7441H256.024ZM256.024 39.6226V37.6226H233.6V39.6226V41.6226H256.024V39.6226Z" fill="#84D2FC" fill-opacity="0.8" mask="url(#path-1-outside-1_11_39)"/>
</g>
<path d="M27.1084 14.7275C32.7839 33.3115 35.7111 42.9258 35.8901 43.5703C35.9618 43.7493 36.4899 45.4591 37.4746 48.6997H29.4985C29.4985 48.646 28.2721 44.6087 25.8193 36.5879H16.5273C16.4915 36.5879 16.3394 37.0444 16.0708 37.9575L12.7944 48.6997H6.26855C6.73405 47.1421 9.57178 37.8411 14.7817 20.7969L16.6348 14.7275H27.1084ZM21.1465 21.334L17.6553 32.7476H24.6377V32.7207C22.4355 25.5234 21.2808 21.7279 21.1733 21.334H21.1465ZM40.1602 14.6738H64.0615V18.4604C64.0615 18.4963 64.0436 18.5142 64.0078 18.5142H56.0854V44.8862H64.8672V48.6997H39.3545V44.8862H48.1362V18.5142H40.2139C40.1781 18.5142 40.1602 18.4963 40.1602 18.4604V14.6738ZM67.9019 27.2422H115.678V31.0825H67.9019C67.866 31.0825 67.8481 31.0646 67.8481 31.0288V27.2959C67.8481 27.2601 67.866 27.2422 67.9019 27.2422ZM151.933 10.5649H152.953C156.623 10.5649 159.64 11.2363 162.003 12.5791C163.633 13.5638 164.743 14.9245 165.333 16.6611C165.602 17.5205 165.736 18.6305 165.736 19.9912V51.7881C163.624 51.7881 162.469 51.797 162.272 51.8149C157.76 51.797 153.759 51.7881 150.268 51.7881H139.982C135.524 51.7881 129.866 51.797 123.009 51.8149C122.83 51.797 122.383 51.7881 121.667 51.7881V11.3975C121.667 11.3617 121.684 11.3438 121.72 11.3438H129.589C129.625 11.3438 129.643 11.3617 129.643 11.3975V14.9155C132.955 13.7339 136.983 12.6597 141.728 11.6929C145.72 10.9409 149.122 10.5649 151.933 10.5649ZM137.27 17.0103C137.323 17.064 137.789 17.2878 138.666 17.6816C139.4 18.0218 139.875 18.2546 140.089 18.3799L139.069 20.2598H154.967V23.9927C154.824 24.5835 154.35 25.4787 153.544 26.6782C153.15 27.2332 152.497 27.9583 151.583 28.8535C151.046 29.3369 150.411 29.8472 149.677 30.3843V30.4111C151.127 30.6081 152.479 30.7065 153.732 30.7065H154.242C154.887 30.7065 155.701 30.6797 156.686 30.626V35.7554C154.036 35.6121 151.771 35.3615 149.892 35.0034C147.618 34.52 145.756 33.9829 144.306 33.3921L144.037 33.2847C142.981 33.6965 141.665 34.1082 140.089 34.52V34.5469C141.128 35.1735 142.166 35.6838 143.205 36.0776C145.371 36.8833 147.94 37.2861 150.912 37.2861H151.369C151.727 37.2861 152.264 37.2772 152.98 37.2593C153.016 38.3872 153.034 39.2913 153.034 39.9717C151.387 40.2223 149.739 40.3477 148.092 40.3477C144.046 40.3477 140.492 39.7568 137.431 38.5752C136.679 38.2529 136.016 37.9038 135.443 37.5278C136.285 36.006 136.706 35.2272 136.706 35.1914H136.679C135.443 35.4062 133.823 35.5853 131.818 35.7285C131.531 35.7285 131.281 35.7375 131.066 35.7554V30.626C132.051 30.6797 132.919 30.7065 133.671 30.7065H133.698C135.524 30.7065 137.278 30.5633 138.961 30.2769C137.744 29.131 137.046 28.388 136.867 28.0479C136.383 27.4033 136.016 26.8394 135.766 26.356H135.739C135.166 27.466 134.853 28.0299 134.799 28.0479H134.772L130.502 26.0337V26.0068L135.148 17.4668H135.094C133.179 17.8786 131.361 18.353 129.643 18.8901V47.9746H157.76V20.8506C157.76 18.4694 155.943 16.9297 152.309 16.2314C150.876 15.9987 149.417 15.8823 147.931 15.8823C144.995 15.8823 141.441 16.2583 137.27 17.0103ZM139.042 24.1001V24.127C140.206 26.0605 141.96 27.6182 144.306 28.7998C147.242 27.5645 149.363 25.9979 150.67 24.1001H139.042ZM136.168 39.0586C138.263 40.6699 140.797 41.8158 143.769 42.4961C146.114 43.069 148.62 43.3555 151.288 43.3555H151.798C152.64 43.3555 153.231 43.3376 153.571 43.3018L153.678 46.0142C152.085 46.229 150.259 46.3364 148.2 46.3364C142.793 46.3364 138.415 45.674 135.067 44.3491C134.548 44.0985 134.083 43.8478 133.671 43.5972C135.264 40.661 136.097 39.1481 136.168 39.0586ZM204.354 10.9946C211.086 10.9946 215.195 12.1315 216.681 14.4053C217.039 14.9961 217.218 15.7212 217.218 16.5806V21.3071C217.218 21.3429 217.2 21.3608 217.165 21.3608H209.269V18.729C209.269 17.3504 206.825 16.4731 201.938 16.0972C200.237 15.9539 198.348 15.8823 196.271 15.8823C190.81 15.8823 185.171 16.3031 179.352 17.1445V20.5015H183.81V24.3955H215.634V28.2358H183.81V33.5264H183.837C189.53 32.3447 194.812 31.7539 199.682 31.7539C207.219 31.7539 212.125 33.2131 214.398 36.1313C215.115 37.1698 215.473 38.2798 215.473 39.4614V52.1909H207.523V41.1533C207.523 38.9512 204.354 37.6084 198.017 37.125C196.638 37.0534 195.421 37.0176 194.364 37.0176H193.908C190.596 37.0176 187.23 37.2593 183.81 37.7427V39.5957H175.861V21.3608H171.43C171.394 21.3608 171.376 21.3429 171.376 21.3071V11.6123C171.376 11.5765 171.394 11.5586 171.43 11.5586H179.298C179.334 11.5586 179.352 11.5765 179.352 11.6123V13.9219C189.593 11.9704 197.927 10.9946 204.354 10.9946ZM171.967 42.5229H205.106V46.3364H171.967V42.5229ZM240.717 10.0815H248.693V12.4717H267.733V16.1509C267.733 16.1867 267.715 16.2046 267.68 16.2046H248.693V17.6816C249.481 17.6458 250.206 17.6279 250.868 17.6279H251.835C256.15 17.6279 259.444 18.3083 261.718 19.6689C263.222 20.6895 263.974 21.9785 263.974 23.5361V41.7441H268.163C268.199 41.7441 268.217 41.762 268.217 41.7979V45.4233C268.217 45.4591 268.199 45.4771 268.163 45.4771H253.688V45.5039C263.356 47.6882 268.387 48.8429 268.781 48.9683C268.136 51.3315 267.796 52.54 267.76 52.5938C256.839 50.1051 251.334 48.8429 251.244 48.8071C251.853 46.6587 252.157 45.5487 252.157 45.4771H238.031C238.497 45.8709 238.729 46.0768 238.729 46.0947C237.333 47.4554 236.366 48.279 235.829 48.5654C234.862 49.2458 233.985 49.765 233.197 50.123C230.458 51.4658 226.886 52.1372 222.482 52.1372H222.052C221.784 52.1372 221.426 52.1283 220.978 52.1104V47.3301C222.804 47.4733 224.281 47.5449 225.409 47.5449C228.918 47.5449 231.98 46.8646 234.594 45.5039V45.4771H221.542C221.506 45.4771 221.488 45.4591 221.488 45.4233V41.7441H225.651V17.7354H233.6V20.0449H233.627C235.811 19.472 238.174 18.9797 240.717 18.5679V16.2046H222.025C221.99 16.2046 221.972 16.1867 221.972 16.1509V12.4717H240.717V10.0815ZM233.6 23.563V24.2075H255.434C255.04 23.7778 254.637 23.4735 254.225 23.2944C252.488 22.4351 249.866 22.0054 246.356 22.0054C242.292 22.0054 238.04 22.5246 233.6 23.563ZM233.6 27.9404V30.062H256.024V27.9404H233.6ZM233.6 33.7681V35.8896H256.024V33.8218C256.024 33.786 256.007 33.7681 255.971 33.7681H233.6ZM233.6 39.6226V41.7441H256.024V39.6226H233.6Z" fill="black"/>
<defs>
<filter id="filter0_f_11_39" x="0.983496" y="5.48154" width="272.831" height="51.9684" filterUnits="userSpaceOnUse" color-interpolation-filters="sRGB">
<feFlood flood-opacity="0" result="BackgroundImageFix"/>
<feBlend mode="normal" in="SourceGraphic" in2="BackgroundImageFix" result="shape"/>
<feGaussianBlur stdDeviation="1.3" result="effect1_foregroundBlur_11_39"/>
</filter>
</defs>
</svg>
