 <svg width="198" height="13" viewBox="0 0 396 25" fill="none" xmlns="http://www.w3.org/2000/svg">
        <path d="M11.192 9.72V19.872H21.608V21.744H0.416V19.872H9.2V0.863999H11.192V7.8H20V9.72H11.192ZM45.872 10.512H36.464C36.176 11.504 35.912 12.328 35.672 12.984H44.048V14.736C43.776 15.168 43.288 15.888 42.584 16.896C41.88 17.888 41.224 18.8 40.616 19.632L44.12 21.288L43.304 23.112C38.776 20.76 35.272 19.056 32.792 18L33.488 16.392C34.384 16.76 35.952 17.456 38.192 18.48L38.912 18.816C39.36 18.24 39.864 17.552 40.424 16.752C41 15.936 41.448 15.272 41.768 14.76H33.584V13.152C33.856 12.416 34.144 11.536 34.448 10.512H30.584V8.712H34.952C35.112 8.12 35.336 7.2 35.624 5.952H31.88V4.176H36.032C36.368 2.432 36.576 1.264 36.656 0.671999L38.6 0.912C38.376 2.272 38.176 3.36 38 4.176H44.984V5.952H37.616C37.328 7.2 37.104 8.12 36.944 8.712H45.872V10.512ZM31.04 1.32C30.416 3.208 29.752 4.904 29.048 6.408V22.776H27.2V9.888C26.448 11.152 25.592 12.376 24.632 13.56L23.72 11.592C24.744 10.232 25.736 8.608 26.696 6.72C27.672 4.816 28.504 2.848 29.192 0.816L31.04 1.32ZM66.104 9.648L65.744 19.776H69.776V21.624H48.224V19.776H53.216L54.632 11.568H49.736V9.648H54.968L55.928 4.104H49.256V2.256H68.912V4.104H57.992L57.008 9.648H66.104ZM64.04 11.568H56.672L55.232 19.776H63.728L64.04 11.568ZM92.816 3.288V7.536H90.8V5.088H74.984V7.536H72.944V3.288H82.04L81.08 1.08L83.288 0.527999C83.4 0.831999 83.552 1.184 83.744 1.584C83.84 1.808 83.952 2.072 84.08 2.376C84.208 2.664 84.336 2.968 84.464 3.288H92.816ZM90.2 13.2H77.552V15.456H90.848V22.8H88.904V21.6H77.552V22.92H75.608V7.392H90.2V13.2ZM88.232 11.52V9.096H77.552V11.52H88.232ZM88.904 19.944V17.136H77.552V19.944H88.904ZM110.696 7.344V8.832H117.968V10.272H102.08V8.832H108.944V7.344H103.544V5.928H108.944V4.488H102.896V3.048H108.944V0.959999H110.696V3.048H117.176V4.488H110.696V5.928H116.624V7.344H110.696ZM101.168 6.432C100.656 5.968 99.984 5.4 99.152 4.728C98.336 4.056 97.616 3.48 96.992 3L98.144 1.488C98.8 1.968 100.208 3.096 102.368 4.872L101.168 6.432ZM96.92 6.936C98.648 8.232 100.152 9.4 101.432 10.44L100.208 12.12C99.68 11.624 98.976 11.024 98.096 10.32C97.216 9.616 96.448 9.016 95.792 8.52L96.92 6.936ZM103.784 22.536V11.808H115.904V20.184C115.904 21.032 115.736 21.64 115.4 22.008C115.064 22.392 114.504 22.584 113.72 22.584C112.824 22.584 111.92 22.536 111.008 22.44L110.72 20.976C111.568 21.104 112.36 21.168 113.096 21.168C113.48 21.168 113.752 21.064 113.912 20.856C114.072 20.632 114.152 20.304 114.152 19.872V19.056H105.536V22.536H103.784ZM114.152 14.664V13.296H105.536V14.664H114.152ZM96.872 21.984C97.192 21.152 97.64 19.816 98.216 17.976C98.808 16.12 99.256 14.672 99.56 13.632L101.408 14.208C100.992 15.456 100.096 18.248 98.72 22.584L96.872 21.984ZM105.536 16.128V17.592H114.152V16.128H105.536ZM132.944 14.04C132.432 13.256 131.872 12.464 131.264 11.664V22.656H129.584V11.424C128.944 13.312 128.288 14.896 127.616 16.176L126.704 14.472C127.168 13.544 127.664 12.432 128.192 11.136C128.736 9.824 129.184 8.56 129.536 7.344H127.328V5.472H129.584V0.983999H131.264V5.472H133.424V7.344H131.264V9.312C132.384 10.656 133.272 11.776 133.928 12.672L132.944 14.04ZM141.992 8.712V10.56H140.12V22.68H138.44V10.56H136.112C136.112 12.672 136.048 14.4 135.92 15.744C135.792 17.088 135.584 18.272 135.296 19.296C135.008 20.304 134.592 21.408 134.048 22.608L132.464 21.792C133.008 20.672 133.416 19.64 133.688 18.696C133.96 17.736 134.152 16.624 134.264 15.36C134.376 14.08 134.432 12.4 134.432 10.32V3.072C136.672 2.848 138.928 2.344 141.2 1.56L141.728 3.336C139.792 4.024 137.92 4.488 136.112 4.728V8.712H141.992ZM126.344 20.304H120.824V2.952H126.344V20.304ZM124.736 10.416V4.824H122.48V10.416H124.736ZM122.48 12.096V18.36H124.736V12.096H122.48ZM165.104 4.464V5.472C165.104 7.488 165.048 9.848 164.936 12.552C164.84 15.256 164.72 17.48 164.576 19.224C164.512 20.008 164.368 20.608 164.144 21.024C163.92 21.456 163.592 21.76 163.16 21.936C162.744 22.112 162.176 22.216 161.456 22.248C161.28 22.264 161.024 22.272 160.688 22.272C160.416 22.272 160.104 22.264 159.752 22.248C159.416 22.232 159.152 22.216 158.96 22.2L158.312 22.152L157.976 20.16C159.128 20.304 160.024 20.376 160.664 20.376C161.16 20.376 161.536 20.328 161.792 20.232C162.064 20.12 162.272 19.92 162.416 19.632C162.576 19.328 162.688 18.864 162.752 18.24C162.992 15.52 163.112 12.16 163.112 8.16V6.312H157.16C156.616 7.672 156.096 8.864 155.6 9.888L153.92 8.784C154.544 7.584 155.128 6.248 155.672 4.776C156.216 3.288 156.648 1.88 156.968 0.551999L158.888 0.935999C158.552 2.232 158.2 3.408 157.832 4.464H165.104ZM150.776 1.08C150.552 2.136 150.248 3.336 149.864 4.68H153.248V21.792H145.16V4.68H147.752C148.136 3.544 148.472 2.224 148.76 0.719999L150.776 1.08ZM147.032 11.328H151.352V6.552H147.032V11.328ZM159.488 16.464C158.976 15.664 158.352 14.76 157.616 13.752C156.88 12.744 156.256 11.944 155.744 11.352L157.184 10.224C157.712 10.832 158.336 11.616 159.056 12.576C159.792 13.536 160.432 14.408 160.976 15.192L159.488 16.464ZM147.032 13.176V19.896H151.352V13.176H147.032ZM182.384 4.728C182.208 5.448 181.944 6.056 181.592 6.552C181.256 7.048 180.808 7.496 180.248 7.896C179.704 8.296 178.96 8.752 178.016 9.264L177.08 7.752C178.152 7.224 178.952 6.688 179.48 6.144C180.024 5.584 180.432 4.896 180.704 4.08C180.768 3.888 180.808 3.744 180.824 3.648H177.656V1.944H188.624C188.608 2.648 188.568 3.456 188.504 4.368C188.44 5.28 188.368 6 188.288 6.528C188.16 7.344 187.904 7.912 187.52 8.232C187.152 8.552 186.528 8.712 185.648 8.712C184.912 8.728 184.2 8.696 183.512 8.616L183.224 7.008C183.88 7.104 184.52 7.152 185.144 7.152C185.672 7.152 186.04 7.064 186.248 6.888C186.456 6.712 186.584 6.424 186.632 6.024C186.744 4.824 186.8 4.032 186.8 3.648H182.624C182.512 4.176 182.432 4.536 182.384 4.728ZM169.544 2.112H176.264V15.96H169.544V2.112ZM174.512 8.208V3.648H171.272V8.208H174.512ZM171.272 9.864V14.28H174.512V9.864H171.272ZM178.352 9.96H188.288V16.152H178.352V9.96ZM180.104 14.568H186.584V11.544H180.104V14.568ZM186.656 16.776C187.184 17.528 187.744 18.4 188.336 19.392C188.944 20.368 189.424 21.184 189.776 21.84L188 22.8C187.504 21.696 186.528 19.976 185.072 17.64L186.656 16.776ZM168.488 22.104C168.952 21.4 169.36 20.64 169.712 19.824C170.064 19.008 170.44 18.048 170.84 16.944L172.544 17.592C171.76 20.024 171.024 21.816 170.336 22.968L168.488 22.104ZM181.616 17.256C181.904 17.896 182.224 18.688 182.576 19.632C182.944 20.56 183.24 21.368 183.464 22.056L181.664 22.56C181.472 21.872 181.216 21.072 180.896 20.16C180.576 19.248 180.272 18.44 179.984 17.736L181.616 17.256ZM176.456 17.352C176.824 18.696 177.216 20.36 177.632 22.344L175.736 22.704C175.608 21.68 175.264 20.008 174.704 17.688L176.456 17.352ZM212.72 8.952H197.768C197.768 10.264 197.728 11.576 197.648 12.888H209.096V22.752H207.176V14.712H197.504C197.312 16.392 196.984 17.872 196.52 19.152C196.056 20.432 195.392 21.704 194.528 22.968L192.632 21.864C193.512 20.664 194.184 19.456 194.648 18.24C195.112 17.008 195.432 15.624 195.608 14.088C195.784 12.552 195.872 10.6 195.872 8.232V1.344H197.768V7.128H205.664V1.032H207.584V7.128H212.72V8.952ZM220.16 18.552C220.624 18.552 221 18.736 221.288 19.104C221.576 19.456 221.72 20.008 221.72 20.76C221.72 21.848 221.432 22.744 220.856 23.448C220.296 24.152 219.552 24.592 218.624 24.768V23.64C219.712 23.304 220.288 22.528 220.352 21.312C220.304 21.328 220.232 21.336 220.136 21.336C219.736 21.336 219.416 21.2 219.176 20.928C218.952 20.656 218.84 20.328 218.84 19.944C218.84 19.544 218.96 19.216 219.2 18.96C219.456 18.688 219.776 18.552 220.16 18.552ZM250.952 4.176V6.12H240.272V4.176H245.144C244.792 3.2 244.408 2.24 243.992 1.296L245.744 0.696C246.256 1.944 246.68 3.104 247.016 4.176H250.952ZM257.336 16.176C258.568 18.032 260.184 19.744 262.184 21.312L260.96 23.016C259.104 21.544 257.536 19.872 256.256 18C255.104 19.712 253.536 21.4 251.552 23.064L250.256 21.456C252.352 19.856 253.992 18.12 255.176 16.248C254.056 14.152 253.248 11.768 252.752 9.096C252.24 9.976 251.912 10.52 251.768 10.728L250.616 9.192C251.352 8.04 252.024 6.712 252.632 5.208C253.24 3.704 253.672 2.264 253.928 0.887999L255.824 1.152C255.488 2.544 255.12 3.784 254.72 4.872H261.896V6.792H260C259.76 8.712 259.424 10.432 258.992 11.952C258.576 13.472 258.024 14.88 257.336 16.176ZM254.024 6.792C254.424 9.672 255.16 12.176 256.232 14.304C256.728 13.248 257.128 12.112 257.432 10.896C257.736 9.664 257.984 8.296 258.176 6.792H254.024ZM249.944 13.08C248.824 11.16 247.704 9.432 246.584 7.896L247.928 6.936C249.192 8.584 250.344 10.256 251.384 11.952L249.944 13.08ZM244.976 7.896C243.632 10.344 242.312 12.272 241.016 13.68L239.744 12.528C240.896 11.248 242.112 9.408 243.392 7.008L244.976 7.896ZM248.84 21.096C248.04 20.104 247.152 19.04 246.176 17.904C244.88 19.808 243.144 21.52 240.968 23.04L239.768 21.456C240.92 20.704 241.912 19.928 242.744 19.128C243.592 18.312 244.328 17.432 244.952 16.488C243.96 15.368 242.992 14.304 242.048 13.296L243.368 12.12C244.328 13.08 245.176 13.968 245.912 14.784C246.36 13.904 246.792 12.816 247.208 11.52L248.912 12.144C248.416 13.664 247.848 15.016 247.208 16.2C248.632 17.8 249.664 19.016 250.304 19.848L248.84 21.096ZM277.928 15.312C279.016 16.32 280.2 17.216 281.48 18C282.776 18.768 284.288 19.504 286.016 20.208L285.152 22.008C283.12 21.08 281.36 20.096 279.872 19.056C278.4 18 277.104 16.792 275.984 15.432V22.752H274.088V15.504C272.952 16.864 271.592 18.12 270.008 19.272C268.424 20.408 266.712 21.352 264.872 22.104L264.056 20.256C267.144 19.136 269.824 17.488 272.096 15.312H264.704V13.608H274.088V11.544H266.768V2.088H283.28V11.544H275.984V13.608H285.344V15.312H277.928ZM274.088 6V3.768H268.64V6H274.088ZM275.984 6H281.408V3.768H275.984V6ZM268.64 7.608V9.84H274.088V7.608H268.64ZM275.984 7.608V9.84H281.408V7.608H275.984ZM299.984 0.743999C301.088 2.264 302.488 3.712 304.184 5.088C305.896 6.464 307.848 7.68 310.04 8.736L309.176 10.56C307.128 9.536 305.2 8.32 303.392 6.912C301.584 5.504 300.144 4.096 299.072 2.688C297.984 4.128 296.552 5.544 294.776 6.936C293.016 8.312 291.056 9.544 288.896 10.632L288.008 8.832C290.232 7.76 292.2 6.536 293.912 5.16C295.624 3.784 297.032 2.312 298.136 0.743999H299.984ZM293.12 9.936V8.16H304.904V9.936H293.12ZM289.088 14.784V13.032H308.96V14.784H298.328C297.672 15.712 296.944 16.672 296.144 17.664C295.36 18.64 294.648 19.472 294.008 20.16C297.192 19.936 300.528 19.656 304.016 19.32C303.056 18.12 302.288 17.184 301.712 16.512L303.2 15.504C305.008 17.536 306.648 19.504 308.12 21.408L306.632 22.68C306.504 22.52 306.352 22.312 306.176 22.056C306 21.816 305.784 21.536 305.528 21.216C305.464 21.12 305.352 20.976 305.192 20.784C302.184 21.104 298.424 21.456 293.912 21.84C292.456 21.968 291.416 22.056 290.792 22.104L290.36 20.352C290.728 20.224 291.016 20.104 291.224 19.992C291.432 19.88 291.664 19.712 291.92 19.488C293.312 18.16 294.664 16.592 295.976 14.784H289.088ZM333.464 22.704C330.568 22.496 328.144 22.192 326.192 21.792C324.24 21.392 322.504 20.84 320.984 20.136C320.152 20.728 319.088 21.264 317.792 21.744C316.512 22.224 314.912 22.672 312.992 23.088L312.248 21.312C313.912 20.944 315.288 20.584 316.376 20.232C317.464 19.88 318.368 19.504 319.088 19.104C317.936 18.384 316.768 17.496 315.584 16.44L316.904 15.288C318.264 16.472 319.488 17.376 320.576 18C321.312 17.216 321.768 16.16 321.944 14.832H314.624V5.736H322.064V3.696H312.8V1.92H333.344V3.696H323.984V5.736H331.496V14.832H323.888C323.792 15.664 323.616 16.416 323.36 17.088C323.12 17.744 322.784 18.336 322.352 18.864C323.664 19.408 325.232 19.84 327.056 20.16C328.88 20.464 331.152 20.68 333.872 20.808L333.464 22.704ZM322.064 9.456V7.368H316.52V9.456H322.064ZM329.648 9.456V7.368H323.984V9.456H329.648ZM316.52 11.064V13.2H322.064V12.744V11.064H316.52ZM323.984 13.2H329.648V11.064H323.984V12.816V13.2ZM345.104 7.008C344.816 9.312 344.512 11.192 344.192 12.648C343.888 14.088 343.472 15.352 342.944 16.44L344.432 17.664C344.432 17.664 345.048 18.168 346.28 19.176L344.96 20.76C343.904 19.816 342.888 18.952 341.912 18.168C341.4 18.904 340.776 19.632 340.04 20.352C339.304 21.056 338.392 21.832 337.304 22.68L335.96 21.192C337 20.408 337.872 19.68 338.576 19.008C339.28 18.32 339.88 17.616 340.376 16.896C339.16 15.888 338.072 15.032 337.112 14.328C337.72 12.104 338.224 9.696 338.624 7.104H336.344V5.16H338.912C339.12 3.624 339.28 2.152 339.392 0.743999L341.312 0.887999C341.168 2.376 340.992 3.8 340.784 5.16H345.104V7.008ZM358.112 10.848V12.768H352.592V19.512C352.592 20.584 352.384 21.336 351.968 21.768C351.552 22.2 350.824 22.416 349.784 22.416C348.824 22.416 347.992 22.376 347.288 22.296L346.88 20.352C347.696 20.496 348.52 20.568 349.352 20.568C349.72 20.568 349.992 20.528 350.168 20.448C350.344 20.352 350.464 20.184 350.528 19.944C350.608 19.704 350.648 19.336 350.648 18.84V12.768H345.608V10.848H350.648V8.016L354.68 4.248H346.376V2.4H357.224V4.224L352.592 8.736V10.848H358.112ZM339.584 13.776L341.36 15.168C341.824 14.208 342.2 13.088 342.488 11.808C342.792 10.528 343.064 8.96 343.304 7.104H340.496C340.032 9.792 339.592 11.912 339.176 13.464L339.584 13.776ZM382.328 16.656C382.264 17.376 382.112 18.424 381.872 19.8C381.6 21.64 380.888 22.56 379.736 22.56C379.224 22.56 378.76 22.36 378.344 21.96C377.944 21.576 377.528 20.896 377.096 19.92C376.872 19.36 376.688 18.824 376.544 18.312C375.856 18.984 374.976 19.72 373.904 20.52L372.92 18.96C374.088 18.112 375.144 17.216 376.088 16.272C375.784 14.576 375.536 12.296 375.344 9.432H372.056V12.792C373.24 12.408 374.024 12.136 374.408 11.976L374.744 13.824C374.088 14 373.192 14.272 372.056 14.64V19.728C372.056 20.416 371.976 20.944 371.816 21.312C371.656 21.696 371.392 21.96 371.024 22.104C370.672 22.264 370.176 22.344 369.536 22.344C369.168 22.344 368.616 22.312 367.88 22.248L367.496 20.448C368.12 20.544 368.736 20.592 369.344 20.592C369.76 20.592 370.04 20.488 370.184 20.28C370.328 20.056 370.4 19.672 370.4 19.128V15.168L367.616 16.104L367.304 14.256C367.816 14.144 368.848 13.832 370.4 13.32V9.432H367.352V7.68H370.4V4.608C369.344 4.8 368.632 4.92 368.264 4.968L367.976 3.264C368.888 3.12 369.912 2.912 371.048 2.64C372.184 2.368 373.152 2.096 373.952 1.824L374.384 3.528C373.904 3.688 373.128 3.92 372.056 4.224V7.68H375.224L375.128 5.616C375.08 4.672 375.024 3.096 374.96 0.887999H376.664C376.68 1.688 376.736 3.28 376.832 5.664L376.928 7.68H381.8V9.432H377.048C377.192 11.544 377.368 13.272 377.576 14.616C378.456 13.512 379.304 12.16 380.12 10.56L381.56 11.472C380.536 13.504 379.344 15.288 377.984 16.824C378.192 17.768 378.416 18.536 378.656 19.128C379.008 19.992 379.32 20.424 379.592 20.424C379.768 20.424 379.92 20.304 380.048 20.064C380.176 19.824 380.288 19.376 380.384 18.72C380.56 17.68 380.68 16.808 380.744 16.104L382.328 16.656ZM380.072 6.432C379.688 5.856 379.224 5.2 378.68 4.464C378.152 3.712 377.696 3.112 377.312 2.664L378.608 1.608C379.056 2.136 379.544 2.752 380.072 3.456C380.616 4.144 381.064 4.752 381.416 5.28L380.072 6.432ZM366.56 19.32H361.064V3.24H366.56V19.32ZM364.904 5.112H362.744V17.424H364.904V5.112ZM384.368 14.208C384.4 13.056 384.704 12.096 385.28 11.328C385.872 10.544 386.672 10.152 387.68 10.152C388.256 10.152 388.72 10.272 389.072 10.512C389.424 10.736 389.824 11.08 390.272 11.544C390.592 11.896 390.872 12.16 391.112 12.336C391.368 12.512 391.656 12.6 391.976 12.6C392.408 12.6 392.744 12.416 392.984 12.048C393.24 11.68 393.408 11.136 393.488 10.416H395.288C395.256 11.568 394.952 12.536 394.376 13.32C393.816 14.088 393.032 14.472 392.024 14.472C391.432 14.472 390.952 14.352 390.584 14.112C390.216 13.872 389.816 13.52 389.384 13.056C389.064 12.704 388.784 12.448 388.544 12.288C388.304 12.112 388.024 12.024 387.704 12.024C387.256 12.024 386.912 12.208 386.672 12.576C386.432 12.944 386.272 13.488 386.192 14.208H384.368Z" fill="#818286"/>
      </svg>