  <svg width="80" height="18" viewBox="0 0 118 29" fill="none" xmlns="http://www.w3.org/2000/svg">
      <path d="M6.47 23.93L9.77 22.01L10.46 24.17L5.66 26.96L4.52 27.62L3.38 25.61C3.68 25.43 3.88 25.26 3.98 25.1C4.1 24.92 4.16 24.67 4.16 24.35V18.29H0.62V16.04H4.16V12.41H1.88V10.25C1.82 10.35 1.54 10.73 1.04 11.39L-0.01 9.29C1.79 6.73 3.23 3.83 4.31 0.589998L6.53 1.16C6.15 2.28 5.66 3.48 5.06 4.76H9.98V6.98H3.92C3.26 8.16 2.6 9.23 1.94 10.19H9.2V12.41H6.47V16.04H10.01V18.29H6.47V23.93ZM23.48 6.71V10.4H27.83V12.59H10.49V10.4H14.21V6.71H11.36V4.58H14.21V1.07H16.49V4.58H21.23V1.07H23.48V4.58H27.02V6.71H23.48ZM21.23 6.71H16.49V10.4H21.23V6.71ZM14.57 28.16H12.26V15.08H25.7V28.1H23.39V26.72H14.57V28.16ZM23.39 19.91V17.21H14.57V19.91H23.39ZM14.57 21.92V24.68H23.39V21.92H14.57ZM36.32 8.15C35.76 7.43 35.01 6.51 34.07 5.39C33.15 4.27 32.41 3.41 31.85 2.81L33.71 1.22C34.81 2.48 36.29 4.21 38.15 6.41L36.32 8.15ZM41 2.21H55.34V10.13H41V2.21ZM43.34 8H52.97V4.34H43.34V8ZM39.56 23.3L39.02 23.69C37.6 24.71 36.43 25.58 35.51 26.3L34.43 27.23L32.96 25.4C33.32 25.06 33.56 24.77 33.68 24.53C33.82 24.27 33.89 23.97 33.89 23.63V12.71H30.44V10.37H36.17V23L38.72 21.08L39.56 23.3ZM49.67 20.12C50.37 21.58 51.36 22.75 52.64 23.63C53.94 24.51 55.71 25.2 57.95 25.7L57.08 28.07C54.94 27.51 53.14 26.75 51.68 25.79C50.22 24.83 49.05 23.63 48.17 22.19C47.51 23.51 46.45 24.65 44.99 25.61C43.55 26.57 41.57 27.45 39.05 28.25L38 25.88C40.56 25.24 42.48 24.47 43.76 23.57C45.06 22.67 45.93 21.52 46.37 20.12H38.81V18.02H46.76L46.79 17.33C46.81 17.17 46.84 16.36 46.88 14.9H39.77V12.8H56.39V14.9H49.22L49.16 17.39V18.02H57.32V20.12H49.67ZM63.32 2.63H84.62V4.94H63.32V2.63ZM87.26 12.65H75.5V24.35C75.5 25.37 75.36 26.14 75.08 26.66C74.82 27.18 74.38 27.54 73.76 27.74C73.16 27.94 72.28 28.04 71.12 28.04C70.44 28.04 69.44 28 68.12 27.92L67.61 25.4C68.91 25.54 70.02 25.61 70.94 25.61C71.76 25.61 72.3 25.46 72.56 25.16C72.84 24.86 72.98 24.27 72.98 23.39V12.65H60.71V10.4H87.26V12.65ZM68.84 16.4C68.12 17.96 67.14 19.67 65.9 21.53C64.68 23.39 63.48 24.99 62.3 26.33L60.2 24.71C61.4 23.41 62.6 21.87 63.8 20.09C65.02 18.29 65.97 16.65 66.65 15.17L68.84 16.4ZM81.17 15.26C82.03 16.3 83.11 17.77 84.41 19.67C85.73 21.55 86.79 23.17 87.59 24.53L85.4 26.09C84.64 24.69 83.61 23.02 82.31 21.08C81.03 19.14 79.96 17.65 79.1 16.61L81.17 15.26ZM109.94 0.679999V3.77H117.47V5.99H109.94V8.39H107.57V5.99H100.67V8.45H98.33V5.99H90.68V3.77H98.33V0.679999H100.67V3.77H107.57V0.679999H109.94ZM93.83 7.79C94.67 8.25 95.68 8.85 96.86 9.59C98.04 10.31 98.92 10.89 99.5 11.33L98.33 13.22C97.53 12.64 96.57 11.98 95.45 11.24C94.33 10.5 93.42 9.95 92.72 9.59L93.83 7.79ZM114.74 23.06C114.84 21.8 114.89 20.95 114.89 20.51L117.11 20.93C117.07 22.07 117 23.09 116.9 23.99C116.8 24.89 116.61 25.57 116.33 26.03C116.05 26.49 115.62 26.82 115.04 27.02C114.46 27.22 113.61 27.36 112.49 27.44C110.99 27.54 109.69 27.59 108.59 27.59C107.49 27.59 106.19 27.54 104.69 27.44C103.73 27.38 102.99 27.23 102.47 26.99C101.95 26.75 101.57 26.36 101.33 25.82C101.09 25.28 100.97 24.5 100.97 23.48V9.47H114.62C114.6 10.51 114.55 11.76 114.47 13.22C114.41 14.66 114.34 15.84 114.26 16.76C114.16 17.76 113.98 18.52 113.72 19.04C113.48 19.56 113.09 19.93 112.55 20.15C112.03 20.35 111.27 20.45 110.27 20.45C109.05 20.45 107.89 20.38 106.79 20.24L106.37 17.99C107.85 18.17 109 18.26 109.82 18.26C110.34 18.26 110.73 18.2 110.99 18.08C111.27 17.94 111.47 17.71 111.59 17.39C111.73 17.07 111.84 16.59 111.92 15.95C112 15.37 112.06 14.63 112.1 13.73C112.16 12.83 112.19 12.12 112.19 11.6H103.31V22.91C103.31 23.53 103.37 23.99 103.49 24.29C103.61 24.59 103.82 24.81 104.12 24.95C104.44 25.07 104.93 25.16 105.59 25.22C106.63 25.3 107.75 25.34 108.95 25.34C110.13 25.34 111.24 25.3 112.28 25.22C112.96 25.16 113.46 25.07 113.78 24.95C114.1 24.83 114.32 24.64 114.44 24.38C114.58 24.1 114.68 23.66 114.74 23.06ZM96.65 18.32C95.93 17.8 94.93 17.13 93.65 16.31C92.37 15.49 91.37 14.88 90.65 14.48L91.7 12.62C92.48 13 93.49 13.57 94.73 14.33C95.99 15.09 97.01 15.75 97.79 16.31L96.65 18.32ZM91.46 26.84C92.18 25.72 93.02 24.34 93.98 22.7C94.96 21.04 95.65 19.81 96.05 19.01L98.06 20.06C97.56 21.1 96.87 22.41 95.99 23.99C95.11 25.57 94.31 26.93 93.59 28.07L91.46 26.84Z" fill="black"/>
      </svg>