
      <svg width="556" height="40" viewBox="0 0 556 40" fill="none" xmlns="http://www.w3.org/2000/svg">
      <path d="M5.274 5.704C5.97 4.972 6.612 4.168 7.2 3.292C7.8 2.404 8.268 1.57 8.604 0.789999L9.414 1.06C9.174 1.636 8.886 2.212 8.55 2.788H16.56V3.616L15.12 5.794L14.274 5.506L15.516 3.652H8.01C7.386 4.588 6.708 5.452 5.976 6.244L5.274 5.704ZM5.49 1.186C5.13 2.122 4.638 3.088 4.014 4.084V11.068H3.132V5.38C2.436 6.316 1.746 7.126 1.062 7.81L0.648 6.892C1.464 6.052 2.226 5.092 2.934 4.012C3.642 2.92 4.194 1.882 4.59 0.897999L5.49 1.186ZM11.808 9.358C11.808 10.018 11.664 10.468 11.376 10.708C11.088 10.936 10.578 11.05 9.846 11.05C9.462 11.05 9.042 11.02 8.586 10.96L8.388 10.096C8.94 10.168 9.372 10.204 9.684 10.204C10.044 10.204 10.308 10.174 10.476 10.114C10.644 10.054 10.758 9.952 10.818 9.808C10.878 9.652 10.908 9.406 10.908 9.07V4.732H11.808V9.358ZM8.712 6.388C8.34 7.156 7.908 7.918 7.416 8.674C6.936 9.418 6.432 10.072 5.904 10.636L5.184 10.114C5.688 9.562 6.18 8.92 6.66 8.188C7.152 7.456 7.578 6.724 7.938 5.992L8.712 6.388ZM16.038 10.564C15.222 9.304 14.304 7.99 13.284 6.622L13.986 6.118C14.538 6.85 15.474 8.164 16.794 10.06L16.038 10.564ZM8.712 11.518C8.94 11.746 9.258 12.088 9.666 12.544C10.074 13 10.428 13.408 10.728 13.768L10.026 14.344C9.258 13.42 8.592 12.652 8.028 12.04L8.712 11.518ZM14.418 11.662C14.79 12.142 15.258 12.796 15.822 13.624C16.398 14.44 16.878 15.142 17.262 15.73L16.452 16.252C16.14 15.724 15.702 15.052 15.138 14.236C14.586 13.42 14.1 12.73 13.68 12.166L14.418 11.662ZM12.258 13.084L13.14 13.318L13.032 15.244C13.008 15.712 12.924 16.066 12.78 16.306C12.636 16.558 12.432 16.738 12.168 16.846C11.904 16.954 11.544 17.026 11.088 17.062C10.536 17.122 9.87 17.152 9.09 17.152C8.298 17.152 7.626 17.122 7.074 17.062C6.438 17.002 5.988 16.822 5.724 16.522C5.46 16.234 5.328 15.718 5.328 14.974V11.824H6.228V14.758C6.228 15.274 6.306 15.628 6.462 15.82C6.618 16.012 6.912 16.126 7.344 16.162C7.836 16.222 8.436 16.252 9.144 16.252C9.84 16.252 10.434 16.222 10.926 16.162C11.406 16.126 11.73 16.024 11.898 15.856C12.078 15.688 12.174 15.37 12.186 14.902L12.258 13.084ZM0.738 16.054C1.146 15.466 1.548 14.806 1.944 14.074C2.34 13.342 2.664 12.664 2.916 12.04L3.78 12.364C3.504 13.048 3.162 13.774 2.754 14.542C2.346 15.298 1.95 15.952 1.566 16.504L0.738 16.054ZM35.208 7.27V8.224H32.562V17.224H31.644V8.224H28.368C28.356 9.712 28.272 10.96 28.116 11.968C27.96 12.964 27.708 13.87 27.36 14.686C27.024 15.49 26.538 16.366 25.902 17.314L25.128 16.63C25.74 15.73 26.208 14.908 26.532 14.164C26.856 13.42 27.09 12.568 27.234 11.608C27.378 10.636 27.45 9.394 27.45 7.882V2.698C28.662 2.578 29.862 2.392 31.05 2.14C32.25 1.888 33.288 1.6 34.164 1.276L34.452 2.248C33.636 2.536 32.682 2.8 31.59 3.04C30.498 3.268 29.424 3.442 28.368 3.562V7.27H35.208ZM25.38 11.518H21.204C21.144 12.778 20.994 13.804 20.754 14.596C20.526 15.376 20.124 16.282 19.548 17.314L18.666 16.846C19.182 15.958 19.554 15.178 19.782 14.506C20.01 13.834 20.166 13.048 20.25 12.148C20.334 11.236 20.376 9.934 20.376 8.242V2.446C22.596 2.206 24.522 1.828 26.154 1.312L26.388 2.284C24.912 2.74 23.208 3.088 21.276 3.328V6.028H25.38V11.518ZM24.48 6.946H21.276V8.278C21.276 9.37 21.27 10.144 21.258 10.6H24.48V6.946ZM44.946 7.288V15.478H53.046V16.414H36.918V15.478H43.956V0.897999H44.946V6.334H51.912V7.288H44.946ZM71.244 7.936H63.828C63.516 9.052 63.288 9.814 63.144 10.222H69.678V11.104C69.378 11.584 68.922 12.256 68.31 13.12C67.71 13.984 67.206 14.692 66.798 15.244C67.962 15.808 68.898 16.27 69.606 16.63L69.21 17.512C68.07 16.912 66.708 16.222 65.124 15.442C63.54 14.65 62.262 14.038 61.29 13.606L61.632 12.814C62.364 13.126 63.81 13.798 65.97 14.83C66.378 14.302 66.828 13.678 67.32 12.958C67.824 12.238 68.232 11.62 68.544 11.104H62.136V10.294C62.412 9.478 62.652 8.692 62.856 7.936H59.634V7.036H63.09C63.33 6.028 63.522 5.188 63.666 4.516H60.66V3.634H63.846C64.014 2.758 64.176 1.81 64.332 0.789999L65.286 0.915999C65.178 1.624 65.022 2.53 64.818 3.634H70.542V4.516H64.638C64.458 5.356 64.266 6.196 64.062 7.036H71.244V7.936ZM59.85 1.15C59.418 2.458 58.902 3.742 58.302 5.002V17.35H57.402V6.748C56.67 8.056 55.89 9.226 55.062 10.258L54.576 9.322C55.392 8.278 56.184 7.018 56.952 5.542C57.72 4.066 58.386 2.518 58.95 0.897999L59.85 1.15ZM88.29 3.85V4.858C88.29 6.454 88.254 8.158 88.182 9.97C88.11 11.782 88.014 13.348 87.894 14.668C87.846 15.232 87.744 15.67 87.588 15.982C87.444 16.282 87.216 16.492 86.904 16.612C86.604 16.744 86.178 16.81 85.626 16.81C85.17 16.834 84.558 16.81 83.79 16.738L83.286 16.702L83.124 15.73C84.072 15.838 84.858 15.892 85.482 15.892C85.842 15.892 86.118 15.844 86.31 15.748C86.514 15.652 86.664 15.49 86.76 15.262C86.868 15.022 86.946 14.68 86.994 14.236C87.21 11.944 87.318 9.22 87.318 6.064V4.768H82.404C81.936 5.932 81.504 6.88 81.108 7.612L80.28 7.054C80.784 6.142 81.246 5.122 81.666 3.994C82.098 2.866 82.452 1.774 82.728 0.717999L83.664 0.915999C83.352 2.068 83.046 3.046 82.746 3.85H88.29ZM77.526 0.987999C77.31 1.996 77.052 2.986 76.752 3.958H79.524V16.414H73.782V3.958H75.708C75.864 3.514 76.02 2.992 76.176 2.392C76.332 1.792 76.452 1.264 76.536 0.807999L77.526 0.987999ZM74.7 8.998H78.588V4.876H74.7V8.998ZM84.6 12.4C84.228 11.836 83.748 11.158 83.16 10.366C82.572 9.574 82.08 8.944 81.684 8.476L82.404 7.918C82.8 8.386 83.286 9.004 83.862 9.772C84.45 10.54 84.942 11.212 85.338 11.788L84.6 12.4ZM74.7 9.916V15.478H78.588V9.916H74.7ZM101.286 3.4C101.142 4.312 100.818 5.05 100.314 5.614C99.822 6.166 99.03 6.73 97.938 7.306L97.488 6.55C98.448 6.058 99.144 5.554 99.576 5.038C100.008 4.51 100.296 3.868 100.44 3.112L100.53 2.716H97.992V1.852H106.11C106.086 3.028 106.008 4.06 105.876 4.948C105.78 5.572 105.588 6.01 105.3 6.262C105.024 6.502 104.556 6.622 103.896 6.622C103.344 6.634 102.756 6.61 102.132 6.55L102.006 5.722C102.642 5.806 103.182 5.848 103.626 5.848C104.13 5.848 104.478 5.77 104.67 5.614C104.862 5.458 104.988 5.164 105.048 4.732C105.156 3.928 105.21 3.256 105.21 2.716H101.412L101.286 3.4ZM92.034 2.032H96.75V12.166H92.034V2.032ZM95.868 6.658V2.806H92.898V6.658H95.868ZM92.898 7.486V11.32H95.868V7.486H92.898ZM98.64 7.864H105.822V12.418H98.64V7.864ZM99.522 11.626H104.976V8.656H99.522V11.626ZM104.454 13.012C104.862 13.552 105.318 14.2 105.822 14.956C106.326 15.7 106.722 16.312 107.01 16.792L106.146 17.278C105.654 16.354 104.832 15.082 103.68 13.462L104.454 13.012ZM91.116 16.9C91.848 15.904 92.496 14.644 93.06 13.12L93.906 13.444C93.654 14.152 93.36 14.854 93.024 15.55C92.7 16.234 92.358 16.84 91.998 17.368L91.116 16.9ZM100.656 13.246C100.896 13.738 101.172 14.338 101.484 15.046C101.808 15.742 102.06 16.318 102.24 16.774L101.358 17.044C101.19 16.576 100.956 16 100.656 15.316C100.368 14.62 100.098 14.02 99.846 13.516L100.656 13.246ZM96.678 13.336C96.822 13.792 96.99 14.374 97.182 15.082C97.374 15.79 97.536 16.432 97.668 17.008L96.75 17.188C96.63 16.564 96.354 15.478 95.922 13.93L95.814 13.534L96.678 13.336ZM124.362 6.712H112.824C112.824 8.176 112.794 9.322 112.734 10.15H121.32V17.314H120.366V11.05H112.662C112.53 12.394 112.278 13.546 111.906 14.506C111.546 15.454 110.988 16.42 110.232 17.404L109.332 16.846C110.052 15.934 110.592 15.034 110.952 14.146C111.312 13.258 111.558 12.244 111.69 11.104C111.822 9.964 111.888 8.458 111.888 6.586V1.276H112.824V5.794H119.232V0.987999H120.186V5.794H124.362V6.712ZM134.316 4.822C133.824 5.23 133.296 5.62 132.732 5.992L132.21 5.272C133.086 4.696 133.938 4.006 134.766 3.202C135.606 2.386 136.302 1.57 136.854 0.753999L137.682 1.186C137.286 1.774 136.866 2.314 136.422 2.806H142.542V3.742C141.534 5.11 140.28 6.232 138.78 7.108C137.292 7.984 135.354 8.716 132.966 9.304L132.624 8.476C134.772 7.984 136.536 7.354 137.916 6.586C139.308 5.806 140.496 4.81 141.48 3.598H135.666L134.982 4.246C135.102 4.342 135.27 4.486 135.486 4.678C136.398 5.434 136.992 5.944 137.268 6.208L136.602 6.82C136.218 6.448 135.456 5.782 134.316 4.822ZM130.5 1.006H131.4V17.278H130.5V10.24L130.068 10.618C128.592 11.914 127.608 12.784 127.116 13.228L126.63 12.364C126.918 12.1 127.44 11.656 128.196 11.032C129.24 10.168 130.008 9.514 130.5 9.07V1.006ZM128.97 8.206C128.538 7.054 127.908 5.47 127.08 3.454L127.926 3.112C128.778 5.116 129.414 6.694 129.834 7.846L128.97 8.206ZM143.172 10.222V11.104H140.886V14.938C140.886 15.538 140.814 15.988 140.67 16.288C140.538 16.588 140.304 16.792 139.968 16.9C139.632 17.02 139.134 17.08 138.474 17.08C137.946 17.08 137.412 17.044 136.872 16.972L136.692 16.054C137.436 16.15 137.994 16.198 138.366 16.198C138.834 16.198 139.176 16.162 139.392 16.09C139.608 16.03 139.752 15.904 139.824 15.712C139.908 15.508 139.95 15.19 139.95 14.758V11.104H132.498V10.222H139.95V7.72H140.886V10.222H143.172ZM134.586 11.626C135.678 12.718 136.524 13.594 137.124 14.254L136.44 14.938C135.6 13.99 134.766 13.102 133.938 12.274L134.586 11.626ZM149.904 1.204C149.436 2.62 148.926 3.916 148.374 5.092V17.314H147.42V6.982C146.7 8.278 145.944 9.436 145.152 10.456L144.666 9.466C145.458 8.434 146.25 7.138 147.042 5.578C147.834 4.006 148.476 2.452 148.968 0.915999L149.904 1.204ZM156.114 12.112C157.386 13.576 159.09 15.028 161.226 16.468L160.65 17.332C158.502 15.844 156.774 14.362 155.466 12.886C154.134 14.35 152.328 15.826 150.048 17.314L149.436 16.468C151.74 15.016 153.54 13.564 154.836 12.112C153.876 10.876 153.12 9.544 152.568 8.116C152.028 6.688 151.602 5.038 151.29 3.166H150.444V2.248H159.93V3.148C159.546 5.08 159.054 6.76 158.454 8.188C157.854 9.616 157.074 10.924 156.114 12.112ZM152.244 3.166C152.556 4.894 152.958 6.412 153.45 7.72C153.954 9.016 154.632 10.222 155.484 11.338C156.36 10.234 157.068 9.028 157.608 7.72C158.148 6.4 158.586 4.882 158.922 3.166H152.244ZM178.866 17.368C176.97 16.564 175.452 15.628 174.312 14.56C173.232 15.568 171.75 16.534 169.866 17.458L169.326 16.612C171.186 15.724 172.632 14.818 173.664 13.894C173.076 13.246 172.566 12.526 172.134 11.734C171.714 10.93 171.336 10.018 171 8.998H170.226C170.214 10.21 170.148 11.218 170.028 12.022C169.92 12.814 169.722 13.606 169.434 14.398C169.146 15.178 168.702 16.15 168.102 17.314L167.274 16.846C167.862 15.838 168.3 14.95 168.588 14.182C168.876 13.414 169.074 12.592 169.182 11.716C169.29 10.828 169.344 9.67 169.344 8.242V3.436H173.556V0.897999H174.438V3.436H178.56V4.336L177.444 6.802L176.616 6.46L177.624 4.354H174.438V8.08H177.696V8.962C177.336 10.018 176.934 10.942 176.49 11.734C176.058 12.526 175.542 13.252 174.942 13.912C176.082 14.92 177.54 15.778 179.316 16.486L178.866 17.368ZM167.994 12.778C167.31 12.01 166.626 11.302 165.942 10.654V17.26H165.042V9.412C164.382 10.36 163.704 11.206 163.008 11.95L162.522 11.122C163.362 10.222 164.13 9.232 164.826 8.152C165.534 7.072 166.11 6.004 166.554 4.948H163.026V4.012H165.438C165.114 2.86 164.826 1.93 164.574 1.222L165.384 0.987999C165.684 1.984 165.972 2.992 166.248 4.012H167.544V4.894C167.1 5.926 166.566 6.97 165.942 8.026V9.682C166.158 9.85 166.254 9.928 166.23 9.916L166.5 10.168C167.1 9.424 167.592 8.716 167.976 8.044L168.606 8.512C168.054 9.352 167.526 10.066 167.022 10.654C167.634 11.218 168.144 11.716 168.552 12.148L167.994 12.778ZM173.556 8.08V4.354H170.226V8.08H173.556ZM171.864 8.998C172.488 10.75 173.298 12.172 174.294 13.264C174.834 12.688 175.296 12.058 175.68 11.374C176.076 10.69 176.43 9.898 176.742 8.998H171.864ZM182.718 2.05H195.642V15.1C195.642 15.652 195.576 16.066 195.444 16.342C195.312 16.618 195.096 16.804 194.796 16.9C194.496 17.008 194.064 17.062 193.5 17.062C192.984 17.062 192.39 17.026 191.718 16.954L191.556 15.982C192.324 16.078 192.9 16.126 193.284 16.126C193.704 16.126 194.01 16.09 194.202 16.018C194.394 15.958 194.52 15.838 194.58 15.658C194.652 15.478 194.688 15.196 194.688 14.812V11.824H189.648V17.044H188.712V11.824H183.636C183.552 12.928 183.378 13.882 183.114 14.686C182.862 15.49 182.442 16.396 181.854 17.404L180.99 16.954C181.506 16.078 181.878 15.328 182.106 14.704C182.346 14.068 182.508 13.366 182.592 12.598C182.676 11.818 182.718 10.738 182.718 9.358V2.05ZM188.712 6.532V2.986H183.69V6.532H188.712ZM189.648 6.532H194.688V2.986H189.648V6.532ZM188.712 10.888V7.468H183.69V9.664C183.69 10.228 183.684 10.636 183.672 10.888H188.712ZM189.648 7.468V10.888H194.688V7.468H189.648ZM215.082 7.828V8.764H207.756V14.704C207.756 15.508 207.588 16.078 207.252 16.414C206.916 16.75 206.328 16.924 205.488 16.936C204.636 16.96 203.832 16.918 203.076 16.81L202.878 15.856C203.718 15.964 204.426 16.018 205.002 16.018C205.494 16.018 205.86 15.976 206.1 15.892C206.34 15.808 206.502 15.658 206.586 15.442C206.682 15.226 206.73 14.896 206.73 14.452V8.764H198.882V7.828H206.73V3.112H200.268V2.176H213.714V3.112H207.756V7.828H215.082ZM226.314 5.074C227.082 6.85 228.042 8.458 229.194 9.898C230.346 11.326 231.744 12.652 233.388 13.876L232.722 14.686C231.09 13.414 229.662 11.968 228.438 10.348C227.214 8.728 226.236 6.97 225.504 5.074H225.486V13.156H229.59V14.056H225.486V17.422H224.496V14.056H220.41V13.156H224.496V5.11C223.74 6.958 222.798 8.638 221.67 10.15C220.542 11.65 219.072 13.21 217.26 14.83L216.612 14.092C218.316 12.652 219.72 11.224 220.824 9.808C221.94 8.392 222.882 6.814 223.65 5.074H217.422V4.156H224.496V0.915999H225.486V4.156H232.578V5.074H226.314ZM236.178 1.528C236.79 1.972 237.858 2.8 239.382 4.012L238.842 4.786C238.482 4.474 237.978 4.072 237.33 3.58C236.682 3.076 236.118 2.65 235.638 2.302L236.178 1.528ZM251.118 7.396H245.7V10.582H249.642V17.458H248.688V16.324H241.794V17.458H240.84V10.582H244.782V7.396H239.562V6.496H244.782V3.238C243.162 3.394 241.656 3.496 240.264 3.544L240.228 2.662C241.848 2.602 243.564 2.482 245.376 2.302C247.2 2.11 248.7 1.9 249.876 1.672L250.056 2.554C249.072 2.746 247.62 2.944 245.7 3.148V6.496H251.118V7.396ZM238.194 9.16C237.714 8.74 237.108 8.248 236.376 7.684C235.656 7.108 235.086 6.676 234.666 6.388L235.224 5.614C236.64 6.658 237.822 7.57 238.77 8.35L238.194 9.16ZM235.512 16.738C235.836 16.018 236.268 14.992 236.808 13.66C237.348 12.316 237.732 11.308 237.96 10.636L238.86 10.978C238.632 11.638 238.248 12.646 237.708 14.002C237.168 15.346 236.748 16.372 236.448 17.08L235.512 16.738ZM241.794 15.406H248.688V11.482H241.794V15.406ZM268.506 4.426C268.482 8.59 268.344 11.98 268.092 14.596C268.044 15.16 267.954 15.592 267.822 15.892C267.702 16.18 267.504 16.39 267.228 16.522C266.952 16.654 266.556 16.726 266.04 16.738C265.272 16.738 264.528 16.696 263.808 16.612L263.646 15.658C264.462 15.778 265.164 15.838 265.752 15.838C266.124 15.838 266.4 15.796 266.58 15.712C266.772 15.616 266.91 15.454 266.994 15.226C267.09 14.998 267.162 14.644 267.21 14.164C267.426 11.92 267.546 8.98 267.57 5.344H264.456C264.444 5.416 264.438 5.524 264.438 5.668C264.33 7.912 264.168 9.664 263.952 10.924C263.736 12.184 263.388 13.288 262.908 14.236C262.44 15.184 261.72 16.234 260.748 17.386L259.956 16.774C260.88 15.718 261.57 14.764 262.026 13.912C262.482 13.06 262.818 12.022 263.034 10.798C263.262 9.574 263.418 7.882 263.502 5.722L263.52 5.344H260.946V4.426H263.538L263.628 0.843999H264.564L264.474 4.426H268.506ZM253.782 2.446H260.244V3.328H253.782V2.446ZM260.046 15.208C259.962 14.932 259.824 14.542 259.632 14.038L258.21 14.344C256.494 14.716 255.096 15.004 254.016 15.208L253.296 15.37L252.972 14.398C253.164 14.326 253.308 14.254 253.404 14.182C253.5 14.098 253.578 13.996 253.638 13.876C253.998 13.24 254.4 12.358 254.844 11.23C255.3 10.09 255.69 9.016 256.014 8.008H252.954V7.09H260.838V8.008H256.968C256.68 8.968 256.296 10.054 255.816 11.266C255.348 12.478 254.922 13.438 254.538 14.146C256.182 13.846 257.772 13.534 259.308 13.21C258.888 12.118 258.432 11.068 257.94 10.06L258.768 9.736C259.056 10.348 259.416 11.17 259.848 12.202C260.28 13.222 260.622 14.074 260.874 14.758L260.046 15.208ZM273.726 14.668C273.978 14.668 274.182 14.77 274.338 14.974C274.506 15.178 274.59 15.496 274.59 15.928C274.59 16.588 274.422 17.152 274.086 17.62C273.762 18.088 273.306 18.388 272.718 18.52V17.926C273.462 17.686 273.852 17.104 273.888 16.18C273.852 16.192 273.792 16.198 273.708 16.198C273.492 16.198 273.318 16.126 273.186 15.982C273.054 15.838 272.988 15.658 272.988 15.442C272.988 15.226 273.054 15.046 273.186 14.902C273.33 14.746 273.51 14.668 273.726 14.668ZM304.92 7.18H299.178C299.358 9.1 299.598 10.678 299.898 11.914C301.23 10.798 302.358 9.496 303.282 8.008L304.074 8.476C302.994 10.144 301.692 11.608 300.168 12.868C300.468 13.792 300.834 14.56 301.266 15.172C301.518 15.508 301.746 15.754 301.95 15.91C302.166 16.054 302.382 16.126 302.598 16.126C302.814 16.126 303 16.03 303.156 15.838C303.324 15.634 303.48 15.226 303.624 14.614C303.792 13.93 303.948 13.174 304.092 12.346L304.92 12.724C304.752 13.648 304.572 14.458 304.38 15.154C304.176 15.886 303.936 16.396 303.66 16.684C303.396 16.984 303.054 17.134 302.634 17.134C302.25 17.134 301.878 17.014 301.518 16.774C301.17 16.534 300.822 16.156 300.474 15.64C300.09 15.088 299.742 14.362 299.43 13.462C298.194 14.398 296.778 15.232 295.182 15.964L294.732 15.082C296.46 14.302 297.93 13.45 299.142 12.526C298.746 11.098 298.446 9.316 298.242 7.18H293.67V10.276C294.846 10.036 295.944 9.802 296.964 9.574L297.09 10.51C296.022 10.738 294.882 10.972 293.67 11.212V14.974C293.67 15.67 293.532 16.162 293.256 16.45C292.992 16.75 292.536 16.906 291.888 16.918C291.192 16.918 290.604 16.888 290.124 16.828L289.944 15.91C290.448 15.982 291.036 16.03 291.708 16.054C292.08 16.042 292.344 15.934 292.5 15.73C292.656 15.526 292.734 15.196 292.734 14.74V11.41L289.116 12.166L288.972 11.23L292.734 10.474V7.18H288.936V6.28H292.734V3.382C291.678 3.562 290.586 3.706 289.458 3.814L289.386 2.95C291.93 2.674 294.246 2.254 296.334 1.69L296.496 2.572C295.668 2.8 294.726 3.016 293.67 3.22V6.28H298.17C298.134 5.884 298.092 5.296 298.044 4.516C297.972 3.22 297.912 2.026 297.864 0.934H298.8C298.86 2.254 298.92 3.43 298.98 4.462C299.028 5.266 299.07 5.872 299.106 6.28H304.92V7.18ZM303.246 5.182C302.898 4.786 302.43 4.306 301.842 3.742C301.266 3.178 300.72 2.662 300.204 2.194L300.798 1.582C301.266 1.978 301.8 2.464 302.4 3.04C303.012 3.616 303.516 4.114 303.912 4.534L303.246 5.182ZM311.418 1.114C311.034 2.398 310.56 3.676 309.996 4.948V17.188H309.096V6.856C308.424 8.164 307.77 9.256 307.134 10.132L306.612 9.286C307.332 8.278 308.052 6.994 308.772 5.434C309.504 3.874 310.092 2.35 310.536 0.862L311.418 1.114ZM313.614 0.934C313.902 1.222 314.28 1.642 314.748 2.194C315.216 2.734 315.624 3.22 315.972 3.652L315.288 4.282C315.036 3.934 314.664 3.472 314.172 2.896C313.692 2.308 313.296 1.852 312.984 1.528L313.614 0.934ZM316.692 2.212H322.146V14.668C322.146 15.352 322.068 15.85 321.912 16.162C321.768 16.486 321.522 16.696 321.174 16.792C320.838 16.9 320.316 16.954 319.608 16.954C319.128 16.954 318.576 16.924 317.952 16.864L317.79 15.928C318.39 16.012 319.032 16.054 319.716 16.054C320.16 16.054 320.484 16.018 320.688 15.946C320.904 15.862 321.048 15.712 321.12 15.496C321.204 15.268 321.246 14.92 321.246 14.452V3.13H316.692V2.212ZM313.506 17.044H312.588V4.048H313.506V17.044ZM329.904 1.204C329.436 2.62 328.926 3.916 328.374 5.092V17.314H327.42V6.982C326.7 8.278 325.944 9.436 325.152 10.456L324.666 9.466C325.458 8.434 326.25 7.138 327.042 5.578C327.834 4.006 328.476 2.452 328.968 0.915999L329.904 1.204ZM336.114 12.112C337.386 13.576 339.09 15.028 341.226 16.468L340.65 17.332C338.502 15.844 336.774 14.362 335.466 12.886C334.134 14.35 332.328 15.826 330.048 17.314L329.436 16.468C331.74 15.016 333.54 13.564 334.836 12.112C333.876 10.876 333.12 9.544 332.568 8.116C332.028 6.688 331.602 5.038 331.29 3.166H330.444V2.248H339.93V3.148C339.546 5.08 339.054 6.76 338.454 8.188C337.854 9.616 337.074 10.924 336.114 12.112ZM332.244 3.166C332.556 4.894 332.958 6.412 333.45 7.72C333.954 9.016 334.632 10.222 335.484 11.338C336.36 10.234 337.068 9.028 337.608 7.72C338.148 6.4 338.586 4.882 338.922 3.166H332.244ZM347.94 8.746C347.328 9.01 346.716 9.262 346.104 9.502V15.442C346.104 16.03 345.984 16.438 345.744 16.666C345.516 16.906 345.09 17.026 344.466 17.026C344.082 17.026 343.662 16.996 343.206 16.936L343.008 16.036C343.704 16.12 344.142 16.162 344.322 16.162C344.646 16.162 344.868 16.09 344.988 15.946C345.12 15.79 345.186 15.532 345.186 15.172V9.88L342.936 10.78L342.792 9.826L345.186 8.89V5.398H342.864V4.498H345.186V1.06H346.104V4.498H348.21V5.398H346.104V8.512C346.584 8.32 347.16 8.08 347.832 7.792L347.94 8.746ZM349.542 1.852H357.408V7.846H349.542V1.852ZM356.472 4.444V2.644H350.442V4.444H356.472ZM350.442 5.218V7.09H356.472V5.218H350.442ZM354.6 15.892C355.464 15.952 356.238 15.982 356.922 15.982C357.594 15.982 358.362 15.952 359.226 15.892L359.064 16.792C358.452 16.852 357.708 16.882 356.832 16.882C355.956 16.882 355.212 16.852 354.6 16.792C353.364 16.684 352.38 16.426 351.648 16.018C350.916 15.61 350.286 14.92 349.758 13.948C349.542 14.548 349.272 15.106 348.948 15.622C348.636 16.138 348.24 16.678 347.76 17.242L346.986 16.684C347.742 15.856 348.306 15.034 348.678 14.218C349.062 13.39 349.338 12.334 349.506 11.05L350.406 11.176C350.322 11.788 350.214 12.352 350.082 12.868C350.442 13.684 350.85 14.308 351.306 14.74C351.774 15.172 352.356 15.478 353.052 15.658V10.312H348.012V9.502H358.884V10.312H354.006V12.58H358.128V13.39H354.006V15.838L354.6 15.892ZM365.634 1.078C365.202 2.398 364.704 3.682 364.14 4.93V17.17H363.186V6.82C362.526 8.008 361.806 9.106 361.026 10.114L360.54 9.16C361.344 8.128 362.1 6.892 362.808 5.452C363.528 4 364.164 2.446 364.716 0.789999L365.634 1.078ZM374.292 5.47V10.546H377.208V11.482H365.238V10.546H368.262V5.47H365.976V4.57H368.262V0.915999H369.216V4.57H373.338V0.915999H374.292V4.57H376.794V5.47H374.292ZM373.338 5.47H369.216V10.546H373.338V5.47ZM365.274 16.45C365.898 15.982 366.612 15.364 367.416 14.596C368.232 13.816 368.91 13.102 369.45 12.454L370.17 13.048C369.642 13.672 368.964 14.38 368.136 15.172C367.308 15.964 366.564 16.636 365.904 17.188L365.274 16.45ZM373.014 12.472C373.53 12.928 374.19 13.564 374.994 14.38C375.798 15.184 376.452 15.862 376.956 16.414L376.29 17.098C375.81 16.558 375.168 15.886 374.364 15.082C373.572 14.266 372.912 13.612 372.384 13.12L373.014 12.472ZM384.21 2.824L389.448 16H388.242L386.64 11.86H380.88L379.332 16H378.234L383.31 2.824H384.21ZM386.28 10.888L383.724 4.282L381.24 10.888H386.28ZM392.443 16H391.363V2.824H392.443V16ZM409.743 3.904V14.884C409.743 15.46 409.683 15.892 409.563 16.18C409.443 16.468 409.233 16.666 408.933 16.774C408.645 16.882 408.207 16.942 407.619 16.954C406.899 16.954 406.167 16.918 405.423 16.846L405.261 15.892C405.993 15.988 406.671 16.036 407.295 16.036C407.751 16.036 408.081 16.006 408.285 15.946C408.489 15.874 408.627 15.742 408.699 15.55C408.771 15.346 408.807 15.028 408.807 14.596V4.84H403.605V5.02C403.605 5.944 403.509 6.784 403.317 7.54C403.965 8.14 404.793 8.938 405.801 9.934C406.809 10.918 407.595 11.71 408.159 12.31L407.475 13.048C406.899 12.412 406.167 11.644 405.279 10.744C404.403 9.832 403.647 9.076 403.011 8.476C402.663 9.316 402.135 10.126 401.427 10.906C400.719 11.674 399.765 12.496 398.565 13.372L397.935 12.544C399.183 11.668 400.143 10.858 400.815 10.114C401.487 9.37 401.955 8.602 402.219 7.81C402.495 7.006 402.633 6.058 402.633 4.966V4.84H397.431V17.152H396.477V3.904H402.633V0.969999H403.605V3.904H409.743ZM414.891 3.868V6.1H413.973V2.986H420.885C420.621 2.362 420.303 1.696 419.931 0.987999L420.849 0.645999C421.233 1.39 421.587 2.17 421.911 2.986H428.211V6.136H427.293V3.868H414.891ZM419.481 5.632C418.761 6.136 417.945 6.64 417.033 7.144C416.121 7.648 415.209 8.104 414.297 8.512L413.901 7.666C414.717 7.318 415.587 6.892 416.511 6.388C417.447 5.884 418.287 5.386 419.031 4.894L419.481 5.632ZM423.063 4.894C423.663 5.17 424.527 5.608 425.655 6.208C426.783 6.796 427.707 7.288 428.427 7.684L428.013 8.476C427.293 8.068 426.363 7.564 425.223 6.964C424.083 6.352 423.219 5.908 422.631 5.632L423.063 4.894ZM421.515 7.108C422.415 8.104 423.501 9.004 424.773 9.808C426.057 10.6 427.593 11.326 429.381 11.986L428.985 12.85C425.553 11.53 422.931 9.892 421.119 7.936C420.171 8.932 419.049 9.838 417.753 10.654C416.457 11.458 414.933 12.196 413.181 12.868L412.803 12.004C414.627 11.32 416.175 10.582 417.447 9.79C418.731 8.998 419.817 8.104 420.705 7.108H421.515ZM416.871 17.314H415.935V11.77H426.249V17.314H425.313V16.468H416.871V17.314ZM425.313 15.604V12.652H416.871V15.604H425.313ZM436.905 1.168C436.713 1.528 436.563 1.798 436.455 1.978C437.019 2.446 437.745 3.076 438.633 3.868C439.533 4.66 440.301 5.35 440.937 5.938L440.289 6.676C439.737 6.124 439.029 5.458 438.165 4.678C437.313 3.886 436.593 3.232 436.005 2.716C434.793 4.564 433.239 6.202 431.343 7.63L430.785 6.91C431.889 6.058 432.903 5.086 433.827 3.994C434.763 2.89 435.501 1.81 436.041 0.753999L436.905 1.168ZM445.311 1.078H446.211V14.992C446.211 15.544 446.145 15.958 446.013 16.234C445.881 16.51 445.653 16.696 445.329 16.792C445.005 16.9 444.531 16.954 443.907 16.954C443.499 16.954 442.887 16.918 442.071 16.846L441.873 15.856C442.761 15.964 443.487 16.018 444.051 16.018C444.411 16.018 444.675 15.982 444.843 15.91C445.023 15.826 445.143 15.694 445.203 15.514C445.275 15.322 445.311 15.034 445.311 14.65V1.078ZM442.053 2.518H442.971V12.778H442.053V2.518ZM439.461 12.832L440.361 13.012C440.361 13.276 440.349 13.6 440.325 13.984C440.313 14.368 440.295 14.644 440.271 14.812C440.235 15.316 440.151 15.688 440.019 15.928C439.899 16.168 439.695 16.336 439.407 16.432C439.119 16.54 438.663 16.612 438.039 16.648C437.535 16.684 437.013 16.702 436.473 16.702C435.945 16.702 435.417 16.684 434.889 16.648C434.301 16.612 433.863 16.528 433.575 16.396C433.287 16.276 433.083 16.066 432.963 15.766C432.843 15.466 432.783 15.016 432.783 14.416V6.91H439.083C439.083 8.074 439.035 9.298 438.939 10.582C438.891 11.182 438.801 11.626 438.669 11.914C438.549 12.19 438.339 12.382 438.039 12.49C437.751 12.598 437.295 12.652 436.671 12.652C436.263 12.652 435.801 12.622 435.285 12.562L435.141 11.716C435.633 11.8 436.167 11.842 436.743 11.842C437.127 11.842 437.403 11.812 437.571 11.752C437.739 11.692 437.853 11.578 437.913 11.41C437.985 11.23 438.045 10.918 438.093 10.474C438.177 9.526 438.219 8.632 438.219 7.792H433.701V14.182C433.701 14.65 433.731 14.986 433.791 15.19C433.863 15.394 433.995 15.532 434.187 15.604C434.379 15.676 434.703 15.73 435.159 15.766C435.783 15.79 436.245 15.802 436.545 15.802C436.845 15.802 437.307 15.79 437.931 15.766C438.363 15.73 438.675 15.676 438.867 15.604C439.071 15.532 439.209 15.412 439.281 15.244C439.365 15.064 439.413 14.788 439.425 14.416L439.461 12.832ZM464.931 4.696H459.117V7.972H464.013V8.944H459.117V12.256H464.409V13.228H459.117V17.386H458.181V4.696H456.669C455.901 6.208 455.001 7.588 453.969 8.836L453.321 8.062C454.929 6.13 456.231 3.76 457.227 0.952L458.145 1.222C457.857 2.05 457.521 2.89 457.137 3.742H464.931V4.696ZM453.807 1.51C453.339 2.926 452.841 4.174 452.313 5.254V17.278H451.359V7.072C450.723 8.188 450.015 9.226 449.235 10.186L448.749 9.214C449.529 8.23 450.279 7.042 450.999 5.65C451.719 4.258 452.343 2.776 452.871 1.204L453.807 1.51ZM480.159 13.876C480.939 14.716 482.001 15.55 483.345 16.378L482.787 17.17C481.515 16.366 480.453 15.502 479.601 14.578C478.833 15.49 477.885 16.354 476.757 17.17L476.235 16.396C477.387 15.604 478.329 14.776 479.061 13.912C478.533 13.24 478.083 12.496 477.711 11.68C477.351 10.852 477.039 9.904 476.775 8.836H475.785V17.386H474.921V1.96H482.139C482.091 3.52 482.049 4.426 482.013 4.678C481.965 5.194 481.875 5.578 481.743 5.83C481.623 6.082 481.413 6.256 481.113 6.352C480.825 6.448 480.375 6.496 479.763 6.496C479.079 6.496 478.395 6.46 477.711 6.388L477.567 5.506C478.275 5.602 478.935 5.65 479.547 5.65C479.991 5.65 480.315 5.62 480.519 5.56C480.723 5.488 480.867 5.374 480.951 5.218C481.035 5.05 481.089 4.798 481.113 4.462C481.185 4.03 481.221 3.496 481.221 2.86H475.785V7.972H482.391V8.836C482.151 9.832 481.851 10.744 481.491 11.572C481.131 12.388 480.687 13.156 480.159 13.876ZM468.333 1.978H473.157V15.352C473.157 15.784 473.115 16.114 473.031 16.342C472.947 16.582 472.791 16.75 472.563 16.846C472.347 16.954 472.023 17.008 471.591 17.008C470.991 17.008 470.475 16.978 470.043 16.918L469.863 16.036C470.403 16.108 470.937 16.144 471.465 16.144C471.813 16.144 472.041 16.066 472.149 15.91C472.257 15.742 472.311 15.454 472.311 15.046V11.338H469.161C469.101 12.622 468.963 13.72 468.747 14.632C468.531 15.532 468.183 16.45 467.703 17.386L466.893 16.954C467.301 16.198 467.601 15.52 467.793 14.92C467.985 14.308 468.123 13.528 468.207 12.58C468.291 11.632 468.333 10.294 468.333 8.566V1.978ZM472.311 6.262V2.86H469.197V6.262H472.311ZM472.311 10.474V7.126H469.197V8.908C469.197 9.628 469.191 10.15 469.179 10.474H472.311ZM477.621 8.836C477.861 9.772 478.137 10.594 478.449 11.302C478.773 11.998 479.157 12.64 479.601 13.228C480.477 12.028 481.125 10.564 481.545 8.836H477.621ZM494.073 7.018C495.837 7.786 498.261 8.458 501.345 9.034L501.111 9.952C499.347 9.604 497.817 9.238 496.521 8.854C495.237 8.458 494.097 8.014 493.101 7.522C490.965 8.542 488.319 9.424 485.163 10.168L484.857 9.25C487.773 8.602 490.197 7.846 492.129 6.982C490.893 6.25 489.759 5.332 488.727 4.228C487.791 5.2 486.843 6.022 485.883 6.694L485.343 6.01C486.279 5.35 487.215 4.522 488.151 3.526C489.087 2.518 489.819 1.576 490.347 0.7L491.193 1.078C490.941 1.51 490.575 2.038 490.095 2.662H498.807V3.454C497.427 4.882 495.849 6.07 494.073 7.018ZM489.339 3.562C490.419 4.81 491.667 5.8 493.083 6.532C494.823 5.656 496.269 4.636 497.421 3.472H489.429L489.339 3.562ZM491.931 10.924C491.931 10.96 491.925 10.99 491.913 11.014H498.969C498.837 12.394 498.651 13.708 498.411 14.956C498.255 15.712 498.003 16.264 497.655 16.612C497.307 16.96 496.767 17.134 496.035 17.134C494.955 17.134 493.917 17.074 492.921 16.954L492.777 16.09C493.905 16.234 494.883 16.306 495.711 16.306C496.239 16.306 496.623 16.198 496.863 15.982C497.115 15.754 497.307 15.346 497.439 14.758C497.655 13.846 497.811 12.886 497.907 11.878H491.751C491.547 12.742 491.217 13.486 490.761 14.11C490.305 14.734 489.675 15.31 488.871 15.838C488.079 16.354 487.029 16.888 485.721 17.44L485.199 16.648C486.399 16.168 487.365 15.7 488.097 15.244C488.841 14.788 489.423 14.296 489.843 13.768C490.263 13.228 490.569 12.598 490.761 11.878H485.757V11.014H490.941L490.959 10.834C491.091 9.838 491.157 9.238 491.157 9.034L492.147 9.052C492.087 9.604 492.015 10.228 491.931 10.924ZM505.845 14.668C506.097 14.668 506.301 14.77 506.457 14.974C506.625 15.178 506.709 15.496 506.709 15.928C506.709 16.588 506.541 17.152 506.205 17.62C505.881 18.088 505.425 18.388 504.837 18.52V17.926C505.581 17.686 505.971 17.104 506.007 16.18C505.971 16.192 505.911 16.198 505.827 16.198C505.611 16.198 505.437 16.126 505.305 15.982C505.173 15.838 505.107 15.658 505.107 15.442C505.107 15.226 505.173 15.046 505.305 14.902C505.449 14.746 505.629 14.668 505.845 14.668ZM530.847 3.166C530.475 3.862 530.061 4.564 529.605 5.272V17.224H528.633V6.658C526.761 9.142 524.451 11.41 521.703 13.462L521.109 12.598C522.993 11.266 524.673 9.784 526.149 8.152C527.637 6.52 528.825 4.858 529.713 3.166H521.595V2.194H536.679V3.166H530.847ZM530.973 6.91C531.801 7.594 532.845 8.506 534.105 9.646C535.365 10.774 536.355 11.698 537.075 12.418L536.337 13.21C535.629 12.478 534.663 11.542 533.439 10.402C532.227 9.262 531.207 8.338 530.379 7.63L530.973 6.91ZM547.605 0.897999C548.445 2.11 549.537 3.274 550.881 4.39C552.225 5.506 553.725 6.484 555.381 7.324L554.949 8.224C553.365 7.408 551.883 6.436 550.503 5.308C549.123 4.18 548.013 3.034 547.173 1.87C546.309 3.07 545.199 4.234 543.843 5.362C542.487 6.478 540.993 7.462 539.361 8.314L538.911 7.432C540.579 6.592 542.085 5.608 543.429 4.48C544.773 3.352 545.871 2.158 546.723 0.897999H547.605ZM542.637 7.594V6.73H551.637V7.594H542.637ZM539.685 11.248V10.384H554.589V11.248H546.507C545.979 12.004 545.367 12.79 544.671 13.606C543.987 14.422 543.339 15.13 542.727 15.73C545.091 15.55 547.941 15.31 551.277 15.01C550.269 13.762 549.597 12.952 549.261 12.58L549.999 12.058C550.527 12.67 551.151 13.414 551.871 14.29C552.591 15.166 553.197 15.922 553.689 16.558L552.969 17.188C552.489 16.564 552.117 16.084 551.853 15.748L548.361 16.072L542.583 16.576L541.665 16.648C541.485 16.672 541.239 16.696 540.927 16.72L540.729 15.838C540.981 15.778 541.167 15.718 541.287 15.658C541.419 15.598 541.551 15.508 541.683 15.388C542.319 14.812 542.967 14.152 543.627 13.408C544.287 12.652 544.857 11.932 545.337 11.248H539.685ZM5.94 29.746C5.328 30.01 4.716 30.262 4.104 30.502V36.442C4.104 37.03 3.984 37.438 3.744 37.666C3.516 37.906 3.09 38.026 2.466 38.026C2.082 38.026 1.662 37.996 1.206 37.936L1.008 37.036C1.704 37.12 2.142 37.162 2.322 37.162C2.646 37.162 2.868 37.09 2.988 36.946C3.12 36.79 3.186 36.532 3.186 36.172V30.88L0.936 31.78L0.792 30.826L3.186 29.89V26.398H0.864V25.498H3.186V22.06H4.104V25.498H6.21V26.398H4.104V29.512C4.584 29.32 5.16 29.08 5.832 28.792L5.94 29.746ZM7.542 22.852H15.408V28.846H7.542V22.852ZM14.472 25.444V23.644H8.442V25.444H14.472ZM8.442 26.218V28.09H14.472V26.218H8.442ZM12.6 36.892C13.464 36.952 14.238 36.982 14.922 36.982C15.594 36.982 16.362 36.952 17.226 36.892L17.064 37.792C16.452 37.852 15.708 37.882 14.832 37.882C13.956 37.882 13.212 37.852 12.6 37.792C11.364 37.684 10.38 37.426 9.648 37.018C8.916 36.61 8.286 35.92 7.758 34.948C7.542 35.548 7.272 36.106 6.948 36.622C6.636 37.138 6.24 37.678 5.76 38.242L4.986 37.684C5.742 36.856 6.306 36.034 6.678 35.218C7.062 34.39 7.338 33.334 7.506 32.05L8.406 32.176C8.322 32.788 8.214 33.352 8.082 33.868C8.442 34.684 8.85 35.308 9.306 35.74C9.774 36.172 10.356 36.478 11.052 36.658V31.312H6.012V30.502H16.884V31.312H12.006V33.58H16.128V34.39H12.006V36.838L12.6 36.892ZM27.774 34.462L26.064 34.768V38.35H25.164V34.93C22.26 35.422 20.136 35.806 18.792 36.082L18.702 35.146L20.574 34.822V23.734H19.224V22.816H27.414V23.734H26.028L26.046 33.814C26.658 33.718 27.216 33.616 27.72 33.508L27.774 34.462ZM31.68 33.076C32.544 34.48 33.792 35.824 35.424 37.108L34.794 37.9C33.234 36.628 32.01 35.32 31.122 33.976C30.258 35.296 29.034 36.628 27.45 37.972L26.838 37.216C28.47 35.884 29.724 34.516 30.6 33.112C29.988 32.008 29.496 30.784 29.124 29.44C28.764 28.096 28.47 26.506 28.242 24.67H27.576V23.716H34.2V24.67C33.912 26.53 33.57 28.126 33.174 29.458C32.79 30.778 32.292 31.984 31.68 33.076ZM25.128 26.704V23.734H21.492V26.704H25.128ZM29.142 24.67C29.334 26.266 29.586 27.664 29.898 28.864C30.21 30.064 30.624 31.162 31.14 32.158C31.644 31.186 32.052 30.112 32.364 28.936C32.688 27.76 32.982 26.338 33.246 24.67H29.142ZM25.146 27.55H21.492V30.484H25.146V27.55ZM21.492 34.66L22.752 34.426C23.076 34.366 23.436 34.3 23.832 34.228C24.24 34.156 24.678 34.078 25.146 33.994V31.348H21.492V34.66ZM38.412 22.33C38.748 22.702 39.192 23.23 39.744 23.914C40.308 24.586 40.746 25.126 41.058 25.534L40.356 26.2C40.08 25.828 39.672 25.312 39.132 24.652C38.592 23.98 38.118 23.404 37.71 22.924L38.412 22.33ZM43.344 23.248H51.624V31.186H43.344V23.248ZM44.28 24.148V30.268H50.706V24.148H44.28ZM38.52 36.694C38.688 36.514 38.802 36.37 38.862 36.262C38.922 36.142 38.952 36.004 38.952 35.848V28.99H36.792V28.036H39.87V35.47L42.138 33.436L42.498 34.39L41.706 35.074C41.322 35.398 40.674 35.962 39.762 36.766C39.678 36.85 39.582 36.94 39.474 37.036C39.378 37.144 39.27 37.27 39.15 37.414L38.52 36.694ZM41.256 37.594C42 36.898 42.75 36.082 43.506 35.146C44.262 34.198 44.88 33.298 45.36 32.446L46.188 32.932C45.72 33.784 45.096 34.708 44.316 35.704C43.548 36.7 42.798 37.558 42.066 38.278L41.256 37.594ZM49.428 32.518C51.24 34.774 52.512 36.448 53.244 37.54L52.38 38.152C51.768 37.156 50.526 35.464 48.654 33.076L49.428 32.518ZM68.796 22.132H69.678V35.938C69.678 36.49 69.606 36.916 69.462 37.216C69.33 37.516 69.09 37.726 68.742 37.846C68.406 37.978 67.914 38.044 67.266 38.044C66.69 38.044 66.102 38.008 65.502 37.936L65.358 37.018C65.994 37.114 66.594 37.162 67.158 37.162C67.602 37.162 67.932 37.126 68.148 37.054C68.376 36.982 68.538 36.844 68.634 36.64C68.742 36.424 68.796 36.094 68.796 35.65V22.132ZM58.896 28.144C58.872 28.996 58.842 29.854 58.806 30.718H63.18C63.156 32.734 63.072 34.288 62.928 35.38C62.844 35.98 62.712 36.448 62.532 36.784C62.364 37.108 62.106 37.342 61.758 37.486C61.41 37.63 60.936 37.702 60.336 37.702C59.832 37.702 59.262 37.672 58.626 37.612L58.446 36.73C59.082 36.814 59.616 36.856 60.048 36.856C60.552 36.856 60.93 36.808 61.182 36.712C61.434 36.616 61.62 36.442 61.74 36.19C61.872 35.938 61.974 35.56 62.046 35.056C62.178 34.06 62.244 32.914 62.244 31.618H58.752C58.68 32.686 58.524 33.586 58.284 34.318C58.056 35.05 57.726 35.722 57.294 36.334C56.874 36.934 56.286 37.594 55.53 38.314L54.774 37.702C55.482 37.066 56.04 36.472 56.448 35.92C56.868 35.356 57.186 34.738 57.402 34.066C57.618 33.394 57.768 32.578 57.852 31.618H55.026V30.718H57.906C57.954 29.662 57.978 28.804 57.978 28.144H56.016V22.906H62.91V28.144H58.896ZM65.304 23.716H66.186V33.922H65.304V23.716ZM61.974 23.77H56.916V27.244H61.974V23.77ZM85.77 24.94V33.058H89.262V33.94H72.72V33.058H76.194V24.94H73.314V24.076H76.194V21.97H77.13V24.076H84.834V21.97H85.77V24.076H88.65V24.94H85.77ZM84.834 27.082V24.94H77.13V27.082H84.834ZM84.834 27.946H77.13V30.07H84.834V27.946ZM84.834 30.916H77.13V33.058H84.834V30.916ZM73.206 37.576C74.07 37.228 75.012 36.79 76.032 36.262C77.052 35.734 77.97 35.212 78.786 34.696L79.218 35.506C78.402 35.998 77.466 36.514 76.41 37.054C75.366 37.606 74.424 38.068 73.584 38.44L73.206 37.576ZM82.998 34.75C83.718 35.086 84.672 35.542 85.86 36.118C87.048 36.694 87.984 37.162 88.668 37.522L88.254 38.35C87.534 37.954 86.604 37.48 85.464 36.928C84.324 36.364 83.37 35.908 82.602 35.56L82.998 34.75ZM107.028 33.49C107.028 34.222 107.004 34.984 106.956 35.776C106.932 36.304 106.848 36.712 106.704 37C106.56 37.3 106.32 37.522 105.984 37.666C105.648 37.81 105.168 37.912 104.544 37.972C103.824 38.032 102.954 38.062 101.934 38.062C100.926 38.062 100.062 38.032 99.342 37.972C98.73 37.912 98.256 37.792 97.92 37.612C97.584 37.444 97.344 37.186 97.2 36.838C97.056 36.49 96.984 36.016 96.984 35.416V29.098L95.04 29.746L94.95 28.846L96.984 28.162V23.95H97.866V27.874L100.764 26.884V21.97H101.664V26.596L105.876 25.174C105.888 26.17 105.858 27.262 105.786 28.45C105.726 29.626 105.648 30.592 105.552 31.348C105.492 31.828 105.402 32.2 105.282 32.464C105.174 32.716 105 32.902 104.76 33.022C104.532 33.13 104.202 33.184 103.77 33.184C103.194 33.184 102.768 33.154 102.492 33.094L102.294 32.194C102.63 32.266 103.038 32.302 103.518 32.302C103.806 32.302 104.022 32.266 104.166 32.194C104.31 32.122 104.412 31.996 104.472 31.816C104.544 31.636 104.604 31.36 104.652 30.988C104.832 29.524 104.922 28.006 104.922 26.434L101.664 27.532V34.93H100.764V27.82L97.866 28.792V35.164C97.866 35.656 97.908 36.028 97.992 36.28C98.088 36.52 98.256 36.7 98.496 36.82C98.748 36.94 99.126 37.024 99.63 37.072C100.41 37.144 101.172 37.18 101.916 37.18C102.672 37.18 103.428 37.144 104.184 37.072C104.748 37.012 105.15 36.94 105.39 36.856C105.63 36.76 105.792 36.61 105.876 36.406C105.972 36.202 106.032 35.866 106.056 35.398C106.08 34.726 106.092 34.03 106.092 33.31L107.028 33.49ZM95.742 22.456C95.37 23.656 94.884 24.904 94.284 26.2V38.278H93.384V27.964C92.676 29.224 91.938 30.346 91.17 31.33L90.666 30.466C91.446 29.506 92.22 28.276 92.988 26.776C93.756 25.264 94.374 23.746 94.842 22.222L95.742 22.456ZM125.28 24.256V25.138H113.598V24.256H119.232C118.812 23.296 118.482 22.582 118.242 22.114L119.142 21.826L119.736 23.122C119.88 23.47 120.048 23.848 120.24 24.256H125.28ZM113.418 22.222C113.07 23.446 112.614 24.73 112.05 26.074V38.314H111.15V27.982C110.562 29.11 109.914 30.154 109.206 31.114L108.576 30.286C109.332 29.29 110.07 28.03 110.79 26.506C111.51 24.97 112.086 23.458 112.518 21.97L113.418 22.222ZM123.786 27.838H114.714V27.01H123.786V27.838ZM123.786 30.52H114.714V29.656H123.786V30.52ZM115.794 38.278H114.858V32.392H123.678V38.26H122.76V37.126H115.794V38.278ZM122.76 36.28V33.274H115.794V36.28H122.76ZM140.778 23.68V32.104H129.204V23.68H133.38C133.716 22.816 133.95 22.192 134.082 21.808L135.144 22.006C135.012 22.366 134.796 22.924 134.496 23.68H140.778ZM139.86 26.236V24.49H130.122V26.236H139.86ZM139.86 28.756V27.01H130.122V28.756H139.86ZM130.122 29.512V31.294H139.86V29.512H130.122ZM136.314 35.452C135.99 35.128 135.564 34.744 135.036 34.3C134.508 33.856 134.04 33.478 133.632 33.166L134.19 32.554C134.538 32.806 134.994 33.166 135.558 33.634C136.122 34.09 136.56 34.468 136.872 34.768L136.314 35.452ZM140.472 32.914C140.856 33.442 141.306 34.108 141.822 34.912C142.338 35.704 142.746 36.364 143.046 36.892L142.254 37.378C141.93 36.802 141.516 36.118 141.012 35.326C140.508 34.522 140.076 33.874 139.716 33.382L140.472 32.914ZM126.9 37.18C127.26 36.616 127.614 35.95 127.962 35.182C128.322 34.414 128.622 33.688 128.862 33.004L129.726 33.328C129.498 34 129.198 34.732 128.826 35.524C128.454 36.316 128.082 37.024 127.71 37.648L126.9 37.18ZM138.222 34.264L139.14 34.498C139.104 35.266 139.062 35.848 139.014 36.244C138.978 36.688 138.894 37.018 138.762 37.234C138.642 37.462 138.45 37.624 138.186 37.72C137.934 37.816 137.562 37.882 137.07 37.918C136.326 37.978 135.66 38.008 135.072 38.008C134.472 38.008 133.8 37.978 133.056 37.918C132.588 37.882 132.222 37.81 131.958 37.702C131.706 37.594 131.52 37.408 131.4 37.144C131.292 36.88 131.238 36.49 131.238 35.974V33.112H132.174V35.794C132.174 36.262 132.258 36.58 132.426 36.748C132.594 36.916 132.924 37.018 133.416 37.054C134.04 37.114 134.61 37.144 135.126 37.144C135.642 37.144 136.212 37.114 136.836 37.054C137.208 37.018 137.478 36.97 137.646 36.91C137.826 36.85 137.952 36.748 138.024 36.604C138.096 36.46 138.138 36.238 138.15 35.938L138.222 34.264ZM147.726 35.668C147.978 35.668 148.182 35.77 148.338 35.974C148.506 36.178 148.59 36.496 148.59 36.928C148.59 37.588 148.422 38.152 148.086 38.62C147.762 39.088 147.306 39.388 146.718 39.52V38.926C147.462 38.686 147.852 38.104 147.888 37.18C147.852 37.192 147.792 37.198 147.708 37.198C147.492 37.198 147.318 37.126 147.186 36.982C147.054 36.838 146.988 36.658 146.988 36.442C146.988 36.226 147.054 36.046 147.186 35.902C147.33 35.746 147.51 35.668 147.726 35.668ZM172.728 24.166C172.356 24.862 171.942 25.564 171.486 26.272V38.224H170.514V27.658C168.642 30.142 166.332 32.41 163.584 34.462L162.99 33.598C164.874 32.266 166.554 30.784 168.03 29.152C169.518 27.52 170.706 25.858 171.594 24.166H163.476V23.194H178.56V24.166H172.728ZM172.854 27.91C173.682 28.594 174.726 29.506 175.986 30.646C177.246 31.774 178.236 32.698 178.956 33.418L178.218 34.21C177.51 33.478 176.544 32.542 175.32 31.402C174.108 30.262 173.088 29.338 172.26 28.63L172.854 27.91ZM189.486 21.898C190.326 23.11 191.418 24.274 192.762 25.39C194.106 26.506 195.606 27.484 197.262 28.324L196.83 29.224C195.246 28.408 193.764 27.436 192.384 26.308C191.004 25.18 189.894 24.034 189.054 22.87C188.19 24.07 187.08 25.234 185.724 26.362C184.368 27.478 182.874 28.462 181.242 29.314L180.792 28.432C182.46 27.592 183.966 26.608 185.31 25.48C186.654 24.352 187.752 23.158 188.604 21.898H189.486ZM184.518 28.594V27.73H193.518V28.594H184.518ZM181.566 32.248V31.384H196.47V32.248H188.388C187.86 33.004 187.248 33.79 186.552 34.606C185.868 35.422 185.22 36.13 184.608 36.73C186.972 36.55 189.822 36.31 193.158 36.01C192.15 34.762 191.478 33.952 191.142 33.58L191.88 33.058C192.408 33.67 193.032 34.414 193.752 35.29C194.472 36.166 195.078 36.922 195.57 37.558L194.85 38.188C194.37 37.564 193.998 37.084 193.734 36.748L190.242 37.072L184.464 37.576L183.546 37.648C183.366 37.672 183.12 37.696 182.808 37.72L182.61 36.838C182.862 36.778 183.048 36.718 183.168 36.658C183.3 36.598 183.432 36.508 183.564 36.388C184.2 35.812 184.848 35.152 185.508 34.408C186.168 33.652 186.738 32.932 187.218 32.248H181.566ZM200.718 23.05H213.642V36.1C213.642 36.652 213.576 37.066 213.444 37.342C213.312 37.618 213.096 37.804 212.796 37.9C212.496 38.008 212.064 38.062 211.5 38.062C210.984 38.062 210.39 38.026 209.718 37.954L209.556 36.982C210.324 37.078 210.9 37.126 211.284 37.126C211.704 37.126 212.01 37.09 212.202 37.018C212.394 36.958 212.52 36.838 212.58 36.658C212.652 36.478 212.688 36.196 212.688 35.812V32.824H207.648V38.044H206.712V32.824H201.636C201.552 33.928 201.378 34.882 201.114 35.686C200.862 36.49 200.442 37.396 199.854 38.404L198.99 37.954C199.506 37.078 199.878 36.328 200.106 35.704C200.346 35.068 200.508 34.366 200.592 33.598C200.676 32.818 200.718 31.738 200.718 30.358V23.05ZM206.712 27.532V23.986H201.69V27.532H206.712ZM207.648 27.532H212.688V23.986H207.648V27.532ZM206.712 31.888V28.468H201.69V30.664C201.69 31.228 201.684 31.636 201.672 31.888H206.712ZM207.648 28.468V31.888H212.688V28.468H207.648ZM233.082 28.828V29.764H225.756V35.704C225.756 36.508 225.588 37.078 225.252 37.414C224.916 37.75 224.328 37.924 223.488 37.936C222.636 37.96 221.832 37.918 221.076 37.81L220.878 36.856C221.718 36.964 222.426 37.018 223.002 37.018C223.494 37.018 223.86 36.976 224.1 36.892C224.34 36.808 224.502 36.658 224.586 36.442C224.682 36.226 224.73 35.896 224.73 35.452V29.764H216.882V28.828H224.73V24.112H218.268V23.176H231.714V24.112H225.756V28.828H233.082ZM247.77 24.94V33.058H251.262V33.94H234.72V33.058H238.194V24.94H235.314V24.076H238.194V21.97H239.13V24.076H246.834V21.97H247.77V24.076H250.65V24.94H247.77ZM246.834 27.082V24.94H239.13V27.082H246.834ZM246.834 27.946H239.13V30.07H246.834V27.946ZM246.834 30.916H239.13V33.058H246.834V30.916ZM235.206 37.576C236.07 37.228 237.012 36.79 238.032 36.262C239.052 35.734 239.97 35.212 240.786 34.696L241.218 35.506C240.402 35.998 239.466 36.514 238.41 37.054C237.366 37.606 236.424 38.068 235.584 38.44L235.206 37.576ZM244.998 34.75C245.718 35.086 246.672 35.542 247.86 36.118C249.048 36.694 249.984 37.162 250.668 37.522L250.254 38.35C249.534 37.954 248.604 37.48 247.464 36.928C246.324 36.364 245.37 35.908 244.602 35.56L244.998 34.75ZM269.028 33.49C269.028 34.222 269.004 34.984 268.956 35.776C268.932 36.304 268.848 36.712 268.704 37C268.56 37.3 268.32 37.522 267.984 37.666C267.648 37.81 267.168 37.912 266.544 37.972C265.824 38.032 264.954 38.062 263.934 38.062C262.926 38.062 262.062 38.032 261.342 37.972C260.73 37.912 260.256 37.792 259.92 37.612C259.584 37.444 259.344 37.186 259.2 36.838C259.056 36.49 258.984 36.016 258.984 35.416V29.098L257.04 29.746L256.95 28.846L258.984 28.162V23.95H259.866V27.874L262.764 26.884V21.97H263.664V26.596L267.876 25.174C267.888 26.17 267.858 27.262 267.786 28.45C267.726 29.626 267.648 30.592 267.552 31.348C267.492 31.828 267.402 32.2 267.282 32.464C267.174 32.716 267 32.902 266.76 33.022C266.532 33.13 266.202 33.184 265.77 33.184C265.194 33.184 264.768 33.154 264.492 33.094L264.294 32.194C264.63 32.266 265.038 32.302 265.518 32.302C265.806 32.302 266.022 32.266 266.166 32.194C266.31 32.122 266.412 31.996 266.472 31.816C266.544 31.636 266.604 31.36 266.652 30.988C266.832 29.524 266.922 28.006 266.922 26.434L263.664 27.532V34.93H262.764V27.82L259.866 28.792V35.164C259.866 35.656 259.908 36.028 259.992 36.28C260.088 36.52 260.256 36.7 260.496 36.82C260.748 36.94 261.126 37.024 261.63 37.072C262.41 37.144 263.172 37.18 263.916 37.18C264.672 37.18 265.428 37.144 266.184 37.072C266.748 37.012 267.15 36.94 267.39 36.856C267.63 36.76 267.792 36.61 267.876 36.406C267.972 36.202 268.032 35.866 268.056 35.398C268.08 34.726 268.092 34.03 268.092 33.31L269.028 33.49ZM257.742 22.456C257.37 23.656 256.884 24.904 256.284 26.2V38.278H255.384V27.964C254.676 29.224 253.938 30.346 253.17 31.33L252.666 30.466C253.446 29.506 254.22 28.276 254.988 26.776C255.756 25.264 256.374 23.746 256.842 22.222L257.742 22.456ZM272.718 23.05H285.642V36.1C285.642 36.652 285.576 37.066 285.444 37.342C285.312 37.618 285.096 37.804 284.796 37.9C284.496 38.008 284.064 38.062 283.5 38.062C282.984 38.062 282.39 38.026 281.718 37.954L281.556 36.982C282.324 37.078 282.9 37.126 283.284 37.126C283.704 37.126 284.01 37.09 284.202 37.018C284.394 36.958 284.52 36.838 284.58 36.658C284.652 36.478 284.688 36.196 284.688 35.812V32.824H279.648V38.044H278.712V32.824H273.636C273.552 33.928 273.378 34.882 273.114 35.686C272.862 36.49 272.442 37.396 271.854 38.404L270.99 37.954C271.506 37.078 271.878 36.328 272.106 35.704C272.346 35.068 272.508 34.366 272.592 33.598C272.676 32.818 272.718 31.738 272.718 30.358V23.05ZM278.712 27.532V23.986H273.69V27.532H278.712ZM279.648 27.532H284.688V23.986H279.648V27.532ZM278.712 31.888V28.468H273.69V30.664C273.69 31.228 273.684 31.636 273.672 31.888H278.712ZM279.648 28.468V31.888H284.688V28.468H279.648ZM299.214 22.942C297.93 24.874 296.076 26.5 293.652 27.82L293.22 26.992C295.704 25.66 297.54 24.022 298.728 22.078H299.628C300.912 24.022 302.76 25.63 305.172 26.902L304.74 27.784C302.28 26.404 300.438 24.79 299.214 22.942ZM292.302 26.164C291.954 25.66 291.564 25.108 291.132 24.508C290.7 23.908 290.304 23.368 289.944 22.888L290.754 22.348C291.342 23.104 292.134 24.19 293.13 25.606L292.302 26.164ZM298.008 35.83C297.528 35.83 296.964 35.788 296.316 35.704L296.136 34.84C296.736 34.936 297.294 34.984 297.81 34.984C298.17 34.984 298.416 34.894 298.548 34.714C298.692 34.522 298.764 34.216 298.764 33.796V30.538H294.03V29.674H298.764V27.514H295.596V26.704H302.562V27.514H299.7V29.674H304.416V30.538H299.7V34.138C299.7 34.75 299.568 35.188 299.304 35.452C299.04 35.704 298.608 35.83 298.008 35.83ZM297.198 36.766C298.398 36.814 299.748 36.838 301.248 36.838C302.76 36.838 304.116 36.814 305.316 36.766L305.136 37.666C303.948 37.714 302.616 37.738 301.14 37.738C299.664 37.738 298.332 37.714 297.144 37.666C296.244 37.63 295.482 37.522 294.858 37.342C294.246 37.174 293.694 36.91 293.202 36.55C292.71 36.178 292.212 35.68 291.708 35.056L290.538 36.478C290.046 37.09 289.65 37.564 289.35 37.9L288.756 37.054L291.294 34.12V29.242H289.008V28.306H292.212V34.138C292.848 35.062 293.532 35.722 294.264 36.118C294.996 36.502 295.974 36.718 297.198 36.766ZM293.49 34.678C294.354 33.694 295.152 32.53 295.884 31.186L296.604 31.6C295.872 32.92 295.056 34.114 294.156 35.182L293.49 34.678ZM303.768 35.272L303.066 34.246C302.286 33.082 301.704 32.236 301.32 31.708L301.986 31.24C302.49 31.888 303.312 33.07 304.452 34.786L303.768 35.272ZM308.088 36.352C308.088 35.764 308.286 35.266 308.682 34.858C309.09 34.438 309.594 34.228 310.194 34.228C310.77 34.228 311.256 34.438 311.652 34.858C312.06 35.266 312.264 35.764 312.264 36.352C312.264 36.952 312.066 37.456 311.67 37.864C311.274 38.272 310.782 38.476 310.194 38.476C309.582 38.476 309.078 38.272 308.682 37.864C308.286 37.456 308.088 36.952 308.088 36.352ZM308.79 36.352C308.79 36.76 308.922 37.102 309.186 37.378C309.45 37.654 309.786 37.792 310.194 37.792C310.578 37.792 310.896 37.654 311.148 37.378C311.412 37.102 311.544 36.76 311.544 36.352C311.544 35.956 311.412 35.62 311.148 35.344C310.884 35.056 310.566 34.912 310.194 34.912C309.798 34.912 309.462 35.056 309.186 35.344C308.922 35.62 308.79 35.956 308.79 36.352Z" fill="#818286"/>
      </svg>