<svg width="300" height="75" viewBox="0 0 300 75" fill="none" xmlns="http://www.w3.org/2000/svg">
<rect width="300" height="75" rx="20" fill="url(#paint0_linear_446_249)"/>
<path d="M98.31 30.81V33.06C99.57 34.38 100.89 35.89 102.27 37.59L100.83 39.42C100.27 38.58 99.43 37.45 98.31 36.03V50.19H96.06V36.09C94.86 39.11 93.62 41.55 92.34 43.41L90.99 41.28C91.93 39.94 92.85 38.32 93.75 36.42C94.65 34.52 95.38 32.65 95.94 30.81H91.83V28.62H96.06V22.83H98.31V28.62H102.12V30.81H98.31ZM103.38 50.04V24.75H117.09V49.98H114.81V48.03H105.63V50.04H103.38ZM114.81 31.77V27H105.63V31.77H114.81ZM114.81 33.96H105.63V38.7H114.81V33.96ZM105.63 40.86V45.81H114.81V40.86H105.63ZM131.25 39.66C130.49 38.76 129.46 37.63 128.16 36.27V50.31H125.85V36.48C124.77 39 123.49 41.26 122.01 43.26L120.81 41.07C121.71 39.83 122.63 38.26 123.57 36.36C124.53 34.44 125.28 32.59 125.82 30.81H121.59V28.5H125.85V22.86H128.16V28.5H132.18V30.81H128.16V33.42C128.72 33.92 129.48 34.66 130.44 35.64C131.42 36.62 132.19 37.42 132.75 38.04L131.25 39.66ZM148.62 40.71C148.62 41.47 148.6 42.43 148.56 43.59C148.54 44.73 148.51 45.68 148.47 46.44C148.43 47.24 148.32 47.84 148.14 48.24C147.96 48.66 147.66 48.95 147.24 49.11C146.84 49.27 146.25 49.35 145.47 49.35H144.06C143.1 49.35 142.42 49.13 142.02 48.69C141.64 48.25 141.45 47.45 141.45 46.29V27.33H136.2V34.98C136.2 37.76 136.08 40.01 135.84 41.73C135.62 43.45 135.22 44.97 134.64 46.29C134.08 47.59 133.23 48.96 132.09 50.4L129.96 49.02C131.04 47.62 131.84 46.36 132.36 45.24C132.9 44.1 133.27 42.76 133.47 41.22C133.69 39.68 133.8 37.59 133.8 34.95V24.84H143.82V45.6C143.82 46.18 143.88 46.56 144 46.74C144.14 46.92 144.42 47.01 144.84 47.01H145.17C145.59 47.01 145.87 46.92 146.01 46.74C146.15 46.54 146.23 46.11 146.25 45.45C146.27 44.79 146.29 43.94 146.31 42.9C146.35 41.84 146.37 40.97 146.37 40.29L148.62 40.71ZM177.21 27.03V50.1H174.87V48.12H164.97V50.19H162.66V27.03H167.55C168.21 24.89 168.64 23.39 168.84 22.53L171.42 22.98C171.08 24.34 170.67 25.69 170.19 27.03H177.21ZM157.95 23.01V28.38H161.46V30.69H157.95V36.12C159.37 35.66 160.46 35.29 161.22 35.01L161.43 37.53C161.11 37.65 160.34 37.9 159.12 38.28L157.95 38.67V46.5C157.95 47.42 157.86 48.1 157.68 48.54C157.5 49 157.17 49.31 156.69 49.47C156.23 49.65 155.5 49.74 154.5 49.74C154.04 49.74 153.35 49.7 152.43 49.62L151.95 47.28C152.73 47.4 153.51 47.46 154.29 47.46C154.85 47.46 155.21 47.35 155.37 47.13C155.55 46.89 155.64 46.4 155.64 45.66V39.36C153.9 39.9 152.49 40.3 151.41 40.56L150.96 38.19C152.02 37.91 153.58 37.46 155.64 36.84V30.69H151.62V28.38H155.64V23.01H157.95ZM174.87 36.33V29.34H164.97V36.33H174.87ZM164.97 38.64V45.81H174.87V38.64H164.97ZM189.69 36.33C189.09 36.57 188.59 36.79 188.19 36.99L186.93 37.53V47.04C186.93 48.18 186.72 48.95 186.3 49.35C185.9 49.75 185.16 49.95 184.08 49.95C183.62 49.95 182.97 49.91 182.13 49.83L181.68 47.58C182.4 47.7 183.13 47.76 183.87 47.76C184.45 47.76 184.74 47.29 184.74 46.35V38.52L183.09 39.27L181.41 40.05L181.02 37.65L184.74 36.06V30.63H181.71V28.29H184.74V22.98H186.93V28.29H189.72V30.63H186.93V35.1C187.91 34.68 188.73 34.31 189.39 33.99L189.69 36.33ZM190.53 37.26L190.44 35.43L192.48 35.34V25.92H190.44V24.06H207.42V25.92H205.35V34.77L207.72 34.65L207.69 36.42L205.35 36.54V38.25H203.1V36.63L190.53 37.26ZM203.1 27.78V25.92H194.67V27.78H203.1ZM203.1 29.55H194.67V31.47H203.1V29.55ZM203.1 33.21H194.67V35.25L203.1 34.86V33.21ZM196.44 48.84C196.04 48.4 195.37 47.69 194.43 46.71C193.29 47.99 191.78 49.2 189.9 50.34L188.61 48.54C190.43 47.58 191.89 46.5 192.99 45.3C191.77 44.12 190.78 43.2 190.02 42.54L191.31 41.31C192.01 41.85 192.97 42.67 194.19 43.77C194.73 42.97 195.25 41.94 195.75 40.68H189.84V38.85H197.76V40.74C197.14 42.52 196.44 43.99 195.66 45.15C196.32 45.77 197.07 46.53 197.91 47.43L196.44 48.84ZM207.96 50.25C206.12 49.45 204.58 48.46 203.34 47.28C202.16 48.36 200.59 49.41 198.63 50.43L197.55 48.57C199.43 47.57 200.89 46.62 201.93 45.72C200.85 44.32 199.99 42.64 199.35 40.68H198.78V38.85H207.33V40.74C206.63 42.84 205.74 44.55 204.66 45.87C205.74 46.79 207.15 47.61 208.89 48.33L207.96 50.25ZM201.36 40.68C202.02 42.24 202.66 43.45 203.28 44.31C204.08 43.35 204.72 42.14 205.2 40.68H201.36Z" fill="white"/>
<defs>
<linearGradient id="paint0_linear_446_249" x1="0" y1="37.5" x2="300" y2="37.5" gradientUnits="userSpaceOnUse">
<stop stop-color="#A8DEFC"/>
<stop offset="1" stop-color="#5187AB"/>
</linearGradient>
</defs>
</svg>
