<svg width="300" height="75" viewBox="0 0 300 75" fill="none" xmlns="http://www.w3.org/2000/svg">
<rect width="300" height="75" rx="20" fill="url(#paint0_linear_446_248)"/>
<path d="M92.94 50.31V24.15H117.06V50.31H114.84V48.75H95.19V50.31H92.94ZM95.19 26.31V46.68H114.84V26.31H95.19ZM106.95 34.77C108.65 35.49 111.03 36.18 114.09 36.84L113.28 38.79C109.74 37.83 106.98 36.85 105 35.85C102.9 36.91 100.14 37.96 96.72 39L95.91 37.14C98.65 36.38 101.01 35.57 102.99 34.71C101.97 34.05 100.95 33.21 99.93 32.19C99.07 33.05 98.2 33.82 97.32 34.5L96.15 33.06C97.23 32.2 98.28 31.18 99.3 30C100.32 28.82 101.15 27.7 101.79 26.64L103.62 27.33C103.28 27.93 102.88 28.55 102.42 29.19H111.84V30.9C110.24 32.46 108.61 33.75 106.95 34.77ZM101.13 30.9C102.19 32.02 103.45 32.99 104.91 33.81C106.63 32.87 107.99 31.9 108.99 30.9H101.13ZM101.13 38.01L104.94 38.79C106.7 39.13 108.19 39.43 109.41 39.69L109.14 41.52C108.04 41.26 105.62 40.75 101.88 39.99C101.66 39.95 101.46 39.91 101.28 39.87C101.12 39.83 100.97 39.8 100.83 39.78L101.13 38.01ZM98.43 41.52C102.97 42.38 107.09 43.21 110.79 44.01L110.46 45.78C104.48 44.54 100.38 43.71 98.16 43.29L98.43 41.52ZM148.23 25.68V27.81H126.45V33.87C126.45 37.79 126.22 40.95 125.76 43.35C125.3 45.73 124.45 48 123.21 50.16L121.05 48.93C121.89 47.45 122.53 45.99 122.97 44.55C123.41 43.11 123.7 41.59 123.84 39.99C124 38.39 124.08 36.42 124.08 34.08V25.68H135.33C134.87 24.56 134.5 23.74 134.22 23.22L136.62 22.65C136.8 22.97 137.26 23.98 138 25.68H148.23ZM148.32 43.5V45.66H139.47V50.28H137.13V45.66H126.99V43.5H137.13V40.35H129.18V38.25C130.18 36.71 131.14 35.11 132.06 33.45H127.68V31.41H133.11C133.71 30.19 134.2 29.11 134.58 28.17L136.86 28.83C136.38 29.91 135.98 30.77 135.66 31.41H147.15V33.45H134.58C133.7 35.09 132.77 36.69 131.79 38.25H137.13V34.77H139.47V38.25H146.52V40.35H139.47V43.5H148.32ZM165.24 33.9V46.59H178.26V48.93H151.77V46.59H162.75V22.83H165.24V31.5H176.25V33.9H165.24ZM208.59 34.89H196.83C196.47 36.13 196.14 37.16 195.84 37.98H206.31V40.17C205.97 40.71 205.36 41.61 204.48 42.87C203.6 44.11 202.78 45.25 202.02 46.29L206.4 48.36L205.38 50.64C199.72 47.7 195.34 45.57 192.24 44.25L193.11 42.24C194.23 42.7 196.19 43.57 198.99 44.85L199.89 45.27C200.45 44.55 201.08 43.69 201.78 42.69C202.5 41.67 203.06 40.84 203.46 40.2H193.23V38.19C193.57 37.27 193.93 36.17 194.31 34.89H189.48V32.64H194.94C195.14 31.9 195.42 30.75 195.78 29.19H191.1V26.97H196.29C196.71 24.79 196.97 23.33 197.07 22.59L199.5 22.89C199.22 24.59 198.97 25.95 198.75 26.97H207.48V29.19H198.27C197.91 30.75 197.63 31.9 197.43 32.64H208.59V34.89ZM190.05 23.4C189.27 25.76 188.44 27.88 187.56 29.76V50.22H185.25V34.11C184.31 35.69 183.24 37.22 182.04 38.7L180.9 36.24C182.18 34.54 183.42 32.51 184.62 30.15C185.84 27.77 186.88 25.31 187.74 22.77L190.05 23.4Z" fill="white"/>
<defs>
<linearGradient id="paint0_linear_446_248" x1="0" y1="37.5" x2="300" y2="37.5" gradientUnits="userSpaceOnUse">
<stop stop-color="#BACBA9"/>
<stop offset="1" stop-color="#5187AB"/>
</linearGradient>
</defs>
</svg>
