  <svg width="80" height="18" viewBox="0 0 118 29" fill="none" xmlns="http://www.w3.org/2000/svg">
        <path d="M16.52 15.14V24.53H27.65V26.93H0.32V24.53H5V9.35H7.46V24.53H14.03V5.39H1.73V3.02H26.69V5.39H16.52V12.83H25.7V15.14H16.52ZM56.6 8.36V24.56C56.6 25.44 56.5 26.11 56.3 26.57C56.12 27.03 55.8 27.35 55.34 27.53C54.9 27.71 54.24 27.8 53.36 27.8C52.8 27.8 52.25 27.77 51.71 27.71L51.23 25.46C51.77 25.56 52.44 25.61 53.24 25.61C53.74 25.61 54.07 25.5 54.23 25.28C54.41 25.06 54.5 24.63 54.5 23.99V21.53H50.45V27.41H48.35V21.53H44.18C44.04 22.79 43.78 23.93 43.4 24.95C43.04 25.95 42.49 27.05 41.75 28.25L39.68 27.05C40.4 25.91 40.94 24.88 41.3 23.96C41.68 23.02 41.94 21.96 42.08 20.78C42.22 19.6 42.29 18.04 42.29 16.1V10.46L41.39 11.36L39.98 9.47C41.2 8.29 42.37 6.9 43.49 5.3C44.61 3.68 45.55 2.06 46.31 0.439998L48.59 1.16C48.31 1.8 47.98 2.47 47.6 3.17H54.62V5.15C54.34 5.39 53.41 6.46 51.83 8.36H56.6ZM36.83 5.24C36.25 7.66 35.6 9.75 34.88 11.51H39.53V25.61H32.75V15.89C32.11 16.97 31.6 17.79 31.22 18.35L29.75 16.55C30.79 15.03 31.72 13.29 32.54 11.33C33.38 9.35 34.05 7.32 34.55 5.24H30.92V2.9H40.88V5.24H36.83ZM46.34 5.33C45.58 6.49 44.85 7.5 44.15 8.36H48.92C49.44 7.8 49.95 7.24 50.45 6.68C50.97 6.1 51.37 5.65 51.65 5.33H46.34ZM48.35 13.94V10.67H44.39V13.94H48.35ZM50.45 13.94H54.5V10.67H50.45V13.94ZM34.85 23.24H37.46V13.85H34.85V23.24ZM48.35 19.37V16.1H44.39V16.73C44.39 17.95 44.37 18.83 44.33 19.37H48.35ZM50.45 16.1V19.37H54.5V16.1H50.45ZM63.32 2.63H84.62V4.94H63.32V2.63ZM87.26 12.65H75.5V24.35C75.5 25.37 75.36 26.14 75.08 26.66C74.82 27.18 74.38 27.54 73.76 27.74C73.16 27.94 72.28 28.04 71.12 28.04C70.44 28.04 69.44 28 68.12 27.92L67.61 25.4C68.91 25.54 70.02 25.61 70.94 25.61C71.76 25.61 72.3 25.46 72.56 25.16C72.84 24.86 72.98 24.27 72.98 23.39V12.65H60.71V10.4H87.26V12.65ZM68.84 16.4C68.12 17.96 67.14 19.67 65.9 21.53C64.68 23.39 63.48 24.99 62.3 26.33L60.2 24.71C61.4 23.41 62.6 21.87 63.8 20.09C65.02 18.29 65.97 16.65 66.65 15.17L68.84 16.4ZM81.17 15.26C82.03 16.3 83.11 17.77 84.41 19.67C85.73 21.55 86.79 23.17 87.59 24.53L85.4 26.09C84.64 24.69 83.61 23.02 82.31 21.08C81.03 19.14 79.96 17.65 79.1 16.61L81.17 15.26ZM109.94 0.679999V3.77H117.47V5.99H109.94V8.39H107.57V5.99H100.67V8.45H98.33V5.99H90.68V3.77H98.33V0.679999H100.67V3.77H107.57V0.679999H109.94ZM93.83 7.79C94.67 8.25 95.68 8.85 96.86 9.59C98.04 10.31 98.92 10.89 99.5 11.33L98.33 13.22C97.53 12.64 96.57 11.98 95.45 11.24C94.33 10.5 93.42 9.95 92.72 9.59L93.83 7.79ZM114.74 23.06C114.84 21.8 114.89 20.95 114.89 20.51L117.11 20.93C117.07 22.07 117 23.09 116.9 23.99C116.8 24.89 116.61 25.57 116.33 26.03C116.05 26.49 115.62 26.82 115.04 27.02C114.46 27.22 113.61 27.36 112.49 27.44C110.99 27.54 109.69 27.59 108.59 27.59C107.49 27.59 106.19 27.54 104.69 27.44C103.73 27.38 102.99 27.23 102.47 26.99C101.95 26.75 101.57 26.36 101.33 25.82C101.09 25.28 100.97 24.5 100.97 23.48V9.47H114.62C114.6 10.51 114.55 11.76 114.47 13.22C114.41 14.66 114.34 15.84 114.26 16.76C114.16 17.76 113.98 18.52 113.72 19.04C113.48 19.56 113.09 19.93 112.55 20.15C112.03 20.35 111.27 20.45 110.27 20.45C109.05 20.45 107.89 20.38 106.79 20.24L106.37 17.99C107.85 18.17 109 18.26 109.82 18.26C110.34 18.26 110.73 18.2 110.99 18.08C111.27 17.94 111.47 17.71 111.59 17.39C111.73 17.07 111.84 16.59 111.92 15.95C112 15.37 112.06 14.63 112.1 13.73C112.16 12.83 112.19 12.12 112.19 11.6H103.31V22.91C103.31 23.53 103.37 23.99 103.49 24.29C103.61 24.59 103.82 24.81 104.12 24.95C104.44 25.07 104.93 25.16 105.59 25.22C106.63 25.3 107.75 25.34 108.95 25.34C110.13 25.34 111.24 25.3 112.28 25.22C112.96 25.16 113.46 25.07 113.78 24.95C114.1 24.83 114.32 24.64 114.44 24.38C114.58 24.1 114.68 23.66 114.74 23.06ZM96.65 18.32C95.93 17.8 94.93 17.13 93.65 16.31C92.37 15.49 91.37 14.88 90.65 14.48L91.7 12.62C92.48 13 93.49 13.57 94.73 14.33C95.99 15.09 97.01 15.75 97.79 16.31L96.65 18.32ZM91.46 26.84C92.18 25.72 93.02 24.34 93.98 22.7C94.96 21.04 95.65 19.81 96.05 19.01L98.06 20.06C97.56 21.1 96.87 22.41 95.99 23.99C95.11 25.57 94.31 26.93 93.59 28.07L91.46 26.84Z" fill="black"/>
      </svg>