<svg width="138" height="27" viewBox="0 0 138 27" fill="none" xmlns="http://www.w3.org/2000/svg">
<path d="M10.696 3.504L18.928 24H15.652L13.552 18.512H5.236L3.22 24H0.196L8.12 3.504H10.696ZM12.544 15.88L9.296 7.424L6.216 15.88H12.544ZM24.4613 24H21.4653V3.504H24.4613V24ZM41.4962 7.032C40.5442 8.152 39.4989 9.33733 38.3602 10.588C37.2216 11.8387 36.2882 12.8093 35.5602 13.5C36.4189 13.4067 37.6042 13.2853 39.1162 13.136L42.6442 12.8C44.4736 11.064 45.9949 9.48667 47.2082 8.068L49.3362 9.916C47.6936 11.7267 45.5749 13.8267 42.9802 16.216C40.4042 18.5867 38.0429 20.668 35.8962 22.46L47.1802 21.396C46.2842 19.8467 45.4349 18.4653 44.6322 17.252L46.9842 15.852C47.7122 16.972 48.6082 18.428 49.6722 20.22C50.7362 21.9933 51.5949 23.4867 52.2482 24.7L49.7842 26.184C49.1122 24.896 48.6829 24.084 48.4962 23.748C43.9602 24.0653 38.9856 24.5227 33.5722 25.12L30.6042 25.484L30.0162 22.656C30.6696 22.4693 31.1549 22.32 31.4722 22.208C31.7896 22.0773 32.1162 21.8907 32.4522 21.648C34.4496 20.1547 36.9602 18.0453 39.9842 15.32C37.0909 15.5813 34.9069 15.8053 33.4322 15.992L30.9122 16.328L30.2122 13.668C30.7909 13.5933 31.2482 13.5093 31.5842 13.416C31.9389 13.304 32.2189 13.1453 32.4242 12.94C33.0776 12.3053 33.9362 11.428 35.0002 10.308C36.0642 9.16933 37.0349 8.07733 37.9122 7.032H28.6442V4.4H40.1242C39.3029 2.34667 38.7989 1.14266 38.6122 0.787998L41.3842 0.172C41.6269 0.713333 42.2056 2.12267 43.1202 4.4H53.1162V7.032H41.4962ZM67.4242 15.656C67.8349 16.5707 68.3669 17.8587 69.0202 19.52C69.6736 21.1627 70.2709 22.7027 70.8122 24.14L68.2642 25.176L67.3682 22.6C64.5309 23.104 62.3189 23.5053 60.7322 23.804L57.2882 24.476L56.4762 21.844C56.9616 21.6387 57.3162 21.452 57.5402 21.284C57.7829 21.0973 58.0349 20.836 58.2962 20.5C59.5282 18.988 61.1616 16.4587 63.1962 12.912C61.2549 13.1547 59.7802 13.36 58.7722 13.528L56.7282 13.92L56.0282 11.26C56.4576 11.0547 56.7656 10.8773 56.9522 10.728C57.1576 10.5787 57.3722 10.3453 57.5962 10.028C58.1189 9.244 58.8842 7.83467 59.8922 5.8C60.9189 3.76533 61.7029 2.06667 62.2442 0.704L64.6522 1.768C64.1109 3.07467 63.3549 4.69867 62.3842 6.64C61.4136 8.58133 60.6296 10.056 60.0322 11.064L64.6242 10.392C65.4829 8.78667 66.1736 7.43333 66.6962 6.332L69.0762 7.452C68.1802 9.3 66.8082 11.7827 64.9602 14.9C63.1122 17.9987 61.7216 20.1827 60.7882 21.452L66.5002 20.36C65.9776 18.9227 65.5016 17.7 65.0722 16.692L67.4242 15.656ZM80.6682 2.608C80.6869 5.42667 80.6122 8.768 80.4442 12.632C80.2949 16.496 80.0896 19.576 79.8282 21.872C79.6789 23.2347 79.2962 24.2147 78.6802 24.812C78.0642 25.4093 77.0749 25.708 75.7122 25.708C74.4989 25.708 73.4069 25.6707 72.4362 25.596L71.9042 22.936C73.0429 23.104 74.0602 23.188 74.9562 23.188C75.5349 23.188 75.9736 23.1133 76.2722 22.964C76.5896 22.8147 76.8229 22.5627 76.9722 22.208C77.1216 21.8533 77.2336 21.3307 77.3082 20.64C77.5322 18.6053 77.7096 16.1693 77.8402 13.332C77.9709 10.476 78.0269 7.77867 78.0082 5.24H68.1802V2.608H80.6682ZM105.364 9.496V18.4H94.5282V9.496H90.3002V22.572H108.556V25.12H87.5562V9.496H84.1402V6.92H87.5562V1.432H90.3002V6.92H94.5282V0.731999H97.2162V6.92H102.732V0.704H105.364V6.92H109.508V9.496H105.364ZM102.732 15.824V9.496H97.2162V15.824H102.732ZM136.668 20.08C134.54 19.352 132.515 18.4467 130.592 17.364V25.96H127.96V16.384H129.024C127.419 15.264 126.056 14.0973 124.936 12.884C123.854 14.1533 122.435 15.3293 120.68 16.412H121.996C121.996 17.0653 121.968 17.616 121.912 18.064C121.8 19.6507 121.268 21.1067 120.316 22.432C119.364 23.7573 117.778 25.0267 115.556 26.24L114.044 24.14C115.351 23.4867 116.368 22.852 117.096 22.236C117.824 21.6013 118.347 20.9573 118.664 20.304C118.982 19.6507 119.178 18.904 119.252 18.064L119.308 17.224C117.386 18.2693 115.304 19.2027 113.064 20.024L111.804 17.728C116.079 16.3467 119.458 14.7133 121.94 12.828H114.716V1.404H134.932V12.828H127.764C128.94 13.8173 130.331 14.704 131.936 15.488C133.56 16.2533 135.502 16.9813 137.76 17.672L136.668 20.08ZM123.592 6.08V3.616H117.348V6.08H123.592ZM126.056 6.08H132.3V3.616H126.056V6.08ZM123.592 8.152H117.348V10.56H123.592V8.152ZM126.056 8.152V10.56H132.3V8.152H126.056Z" fill="white"/>
</svg>
