<svg width="143" height="18" viewBox="0 0 143 18" fill="none" xmlns="http://www.w3.org/2000/svg">
<path d="M0.918 7.828H17.082V9.376H0.918V7.828ZM23.832 14.722C23.304 15.07 22.572 15.598 21.636 16.306L21.312 16.558L20.862 16.918L20.088 15.748C20.292 15.604 20.436 15.466 20.52 15.334C20.604 15.202 20.646 15.04 20.646 14.848V11.068H18.9V9.79H20.646V7.54H19.548V6.766L18.63 6.172C19.446 4.72 20.142 2.908 20.718 0.735999L22.014 0.969999C21.87 1.51 21.678 2.176 21.438 2.968H23.688V4.282H20.97C20.694 5.026 20.4 5.704 20.088 6.316H23.328V7.54H21.888V9.79H23.508V11.068H21.888V14.65L23.508 13.39L23.832 14.722ZM31.59 15.01H30.348V13.426H27.63V12.292H30.348V10.978H28.062V9.844H30.348V8.548H28.152V7.432H30.348V6.028H27.666V4.93H30.348V3.526H28.17V2.41H30.348V0.862H31.59V2.41H34.308V4.93H35.064V6.028H34.308V8.548H31.59V9.844H34.272V10.978H31.59V12.292H34.686V13.426H31.59V15.01ZM30.294 15.604C31.218 15.664 32.034 15.694 32.742 15.694C33.474 15.694 34.29 15.664 35.19 15.604L34.956 16.81C34.296 16.87 33.498 16.9 32.562 16.9C31.626 16.9 30.822 16.87 30.15 16.81C29.262 16.75 28.476 16.54 27.792 16.18C27.12 15.82 26.52 15.286 25.992 14.578C25.584 15.442 25.092 16.264 24.516 17.044L23.508 16.198C24.24 15.346 24.822 14.392 25.254 13.336C24.786 12.376 24.378 11.14 24.03 9.628L25.02 9.232C25.236 10.18 25.476 11.014 25.74 11.734C25.956 10.774 26.112 9.646 26.208 8.35H24.138V7.162L26.118 3.382H24.174V2.176H27.45V3.4L25.506 7.162H27.396V8.404C27.276 9.496 27.15 10.426 27.018 11.194C26.886 11.95 26.712 12.652 26.496 13.3C26.916 13.984 27.432 14.524 28.044 14.92C28.668 15.304 29.418 15.532 30.294 15.604ZM33.12 3.526H31.59V4.93H33.12V3.526ZM33.12 6.028H31.59V7.432H33.12V6.028ZM47.178 0.843999H48.564V11.518H47.178V0.843999ZM42.696 12.22C42.096 11.524 41.52 10.9 40.968 10.348V17.332H39.6V9.214C39 10.978 38.22 12.658 37.26 14.254L36.504 12.868C37.116 11.872 37.632 10.948 38.052 10.096C38.472 9.244 38.856 8.32 39.204 7.324H36.954V5.902H39.6V3.634C38.664 3.79 37.848 3.91 37.152 3.994L37.008 2.644C37.932 2.536 39 2.368 40.212 2.14C41.436 1.912 42.426 1.69 43.182 1.474L43.434 2.806C42.846 2.986 42.024 3.178 40.968 3.382V5.902H43.29V7.324H40.968V8.8C41.94 9.628 42.81 10.426 43.578 11.194L42.696 12.22ZM51.84 8.818C51.516 8.05 51.102 7.156 50.598 6.136C50.106 5.116 49.68 4.27 49.32 3.598L50.508 2.968C50.904 3.676 51.354 4.54 51.858 5.56C52.374 6.568 52.788 7.426 53.1 8.134L51.84 8.818ZM43.2 9.52C43.848 7.912 44.442 5.83 44.982 3.274L46.314 3.58C46.074 4.696 45.798 5.824 45.486 6.964C45.186 8.104 44.886 9.106 44.586 9.97L43.2 9.52ZM42.102 15.784C44.274 15.04 46.038 14.158 47.394 13.138C48.75 12.118 49.902 10.798 50.85 9.178L51.984 10.006C51.24 11.23 50.448 12.274 49.608 13.138C48.78 13.99 47.826 14.734 46.746 15.37C45.678 16.006 44.394 16.594 42.894 17.134L42.102 15.784ZM60.39 8.836V4.192H55.278V2.86H62.496C62.196 2.176 61.908 1.576 61.632 1.06L63.09 0.538C63.426 1.186 63.762 1.96 64.098 2.86H70.74V4.192H65.628V8.836H64.278V4.192H61.74V8.836H60.39ZM59.58 5.938C59.1 6.514 58.482 7.138 57.726 7.81C56.97 8.482 56.22 9.07 55.476 9.574L54.666 8.44C55.362 7.96 56.076 7.414 56.808 6.802C57.54 6.178 58.158 5.59 58.662 5.038L59.58 5.938ZM67.302 5.038C67.758 5.338 68.406 5.812 69.246 6.46C70.098 7.108 70.794 7.666 71.334 8.134L70.506 9.268C69.942 8.764 69.264 8.2 68.472 7.576C67.68 6.952 67.008 6.448 66.456 6.064L67.302 5.038ZM68.688 10.798C68.124 11.578 67.518 12.274 66.87 12.886C66.222 13.486 65.472 14.026 64.62 14.506C66.384 15.19 68.586 15.712 71.226 16.072L70.722 17.476C67.602 16.972 65.058 16.246 63.09 15.298C61.266 16.114 58.728 16.858 55.476 17.53L54.972 16.18C57.588 15.724 59.784 15.148 61.56 14.452C60.048 13.492 58.818 12.286 57.87 10.834H56.664V9.574H68.688V10.798ZM59.436 10.834C60.42 12.058 61.614 13.042 63.018 13.786C64.578 12.994 65.82 12.01 66.744 10.834H59.436ZM89.208 4.39V5.776H87.012V14.65C87.012 15.262 86.94 15.73 86.796 16.054C86.664 16.378 86.442 16.606 86.13 16.738C85.83 16.882 85.398 16.966 84.834 16.99C84.666 17.002 84.42 17.008 84.096 17.008C83.448 17.008 82.836 16.972 82.26 16.9L81.972 15.478C82.956 15.574 83.73 15.622 84.294 15.622C84.798 15.622 85.128 15.562 85.284 15.442C85.452 15.322 85.536 15.076 85.536 14.704V5.776H80.082V4.39H85.536V0.897999H87.012V4.39H89.208ZM78.984 15.784H73.458V2.302H78.984V15.784ZM77.652 8.044V3.76H74.844V8.044H77.652ZM82.962 12.256C82.65 11.656 82.23 10.882 81.702 9.934C81.174 8.986 80.76 8.278 80.46 7.81L81.648 7.162C81.972 7.642 82.404 8.362 82.944 9.322C83.484 10.27 83.88 11.014 84.132 11.554L82.962 12.256ZM74.844 9.394V14.38H77.652V9.394H74.844ZM99.738 5.866H105.912V14.83C105.912 15.478 105.846 15.964 105.714 16.288C105.594 16.612 105.36 16.84 105.012 16.972C104.676 17.104 104.154 17.17 103.446 17.17C102.894 17.17 102.228 17.128 101.448 17.044L101.196 15.64C101.976 15.76 102.678 15.82 103.302 15.82C103.662 15.82 103.92 15.778 104.076 15.694C104.244 15.598 104.352 15.46 104.4 15.28C104.448 15.1 104.472 14.824 104.472 14.452V7.234H93.51V17.134H92.07V5.866H98.244V0.934H99.738V5.866ZM105.678 2.5C105.234 2.944 104.688 3.46 104.04 4.048C103.392 4.636 102.84 5.122 102.384 5.506L101.412 4.408C101.94 3.964 102.522 3.46 103.158 2.896C103.794 2.32 104.286 1.84 104.634 1.456L105.678 2.5ZM95.58 5.488C95.172 5.08 94.632 4.57 93.96 3.958C93.3 3.346 92.754 2.86 92.322 2.5L93.33 1.492C93.714 1.804 94.23 2.254 94.878 2.842C95.538 3.43 96.108 3.952 96.588 4.408L95.58 5.488ZM95.652 9.106H102.33V14.74H95.652V9.106ZM96.948 13.426H101.034V10.438H96.948V13.426ZM117.684 6.964C118.104 8.896 118.908 10.576 120.096 12.004C121.296 13.432 122.988 14.722 125.172 15.874L124.236 17.224C120.636 15.148 118.254 12.61 117.09 9.61C116.034 12.442 113.634 14.998 109.89 17.278L108.936 15.892C111.012 14.764 112.698 13.432 113.994 11.896C115.29 10.36 116.01 8.644 116.154 6.748H109.26V5.29H116.19V0.735999H117.72V5.29H124.722V6.748H117.702C117.69 6.796 117.684 6.868 117.684 6.964ZM142.29 6.964H131.076C131.076 7.948 131.046 8.932 130.986 9.916H139.572V17.314H138.132V11.284H130.878C130.734 12.544 130.488 13.654 130.14 14.614C129.792 15.574 129.294 16.528 128.646 17.476L127.224 16.648C127.884 15.748 128.388 14.842 128.736 13.93C129.084 13.006 129.324 11.968 129.456 10.816C129.588 9.664 129.654 8.2 129.654 6.424V1.258H131.076V5.596H136.998V1.024H138.438V5.596H142.29V6.964Z" fill="white"/>
</svg>
