<svg width="136" height="27" viewBox="0 0 136 27" fill="none" xmlns="http://www.w3.org/2000/svg">
<path d="M10.696 3.504L18.928 24H15.652L13.552 18.512H5.236L3.22 24H0.196L8.12 3.504H10.696ZM12.544 15.88L9.296 7.424L6.216 15.88H12.544ZM24.4613 24H21.4653V3.504H24.4613V24ZM46.4802 6.528C45.9016 7.61067 45.1269 8.88933 44.1562 10.364C43.2042 11.8387 42.4482 12.9027 41.8882 13.556C42.9149 13.4067 44.4549 13.164 46.5082 12.828C47.8522 10.8867 48.8602 9.29067 49.5322 8.04L51.7722 9.384C50.9696 10.784 49.4576 12.9867 47.2362 15.992C45.0336 18.9787 43.2696 21.1813 41.9442 22.6C43.1949 22.4133 45.4536 22.1147 48.7202 21.704L49.3922 21.62C48.8882 20.2947 48.3562 18.9973 47.7962 17.728L50.0922 16.72C50.5402 17.6907 51.0816 19.0067 51.7162 20.668C52.3509 22.3107 52.9109 23.8133 53.3962 25.176L51.0722 26.24C50.8856 25.6613 50.6149 24.8867 50.2602 23.916C47.6469 24.196 44.4642 24.5973 40.7122 25.12C39.8349 25.232 39.0882 25.344 38.4722 25.456L37.7722 22.796C38.2762 22.628 38.6402 22.4787 38.8642 22.348C39.0882 22.2173 39.3589 21.984 39.6762 21.648C41.0202 20.2293 42.7002 18.1387 44.7162 15.376C42.9616 15.5627 41.7482 15.712 41.0762 15.824C40.3856 15.8987 39.5829 16.02 38.6682 16.188L38.0242 13.612C38.3602 13.5187 38.6216 13.416 38.8082 13.304C38.9949 13.192 39.1722 13.0427 39.3402 12.856C39.8256 12.3333 40.4882 11.428 41.3282 10.14C42.1682 8.852 42.8869 7.648 43.4842 6.528H38.3042V4.148H44.4922C44.1749 3.364 43.6896 2.25333 43.0362 0.815998L45.7522 0.255999C46.0696 0.927999 46.6296 2.22533 47.4322 4.148H53.4802V6.528H46.4802ZM36.8482 22.096C36.4936 21.592 35.4482 20.3133 33.7122 18.26C33.3949 19.6413 32.9376 20.976 32.3402 22.264C31.7616 23.5333 30.9869 24.8773 30.0162 26.296L27.9442 24.728C29.0829 23.216 29.9509 21.7133 30.5482 20.22C31.1642 18.708 31.5749 17.196 31.7802 15.684C32.0042 14.1533 32.1162 12.4267 32.1162 10.504V0.675998H34.5242V7.48C35.5696 6.17333 36.2696 5.268 36.6242 4.764L38.2762 6.22L34.4962 11.008C34.4589 12.6693 34.3656 14.1347 34.2162 15.404L35.4482 16.748C35.9522 17.308 36.4842 17.896 37.0442 18.512C37.6042 19.1093 38.0709 19.632 38.4442 20.08L36.8482 22.096ZM29.3722 13.444C29.3536 12.9587 29.1949 11.652 28.8962 9.524C28.5976 7.396 28.3642 5.8 28.1962 4.736L30.2962 4.4C30.4642 5.464 30.6789 6.88267 30.9402 8.656C31.2016 10.4293 31.3976 11.8667 31.5282 12.968L29.3722 13.444ZM80.2202 2.3C79.0629 3.68133 77.7749 4.99733 76.3562 6.248C74.9562 7.49867 73.5562 8.58133 72.1562 9.496L70.7842 7.34C73.6402 5.548 76.1509 3.37333 78.3162 0.815998L80.2202 2.3ZM70.7002 3.504C68.7776 3.84 66.4909 4.15733 63.8402 4.456C61.2082 4.736 58.9029 4.92267 56.9242 5.016L56.6442 2.58C58.6602 2.54267 60.9562 2.384 63.5322 2.104C66.1269 1.824 68.3856 1.49733 70.3082 1.124L70.7002 3.504ZM65.9122 10.448C66.3602 9.64533 66.8269 8.712 67.3122 7.648C67.8162 6.584 68.2269 5.632 68.5442 4.792L70.5882 5.604C70.2149 6.46267 69.7949 7.40533 69.3282 8.432C68.8616 9.44 68.4042 10.392 67.9562 11.288L65.9122 10.448ZM63.3642 9.944C63.2522 9.68267 63.1402 9.39333 63.0282 9.076C62.9162 8.74 62.7949 8.41333 62.6642 8.096C62.3656 7.23733 62.0576 6.416 61.7402 5.632L63.8122 4.876C64.2042 5.79067 64.5216 6.59333 64.7642 7.284L65.4922 9.104L63.3642 9.944ZM58.8842 10.952C58.2309 9.272 57.5776 7.74133 56.9242 6.36L58.9682 5.38C59.3789 6.20133 59.8922 7.38667 60.5082 8.936L60.9562 10L58.8842 10.952ZM71.1762 14.452C72.7816 13.5933 74.2096 12.6507 75.4602 11.624C76.7109 10.5973 77.9336 9.36533 79.1282 7.928L80.9762 9.384C79.8189 10.8773 78.5589 12.2213 77.1962 13.416C75.8336 14.592 74.3122 15.6933 72.6322 16.72L71.1762 14.452ZM69.3562 22.404C67.4522 20.892 65.9962 19.7627 64.9882 19.016V26.24H62.5522V18.008C61.0962 20.304 59.2856 22.4227 57.1202 24.364L55.8322 22.096C57.0642 21.032 58.1376 19.9773 59.0522 18.932C59.9669 17.868 60.8069 16.7013 61.5722 15.432H56.6722V13.08H62.5522V10.672H64.9882V13.08H70.5042V15.432H64.9882V16.328C66.8362 17.504 68.7589 18.82 70.7562 20.276L69.3562 22.404ZM81.8722 16.944C80.4722 18.7173 78.7456 20.4347 76.6922 22.096C74.6576 23.7387 72.5669 25.1293 70.4202 26.268L69.1882 23.972C71.2416 22.964 73.1829 21.7413 75.0122 20.304C76.8602 18.8667 78.5029 17.2707 79.9402 15.516L81.8722 16.944ZM109.676 5.772V8.348H106.484V21.928C106.484 22.9173 106.372 23.6733 106.148 24.196C105.924 24.7373 105.551 25.1107 105.028 25.316C104.524 25.54 103.796 25.6707 102.844 25.708C102.602 25.7267 102.238 25.736 101.752 25.736C100.763 25.736 99.8016 25.68 98.8682 25.568L98.3642 22.936C99.8576 23.0853 101.034 23.16 101.892 23.16C102.434 23.16 102.835 23.1227 103.096 23.048C103.358 22.9733 103.535 22.8427 103.628 22.656C103.74 22.4693 103.796 22.1707 103.796 21.76V8.348H95.5082V5.772H103.796V0.535998H106.484V5.772H109.676ZM93.9402 23.888H84.9522V2.524H93.9402V23.888ZM91.5042 11.456V5.212H87.4722V11.456H91.5042ZM99.8762 18.344C99.3536 17.336 98.6722 16.1133 97.8322 14.676C97.0109 13.22 96.3669 12.1467 95.9002 11.456L98.0002 10.252C98.5042 11.0173 99.1762 12.1187 100.016 13.556C100.856 14.9933 101.5 16.1507 101.948 17.028L99.8762 18.344ZM87.4722 13.948V21.312H91.5042V13.948H87.4722ZM126.168 8.068H135.744V22.236C135.744 23.2627 135.642 24.0373 135.436 24.56C135.25 25.0827 134.876 25.4467 134.316 25.652C133.756 25.876 132.916 25.988 131.796 25.988C130.919 25.988 129.874 25.9227 128.66 25.792L128.184 23.272C129.398 23.4587 130.49 23.552 131.46 23.552C131.964 23.552 132.328 23.496 132.552 23.384C132.795 23.2533 132.954 23.0573 133.028 22.796C133.103 22.516 133.14 22.1147 133.14 21.592V10.56H116.48V25.904H113.876V8.068H123.452V0.591999H126.168V8.068ZM135.352 3.168C134.699 3.82133 133.868 4.60533 132.86 5.52C131.871 6.416 131.003 7.172 130.256 7.788L128.492 5.828C129.276 5.19333 130.163 4.43733 131.152 3.56C132.142 2.664 132.916 1.91733 133.476 1.32L135.352 3.168ZM119.308 7.732C118.692 7.116 117.862 6.34133 116.816 5.408C115.79 4.456 114.94 3.70933 114.268 3.168L116.088 1.376C116.667 1.84267 117.47 2.53333 118.496 3.448C119.523 4.344 120.41 5.13733 121.156 5.828L119.308 7.732ZM119.448 13.136H130.172V22.236H119.448V13.136ZM121.8 19.856H127.82V15.544H121.8V19.856Z" fill="white"/>
</svg>
