<svg width="144" height="18" viewBox="0 0 144 18" fill="none" xmlns="http://www.w3.org/2000/svg">
<path d="M0.918 7.828H17.082V9.376H0.918V7.828ZM23.832 14.722C23.304 15.07 22.572 15.598 21.636 16.306L21.312 16.558L20.862 16.918L20.088 15.748C20.292 15.604 20.436 15.466 20.52 15.334C20.604 15.202 20.646 15.04 20.646 14.848V11.068H18.9V9.79H20.646V7.54H19.548V6.766L18.63 6.172C19.446 4.72 20.142 2.908 20.718 0.735999L22.014 0.969999C21.87 1.51 21.678 2.176 21.438 2.968H23.688V4.282H20.97C20.694 5.026 20.4 5.704 20.088 6.316H23.328V7.54H21.888V9.79H23.508V11.068H21.888V14.65L23.508 13.39L23.832 14.722ZM31.59 15.01H30.348V13.426H27.63V12.292H30.348V10.978H28.062V9.844H30.348V8.548H28.152V7.432H30.348V6.028H27.666V4.93H30.348V3.526H28.17V2.41H30.348V0.862H31.59V2.41H34.308V4.93H35.064V6.028H34.308V8.548H31.59V9.844H34.272V10.978H31.59V12.292H34.686V13.426H31.59V15.01ZM30.294 15.604C31.218 15.664 32.034 15.694 32.742 15.694C33.474 15.694 34.29 15.664 35.19 15.604L34.956 16.81C34.296 16.87 33.498 16.9 32.562 16.9C31.626 16.9 30.822 16.87 30.15 16.81C29.262 16.75 28.476 16.54 27.792 16.18C27.12 15.82 26.52 15.286 25.992 14.578C25.584 15.442 25.092 16.264 24.516 17.044L23.508 16.198C24.24 15.346 24.822 14.392 25.254 13.336C24.786 12.376 24.378 11.14 24.03 9.628L25.02 9.232C25.236 10.18 25.476 11.014 25.74 11.734C25.956 10.774 26.112 9.646 26.208 8.35H24.138V7.162L26.118 3.382H24.174V2.176H27.45V3.4L25.506 7.162H27.396V8.404C27.276 9.496 27.15 10.426 27.018 11.194C26.886 11.95 26.712 12.652 26.496 13.3C26.916 13.984 27.432 14.524 28.044 14.92C28.668 15.304 29.418 15.532 30.294 15.604ZM33.12 3.526H31.59V4.93H33.12V3.526ZM33.12 6.028H31.59V7.432H33.12V6.028ZM47.178 0.843999H48.564V11.518H47.178V0.843999ZM42.696 12.22C42.096 11.524 41.52 10.9 40.968 10.348V17.332H39.6V9.214C39 10.978 38.22 12.658 37.26 14.254L36.504 12.868C37.116 11.872 37.632 10.948 38.052 10.096C38.472 9.244 38.856 8.32 39.204 7.324H36.954V5.902H39.6V3.634C38.664 3.79 37.848 3.91 37.152 3.994L37.008 2.644C37.932 2.536 39 2.368 40.212 2.14C41.436 1.912 42.426 1.69 43.182 1.474L43.434 2.806C42.846 2.986 42.024 3.178 40.968 3.382V5.902H43.29V7.324H40.968V8.8C41.94 9.628 42.81 10.426 43.578 11.194L42.696 12.22ZM51.84 8.818C51.516 8.05 51.102 7.156 50.598 6.136C50.106 5.116 49.68 4.27 49.32 3.598L50.508 2.968C50.904 3.676 51.354 4.54 51.858 5.56C52.374 6.568 52.788 7.426 53.1 8.134L51.84 8.818ZM43.2 9.52C43.848 7.912 44.442 5.83 44.982 3.274L46.314 3.58C46.074 4.696 45.798 5.824 45.486 6.964C45.186 8.104 44.886 9.106 44.586 9.97L43.2 9.52ZM42.102 15.784C44.274 15.04 46.038 14.158 47.394 13.138C48.75 12.118 49.902 10.798 50.85 9.178L51.984 10.006C51.24 11.23 50.448 12.274 49.608 13.138C48.78 13.99 47.826 14.734 46.746 15.37C45.678 16.006 44.394 16.594 42.894 17.134L42.102 15.784ZM60.39 8.836V4.192H55.278V2.86H62.496C62.196 2.176 61.908 1.576 61.632 1.06L63.09 0.538C63.426 1.186 63.762 1.96 64.098 2.86H70.74V4.192H65.628V8.836H64.278V4.192H61.74V8.836H60.39ZM59.58 5.938C59.1 6.514 58.482 7.138 57.726 7.81C56.97 8.482 56.22 9.07 55.476 9.574L54.666 8.44C55.362 7.96 56.076 7.414 56.808 6.802C57.54 6.178 58.158 5.59 58.662 5.038L59.58 5.938ZM67.302 5.038C67.758 5.338 68.406 5.812 69.246 6.46C70.098 7.108 70.794 7.666 71.334 8.134L70.506 9.268C69.942 8.764 69.264 8.2 68.472 7.576C67.68 6.952 67.008 6.448 66.456 6.064L67.302 5.038ZM68.688 10.798C68.124 11.578 67.518 12.274 66.87 12.886C66.222 13.486 65.472 14.026 64.62 14.506C66.384 15.19 68.586 15.712 71.226 16.072L70.722 17.476C67.602 16.972 65.058 16.246 63.09 15.298C61.266 16.114 58.728 16.858 55.476 17.53L54.972 16.18C57.588 15.724 59.784 15.148 61.56 14.452C60.048 13.492 58.818 12.286 57.87 10.834H56.664V9.574H68.688V10.798ZM59.436 10.834C60.42 12.058 61.614 13.042 63.018 13.786C64.578 12.994 65.82 12.01 66.744 10.834H59.436ZM77.652 1.276C77.256 2.596 76.788 3.862 76.248 5.074V17.314H74.844V7.81C74.46 8.494 73.938 9.298 73.278 10.222L72.558 8.764C73.302 7.732 74.004 6.52 74.664 5.128C75.336 3.724 75.87 2.314 76.266 0.897999L77.652 1.276ZM86.886 14.74V3.94H88.29V17.062H86.886V16.144H78.534V3.94H79.92V14.74H82.674V0.915999H84.114V14.74H86.886ZM106.236 4.012H94.716C93.876 5.356 92.934 6.616 91.89 7.792L90.702 6.604C92.322 4.912 93.654 2.95 94.698 0.717999L96.228 1.33L95.544 2.644H106.236V4.012ZM105.066 5.524V6.874H94.266V5.524H105.066ZM107.226 13.048C107.058 13.876 106.86 14.68 106.632 15.46C106.32 16.684 105.738 17.296 104.886 17.296C104.514 17.296 104.178 17.17 103.878 16.918C103.578 16.666 103.326 16.312 103.122 15.856C102.918 15.34 102.756 14.698 102.636 13.93C102.516 13.162 102.456 12.136 102.456 10.852V9.79H92.034V8.386H103.95V10.582C103.95 11.65 103.986 12.532 104.058 13.228C104.142 13.924 104.232 14.44 104.328 14.776C104.496 15.268 104.682 15.514 104.886 15.514C104.982 15.514 105.066 15.46 105.138 15.352C105.21 15.232 105.288 15.016 105.372 14.704C105.588 13.72 105.738 12.976 105.822 12.472L107.226 13.048ZM109.152 4.372H111.222V2.932H108.864V1.762H116.496V2.932H114.192V4.372H116.298V8.332H109.152V4.372ZM125.55 12.994C125.382 14.134 125.232 14.974 125.1 15.514C124.992 15.97 124.836 16.336 124.632 16.612C124.44 16.9 124.236 17.044 124.02 17.044C123.804 17.044 123.588 16.93 123.372 16.702C123.168 16.474 123.012 16.156 122.904 15.748C122.76 15.172 122.646 14.458 122.562 13.606C122.49 12.742 122.454 11.572 122.454 10.096V3.148H118.278V9.16C118.278 10.936 118.176 12.43 117.972 13.642C117.78 14.842 117.432 16.096 116.928 17.404L115.776 16.864C115.944 16.504 116.094 16.132 116.226 15.748L115.434 16.198C114.99 15.25 114.516 14.374 114.012 13.57L115.002 13.048C115.434 13.78 115.878 14.578 116.334 15.442C116.646 14.53 116.856 13.582 116.964 12.598C117.072 11.614 117.126 10.36 117.126 8.836V1.942H123.678V9.898C123.678 11.818 123.72 13.312 123.804 14.38C123.828 14.644 123.852 14.854 123.876 15.01C123.9 15.154 123.936 15.226 123.984 15.226C124.044 15.226 124.11 15.16 124.182 15.028C124.266 14.896 124.338 14.668 124.398 14.344C124.506 13.696 124.59 13.132 124.65 12.652L125.55 12.994ZM112.176 4.372H113.238V2.932H112.176V4.372ZM117.846 15.154C118.566 13.546 119.244 11.77 119.88 9.826C119.112 7.45 118.578 5.812 118.278 4.912L119.25 4.48L120.42 8.026C120.768 6.802 121.074 5.602 121.338 4.426L122.364 4.732C121.968 6.46 121.512 8.158 120.996 9.826C121.74 12.19 122.286 13.966 122.634 15.154L121.608 15.496C121.248 14.248 120.852 12.928 120.42 11.536C119.916 12.94 119.388 14.296 118.836 15.604L117.846 15.154ZM111.222 5.488H110.214V7.234H111.222V5.488ZM113.238 5.488H112.176V7.234H113.238V5.488ZM115.218 7.234V5.488H114.192V7.234H115.218ZM116.028 9.502V10.546H109.44V9.502H116.028ZM116.496 12.598H113.436V15.55C113.436 16.114 113.316 16.522 113.076 16.774C112.836 17.026 112.434 17.152 111.87 17.152C111.45 17.152 111.024 17.134 110.592 17.098L110.358 15.946C110.838 16.006 111.264 16.036 111.636 16.036C111.876 16.036 112.044 15.964 112.14 15.82C112.236 15.676 112.284 15.448 112.284 15.136V12.598H108.9V11.536H116.496V12.598ZM111.258 13.516C110.85 14.44 110.22 15.526 109.368 16.774L108.432 16.126C109.104 15.166 109.68 14.14 110.16 13.048L111.258 13.516ZM127.152 4.372H129.222V2.932H126.864V1.762H134.496V2.932H132.192V4.372H134.298V8.332H127.152V4.372ZM143.55 12.994C143.382 14.134 143.232 14.974 143.1 15.514C142.992 15.97 142.836 16.336 142.632 16.612C142.44 16.9 142.236 17.044 142.02 17.044C141.804 17.044 141.588 16.93 141.372 16.702C141.168 16.474 141.012 16.156 140.904 15.748C140.76 15.172 140.646 14.458 140.562 13.606C140.49 12.742 140.454 11.572 140.454 10.096V3.148H136.278V9.16C136.278 10.936 136.176 12.43 135.972 13.642C135.78 14.842 135.432 16.096 134.928 17.404L133.776 16.864C133.944 16.504 134.094 16.132 134.226 15.748L133.434 16.198C132.99 15.25 132.516 14.374 132.012 13.57L133.002 13.048C133.434 13.78 133.878 14.578 134.334 15.442C134.646 14.53 134.856 13.582 134.964 12.598C135.072 11.614 135.126 10.36 135.126 8.836V1.942H141.678V9.898C141.678 11.818 141.72 13.312 141.804 14.38C141.828 14.644 141.852 14.854 141.876 15.01C141.9 15.154 141.936 15.226 141.984 15.226C142.044 15.226 142.11 15.16 142.182 15.028C142.266 14.896 142.338 14.668 142.398 14.344C142.506 13.696 142.59 13.132 142.65 12.652L143.55 12.994ZM130.176 4.372H131.238V2.932H130.176V4.372ZM135.846 15.154C136.566 13.546 137.244 11.77 137.88 9.826C137.112 7.45 136.578 5.812 136.278 4.912L137.25 4.48L138.42 8.026C138.768 6.802 139.074 5.602 139.338 4.426L140.364 4.732C139.968 6.46 139.512 8.158 138.996 9.826C139.74 12.19 140.286 13.966 140.634 15.154L139.608 15.496C139.248 14.248 138.852 12.928 138.42 11.536C137.916 12.94 137.388 14.296 136.836 15.604L135.846 15.154ZM129.222 5.488H128.214V7.234H129.222V5.488ZM131.238 5.488H130.176V7.234H131.238V5.488ZM133.218 7.234V5.488H132.192V7.234H133.218ZM134.028 9.502V10.546H127.44V9.502H134.028ZM134.496 12.598H131.436V15.55C131.436 16.114 131.316 16.522 131.076 16.774C130.836 17.026 130.434 17.152 129.87 17.152C129.45 17.152 129.024 17.134 128.592 17.098L128.358 15.946C128.838 16.006 129.264 16.036 129.636 16.036C129.876 16.036 130.044 15.964 130.14 15.82C130.236 15.676 130.284 15.448 130.284 15.136V12.598H126.9V11.536H134.496V12.598ZM129.258 13.516C128.85 14.44 128.22 15.526 127.368 16.774L126.432 16.126C127.104 15.166 127.68 14.14 128.16 13.048L129.258 13.516Z" fill="white"/>
</svg>
