<svg width="144" height="18" viewBox="0 0 144 18" fill="none" xmlns="http://www.w3.org/2000/svg">
<path d="M0.918 7.63855H17.082V9.18655H0.918V7.63855ZM23.832 14.5325C23.304 14.8805 22.572 15.4085 21.636 16.1165L21.312 16.3685L20.862 16.7285L20.088 15.5585C20.292 15.4145 20.436 15.2765 20.52 15.1445C20.604 15.0125 20.646 14.8505 20.646 14.6585V10.8785H18.9V9.60055H20.646V7.35055H19.548V6.57655L18.63 5.98255C19.446 4.53055 20.142 2.71855 20.718 0.546546L22.014 0.780546C21.87 1.32055 21.678 1.98655 21.438 2.77855H23.688V4.09255H20.97C20.694 4.83655 20.4 5.51455 20.088 6.12655H23.328V7.35055H21.888V9.60055H23.508V10.8785H21.888V14.4605L23.508 13.2005L23.832 14.5325ZM31.59 14.8205H30.348V13.2365H27.63V12.1025H30.348V10.7885H28.062V9.65455H30.348V8.35855H28.152V7.24255H30.348V5.83855H27.666V4.74055H30.348V3.33655H28.17V2.22055H30.348V0.672547H31.59V2.22055H34.308V4.74055H35.064V5.83855H34.308V8.35855H31.59V9.65455H34.272V10.7885H31.59V12.1025H34.686V13.2365H31.59V14.8205ZM30.294 15.4145C31.218 15.4745 32.034 15.5045 32.742 15.5045C33.474 15.5045 34.29 15.4745 35.19 15.4145L34.956 16.6205C34.296 16.6805 33.498 16.7105 32.562 16.7105C31.626 16.7105 30.822 16.6805 30.15 16.6205C29.262 16.5605 28.476 16.3505 27.792 15.9905C27.12 15.6305 26.52 15.0965 25.992 14.3885C25.584 15.2525 25.092 16.0745 24.516 16.8545L23.508 16.0085C24.24 15.1565 24.822 14.2025 25.254 13.1465C24.786 12.1865 24.378 10.9505 24.03 9.43855L25.02 9.04255C25.236 9.99055 25.476 10.8245 25.74 11.5445C25.956 10.5845 26.112 9.45655 26.208 8.16055H24.138V6.97255L26.118 3.19255H24.174V1.98655H27.45V3.21055L25.506 6.97255H27.396V8.21455C27.276 9.30655 27.15 10.2365 27.018 11.0045C26.886 11.7605 26.712 12.4625 26.496 13.1105C26.916 13.7945 27.432 14.3345 28.044 14.7305C28.668 15.1145 29.418 15.3425 30.294 15.4145ZM33.12 3.33655H31.59V4.74055H33.12V3.33655ZM33.12 5.83855H31.59V7.24255H33.12V5.83855ZM47.178 0.654546H48.564V11.3285H47.178V0.654546ZM42.696 12.0305C42.096 11.3345 41.52 10.7105 40.968 10.1585V17.1425H39.6V9.02455C39 10.7885 38.22 12.4685 37.26 14.0645L36.504 12.6785C37.116 11.6825 37.632 10.7585 38.052 9.90655C38.472 9.05455 38.856 8.13055 39.204 7.13455H36.954V5.71255H39.6V3.44455C38.664 3.60055 37.848 3.72055 37.152 3.80455L37.008 2.45455C37.932 2.34655 39 2.17855 40.212 1.95055C41.436 1.72255 42.426 1.50055 43.182 1.28455L43.434 2.61655C42.846 2.79655 42.024 2.98855 40.968 3.19255V5.71255H43.29V7.13455H40.968V8.61055C41.94 9.43855 42.81 10.2365 43.578 11.0045L42.696 12.0305ZM51.84 8.62855C51.516 7.86055 51.102 6.96655 50.598 5.94655C50.106 4.92655 49.68 4.08055 49.32 3.40855L50.508 2.77855C50.904 3.48655 51.354 4.35055 51.858 5.37055C52.374 6.37855 52.788 7.23655 53.1 7.94455L51.84 8.62855ZM43.2 9.33055C43.848 7.72255 44.442 5.64055 44.982 3.08455L46.314 3.39055C46.074 4.50655 45.798 5.63455 45.486 6.77455C45.186 7.91455 44.886 8.91655 44.586 9.78055L43.2 9.33055ZM42.102 15.5945C44.274 14.8505 46.038 13.9685 47.394 12.9485C48.75 11.9285 49.902 10.6085 50.85 8.98855L51.984 9.81655C51.24 11.0405 50.448 12.0845 49.608 12.9485C48.78 13.8005 47.826 14.5445 46.746 15.1805C45.678 15.8165 44.394 16.4045 42.894 16.9445L42.102 15.5945ZM60.39 8.64655V4.00255H55.278V2.67055H62.496C62.196 1.98655 61.908 1.38655 61.632 0.870546L63.09 0.348546C63.426 0.996546 63.762 1.77055 64.098 2.67055H70.74V4.00255H65.628V8.64655H64.278V4.00255H61.74V8.64655H60.39ZM59.58 5.74855C59.1 6.32455 58.482 6.94855 57.726 7.62055C56.97 8.29255 56.22 8.88055 55.476 9.38455L54.666 8.25055C55.362 7.77055 56.076 7.22455 56.808 6.61255C57.54 5.98855 58.158 5.40055 58.662 4.84855L59.58 5.74855ZM67.302 4.84855C67.758 5.14855 68.406 5.62255 69.246 6.27055C70.098 6.91855 70.794 7.47655 71.334 7.94455L70.506 9.07855C69.942 8.57455 69.264 8.01055 68.472 7.38655C67.68 6.76255 67.008 6.25855 66.456 5.87455L67.302 4.84855ZM68.688 10.6085C68.124 11.3885 67.518 12.0845 66.87 12.6965C66.222 13.2965 65.472 13.8365 64.62 14.3165C66.384 15.0005 68.586 15.5225 71.226 15.8825L70.722 17.2865C67.602 16.7825 65.058 16.0565 63.09 15.1085C61.266 15.9245 58.728 16.6685 55.476 17.3405L54.972 15.9905C57.588 15.5345 59.784 14.9585 61.56 14.2625C60.048 13.3025 58.818 12.0965 57.87 10.6445H56.664V9.38455H68.688V10.6085ZM59.436 10.6445C60.42 11.8685 61.614 12.8525 63.018 13.5965C64.578 12.8045 65.82 11.8205 66.744 10.6445H59.436ZM79.344 4.27255C79.572 3.70855 79.77 3.16855 79.938 2.65255H73.152V1.44655H88.614V2.65255H81.612C81.456 3.10855 81.246 3.64855 80.982 4.27255H87.534V7.56655C87.534 8.20255 87.432 8.64655 87.228 8.89855C87.024 9.13855 86.676 9.27055 86.184 9.29455C85.644 9.30655 85.104 9.28855 84.564 9.24055L84.312 7.99855C84.78 8.05855 85.182 8.08255 85.518 8.07055C85.746 8.05855 85.902 7.98055 85.986 7.83655C86.082 7.68055 86.13 7.43455 86.13 7.09855V5.46055H83.574V8.95255H82.17V5.46055H79.614V8.79055H78.246V5.46055H75.708V9.24055H74.286V4.27255H79.344ZM85.824 11.5985C85.188 12.7625 84.348 13.6745 83.304 14.3345C85.308 14.9465 86.964 15.4625 88.272 15.8825L87.732 17.0885C85.464 16.3325 83.46 15.6965 81.72 15.1805C80.796 15.5765 79.68 15.9245 78.372 16.2245C77.064 16.5245 75.492 16.8005 73.656 17.0525L73.08 15.7205C75.948 15.3965 78.144 15.0125 79.668 14.5685C77.796 14.0165 76.41 13.6145 75.51 13.3625C75.99 12.8225 76.476 12.2345 76.968 11.5985H72.918V10.3925H77.832C78.192 9.85255 78.468 9.41455 78.66 9.07855L80.082 9.43855L79.524 10.3925H88.866V11.5985H85.824ZM77.85 12.7685C78.438 12.9245 79.386 13.1945 80.694 13.5785L81.594 13.8305C82.182 13.5545 82.674 13.2365 83.07 12.8765C83.478 12.5045 83.82 12.0785 84.096 11.5985H78.732C78.348 12.1265 78.054 12.5165 77.85 12.7685ZM93.168 3.91255V5.58655H91.692V2.56255H98.298L97.614 0.924546L99.144 0.654546L99.288 1.01455C99.444 1.36255 99.66 1.87855 99.936 2.56255H106.308V5.58655H104.778V3.91255H93.168ZM99.648 11.6705V15.1625H106.668V16.5485H91.296V15.1625H98.154V11.6705H92.754V10.2305H98.154V7.78255H92.016V6.37855H106.002V7.78255H99.648V10.2305H105.246V11.6705H99.648ZM103.482 15.0545L103.266 14.7485C102.522 13.7405 102.036 13.0865 101.808 12.7865L102.924 11.9225C103.44 12.5705 104.01 13.3265 104.634 14.1905L103.482 15.0545ZM120.582 0.636546V2.20255H125.1V3.49855H120.582V4.54255H119.196V3.49855H114.894V4.54255H113.472V3.49855H108.936V2.20255H113.472V0.636546H114.894V2.20255H119.196V0.636546H120.582ZM117.054 5.29855H123.768V14.8565C123.768 15.4445 123.696 15.8825 123.552 16.1705C123.42 16.4585 123.186 16.6565 122.85 16.7645C122.514 16.8725 122.01 16.9265 121.338 16.9265C121.062 16.9265 120.6 16.9025 119.952 16.8545L119.736 15.5765C119.82 15.5885 120.036 15.6185 120.384 15.6665C120.744 15.7025 121.116 15.7205 121.5 15.7205C121.896 15.7205 122.16 15.6305 122.292 15.4505C122.424 15.2705 122.49 14.9465 122.49 14.4785V12.9125H118.188C118.044 13.8365 117.762 14.6165 117.342 15.2525C116.934 15.8885 116.286 16.5725 115.398 17.3045L114.39 16.2965C115.242 15.6485 115.842 15.0845 116.19 14.6045C116.55 14.1125 116.784 13.5425 116.892 12.8945C117 12.2345 117.054 11.2265 117.054 9.87055V5.29855ZM110.124 5.51455H115.272V15.0005H110.124V5.51455ZM122.49 8.59255V6.55855H118.332V8.59255H122.49ZM113.922 9.40255V6.79255H111.42V9.40255H113.922ZM122.49 11.7425V9.78055H118.332V10.3925C118.332 10.7405 118.32 11.1905 118.296 11.7425H122.49ZM111.42 10.6625V13.7405H113.922V10.6625H111.42ZM138.78 7.00855H143.082V8.41255H133.362V7.00855H137.358V4.50655H133.884V3.17455H137.358V0.762546H138.78V3.17455H142.344V4.50655H138.78V7.00855ZM132.984 13.9385L131.994 15.1085L130.698 13.8125C130.038 14.7845 129.03 15.9365 127.674 17.2685L126.576 16.2425C127.98 14.9465 129.006 13.8065 129.654 12.8225C128.838 12.0665 128.106 11.4185 127.458 10.8785C127.878 9.21055 128.214 7.42855 128.466 5.53255H126.882V4.12855H128.664C128.808 2.89255 128.91 1.78255 128.97 0.798546L130.374 0.834547C130.29 1.95055 130.182 3.04855 130.05 4.12855H132.93V5.49655C132.798 7.16455 132.624 8.53255 132.408 9.60055C132.192 10.6565 131.874 11.6165 131.454 12.4805L132.984 13.9385ZM128.952 10.2845C129.276 10.5605 129.744 10.9685 130.356 11.5085C130.704 10.7525 130.974 9.91255 131.166 8.98855C131.358 8.06455 131.514 6.91255 131.634 5.53255H129.852C129.588 7.28455 129.288 8.86855 128.952 10.2845ZM138.78 12.1925V15.1445H143.118V16.5125H132.912V15.1445H137.358V12.1925H133.848V10.8425H137.358V8.95255H138.78V10.8425H142.344V12.1925H138.78Z" fill="white"/>
</svg>
