<svg width="162" height="19" viewBox="0 0 162 19" fill="none" xmlns="http://www.w3.org/2000/svg">
<path d="M0.918 7.828H17.082V9.376H0.918V7.828ZM18.648 6.118C20.4 5.422 21.888 4.654 23.112 3.814C24.348 2.974 25.416 2.008 26.316 0.915999H27.684C28.596 1.996 29.67 2.956 30.906 3.796C32.154 4.624 33.606 5.35 35.262 5.974L34.65 7.342C33.066 6.718 31.602 5.956 30.258 5.056C28.914 4.156 27.834 3.214 27.018 2.23C26.154 3.25 25.068 4.204 23.76 5.092C22.452 5.98 20.958 6.778 19.278 7.486L18.648 6.118ZM26.352 4.102C27.012 4.726 27.648 5.41 28.26 6.154L27.252 7.018C26.544 6.13 25.926 5.428 25.398 4.912L26.352 4.102ZM32.238 8.728C32.058 9.004 31.464 9.796 30.456 11.104L30.078 11.59L28.908 10.744C29.184 10.432 29.478 10.072 29.79 9.664C30.114 9.256 30.348 8.938 30.492 8.71H21.186V7.414H32.238V8.728ZM26.622 9.772C26.898 10.096 27.306 10.63 27.846 11.374C28.398 12.106 28.812 12.676 29.088 13.084L27.954 13.822C27.654 13.354 27.258 12.778 26.766 12.094C26.286 11.41 25.896 10.882 25.596 10.51L26.622 9.772ZM24.606 14.452C24.606 14.848 24.672 15.118 24.804 15.262C24.936 15.394 25.212 15.478 25.632 15.514C26.304 15.562 26.802 15.586 27.126 15.586C27.474 15.586 27.972 15.562 28.62 15.514C28.944 15.478 29.178 15.436 29.322 15.388C29.478 15.328 29.586 15.238 29.646 15.118C29.718 14.998 29.766 14.812 29.79 14.56C29.826 14.212 29.862 13.666 29.898 12.922L31.23 13.264L31.068 15.118C31.02 15.562 30.924 15.898 30.78 16.126C30.636 16.354 30.408 16.522 30.096 16.63C29.796 16.738 29.364 16.81 28.8 16.846C28.236 16.894 27.606 16.918 26.91 16.918C26.214 16.918 25.584 16.894 25.02 16.846C24.312 16.798 23.832 16.636 23.58 16.36C23.328 16.084 23.202 15.616 23.202 14.956V11.032H24.606V14.452ZM32.724 11.23C33.036 11.71 33.438 12.37 33.93 13.21C34.434 14.038 34.854 14.77 35.19 15.406L33.894 16.054C33.546 15.382 33.144 14.65 32.688 13.858C32.232 13.066 31.842 12.418 31.518 11.914L32.724 11.23ZM18.792 15.676C19.188 15.04 19.566 14.332 19.926 13.552C20.298 12.772 20.616 12.01 20.88 11.266L22.23 11.68C21.942 12.472 21.6 13.294 21.204 14.146C20.82 14.998 20.442 15.73 20.07 16.342L18.792 15.676ZM53.316 12.508C53.148 13.42 52.986 14.2 52.83 14.848C52.638 15.688 52.368 16.27 52.02 16.594C51.672 16.93 51.252 17.098 50.76 17.098C50.316 17.098 49.914 16.942 49.554 16.63C49.194 16.33 48.768 15.802 48.276 15.046C48.036 14.638 47.826 14.242 47.646 13.858C46.59 15.01 45.324 16.12 43.848 17.188L42.894 16.09C44.574 14.89 45.978 13.66 47.106 12.4C46.53 10.564 46.086 8.134 45.774 5.11H39.834V7.648H44.442C44.43 8.512 44.394 9.31 44.334 10.042C44.286 10.762 44.214 11.638 44.118 12.67C44.034 13.522 43.818 14.128 43.47 14.488C43.122 14.836 42.522 15.01 41.67 15.01C41.382 15.01 40.962 14.986 40.41 14.938L40.104 13.498C40.644 13.558 41.118 13.588 41.526 13.588C41.958 13.588 42.246 13.498 42.39 13.318C42.546 13.126 42.66 12.772 42.732 12.256C42.816 11.56 42.87 10.996 42.894 10.564C42.93 10.132 42.948 9.628 42.948 9.052H39.834C39.81 10.936 39.654 12.478 39.366 13.678C39.078 14.866 38.568 16.09 37.836 17.35L36.432 16.684C36.972 15.832 37.38 15.046 37.656 14.326C37.932 13.594 38.13 12.778 38.25 11.878C38.37 10.966 38.43 9.808 38.43 8.404V3.688H45.648L45.432 0.825999H46.854C46.926 1.942 46.998 2.896 47.07 3.688H50.274C49.566 2.92 48.864 2.218 48.168 1.582L49.122 0.645999C49.734 1.21 50.472 1.936 51.336 2.824L50.382 3.688H52.83V5.11H47.196C47.436 7.582 47.76 9.568 48.168 11.068C49.2 9.652 50.016 8.044 50.616 6.244L51.894 6.784C51.138 8.956 50.064 10.918 48.672 12.67C48.936 13.39 49.242 14.02 49.59 14.56C49.842 14.932 50.058 15.19 50.238 15.334C50.43 15.466 50.61 15.526 50.778 15.514C50.97 15.526 51.138 15.442 51.282 15.262C51.426 15.07 51.552 14.71 51.66 14.182C51.768 13.714 51.9 13.012 52.056 12.076L53.316 12.508ZM66.564 3.436H70.398V13.174H66.564V17.332H65.232V13.174H61.38V3.436H65.232V0.862H66.564V3.436ZM60.426 4.984C59.874 6.172 59.316 7.222 58.752 8.134C59.712 8.842 60.468 9.442 61.02 9.934L60.156 10.978C59.76 10.582 59.25 10.126 58.626 9.61V17.296H57.258V10.258C56.586 11.098 55.902 11.86 55.206 12.544L54.612 11.086C55.5 10.198 56.286 9.274 56.97 8.314C57.654 7.342 58.29 6.238 58.878 5.002H55.26V3.634H57.636C57.312 2.686 57.024 1.906 56.772 1.294L58.068 0.915999C58.332 1.576 58.656 2.482 59.04 3.634H60.426V4.984ZM65.232 7.612V4.768H62.658V7.612H65.232ZM69.12 7.612V4.768H66.564V7.612H69.12ZM62.658 8.962V11.824H65.232V8.962H62.658ZM66.564 8.962V11.824H69.12V8.962H66.564ZM75.87 14.164C76.218 14.164 76.5 14.302 76.716 14.578C76.932 14.842 77.04 15.256 77.04 15.82C77.04 16.636 76.824 17.308 76.392 17.836C75.972 18.364 75.414 18.694 74.718 18.826V17.98C75.534 17.728 75.966 17.146 76.014 16.234C75.978 16.246 75.924 16.252 75.852 16.252C75.552 16.252 75.312 16.15 75.132 15.946C74.964 15.742 74.88 15.496 74.88 15.208C74.88 14.908 74.97 14.662 75.15 14.47C75.342 14.266 75.582 14.164 75.87 14.164ZM90.918 7.828H107.082V9.376H90.918V7.828ZM108.648 6.118C110.4 5.422 111.888 4.654 113.112 3.814C114.348 2.974 115.416 2.008 116.316 0.915999H117.684C118.596 1.996 119.67 2.956 120.906 3.796C122.154 4.624 123.606 5.35 125.262 5.974L124.65 7.342C123.066 6.718 121.602 5.956 120.258 5.056C118.914 4.156 117.834 3.214 117.018 2.23C116.154 3.25 115.068 4.204 113.76 5.092C112.452 5.98 110.958 6.778 109.278 7.486L108.648 6.118ZM116.352 4.102C117.012 4.726 117.648 5.41 118.26 6.154L117.252 7.018C116.544 6.13 115.926 5.428 115.398 4.912L116.352 4.102ZM122.238 8.728C122.058 9.004 121.464 9.796 120.456 11.104L120.078 11.59L118.908 10.744C119.184 10.432 119.478 10.072 119.79 9.664C120.114 9.256 120.348 8.938 120.492 8.71H111.186V7.414H122.238V8.728ZM116.622 9.772C116.898 10.096 117.306 10.63 117.846 11.374C118.398 12.106 118.812 12.676 119.088 13.084L117.954 13.822C117.654 13.354 117.258 12.778 116.766 12.094C116.286 11.41 115.896 10.882 115.596 10.51L116.622 9.772ZM114.606 14.452C114.606 14.848 114.672 15.118 114.804 15.262C114.936 15.394 115.212 15.478 115.632 15.514C116.304 15.562 116.802 15.586 117.126 15.586C117.474 15.586 117.972 15.562 118.62 15.514C118.944 15.478 119.178 15.436 119.322 15.388C119.478 15.328 119.586 15.238 119.646 15.118C119.718 14.998 119.766 14.812 119.79 14.56C119.826 14.212 119.862 13.666 119.898 12.922L121.23 13.264L121.068 15.118C121.02 15.562 120.924 15.898 120.78 16.126C120.636 16.354 120.408 16.522 120.096 16.63C119.796 16.738 119.364 16.81 118.8 16.846C118.236 16.894 117.606 16.918 116.91 16.918C116.214 16.918 115.584 16.894 115.02 16.846C114.312 16.798 113.832 16.636 113.58 16.36C113.328 16.084 113.202 15.616 113.202 14.956V11.032H114.606V14.452ZM122.724 11.23C123.036 11.71 123.438 12.37 123.93 13.21C124.434 14.038 124.854 14.77 125.19 15.406L123.894 16.054C123.546 15.382 123.144 14.65 122.688 13.858C122.232 13.066 121.842 12.418 121.518 11.914L122.724 11.23ZM108.792 15.676C109.188 15.04 109.566 14.332 109.926 13.552C110.298 12.772 110.616 12.01 110.88 11.266L112.23 11.68C111.942 12.472 111.6 13.294 111.204 14.146C110.82 14.998 110.442 15.73 110.07 16.342L108.792 15.676ZM143.316 12.508C143.148 13.42 142.986 14.2 142.83 14.848C142.638 15.688 142.368 16.27 142.02 16.594C141.672 16.93 141.252 17.098 140.76 17.098C140.316 17.098 139.914 16.942 139.554 16.63C139.194 16.33 138.768 15.802 138.276 15.046C138.036 14.638 137.826 14.242 137.646 13.858C136.59 15.01 135.324 16.12 133.848 17.188L132.894 16.09C134.574 14.89 135.978 13.66 137.106 12.4C136.53 10.564 136.086 8.134 135.774 5.11H129.834V7.648H134.442C134.43 8.512 134.394 9.31 134.334 10.042C134.286 10.762 134.214 11.638 134.118 12.67C134.034 13.522 133.818 14.128 133.47 14.488C133.122 14.836 132.522 15.01 131.67 15.01C131.382 15.01 130.962 14.986 130.41 14.938L130.104 13.498C130.644 13.558 131.118 13.588 131.526 13.588C131.958 13.588 132.246 13.498 132.39 13.318C132.546 13.126 132.66 12.772 132.732 12.256C132.816 11.56 132.87 10.996 132.894 10.564C132.93 10.132 132.948 9.628 132.948 9.052H129.834C129.81 10.936 129.654 12.478 129.366 13.678C129.078 14.866 128.568 16.09 127.836 17.35L126.432 16.684C126.972 15.832 127.38 15.046 127.656 14.326C127.932 13.594 128.13 12.778 128.25 11.878C128.37 10.966 128.43 9.808 128.43 8.404V3.688H135.648L135.432 0.825999H136.854C136.926 1.942 136.998 2.896 137.07 3.688H140.274C139.566 2.92 138.864 2.218 138.168 1.582L139.122 0.645999C139.734 1.21 140.472 1.936 141.336 2.824L140.382 3.688H142.83V5.11H137.196C137.436 7.582 137.76 9.568 138.168 11.068C139.2 9.652 140.016 8.044 140.616 6.244L141.894 6.784C141.138 8.956 140.064 10.918 138.672 12.67C138.936 13.39 139.242 14.02 139.59 14.56C139.842 14.932 140.058 15.19 140.238 15.334C140.43 15.466 140.61 15.526 140.778 15.514C140.97 15.526 141.138 15.442 141.282 15.262C141.426 15.07 141.552 14.71 141.66 14.182C141.768 13.714 141.9 13.012 142.056 12.076L143.316 12.508ZM147.42 3.274V8.152C147.42 9.664 147.372 10.924 147.276 11.932C147.192 12.928 147.036 13.852 146.808 14.704C146.58 15.544 146.25 16.438 145.818 17.386L144.63 16.774C145.026 15.898 145.332 15.076 145.548 14.308C145.764 13.54 145.914 12.682 145.998 11.734C146.094 10.786 146.142 9.61 146.142 8.206V2.14H152.928L152.28 0.934L153.702 0.501999C153.798 0.669999 153.99 1.042 154.278 1.618C154.314 1.69 154.35 1.774 154.386 1.87C154.434 1.954 154.482 2.044 154.53 2.14H160.866V3.274H157.68V4.39H160.47V5.434H158.49C159.09 6.238 159.918 7.012 160.974 7.756L160.254 8.602C159.138 7.75 158.28 6.832 157.68 5.848V8.296H156.528V5.866C156.324 6.25 156.066 6.628 155.754 7C155.442 7.36 155.052 7.762 154.584 8.206L153.756 7.45C154.236 7.054 154.626 6.706 154.926 6.406C155.238 6.094 155.508 5.77 155.736 5.434H154.404V4.39H156.528V3.274H151.83V4.39H153.648V5.434H151.83V5.668C152.226 5.908 152.46 6.046 152.532 6.082L153.756 6.82L153.18 7.648C152.724 7.276 152.274 6.958 151.83 6.694V8.422H150.678V6.478C150.066 7.33 149.304 8.062 148.392 8.674L147.69 7.702C148.89 6.97 149.772 6.214 150.336 5.434H148.14V4.39H150.678V3.274H147.42ZM161.1 14.146L161.064 14.722C161.052 14.89 161.04 15.07 161.028 15.262C161.016 15.442 160.998 15.622 160.974 15.802C160.926 16.294 160.752 16.63 160.452 16.81C160.152 17.002 159.642 17.122 158.922 17.17C158.346 17.206 157.764 17.224 157.176 17.224C156.612 17.224 156.03 17.206 155.43 17.17C154.758 17.134 154.284 17.008 154.008 16.792C153.744 16.576 153.612 16.198 153.612 15.658V14.56C153.072 15.124 152.322 15.64 151.362 16.108C150.414 16.576 149.208 17.032 147.744 17.476L147.312 16.234C148.8 15.85 150 15.424 150.912 14.956C151.836 14.488 152.514 13.966 152.946 13.39H148.878V9.088H152.604C152.82 8.608 152.97 8.23 153.054 7.954L154.296 8.206C154.224 8.434 154.11 8.728 153.954 9.088H159.426V13.39H157.518C157.134 14.098 156.852 14.578 156.672 14.83C157.356 14.734 157.902 14.668 158.31 14.632C158.142 14.356 157.992 14.122 157.86 13.93L158.562 13.552L158.904 14.092C159.252 14.608 159.528 15.058 159.732 15.442L158.994 15.856L158.724 15.37C157.632 15.454 156.69 15.55 155.898 15.658C155.682 15.694 155.496 15.73 155.34 15.766L155.106 15.046C155.226 15.01 155.346 14.968 155.466 14.92C155.586 14.86 155.676 14.788 155.736 14.704C155.94 14.464 156.12 14.2 156.276 13.912C156.432 13.612 156.522 13.438 156.546 13.39H154.404C154.308 13.582 154.248 13.696 154.224 13.732H154.818V15.316C154.818 15.652 154.878 15.868 154.998 15.964C155.118 16.06 155.376 16.12 155.772 16.144C156.276 16.18 156.774 16.198 157.266 16.198C157.782 16.198 158.28 16.18 158.76 16.144C159.216 16.12 159.516 16.066 159.66 15.982C159.804 15.886 159.882 15.688 159.894 15.388C159.906 15.184 159.912 14.938 159.912 14.65C159.924 14.362 159.924 14.11 159.912 13.894L161.1 14.146ZM153.558 10.798V10.006H150.138V10.798H153.558ZM154.782 10.798H158.166V10.006H154.782V10.798ZM150.138 12.472H153.414C153.486 12.256 153.534 11.986 153.558 11.662H150.138V12.472ZM158.166 12.472V11.662H154.782C154.782 11.926 154.752 12.196 154.692 12.472H158.166Z" fill="white"/>
</svg>
