<svg width="138" height="28" viewBox="0 0 138 28" fill="none" xmlns="http://www.w3.org/2000/svg">
<path d="M10.696 4.31455L18.928 24.8105H15.652L13.552 19.3225H5.236L3.22 24.8105H0.196L8.12 4.31455H10.696ZM12.544 16.6905L9.296 8.23455L6.216 16.6905H12.544ZM24.4613 24.8105H21.4653V4.31455H24.4613V24.8105ZM27.7202 11.5385C29.8482 10.0265 31.5002 8.30921 32.6762 6.38655H28.7842V4.14655H33.4882V1.20655H35.9522V4.14655H40.0682V6.38655H35.9522V6.66655C37.6882 7.69321 38.9389 8.49588 39.7042 9.07455L38.5282 10.8665C37.5389 10.0639 36.6802 9.41988 35.9522 8.93455V13.3025H33.4882V8.68255C32.3869 10.4932 30.9029 12.1919 29.0362 13.7785L27.7202 11.5385ZM48.3002 6.38655C49.0282 7.33855 49.8776 8.23455 50.8482 9.07455C51.8376 9.89588 52.8922 10.6145 54.0122 11.2305L52.8362 13.4425C50.5402 11.8745 48.7109 10.1292 47.3482 8.20655V13.4425H44.8842V8.40255C43.8016 10.1945 42.4109 11.7345 40.7122 13.0225L39.2562 11.2025C41.1042 9.85855 42.6536 8.25321 43.9042 6.38655H41.0202V4.14655H44.8842V1.20655H47.3482V4.14655H52.7522V6.38655H48.3002ZM39.5642 13.3865C39.2656 13.7972 38.9389 14.2079 38.5842 14.6185H49.9802V16.9985C48.6736 18.6225 47.2176 20.0319 45.6122 21.2265C44.0256 22.4025 42.0189 23.4945 39.5922 24.5025C37.1656 25.5105 34.1322 26.4532 30.4922 27.3305L28.9802 24.9225C33.7589 23.8772 37.5016 22.7012 40.2082 21.3945C42.9336 20.0692 45.0336 18.5759 46.5082 16.9145H36.3442C35.8589 17.3439 35.6256 17.5492 35.6442 17.5305C37.1002 18.2212 38.4442 18.9119 39.6762 19.6025L38.3042 21.7585C36.9976 20.8812 35.4576 19.9852 33.6842 19.0705C32.7882 19.7239 31.6869 20.4332 30.3802 21.1985L28.8402 19.1545C30.5389 18.2025 32.1069 17.1479 33.5442 15.9905C34.9816 14.8145 36.1762 13.6479 37.1282 12.4905L39.5642 13.3865ZM67.4242 16.4665C67.8349 17.3812 68.3669 18.6692 69.0202 20.3305C69.6736 21.9732 70.2709 23.5132 70.8122 24.9505L68.2642 25.9865L67.3682 23.4105C64.5309 23.9145 62.3189 24.3159 60.7322 24.6145L57.2882 25.2865L56.4762 22.6545C56.9616 22.4492 57.3162 22.2625 57.5402 22.0945C57.7829 21.9079 58.0349 21.6465 58.2962 21.3105C59.5282 19.7985 61.1616 17.2692 63.1962 13.7225C61.2549 13.9652 59.7802 14.1705 58.7722 14.3385L56.7282 14.7305L56.0282 12.0705C56.4576 11.8652 56.7656 11.6879 56.9522 11.5385C57.1576 11.3892 57.3722 11.1559 57.5962 10.8385C58.1189 10.0545 58.8842 8.64521 59.8922 6.61055C60.9189 4.57588 61.7029 2.87721 62.2442 1.51455L64.6522 2.57855C64.1109 3.88521 63.3549 5.50921 62.3842 7.45055C61.4136 9.39188 60.6296 10.8665 60.0322 11.8745L64.6242 11.2025C65.4829 9.59721 66.1736 8.24388 66.6962 7.14255L69.0762 8.26255C68.1802 10.1105 66.8082 12.5932 64.9602 15.7105C63.1122 18.8092 61.7216 20.9932 60.7882 22.2625L66.5002 21.1705C65.9776 19.7332 65.5016 18.5105 65.0722 17.5025L67.4242 16.4665ZM80.6682 3.41855C80.6869 6.23721 80.6122 9.57855 80.4442 13.4425C80.2949 17.3065 80.0896 20.3865 79.8282 22.6825C79.6789 24.0452 79.2962 25.0252 78.6802 25.6225C78.0642 26.2199 77.0749 26.5185 75.7122 26.5185C74.4989 26.5185 73.4069 26.4812 72.4362 26.4065L71.9042 23.7465C73.0429 23.9145 74.0602 23.9985 74.9562 23.9985C75.5349 23.9985 75.9736 23.9239 76.2722 23.7745C76.5896 23.6252 76.8229 23.3732 76.9722 23.0185C77.1216 22.6639 77.2336 22.1412 77.3082 21.4505C77.5322 19.4159 77.7096 16.9799 77.8402 14.1425C77.9709 11.2865 78.0269 8.58921 78.0082 6.05055H68.1802V3.41855H80.6682ZM88.3402 5.18255V12.6025C88.3402 14.9732 88.2656 16.9425 88.1162 18.5105C87.9856 20.0599 87.7429 21.4972 87.3882 22.8225C87.0336 24.1479 86.5016 25.5572 85.7922 27.0505L83.6642 25.8745C84.2802 24.5305 84.7469 23.2799 85.0642 22.1225C85.4002 20.9465 85.6429 19.6305 85.7922 18.1745C85.9416 16.6999 86.0162 14.8705 86.0162 12.6865V3.11055H96.4322L95.5362 1.34655L98.3362 0.702545C98.5602 1.15055 98.9336 1.95321 99.4562 3.11055H109.088V5.18255H104.328V6.77855H108.556V8.54255H105.532C106.447 9.62521 107.744 10.6985 109.424 11.7625L108.276 13.3025C106.652 12.1452 105.336 10.8852 104.328 9.52255V12.8825H102.256V9.77455C101.584 10.7265 100.642 11.7159 99.4282 12.7425L98.0842 11.3985C99.4656 10.3905 100.511 9.43855 101.22 8.54255H99.1762V6.77855H102.256V5.18255H95.1722V6.77855H97.9722V8.54255H95.1722V8.76655L95.9842 9.24255L98.1402 10.5305L97.1882 11.9305C96.8522 11.6505 96.1802 11.1839 95.1722 10.5305V13.0505H93.1002V10.4745C92.1296 11.6319 91.0376 12.6025 89.8242 13.3865L88.6482 11.7345C90.3656 10.7639 91.6909 9.69988 92.6242 8.54255H89.3762V6.77855H93.1002V5.18255H88.3402ZM109.564 22.0105L109.508 22.9065C109.49 23.1679 109.471 23.4479 109.452 23.7465C109.434 24.0265 109.406 24.3065 109.368 24.5865C109.294 25.3705 109.023 25.9025 108.556 26.1825C108.09 26.4812 107.278 26.6772 106.12 26.7705C105.224 26.8265 104.3 26.8545 103.348 26.8545C102.434 26.8545 101.51 26.8265 100.576 26.7705C99.4936 26.6959 98.7376 26.4905 98.3082 26.1545C97.8789 25.8185 97.6642 25.2212 97.6642 24.3625V22.9905C96.8056 23.7932 95.6576 24.5399 94.2202 25.2305C92.7829 25.9212 90.9722 26.5932 88.7882 27.2465L88.0042 25.0345C90.1882 24.4745 91.9802 23.8585 93.3802 23.1865C94.7802 22.5145 95.8256 21.7585 96.5162 20.9185H90.3282V14.0025H96.1522C96.4322 13.3865 96.6469 12.8359 96.7962 12.3505L99.0082 12.8265C98.9149 13.1439 98.7656 13.5359 98.5602 14.0025H106.96V20.9185H104.048L103.712 21.4505C103.32 22.0852 102.966 22.5985 102.648 22.9905C103.246 22.9345 104.02 22.8319 104.972 22.6825C104.748 22.2719 104.543 21.9452 104.356 21.7025L105.56 21.0865L106.008 21.8145C106.55 22.6545 106.97 23.3639 107.268 23.9425L106.036 24.6145L105.672 23.9145C104.235 24.0452 103.143 24.1572 102.396 24.2505L101.556 24.3345C101.556 24.3345 101.23 24.3999 100.576 24.5305L100.184 23.2425C100.371 23.1865 100.548 23.1212 100.716 23.0465C100.884 22.9532 101.015 22.8412 101.108 22.7105C101.519 22.1879 101.911 21.5905 102.284 20.9185H99.1482L98.8962 21.4505H99.8202V23.8305C99.8202 24.3159 99.9042 24.6332 100.072 24.7825C100.24 24.9132 100.614 24.9972 101.192 25.0345C101.864 25.1092 102.63 25.1465 103.488 25.1465C104.347 25.1465 105.103 25.1092 105.756 25.0345C106.41 24.9972 106.839 24.9132 107.044 24.7825C107.268 24.6332 107.39 24.3345 107.408 23.8865C107.427 23.5692 107.436 23.1865 107.436 22.7385C107.455 22.2905 107.455 21.8985 107.436 21.5625L109.564 22.0105ZM97.5802 16.6905V15.5705H92.5962V16.6905H97.5802ZM99.7642 16.6905H104.692V15.5705H99.7642V16.6905ZM92.5962 19.3225H97.3842C97.4776 18.9679 97.5429 18.5665 97.5802 18.1185H92.5962V19.3225ZM104.692 19.3225V18.1185H99.7642C99.7642 18.3985 99.7269 18.7999 99.6522 19.3225H104.692ZM137.508 7.53455V9.46655H112.196V7.53455H119.28C119.094 6.88121 118.851 6.09721 118.552 5.18255H113.708V3.30655H123.788C123.527 2.80255 123.228 2.25188 122.892 1.65455L125.608 1.03855C125.963 1.76655 126.299 2.52255 126.616 3.30655H135.996V5.18255H131.432C131.134 6.15321 130.872 6.93721 130.648 7.53455H137.508ZM121.128 5.18255C121.371 5.83588 121.623 6.61988 121.884 7.53455H128.044C128.38 6.61988 128.651 5.83588 128.856 5.18255H121.128ZM135.352 22.8505H126.084V24.4465H137.2V26.3225H112.504V24.4465H123.62V22.8505H114.38V21.0305H123.62V19.4625H115.164V10.9785H134.596V19.4625H126.084V21.0305H135.352V22.8505ZM123.62 14.4225V12.8265H117.6V14.4225H123.62ZM126.084 14.4225H132.104V12.8265H126.084V14.4225ZM117.6 16.1025V17.6985H123.62V16.1025H117.6ZM126.084 16.1025V17.6985H132.104V16.1025H126.084Z" fill="white"/>
</svg>
