<svg width="138" height="27" viewBox="0 0 138 27" fill="none" xmlns="http://www.w3.org/2000/svg">
<path d="M10.696 3.504L18.928 24H15.652L13.552 18.512H5.236L3.22 24H0.196L8.12 3.504H10.696ZM12.544 15.88L9.296 7.424L6.216 15.88H12.544ZM24.4613 24H21.4653V3.504H24.4613V24ZM46.4802 6.528C45.9016 7.61067 45.1269 8.88933 44.1562 10.364C43.2042 11.8387 42.4482 12.9027 41.8882 13.556C42.9149 13.4067 44.4549 13.164 46.5082 12.828C47.8522 10.8867 48.8602 9.29067 49.5322 8.04L51.7722 9.384C50.9696 10.784 49.4576 12.9867 47.2362 15.992C45.0336 18.9787 43.2696 21.1813 41.9442 22.6C43.1949 22.4133 45.4536 22.1147 48.7202 21.704L49.3922 21.62C48.8882 20.2947 48.3562 18.9973 47.7962 17.728L50.0922 16.72C50.5402 17.6907 51.0816 19.0067 51.7162 20.668C52.3509 22.3107 52.9109 23.8133 53.3962 25.176L51.0722 26.24C50.8856 25.6613 50.6149 24.8867 50.2602 23.916C47.6469 24.196 44.4642 24.5973 40.7122 25.12C39.8349 25.232 39.0882 25.344 38.4722 25.456L37.7722 22.796C38.2762 22.628 38.6402 22.4787 38.8642 22.348C39.0882 22.2173 39.3589 21.984 39.6762 21.648C41.0202 20.2293 42.7002 18.1387 44.7162 15.376C42.9616 15.5627 41.7482 15.712 41.0762 15.824C40.3856 15.8987 39.5829 16.02 38.6682 16.188L38.0242 13.612C38.3602 13.5187 38.6216 13.416 38.8082 13.304C38.9949 13.192 39.1722 13.0427 39.3402 12.856C39.8256 12.3333 40.4882 11.428 41.3282 10.14C42.1682 8.852 42.8869 7.648 43.4842 6.528H38.3042V4.148H44.4922C44.1749 3.364 43.6896 2.25333 43.0362 0.815998L45.7522 0.255999C46.0696 0.927999 46.6296 2.22533 47.4322 4.148H53.4802V6.528H46.4802ZM36.8482 22.096C36.4936 21.592 35.4482 20.3133 33.7122 18.26C33.3949 19.6413 32.9376 20.976 32.3402 22.264C31.7616 23.5333 30.9869 24.8773 30.0162 26.296L27.9442 24.728C29.0829 23.216 29.9509 21.7133 30.5482 20.22C31.1642 18.708 31.5749 17.196 31.7802 15.684C32.0042 14.1533 32.1162 12.4267 32.1162 10.504V0.675998H34.5242V7.48C35.5696 6.17333 36.2696 5.268 36.6242 4.764L38.2762 6.22L34.4962 11.008C34.4589 12.6693 34.3656 14.1347 34.2162 15.404L35.4482 16.748C35.9522 17.308 36.4842 17.896 37.0442 18.512C37.6042 19.1093 38.0709 19.632 38.4442 20.08L36.8482 22.096ZM29.3722 13.444C29.3536 12.9587 29.1949 11.652 28.8962 9.524C28.5976 7.396 28.3642 5.8 28.1962 4.736L30.2962 4.4C30.4642 5.464 30.6789 6.88267 30.9402 8.656C31.2016 10.4293 31.3976 11.8667 31.5282 12.968L29.3722 13.444ZM80.2202 2.3C79.0629 3.68133 77.7749 4.99733 76.3562 6.248C74.9562 7.49867 73.5562 8.58133 72.1562 9.496L70.7842 7.34C73.6402 5.548 76.1509 3.37333 78.3162 0.815998L80.2202 2.3ZM70.7002 3.504C68.7776 3.84 66.4909 4.15733 63.8402 4.456C61.2082 4.736 58.9029 4.92267 56.9242 5.016L56.6442 2.58C58.6602 2.54267 60.9562 2.384 63.5322 2.104C66.1269 1.824 68.3856 1.49733 70.3082 1.124L70.7002 3.504ZM65.9122 10.448C66.3602 9.64533 66.8269 8.712 67.3122 7.648C67.8162 6.584 68.2269 5.632 68.5442 4.792L70.5882 5.604C70.2149 6.46267 69.7949 7.40533 69.3282 8.432C68.8616 9.44 68.4042 10.392 67.9562 11.288L65.9122 10.448ZM63.3642 9.944C63.2522 9.68267 63.1402 9.39333 63.0282 9.076C62.9162 8.74 62.7949 8.41333 62.6642 8.096C62.3656 7.23733 62.0576 6.416 61.7402 5.632L63.8122 4.876C64.2042 5.79067 64.5216 6.59333 64.7642 7.284L65.4922 9.104L63.3642 9.944ZM58.8842 10.952C58.2309 9.272 57.5776 7.74133 56.9242 6.36L58.9682 5.38C59.3789 6.20133 59.8922 7.38667 60.5082 8.936L60.9562 10L58.8842 10.952ZM71.1762 14.452C72.7816 13.5933 74.2096 12.6507 75.4602 11.624C76.7109 10.5973 77.9336 9.36533 79.1282 7.928L80.9762 9.384C79.8189 10.8773 78.5589 12.2213 77.1962 13.416C75.8336 14.592 74.3122 15.6933 72.6322 16.72L71.1762 14.452ZM69.3562 22.404C67.4522 20.892 65.9962 19.7627 64.9882 19.016V26.24H62.5522V18.008C61.0962 20.304 59.2856 22.4227 57.1202 24.364L55.8322 22.096C57.0642 21.032 58.1376 19.9773 59.0522 18.932C59.9669 17.868 60.8069 16.7013 61.5722 15.432H56.6722V13.08H62.5522V10.672H64.9882V13.08H70.5042V15.432H64.9882V16.328C66.8362 17.504 68.7589 18.82 70.7562 20.276L69.3562 22.404ZM81.8722 16.944C80.4722 18.7173 78.7456 20.4347 76.6922 22.096C74.6576 23.7387 72.5669 25.1293 70.4202 26.268L69.1882 23.972C71.2416 22.964 73.1829 21.7413 75.0122 20.304C76.8602 18.8667 78.5029 17.2707 79.9402 15.516L81.8722 16.944ZM91.8122 1.18C91.1962 3.21467 90.4682 5.17467 89.6282 7.06V26.1H87.0802V11.96C86.2216 13.3413 85.4656 14.4893 84.8122 15.404L83.6082 12.548C84.7469 10.9987 85.8202 9.15067 86.8282 7.004C87.8549 4.83867 88.6762 2.664 89.2922 0.479999L91.8122 1.18ZM105.756 21.816V5.268H108.304V25.82H105.756V24.364H92.7922V5.268H95.2842V21.816H99.2042V0.564H101.808V21.816H105.756ZM136.36 24.392C135.334 23.2347 134.484 22.068 133.812 20.892C133.159 19.716 132.58 18.3627 132.076 16.832L131.18 17.364C131.442 18.5587 131.572 20.0053 131.572 21.704C131.572 23.1973 131.339 24.2613 130.872 24.896C130.406 25.5307 129.64 25.8667 128.576 25.904C127.83 25.9227 126.952 25.8853 125.944 25.792L125.524 23.608C126.308 23.72 127.083 23.776 127.848 23.776C128.371 23.776 128.726 23.5707 128.912 23.16C129.118 22.7493 129.22 22.0213 129.22 20.976C129.22 20.3973 129.211 19.9773 129.192 19.716C127.979 20.7613 126.616 21.76 125.104 22.712C123.592 23.6453 122.08 24.4293 120.568 25.064L119.616 22.992C121.166 22.4133 122.752 21.6293 124.376 20.64C126.019 19.6507 127.503 18.568 128.828 17.392L128.492 16.272C127.447 17.056 126.29 17.8027 125.02 18.512C123.77 19.2213 122.528 19.8093 121.296 20.276L120.4 18.288C121.539 17.9147 122.771 17.3827 124.096 16.692C125.44 16.0013 126.635 15.2827 127.68 14.536L127.064 13.472C125.104 14.648 123.247 15.5253 121.492 16.104L120.68 14.004C121.688 13.724 122.734 13.3507 123.816 12.884C124.918 12.3987 125.926 11.8853 126.84 11.344H121.212V9.272H131.656L131.936 7.816H122.612L124.348 0.395998L126.7 0.647999L126.308 2.244H135.296L134.092 9.272H137.48V11.344H130.144C129.696 11.6987 129.267 12.016 128.856 12.296C129.547 13.304 130.088 14.2747 130.48 15.208C131.358 14.704 132.254 14.1347 133.168 13.5C134.083 12.8653 134.839 12.2773 135.436 11.736L136.78 13.668C135.959 14.3027 134.979 14.9933 133.84 15.74C134.326 17.196 134.858 18.4093 135.436 19.38C136.015 20.3507 136.855 21.3867 137.956 22.488L136.36 24.392ZM113.932 11.344C113.708 11.4 113.27 11.4933 112.616 11.624L112 9.132C112.262 9.02 112.467 8.89867 112.616 8.768C112.766 8.63733 112.915 8.45067 113.064 8.208C113.512 7.51733 114.063 6.43467 114.716 4.96C115.388 3.46667 116.004 1.964 116.564 0.451999L118.832 1.208C117.395 4.81067 116.219 7.424 115.304 9.048L117.852 8.348C118.543 7.02267 119.159 5.76267 119.7 4.568L121.828 5.52C121.156 6.93867 120.214 8.768 119 11.008C117.787 13.2293 116.863 14.844 116.228 15.852L119.728 14.62L119.756 17.084C117.834 17.5693 116.163 18.0267 114.744 18.456L113.176 18.876L112.504 16.216C112.859 16.104 113.12 15.992 113.288 15.88C113.475 15.768 113.652 15.5907 113.82 15.348C114.38 14.5827 115.295 13.0613 116.564 10.784C115.444 10.9893 114.567 11.176 113.932 11.344ZM125.86 4.176L125.44 5.856H132.3L132.608 4.176H125.86ZM119.812 22.348C119.159 22.46 117.983 22.712 116.284 23.104C114.586 23.4773 113.214 23.7947 112.168 24.056L111.664 21.62C112.299 21.564 113.559 21.312 115.444 20.864C117.348 20.416 118.459 20.1547 118.776 20.08L119.448 19.912L119.812 22.348Z" fill="white"/>
</svg>
