<svg width="500" height="100" viewBox="0 0 500 100" fill="none" xmlns="http://www.w3.org/2000/svg">
<rect width="500" height="100" rx="50" fill="url(#paint0_linear_446_250)"/>
<path d="M220 37.92V42.64H228.88V45.6H220V49.64H227.6V59.84C227.6 61.0133 227.333 61.8933 226.8 62.48C226.293 63.0667 225.467 63.36 224.32 63.36C223.68 63.36 222.747 63.28 221.52 63.12L220.96 60.44C221.2 60.4667 221.573 60.52 222.08 60.6C222.587 60.6533 223.04 60.68 223.44 60.68C223.92 60.68 224.253 60.56 224.44 60.32C224.653 60.08 224.76 59.6533 224.76 59.04V52.56H220V66.28H217V52.56H212.12V63.6H209.28V49.64H217V45.6H207.12V42.64H217V37.92H212.08C211.6 39.1733 211.107 40.2933 210.6 41.28L207.8 40.36C209.267 37.1867 210.307 34.0667 210.92 31L213.88 31.48C213.693 32.4667 213.4 33.64 213 35H217V29.68H220V35H228.04V37.92H220ZM238.28 30.16H241.28V60.84C241.28 62.6 240.933 63.8667 240.24 64.64C239.547 65.44 238.32 65.84 236.56 65.84C235.307 65.84 233.72 65.72 231.8 65.48L231.16 62.4C233.027 62.6933 234.533 62.84 235.68 62.84C236.613 62.84 237.28 62.5733 237.68 62.04C238.08 61.5067 238.28 60.7067 238.28 59.64V30.16ZM231.28 33.44H234.28V57.52H231.28V33.44ZM282.48 38.52H270V44.8H280.52V48.04H270V54.32H281.36V57.6H270V66.04H266.84V38.52H264.6C262.84 41.88 260.853 44.9467 258.64 47.72L256.44 45C258.2 42.8933 259.8 40.5067 261.24 37.84C262.707 35.1467 263.947 32.3067 264.96 29.32L268.08 30.24C267.44 32.1067 266.787 33.7867 266.12 35.28H282.48V38.52ZM258.32 30.88C257.307 33.8933 256.213 36.64 255.04 39.12V65.8H251.8V45C250.68 46.7867 249.347 48.64 247.8 50.56L246.24 47.12C247.893 45.04 249.507 42.48 251.08 39.44C252.653 36.4 253.987 33.2133 255.08 29.88L258.32 30.88ZM320.48 60.44C320.48 61.7467 320.347 62.76 320.08 63.48C319.84 64.2 319.413 64.7067 318.8 65C318.213 65.32 317.373 65.4933 316.28 65.52C314.653 65.5467 313.027 65.4667 311.4 65.28L310.8 62.28C312.107 62.4933 313.587 62.6 315.24 62.6C316.04 62.6 316.573 62.3867 316.84 61.96C317.133 61.5067 317.28 60.72 317.28 59.6V34.64H292.2V65.6H289.04V31.64H320.48V60.44ZM294.72 39H314.8V41.88H294.72V39ZM297.08 46.12H312.4V58.88H297.08V46.12ZM300 48.88V56.12H309.48V48.88H300ZM345.16 45.12C346.28 42.7733 347.213 40.3467 347.96 37.84C348.733 35.3067 349.373 32.5333 349.88 29.52L352.84 30C352.36 32.5067 351.96 34.4133 351.64 35.72H362.16V38.6C361.947 39.2933 361.507 40.56 360.84 42.4C360.2 44.24 359.667 45.72 359.24 46.84L356.2 46.2C356.413 45.7733 356.853 44.6533 357.52 42.84C358.187 41.0267 358.68 39.6533 359 38.72H350.84C350.12 41.1733 349.12 43.7733 347.84 46.52L345.16 45.12ZM328.12 39.84H335.16V36.44H327.08V33.64H335.16V29.72H338.16V33.64H345.88V36.44H338.16V39.84H344.8V42.4H328.12V39.84ZM354.36 47.28C354.707 50.8267 355.64 53.9467 357.16 56.64C358.707 59.3333 360.88 61.7333 363.68 63.84L361.56 66.52C359.48 64.8133 357.733 62.9867 356.32 61.04C354.933 59.0667 353.853 56.8933 353.08 54.52C352.36 56.7067 351.32 58.76 349.96 60.68C348.627 62.6 346.907 64.52 344.8 66.44L342.44 64.12C344.68 62.2 346.453 60.32 347.76 58.48C349.067 56.64 350.013 54.6667 350.6 52.56C351.187 50.4267 351.48 47.96 351.48 45.16V40.8H354.48C354.48 42.9333 354.467 44.4 354.44 45.2C354.44 45.68 354.413 46.3733 354.36 47.28ZM343.92 45.24V47.96H329V45.24H343.92ZM346.08 53.68H338.28V61.68C338.28 63.3067 338 64.4267 337.44 65.04C336.88 65.68 335.88 66 334.44 66C333.32 66 332.36 65.9333 331.56 65.8L330.96 62.8C331.92 63.04 332.733 63.16 333.4 63.16C334.2 63.16 334.733 62.9867 335 62.64C335.267 62.2933 335.4 61.6133 335.4 60.6V53.68H326.84V50.84H346.08V53.68ZM342.88 61.84C342.053 59.8667 341.107 57.8933 340.04 55.92L342.44 54.84C343.267 56.3333 344.227 58.24 345.32 60.56L342.88 61.84ZM332.76 55.96C331.56 59.1867 330.133 62.08 328.48 64.64L326.04 63.12C327.72 60.5867 329.067 57.8667 330.08 54.96L332.76 55.96Z" fill="white"/>
<path d="M166.86 57.9802C166.86 56.7802 166.63 55.6402 166.17 54.5602C165.71 53.4802 165.09 52.5502 164.31 51.7702C163.53 50.9902 162.61 50.3702 161.55 49.9102C160.49 49.4502 159.36 49.2202 158.16 49.2202C156.96 49.2202 155.82 49.4502 154.74 49.9102C153.66 50.3702 152.73 50.9902 151.95 51.7702C151.17 52.5502 150.55 53.4802 150.09 54.5602C149.63 55.6402 149.4 56.7802 149.4 57.9802C149.4 59.1802 149.63 60.3102 150.09 61.3702C150.55 62.4302 151.17 63.3502 151.95 64.1302C152.73 64.9102 153.66 65.5302 154.74 65.9902C155.82 66.4502 156.96 66.6802 158.16 66.6802C159.36 66.6802 160.49 66.4502 161.55 65.9902C162.61 65.5302 163.53 64.9102 164.31 64.1302C165.09 63.3502 165.71 62.4302 166.17 61.3702C166.63 60.3102 166.86 59.1802 166.86 57.9802ZM178.14 69.9202C178.14 69.0402 177.97 68.2002 177.63 67.4002C177.29 66.6002 176.82 65.9102 176.22 65.3302C175.62 64.7502 174.92 64.2902 174.12 63.9502C173.32 63.6102 172.48 63.4402 171.6 63.4402C170.68 63.4402 169.83 63.6102 169.05 63.9502C168.27 64.2902 167.59 64.7502 167.01 65.3302C166.43 65.9102 165.97 66.6002 165.63 67.4002C165.29 68.2002 165.12 69.0402 165.12 69.9202C165.12 70.8402 165.29 71.6902 165.63 72.4702C165.97 73.2502 166.43 73.9402 167.01 74.5402C167.59 75.1402 168.27 75.6102 169.05 75.9502C169.83 76.2902 170.68 76.4602 171.6 76.4602C172.48 76.4602 173.32 76.2902 174.12 75.9502C174.92 75.6102 175.62 75.1402 176.22 74.5402C176.82 73.9402 177.29 73.2502 177.63 72.4702C177.97 71.6902 178.14 70.8402 178.14 69.9202ZM166.98 47.7802C165.22 47.7802 163.58 47.4502 162.06 46.7902C160.54 46.1302 159.21 45.2302 158.07 44.0902C156.93 42.9502 156.03 41.6202 155.37 40.1002C154.71 38.5802 154.38 36.9602 154.38 35.2402C154.38 33.5202 154.71 31.8902 155.37 30.3502C156.03 28.8102 156.93 27.4802 158.07 26.3602C159.21 25.2402 160.54 24.3502 162.06 23.6902C163.58 23.0302 165.22 22.7002 166.98 22.7002C168.7 22.7002 170.32 23.0302 171.84 23.6902C173.36 24.3502 174.69 25.2402 175.83 26.3602C176.97 27.4802 177.87 28.8102 178.53 30.3502C179.19 31.8902 179.52 33.5202 179.52 35.2402C179.52 36.9602 179.19 38.5802 178.53 40.1002C177.87 41.6202 176.97 42.9502 175.83 44.0902C174.69 45.2302 173.36 46.1302 171.84 46.7902C170.32 47.4502 168.7 47.7802 166.98 47.7802ZM160.5 29.6602C159.82 29.6602 159.24 29.9002 158.76 30.3802C158.28 30.8602 158.04 31.4402 158.04 32.1202C158.04 32.8002 158.28 33.3802 158.76 33.8602C159.24 34.3402 159.82 34.5802 160.5 34.5802C161.18 34.5802 161.76 34.3402 162.24 33.8602C162.72 33.3802 162.96 32.8002 162.96 32.1202C162.96 31.4402 162.72 30.8602 162.24 30.3802C161.76 29.9002 161.18 29.6602 160.5 29.6602Z" fill="white"/>
<defs>
<linearGradient id="paint0_linear_446_250" x1="0" y1="50" x2="500" y2="50" gradientUnits="userSpaceOnUse">
<stop stop-color="#CFDBC4"/>
<stop offset="1" stop-color="#5187AA"/>
</linearGradient>
</defs>
</svg>
