<svg width="49" height="49" viewBox="0 0 49 49" fill="none" xmlns="http://www.w3.org/2000/svg">
<g clip-path="url(#clip0_868_203)">
<path d="M18.0288 48.9657C18.1897 48.9378 18.3367 48.8574 18.447 48.737L29.8623 37.3217C30.189 36.995 30.189 36.505 29.8623 36.1783C29.5357 35.8517 29.0457 35.8517 28.719 36.1783L18.6462 46.2511L18.6462 25.3167C18.6462 12.25 29.2629 1.63333 42.3296 1.63333C42.8196 1.63333 43.1462 1.30667 43.1462 0.816667C43.1462 0.326667 42.8212 -1.42076e-08 42.3312 -3.56262e-08C28.4479 -6.42486e-07 17.0145 11.4333 17.0145 25.3167L17.0145 46.0322L7.16064 36.1783C6.83397 35.8517 6.34397 35.8517 6.01731 36.1783C5.85398 36.3417 5.85398 36.6683 5.85398 36.8317L5.85398 37.3217L17.1174 48.5851C17.1839 48.7156 17.2866 48.8242 17.4132 48.8978C17.5398 48.9713 17.6849 49.0068 17.8312 49L17.8459 48.9967C17.908 48.9984 17.9668 48.9788 18.0288 48.9657Z" fill="#231F20"/>
</g>
<defs>
<clipPath id="clip0_868_203">
<rect width="49" height="49" fill="white" transform="translate(49) rotate(90)"/>
</clipPath>
</defs>
</svg>
