<svg width="300" height="75" viewBox="0 0 300 75" fill="none" xmlns="http://www.w3.org/2000/svg">
<rect width="300" height="75" rx="20" fill="url(#paint0_linear_446_246)"/>
<path d="M106.89 46.77H118.47V49.2H92.16V46.77H104.28V39.48H94.83V37.05H104.28V31.14H97.26C96.38 33.06 95.31 34.97 94.05 36.87L91.68 35.58C92.96 33.78 94.03 31.95 94.89 30.09C95.77 28.23 96.5 26.18 97.08 23.94L99.66 24.51C99.28 25.89 98.83 27.27 98.31 28.65H104.28V22.92H106.89V28.65H117.33V31.14H106.89V37.05H116.31V39.48H106.89V46.77ZM148.86 42.18C148.58 43.7 148.31 45 148.05 46.08C147.73 47.48 147.28 48.45 146.7 48.99C146.12 49.55 145.42 49.83 144.6 49.83C143.86 49.83 143.19 49.57 142.59 49.05C141.99 48.55 141.28 47.67 140.46 46.41C140.06 45.73 139.71 45.07 139.41 44.43C137.65 46.35 135.54 48.2 133.08 49.98L131.49 48.15C134.29 46.15 136.63 44.1 138.51 42C137.55 38.94 136.81 34.89 136.29 29.85H126.39V34.08H134.07C134.05 35.52 133.99 36.85 133.89 38.07C133.81 39.27 133.69 40.73 133.53 42.45C133.39 43.87 133.03 44.88 132.45 45.48C131.87 46.06 130.87 46.35 129.45 46.35C128.97 46.35 128.27 46.31 127.35 46.23L126.84 43.83C127.74 43.93 128.53 43.98 129.21 43.98C129.93 43.98 130.41 43.83 130.65 43.53C130.91 43.21 131.1 42.62 131.22 41.76C131.36 40.6 131.45 39.66 131.49 38.94C131.55 38.22 131.58 37.38 131.58 36.42H126.39C126.35 39.56 126.09 42.13 125.61 44.13C125.13 46.11 124.28 48.15 123.06 50.25L120.72 49.14C121.62 47.72 122.3 46.41 122.76 45.21C123.22 43.99 123.55 42.63 123.75 41.13C123.95 39.61 124.05 37.68 124.05 35.34V27.48H136.08L135.72 22.71H138.09C138.21 24.57 138.33 26.16 138.45 27.48H143.79C142.61 26.2 141.44 25.03 140.28 23.97L141.87 22.41C142.89 23.35 144.12 24.56 145.56 26.04L143.97 27.48H148.05V29.85H138.66C139.06 33.97 139.6 37.28 140.28 39.78C142 37.42 143.36 34.74 144.36 31.74L146.49 32.64C145.23 36.26 143.44 39.53 141.12 42.45C141.56 43.65 142.07 44.7 142.65 45.6C143.07 46.22 143.43 46.65 143.73 46.89C144.05 47.11 144.35 47.21 144.63 47.19C144.95 47.21 145.23 47.07 145.47 46.77C145.71 46.45 145.92 45.85 146.1 44.97C146.28 44.19 146.5 43.02 146.76 41.46L148.86 42.18ZM160.74 40.38L157.71 37.44V50.25H155.46V38.22C154.36 39.5 153.27 40.62 152.19 41.58L151.11 39.27C154.17 36.69 156.68 33.37 158.64 29.31H151.95V27.15H156.03C155.59 25.83 155.1 24.55 154.56 23.31L156.69 22.65C157.29 24.15 157.83 25.65 158.31 27.15H160.98V29.31C160.16 31.21 159.15 33.07 157.95 34.89L162.18 38.52L160.74 40.38ZM174.33 26.19H165.36V41.1H163.05V23.97H176.64V41.04H174.33V26.19ZM178.77 43.32L178.65 45.18C178.65 45.58 178.63 46.04 178.59 46.56C178.53 47.4 178.4 48.04 178.2 48.48C178 48.92 177.68 49.23 177.24 49.41C176.8 49.59 176.16 49.71 175.32 49.77C174.68 49.81 174.18 49.83 173.82 49.83C173.5 49.83 173 49.81 172.32 49.77C171.28 49.71 170.54 49.45 170.1 48.99C169.68 48.53 169.47 47.72 169.47 46.56V41.73C168.79 43.35 167.78 44.83 166.44 46.17C165.1 47.51 163.28 48.89 160.98 50.31L159.51 48.3C161.89 46.92 163.68 45.62 164.88 44.4C166.1 43.16 166.96 41.79 167.46 40.29C167.98 38.79 168.31 36.82 168.45 34.38C168.49 33.56 168.52 32.56 168.54 31.38C168.56 30.18 168.57 29.18 168.57 28.38H170.85L170.76 34.62C170.74 36.28 170.57 37.84 170.25 39.3H171.78V45.66C171.78 46.36 171.87 46.83 172.05 47.07C172.23 47.29 172.56 47.42 173.04 47.46C173.26 47.48 173.59 47.49 174.03 47.49C174.49 47.49 174.83 47.48 175.05 47.46C175.59 47.42 175.95 47.29 176.13 47.07C176.33 46.85 176.44 46.39 176.46 45.69L176.52 42.81L178.77 43.32ZM189.66 42.54H187.5V34.56H181.29V32.37H183.48V25.26H185.61V32.37H187.92V22.71H190.05V26.7H193.71V28.92H190.05V32.37H194.28V34.56H189.66V42.54ZM199.53 29.4C199.79 28.48 200.06 27.41 200.34 26.19H194.49V24.03H208.53V26.19H202.74L201.9 29.4H207.33V43.47H205.05V31.62H197.76V43.47H195.54V29.4H199.53ZM202.11 42.6C205.55 45.36 207.81 47.24 208.89 48.24L207.39 50.28C206.71 49.56 205.78 48.67 204.6 47.61C203.44 46.55 202.32 45.57 201.24 44.67C200.6 45.73 199.67 46.72 198.45 47.64C197.23 48.54 195.65 49.42 193.71 50.28L192.48 48.15C194.6 47.23 196.22 46.33 197.34 45.45C198.48 44.57 199.25 43.67 199.65 42.75C200.07 41.81 200.28 40.7 200.28 39.42V33.3H202.5V39.51C202.5 40.65 202.37 41.68 202.11 42.6ZM186.27 37.62C185.95 38.52 185.47 39.6 184.83 40.86C184.19 42.12 183.53 43.28 182.85 44.34L181.05 43.23C181.65 42.35 182.25 41.31 182.85 40.11C183.45 38.91 183.96 37.76 184.38 36.66L186.27 37.62ZM194.58 38.28C193.86 40.3 192.98 42.03 191.94 43.47C190.92 44.89 189.67 46.13 188.19 47.19C186.73 48.25 184.92 49.28 182.76 50.28L181.44 48.18C183.7 47.14 185.51 46.15 186.87 45.21C188.23 44.27 189.35 43.19 190.23 41.97C191.13 40.75 191.93 39.21 192.63 37.35L194.58 38.28Z" fill="white"/>
<defs>
<linearGradient id="paint0_linear_446_246" x1="0" y1="37.5" x2="300" y2="37.5" gradientUnits="userSpaceOnUse">
<stop stop-color="#BACBA9"/>
<stop offset="1" stop-color="#5187AB"/>
</linearGradient>
</defs>
</svg>
