<svg width="300" height="75" viewBox="0 0 300 75" fill="none" xmlns="http://www.w3.org/2000/svg">
<rect width="300" height="75" rx="20" fill="#995CFE"/>
<path d="M118.71 30.24H106.2V32.25H115.38V41.58H106.2V43.56H116.4V45.36H106.2V47.34H118.32V49.26H91.74V47.34H103.86V45.36H93.69V43.56H103.86V41.58H94.71V32.25H103.86V30.24H91.38V28.38H103.86V26.16C99.58 26.34 96.24 26.44 93.84 26.46L93.72 24.36C96.9 24.32 100.69 24.21 105.09 24.03C109.49 23.85 113.08 23.66 115.86 23.46L116.19 25.53C114.25 25.67 110.92 25.85 106.2 26.07V28.38H118.71V30.24ZM103.86 36.03V34.11H97.05V36.03H103.86ZM113.01 36.03V34.11H106.2V36.03H113.01ZM97.05 37.8V39.72H103.86V37.8H97.05ZM106.2 37.8V39.72H113.01V37.8H106.2ZM135.36 39.78H129.99V47.16C129.99 47.92 129.91 48.5 129.75 48.9C129.59 49.3 129.32 49.58 128.94 49.74C128.56 49.92 128.01 50.03 127.29 50.07C126.37 50.07 125.58 50.02 124.92 49.92L124.47 47.76C124.79 47.8 125.03 47.82 125.19 47.82C125.83 47.9 126.3 47.94 126.6 47.94C127.12 47.94 127.44 47.83 127.56 47.61C127.68 47.37 127.74 46.87 127.74 46.11V39.78H121.8V37.71H127.74V34.44H121.38V32.31H125.1C124.76 30.47 124.44 29 124.14 27.9H122.13V25.8H127.92L127.02 23.82L126.69 23.1L128.88 22.44L130.38 25.8H135.39V27.9H133.47C133.21 29.1 132.83 30.57 132.33 32.31H135.78V34.44H129.99V37.71H135.36V39.78ZM148.74 32.67V34.92H145.5V50.07H143.22V34.92H139.32V35.49C139.32 38.11 139.22 40.23 139.02 41.85C138.84 43.47 138.49 44.95 137.97 46.29C137.45 47.63 136.66 49.06 135.6 50.58L133.53 49.11C134.53 47.83 135.28 46.59 135.78 45.39C136.28 44.17 136.62 42.78 136.8 41.22C137 39.64 137.1 37.57 137.1 35.01V25.71C138.9 25.53 140.71 25.25 142.53 24.87C144.37 24.47 145.94 24.03 147.24 23.55L147.99 25.71C146.89 26.11 145.54 26.5 143.94 26.88C142.34 27.24 140.8 27.51 139.32 27.69V32.67H148.74ZM126.18 27.9C126.52 29.26 126.84 30.73 127.14 32.31H130.23C130.59 31.07 130.96 29.6 131.34 27.9H126.18ZM133.02 40.95C133.18 41.31 133.75 42.73 134.73 45.21L135 45.9L133.02 46.74C132.84 46.14 132.56 45.33 132.18 44.31C131.8 43.29 131.46 42.4 131.16 41.64L133.02 40.95ZM126.06 41.55C125.64 42.85 125.15 44.15 124.59 45.45C124.03 46.75 123.47 47.85 122.91 48.75L121.08 47.82C122.12 46.24 123.13 43.97 124.11 41.01L126.06 41.55ZM164.85 36.3C164.89 36.06 164.91 35.88 164.91 35.76H159.84V33.63H167.73V29.25H163.47C163.05 30.39 162.6 31.41 162.12 32.31L159.87 31.38C160.51 30.24 161.04 29.09 161.46 27.93C161.9 26.75 162.3 25.41 162.66 23.91L164.91 24.36C164.61 25.52 164.36 26.45 164.16 27.15H167.73V22.77H170.01V27.15H176.73V29.25H170.01V33.63H177.93V35.76H172.17V41.67C172.17 42.23 172.24 42.62 172.38 42.84C172.54 43.06 172.82 43.19 173.22 43.23C173.42 43.25 173.71 43.26 174.09 43.26C174.47 43.26 174.75 43.25 174.93 43.23C175.41 43.19 175.73 43.07 175.89 42.87C176.05 42.65 176.14 42.22 176.16 41.58C176.22 40.14 176.25 39.32 176.25 39.12L178.35 39.6L178.29 41.73L178.26 42.42C178.24 43.2 178.13 43.78 177.93 44.16C177.73 44.54 177.43 44.81 177.03 44.97C176.63 45.11 176.04 45.22 175.26 45.3C174.66 45.34 174.2 45.36 173.88 45.36C173.58 45.36 173.11 45.34 172.47 45.3C171.57 45.22 170.92 44.97 170.52 44.55C170.14 44.11 169.95 43.32 169.95 42.18V35.76H167.19C167.19 35.9 167.17 36.09 167.13 36.33C166.95 37.69 166.67 38.85 166.29 39.81C165.93 40.75 165.37 41.67 164.61 42.57C163.85 43.47 162.78 44.44 161.4 45.48L159.9 43.68C161.1 42.82 162.02 42.06 162.66 41.4C163.3 40.74 163.78 40.03 164.1 39.27C164.42 38.49 164.67 37.5 164.85 36.3ZM156.75 30.39C156.29 29.73 155.58 28.81 154.62 27.63C153.68 26.45 152.93 25.54 152.37 24.9L154.08 23.4C154.64 24 155.38 24.85 156.3 25.95C157.22 27.05 157.99 28 158.61 28.8L156.75 30.39ZM165.9 47.4C167.9 47.5 169.69 47.55 171.27 47.55C173.37 47.55 175.85 47.48 178.71 47.34L178.17 49.71C176.25 49.79 174.12 49.83 171.78 49.83C169.32 49.83 167.23 49.78 165.51 49.68C164.05 49.6 162.83 49.43 161.85 49.17C160.87 48.91 159.98 48.52 159.18 48C158.4 47.48 157.57 46.75 156.69 45.81L152.97 49.83L151.35 47.97L155.52 43.86V35.4H151.56V33.21H157.77V43.68C158.51 44.6 159.24 45.31 159.96 45.81C160.68 46.31 161.5 46.68 162.42 46.92C163.34 47.16 164.5 47.32 165.9 47.4ZM190.74 36.33C190.06 36.57 188.96 37.01 187.44 37.65V46.41C187.44 47.33 187.35 48.01 187.17 48.45C186.99 48.91 186.69 49.22 186.27 49.38C185.85 49.56 185.23 49.65 184.41 49.65C183.93 49.65 183.23 49.61 182.31 49.53L181.8 47.28C182.58 47.4 183.37 47.46 184.17 47.46C184.57 47.46 184.84 47.33 184.98 47.07C185.14 46.81 185.22 46.35 185.22 45.69V38.58L181.68 40.08L181.11 37.74L185.22 36.09V30.6H181.71V28.32H185.22V22.98H187.44V28.32H190.62V30.6H187.44V35.16L190.2 33.93L190.74 36.33ZM191.1 34.56C193.66 33.78 195.91 32.89 197.85 31.89C196.25 30.53 194.8 28.74 193.5 26.52H192.36V24.36H206.64V26.52C206.02 27.64 205.32 28.65 204.54 29.55C203.76 30.43 202.85 31.25 201.81 32.01C203.55 32.91 205.84 33.74 208.68 34.5L207.87 36.6C204.51 35.66 201.82 34.56 199.8 33.3C197.86 34.38 195.23 35.47 191.91 36.57L191.1 34.56ZM195.87 26.52C197.07 28.28 198.37 29.69 199.77 30.75C201.57 29.57 202.99 28.16 204.03 26.52H195.87ZM207.33 40.23H200.67V43.41H208.62V45.54H200.67V50.19H198.42V45.54H190.44V43.41H198.42V40.23H191.73V38.16H198.42V35.25H200.67V38.16H207.33V40.23Z" fill="white"/>
</svg>
