<svg width="356" height="29" viewBox="0 0 356 29" fill="none" xmlns="http://www.w3.org/2000/svg">
            <path d="M18.77 8.72V11.09H27.77V12.38H8.54V11.09H17.3V8.72H10.4V7.43H17.3V5.18H9.5V3.83H17.3V0.949999H18.77V3.83H26.84V5.18H18.77V7.43H26.12V8.72H18.77ZM6.2 8.06C5.64 7.18 5.02 6.24 4.34 5.24C3.66 4.24 3.04 3.34 2.48 2.54L3.77 1.73C5.37 3.93 6.65 5.75 7.61 7.19L6.2 8.06ZM5.75 24.05L8.84 21.2L9.5 22.61C9.3 22.77 9.1 22.95 8.9 23.15C8.58 23.43 8.04 23.89 7.28 24.53C6.54 25.17 6.02 25.64 5.72 25.94C5.36 26.24 4.98 26.63 4.58 27.11L3.62 25.97C3.86 25.69 4.02 25.46 4.1 25.28C4.18 25.1 4.22 24.88 4.22 24.62V12.29H0.35V10.79H5.75V24.05ZM11.09 27.89V14.57H24.98V24.95C24.98 25.99 24.78 26.73 24.38 27.17C23.98 27.61 23.29 27.83 22.31 27.83C21.45 27.83 20.42 27.76 19.22 27.62L18.98 26.3C20.04 26.44 21.01 26.52 21.89 26.54C22.53 26.54 22.96 26.39 23.18 26.09C23.4 25.81 23.51 25.35 23.51 24.71V23.39H12.59V27.89H11.09ZM23.51 18.35V15.89H12.59V18.35H23.51ZM12.59 19.64V22.16H23.51V19.64H12.59ZM42.86 7.37C42.04 8.05 41.16 8.7 40.22 9.32L39.35 8.12C40.81 7.16 42.23 6.01 43.61 4.67C45.01 3.31 46.17 1.95 47.09 0.589998L48.47 1.31C47.81 2.29 47.11 3.19 46.37 4.01H56.57V5.57C54.89 7.85 52.8 9.72 50.3 11.18C47.82 12.64 44.59 13.86 40.61 14.84L40.04 13.46C43.62 12.64 46.56 11.59 48.86 10.31C51.18 9.01 53.16 7.35 54.8 5.33H45.11L43.97 6.41C44.17 6.57 44.45 6.81 44.81 7.13C46.33 8.39 47.32 9.24 47.78 9.68L46.67 10.7C46.03 10.08 44.76 8.97 42.86 7.37ZM36.5 1.01H38V28.13H36.5V16.4L35.78 17.03C33.32 19.19 31.68 20.64 30.86 21.38L30.05 19.94C30.53 19.5 31.4 18.76 32.66 17.72C34.4 16.28 35.68 15.19 36.5 14.45V1.01ZM33.95 13.01C33.23 11.09 32.18 8.45 30.8 5.09L32.21 4.52C33.63 7.86 34.69 10.49 35.39 12.41L33.95 13.01ZM57.62 16.37V17.84H53.81V24.23C53.81 25.23 53.69 25.98 53.45 26.48C53.23 26.98 52.84 27.32 52.28 27.5C51.72 27.7 50.89 27.8 49.79 27.8C48.91 27.8 48.02 27.74 47.12 27.62L46.82 26.09C48.06 26.25 48.99 26.33 49.61 26.33C50.39 26.33 50.96 26.27 51.32 26.15C51.68 26.05 51.92 25.84 52.04 25.52C52.18 25.18 52.25 24.65 52.25 23.93V17.84H39.83V16.37H52.25V12.2H53.81V16.37H57.62ZM43.31 18.71C45.13 20.53 46.54 21.99 47.54 23.09L46.4 24.23C45 22.65 43.61 21.17 42.23 19.79L43.31 18.71ZM73.91 11.48V25.13H87.41V26.69H60.53V25.13H72.26V0.829999H73.91V9.89H85.52V11.48H73.91ZM104.78 18.77H117.44V20.3H104.78V28.04H103.19V20.3H90.56V18.77H103.19V13.61H91.91V12.08H103.19V0.829999H104.78V12.08H116.12V13.61H104.78V18.77ZM98.78 10.07C97.18 7.99 95.25 5.78 92.99 3.44L94.19 2.39C96.47 4.71 98.42 6.91 100.04 8.99L98.78 10.07ZM114.95 3.41C114.23 4.35 113.3 5.47 112.16 6.77C111.02 8.05 109.99 9.16 109.07 10.1L107.87 9.08C108.79 8.14 109.82 7.02 110.96 5.72C112.1 4.4 113 3.3 113.66 2.42L114.95 3.41ZM147.5 13.82C146.16 15.4 144.57 16.86 142.73 18.2V24.05C142.73 25.41 142.46 26.37 141.92 26.93C141.4 27.51 140.5 27.81 139.22 27.83C137.44 27.83 135.78 27.76 134.24 27.62L133.97 26.06C135.87 26.24 137.45 26.33 138.71 26.33C139.61 26.33 140.24 26.13 140.6 25.73C140.96 25.31 141.14 24.59 141.14 23.57V19.31C135.96 22.73 129.14 25.44 120.68 27.44L120.17 25.88C127.79 24.26 134.06 21.95 138.98 18.95H120.77V17.54H125.06V4.01H130.61C131.35 2.71 131.92 1.58 132.32 0.62L133.97 1.01C133.69 1.69 133.2 2.69 132.5 4.01H142.73V16.34C144.17 15.18 145.42 14 146.48 12.8L147.5 13.82ZM141.14 8.54V5.42H126.65V8.54H141.14ZM126.65 13.07H141.14V9.92H126.65V13.07ZM141.14 14.42H126.65V17.54H141.14V14.42ZM158.75 10.13C159.77 8.89 160.73 7.4 161.63 5.66C162.55 3.92 163.28 2.22 163.82 0.559999L165.32 1.1C164.82 2.54 164.33 3.76 163.85 4.76H177.26V6.26H163.1C162.1 8.2 161.03 9.9 159.89 11.36L158.75 10.13ZM158.87 14.75L156.08 15.65V24.86C156.08 25.96 155.88 26.71 155.48 27.11C155.08 27.53 154.32 27.75 153.2 27.77C152.26 27.77 151.48 27.71 150.86 27.59L150.56 26.09C151.28 26.23 152.08 26.3 152.96 26.3C153.6 26.3 154.03 26.16 154.25 25.88C154.49 25.58 154.61 25.07 154.61 24.35V16.16L150.44 17.51L150.17 15.98C151.53 15.62 153.01 15.16 154.61 14.6V8.24H150.68V6.74H154.61V0.799999H156.08V6.74H159.08V8.24H156.08V14.12L158.69 13.19L158.87 14.75ZM177.44 21.2C177.44 21.88 177.39 22.85 177.29 24.11C177.23 24.99 177.08 25.66 176.84 26.12C176.62 26.6 176.23 26.96 175.67 27.2C175.13 27.44 174.34 27.61 173.3 27.71C171.9 27.85 170.5 27.92 169.1 27.92C167.7 27.92 166.3 27.85 164.9 27.71C163.98 27.63 163.29 27.46 162.83 27.2C162.37 26.96 162.04 26.56 161.84 26C161.66 25.44 161.57 24.6 161.57 23.48V16.01L159.44 16.64L159.17 15.29L161.57 14.57V10.64H162.98V14.15L167.48 12.83V7.79H168.92V12.41L175.88 10.34C175.88 11.62 175.83 13.11 175.73 14.81C175.63 16.49 175.51 17.78 175.37 18.68C175.25 19.44 175.09 20 174.89 20.36C174.71 20.72 174.41 20.97 173.99 21.11C173.59 21.25 172.98 21.32 172.16 21.32C171.62 21.32 171.03 21.27 170.39 21.17L170.12 19.7C170.88 19.86 171.58 19.94 172.22 19.94C172.82 19.94 173.23 19.81 173.45 19.55C173.69 19.29 173.87 18.77 173.99 17.99C174.23 16.13 174.35 14.21 174.35 12.23L168.92 13.85V23.69H167.48V14.27L162.98 15.59V23.09C162.98 23.93 163.04 24.55 163.16 24.95C163.28 25.35 163.5 25.64 163.82 25.82C164.16 26 164.68 26.13 165.38 26.21C166.66 26.35 167.93 26.42 169.19 26.42C170.45 26.42 171.72 26.35 173 26.21C173.82 26.13 174.42 26.01 174.8 25.85C175.18 25.67 175.45 25.41 175.61 25.07C175.77 24.71 175.87 24.17 175.91 23.45L176.03 20.87L177.44 21.2ZM206.51 6.71C206.47 13.65 206.24 19.3 205.82 23.66C205.74 24.6 205.59 25.32 205.37 25.82C205.17 26.3 204.84 26.65 204.38 26.87C203.92 27.09 203.26 27.21 202.4 27.23C201.12 27.23 199.88 27.16 198.68 27.02L198.41 25.43C199.77 25.63 200.94 25.73 201.92 25.73C202.54 25.73 203 25.66 203.3 25.52C203.62 25.36 203.85 25.09 203.99 24.71C204.15 24.33 204.27 23.74 204.35 22.94C204.71 19.2 204.91 14.3 204.95 8.24H199.76C199.74 8.36 199.73 8.54 199.73 8.78C199.55 12.52 199.28 15.44 198.92 17.54C198.56 19.64 197.98 21.48 197.18 23.06C196.4 24.64 195.2 26.39 193.58 28.31L192.26 27.29C193.8 25.53 194.95 23.94 195.71 22.52C196.47 21.1 197.03 19.37 197.39 17.33C197.77 15.29 198.03 12.47 198.17 8.87L198.2 8.24H193.91V6.71H198.23L198.38 0.739998H199.94L199.79 6.71H206.51ZM181.97 3.41H192.74V4.88H181.97V3.41ZM192.41 24.68C192.27 24.22 192.04 23.57 191.72 22.73L189.35 23.24C186.49 23.86 184.16 24.34 182.36 24.68L181.16 24.95L180.62 23.33C180.94 23.21 181.18 23.09 181.34 22.97C181.5 22.83 181.63 22.66 181.73 22.46C182.33 21.4 183 19.93 183.74 18.05C184.5 16.15 185.15 14.36 185.69 12.68H180.59V11.15H193.73V12.68H187.28C186.8 14.28 186.16 16.09 185.36 18.11C184.58 20.13 183.87 21.73 183.23 22.91C185.97 22.41 188.62 21.89 191.18 21.35C190.48 19.53 189.72 17.78 188.9 16.1L190.28 15.56C190.76 16.58 191.36 17.95 192.08 19.67C192.8 21.37 193.37 22.79 193.79 23.93L192.41 24.68ZM232.88 12.98V26.09H237.59V27.41H210.44V26.09H215.12V12.98H223.01L223.16 10.91H211.58V9.74H223.22L223.37 7.58H212.69V2.39H235.34V7.58H224.9L224.75 9.74H236.42V10.91H224.69L224.54 12.98H232.88ZM219.77 3.53H214.22V6.47H219.77V3.53ZM221.18 3.53V6.47H226.73V3.53H221.18ZM228.14 6.47H233.81V3.53H228.14V6.47ZM231.35 16.43V14.12H216.65V16.43H231.35ZM216.65 19.61H231.35V17.45H216.65V19.61ZM231.35 22.88V20.66H216.65V22.88H231.35ZM231.35 23.99H216.65V26.09H231.35V23.99ZM267.47 12.38V13.94H255.26V23.84C255.26 25.18 254.98 26.13 254.42 26.69C253.86 27.25 252.88 27.54 251.48 27.56C250.06 27.6 248.72 27.53 247.46 27.35L247.13 25.76C248.53 25.94 249.71 26.03 250.67 26.03C251.49 26.03 252.1 25.96 252.5 25.82C252.9 25.68 253.17 25.43 253.31 25.07C253.47 24.71 253.55 24.16 253.55 23.42V13.94H240.47V12.38H253.55V4.52H242.78V2.96H265.19V4.52H255.26V12.38H267.47ZM278.66 21.89C280.2 20.55 281.37 19.3 282.17 18.14C282.99 16.96 283.6 15.58 284 14C284.4 12.4 284.67 10.3 284.81 7.7H279.59V6.14H284.9C285 3.54 285.06 1.77 285.08 0.829999H286.67C286.57 3.39 286.49 5.16 286.43 6.14H295.34C295.32 7.86 295.22 9.98 295.04 12.5C294.88 15 294.7 16.98 294.5 18.44C294.34 19.6 294.12 20.47 293.84 21.05C293.58 21.61 293.15 22.01 292.55 22.25C291.97 22.47 291.09 22.58 289.91 22.58C288.61 22.58 287.4 22.51 286.28 22.37L285.95 20.75C287.59 20.95 288.83 21.05 289.67 21.05C290.51 21.05 291.13 20.98 291.53 20.84C291.93 20.7 292.22 20.42 292.4 20C292.6 19.56 292.76 18.87 292.88 17.93C293.08 16.55 293.24 14.92 293.36 13.04C293.5 11.14 293.59 9.36 293.63 7.7H286.37C286.19 10.5 285.88 12.78 285.44 14.54C285 16.28 284.35 17.8 283.49 19.1C282.65 20.38 281.45 21.72 279.89 23.12L278.66 21.89ZM276.2 8.03C275.58 7.21 274.19 5.44 272.03 2.72L273.29 1.73L277.46 6.95L276.2 8.03ZM284.81 25.64C287.01 25.82 289.18 25.91 291.32 25.91C293.48 25.91 295.63 25.82 297.77 25.64L297.44 27.23C295.34 27.41 293.23 27.5 291.11 27.5C288.99 27.5 286.86 27.41 284.72 27.23C282.96 27.07 281.51 26.85 280.37 26.57C279.25 26.31 278.26 25.9 277.4 25.34C276.56 24.76 275.8 23.96 275.12 22.94C274.62 23.48 273.67 24.58 272.27 26.24L271.04 27.68L270.11 26.18L274.37 21.41V13.07H270.53V11.48H275.99V21.38C276.55 22.4 277.21 23.2 277.97 23.78C278.75 24.34 279.67 24.76 280.73 25.04C281.81 25.32 283.17 25.52 284.81 25.64ZM305.87 8.39V10.52C306.51 11.26 307.27 12.16 308.15 13.22C309.03 14.28 309.7 15.11 310.16 15.71L309.41 17.09C309.27 16.89 309.09 16.66 308.87 16.4C308.67 16.14 308.45 15.84 308.21 15.5C306.89 13.76 306.11 12.74 305.87 12.44V28.1H304.4V11.93C303.36 15.17 302.07 18.03 300.53 20.51L299.57 19.22C300.57 17.6 301.48 15.85 302.3 13.97C303.12 12.09 303.78 10.23 304.28 8.39H300.38V6.89H304.4V0.859998H305.87V6.89H309.5V8.39H305.87ZM312.8 4.25V25.52H327.38V27.02H311.27V2.72H327.14V4.25H312.8ZM314.15 21.83V20.39H319.67V15.32H314.96V13.88H319.67V9.23H314.54V7.82H326.3V9.23H321.14V13.88H325.82V15.32H321.14V20.39H326.72V21.83H314.15ZM355.04 5.84V24.14C355.04 25.1 354.94 25.82 354.74 26.3C354.54 26.78 354.19 27.11 353.69 27.29C353.21 27.47 352.48 27.57 351.5 27.59C350.3 27.59 349.08 27.53 347.84 27.41L347.57 25.82C348.79 25.98 349.92 26.06 350.96 26.06C351.72 26.06 352.27 26.01 352.61 25.91C352.95 25.79 353.18 25.57 353.3 25.25C353.42 24.91 353.48 24.38 353.48 23.66V7.4H344.81V7.7C344.81 9.24 344.65 10.64 344.33 11.9C345.41 12.9 346.79 14.23 348.47 15.89C350.15 17.53 351.46 18.85 352.4 19.85L351.26 21.08C350.3 20.02 349.08 18.74 347.6 17.24C346.14 15.72 344.88 14.46 343.82 13.46C343.24 14.86 342.36 16.21 341.18 17.51C340 18.79 338.41 20.16 336.41 21.62L335.36 20.24C337.44 18.78 339.04 17.43 340.16 16.19C341.28 14.95 342.06 13.67 342.5 12.35C342.96 11.01 343.19 9.43 343.19 7.61V7.4H334.52V27.92H332.93V5.84H343.19V0.949999H344.81V5.84H355.04Z" fill="#818286"/>
          </svg>