<svg width="686" height="417" viewBox="0 0 686 417" fill="none" xmlns="http://www.w3.org/2000/svg">
<rect width="686" height="417" rx="20" fill="url(#paint0_linear_358_271)"/>
<circle cx="17.5" cy="17.5" r="17.5" transform="matrix(-1 0 0 1 55 20)" fill="#5187AB"/>
<g clip-path="url(#clip0_358_271)">
<path d="M36.3283 36.0749C36.3283 36.6208 36.5452 37.1444 36.9312 37.5304C37.3172 37.9164 37.8408 38.1333 38.3867 38.1333C38.9326 38.1333 39.4561 37.9164 39.8421 37.5304C40.2281 37.1444 40.445 36.6208 40.445 36.0749C40.445 35.529 40.2281 35.0055 39.8421 34.6195C39.4561 34.2335 38.9326 34.0166 38.3867 34.0166C37.8408 34.0166 37.3172 34.2335 36.9312 34.6195C36.5452 35.0055 36.3283 35.529 36.3283 36.0749Z" fill="#BACBA9"/>
<path d="M39.4633 40.4134L40.2867 41.205L40.0967 42.3134L41.11 41.8067L42.0917 42.3134L41.9017 41.205L42.725 40.4134L41.585 40.255L41.11 39.2417L40.6033 40.255L39.4633 40.4134Z" fill="white"/>
<path d="M34.2067 28.6016C31.1983 28.6332 28.7283 31.2932 28.6967 34.2699H28.665L28.6333 46.3666L40.73 46.3982C43.7067 46.3349 46.2717 43.8966 46.335 40.9199L46.3667 28.6332L34.2067 28.6016ZM45.29 40.8249V40.8882C45.2583 43.2632 43.1367 45.2899 40.73 45.3532H40.6983L29.6783 45.3216L29.71 34.4599C29.71 34.3966 29.71 34.3649 29.7417 34.3016C29.7733 31.7999 31.8317 29.6782 34.2067 29.6466H34.2383L45.3217 29.6782L45.29 40.8249Z" fill="white"/>
<path d="M35.6317 38.2283C34.27 38.925 33.2883 40.3183 33.2883 41.965C33.2883 42.25 33.51 42.5033 33.795 42.5033C34.08 42.5033 34.3333 42.25 34.3333 41.965C34.3333 40.2233 35.7267 38.83 37.4683 38.83C38.1967 38.83 38.8933 39.0833 39.4633 39.5583C39.685 39.7483 40.0017 39.7167 40.1917 39.495C40.3817 39.2733 40.35 38.9567 40.1283 38.7667C39.875 38.5767 39.6217 38.3867 39.3367 38.26C40.16 37.69 40.6983 36.74 40.6983 35.6633C40.6983 33.8583 39.2417 32.4333 37.5 32.4333C35.7267 32.4333 34.3017 33.8583 34.3017 35.6317C34.3017 36.7083 34.8083 37.6583 35.6317 38.2283ZM37.5 33.4783C38.7033 33.4783 39.6533 34.46 39.6533 35.6317C39.6533 36.835 38.6717 37.785 37.5 37.785C36.2967 37.785 35.3467 36.8033 35.3467 35.6317C35.3467 34.4283 36.2967 33.4783 37.5 33.4783Z" fill="white"/>
</g>
<path d="M67.744 31.18V24.936H90.452V31.068H87.764V27.4H70.292V31.18H67.744ZM74.324 33.308L73.932 36.304H89.164C89.0707 39.328 88.9027 42.016 88.66 44.368C88.5293 45.488 88.3053 46.356 87.988 46.972C87.6893 47.588 87.204 48.0453 86.532 48.344C85.8787 48.6427 84.964 48.792 83.788 48.792C82.2013 48.792 80.82 48.7453 79.644 48.652L79.14 46.188C80.4653 46.356 81.8 46.44 83.144 46.44C84.1333 46.44 84.824 46.272 85.216 45.936C85.608 45.6 85.8787 44.9747 86.028 44.06C86.252 42.5107 86.4013 40.7373 86.476 38.74H70.992L72.252 28.604H74.94L74.632 30.928H86.756V33.308H74.324ZM66.82 41.512H84.096V43.948H66.82V41.512ZM115.82 29.332V42.1H119.656V44.144H94.288V42.1H98.152V29.332H105.684V27.708H95.044V25.636H105.684V23.536H108.288V25.636H118.9V27.708H108.288V29.332H115.82ZM113.272 32.692V31.18H100.7V32.692H113.272ZM100.7 35.856H113.272V34.428H100.7V35.856ZM113.272 38.992V37.564H100.7V38.992H113.272ZM113.272 40.672H100.7V42.1H113.272V40.672ZM94.624 47.308C97.7227 46.5053 100.532 45.46 103.052 44.172L104.144 46.272C101.643 47.4667 98.7773 48.568 95.548 49.576L94.624 47.308ZM110.528 44.228C111.704 44.6013 113.16 45.096 114.896 45.712C116.651 46.3093 118.06 46.8133 119.124 47.224L118.088 49.38C114.691 47.9987 111.881 46.972 109.66 46.3L110.528 44.228ZM122.848 35.828C126.32 34.7453 129.129 33.42 131.276 31.852H123.38V29.612H133.656V23.676H136.288V29.612H146.592V31.852H136.792C141.981 33.7747 145.369 35.1093 146.956 35.856L146.06 38.124C145.033 37.62 143.559 36.948 141.636 36.108C139.713 35.268 137.931 34.5213 136.288 33.868V36.584H133.656V32.636C132.368 33.812 130.987 34.8293 129.512 35.688C128.056 36.5467 126.208 37.4053 123.968 38.264L122.848 35.828ZM129.96 29.584C129.064 28.856 127.431 27.6333 125.06 25.916L126.516 24.068L127.076 24.46C128.924 25.6733 130.399 26.7187 131.5 27.596L129.96 29.584ZM145.024 25.972C144.184 26.644 142.495 27.8387 139.956 29.556L138.444 27.652C139.209 27.1667 140.068 26.5787 141.02 25.888C141.991 25.1973 142.775 24.6 143.372 24.096L145.024 25.972ZM136.736 41.54C138.64 44.0227 142.261 45.7213 147.6 46.636L146.732 49.324C143.82 48.6147 141.412 47.8027 139.508 46.888C137.623 45.9733 136.176 44.8813 135.168 43.612C134.309 44.844 132.919 45.88 130.996 46.72C129.073 47.56 126.432 48.372 123.072 49.156L122.232 46.524C125.331 45.9827 127.767 45.3013 129.54 44.48C131.332 43.6587 132.527 42.6787 133.124 41.54H123.268V39.3H133.6V37.732H136.344V39.3H146.732V41.54H136.736Z" fill="black"/>
<defs>
<linearGradient id="paint0_linear_358_271" x1="343" y1="0" x2="343" y2="417" gradientUnits="userSpaceOnUse">
<stop stop-color="#A9E1FF"/>
<stop offset="1" stop-color="#A9E1FF" stop-opacity="0.1"/>
</linearGradient>
<clipPath id="clip0_358_271">
<rect width="19" height="19" fill="white" transform="translate(28 28)"/>
</clipPath>
</defs>
</svg>
