<svg width="600" height="60" viewBox="0 0 600 60" fill="none" xmlns="http://www.w3.org/2000/svg">
<rect width="600" height="60" rx="20" fill="url(#paint0_linear_128_213)"/>
<path d="M269.62 20.404V22.672H246.464V20.404H257.636C256.908 18.5187 256.348 17.1747 255.956 16.372L258.336 15.7C258.915 16.9507 259.559 18.5187 260.268 20.404H269.62ZM270.432 37.904V40.172H245.624V37.904H258.84C259.605 36.112 260.52 33.8067 261.584 30.988C262.648 28.1693 263.488 25.8267 264.104 23.96L266.428 24.8C265.775 26.704 264.953 28.944 263.964 31.52C262.975 34.096 262.116 36.224 261.388 37.904H270.432ZM253.688 36.112C253.221 34.6747 252.577 32.864 251.756 30.68C250.953 28.4773 250.244 26.6293 249.628 25.136L251.812 24.296C252.335 25.528 253.035 27.2827 253.912 29.56C254.789 31.8187 255.48 33.676 255.984 35.132L253.688 36.112ZM282.696 31.128C283.2 31.9493 283.835 33.1347 284.6 34.684C285.384 36.2333 286.065 37.624 286.644 38.856L284.656 39.752C284.339 39.0053 283.853 37.9507 283.2 36.588C280.456 37.764 278.347 38.6973 276.872 39.388L275.164 40.2L274.016 38.324C274.371 38.0253 274.613 37.764 274.744 37.54C274.893 37.316 274.968 37.0453 274.968 36.728V17.128H285.216V30.232H276.984V37.008L282.248 34.656C282.005 34.152 281.548 33.256 280.876 31.968L282.696 31.128ZM288.1 17.408H297.144V34.068C297.144 35.2627 296.948 36.1213 296.556 36.644C296.164 37.1667 295.511 37.428 294.596 37.428C293.513 37.428 292.571 37.3813 291.768 37.288L291.348 35.02C292.151 35.1693 292.925 35.244 293.672 35.244C294.176 35.244 294.521 35.0853 294.708 34.768C294.895 34.432 294.988 33.9187 294.988 33.228V19.676H290.228V41.404H288.1V17.408ZM283.144 22.588V19.116H276.984V22.588H283.144ZM276.984 24.548V28.244H283.144V24.548H276.984ZM310.5 21.944V25.248H316.716V27.32H310.5V30.148H315.82V37.288C315.82 38.1093 315.633 38.7253 315.26 39.136C314.905 39.5467 314.327 39.752 313.524 39.752C313.076 39.752 312.423 39.696 311.564 39.584L311.172 37.708C311.34 37.7267 311.601 37.764 311.956 37.82C312.311 37.8573 312.628 37.876 312.908 37.876C313.244 37.876 313.477 37.792 313.608 37.624C313.757 37.456 313.832 37.1573 313.832 36.728V32.192H310.5V41.796H308.4V32.192H304.984V39.92H302.996V30.148H308.4V27.32H301.484V25.248H308.4V21.944H304.956C304.62 22.8213 304.275 23.6053 303.92 24.296L301.96 23.652C302.987 21.4307 303.715 19.2467 304.144 17.1L306.216 17.436C306.085 18.1267 305.88 18.948 305.6 19.9H308.4V16.176H310.5V19.9H316.128V21.944H310.5ZM323.296 16.512H325.396V37.988C325.396 39.22 325.153 40.1067 324.668 40.648C324.183 41.208 323.324 41.488 322.092 41.488C321.215 41.488 320.104 41.404 318.76 41.236L318.312 39.08C319.619 39.2853 320.673 39.388 321.476 39.388C322.129 39.388 322.596 39.2013 322.876 38.828C323.156 38.4547 323.296 37.8947 323.296 37.148V16.512ZM318.396 18.808H320.496V35.664H318.396V18.808ZM354.236 22.364H345.5V26.76H352.864V29.028H345.5V33.424H353.452V35.72H345.5V41.628H343.288V22.364H341.72C340.488 24.716 339.097 26.8627 337.548 28.804L336.008 26.9C337.24 25.4253 338.36 23.7547 339.368 21.888C340.395 20.0027 341.263 18.0147 341.972 15.924L344.156 16.568C343.708 17.8747 343.251 19.0507 342.784 20.096H354.236V22.364ZM337.324 17.016C336.615 19.1253 335.849 21.048 335.028 22.784V41.46H332.76V26.9C331.976 28.1507 331.043 29.448 329.96 30.792L328.868 28.384C330.025 26.928 331.155 25.136 332.256 23.008C333.357 20.88 334.291 18.6493 335.056 16.316L337.324 17.016Z" fill="white"/>
<defs>
<linearGradient id="paint0_linear_128_213" x1="0" y1="30" x2="600" y2="30" gradientUnits="userSpaceOnUse">
<stop stop-color="#E184FE"/>
<stop offset="1" stop-color="#AB6CFF"/>
</linearGradient>
</defs>
</svg>
