<svg width="158" height="56" viewBox="0 0 158 56" fill="none" xmlns="http://www.w3.org/2000/svg">
<g filter="url(#filter0_d_981_261)">
<rect x="4" width="150" height="48" rx="24" fill="#84D1FC" shape-rendering="crispEdges"/>
<rect x="5.5" y="1.5" width="147" height="45" rx="22.5" stroke="white" stroke-width="3" shape-rendering="crispEdges"/>
<g filter="url(#filter1_d_981_261)">
<path d="M28.212 14.432L35.268 32H32.892L30.948 26.96H23.676L21.828 32H19.668L26.412 14.432H28.212ZM30.204 25.04L27.228 17.288L24.396 25.04H30.204ZM39.6615 32H37.5255V14.432H39.6615V32ZM42.5822 20.816C44.4382 19.488 45.8862 17.92 46.9262 16.112H43.3982V14.456H47.5982V11.816H49.4222V14.456H53.0462V16.112H49.4222V16.472C50.6382 17.16 51.7342 17.864 52.7102 18.584L51.8462 19.928C51.0142 19.256 50.2062 18.664 49.4222 18.152V22.088H47.5982V17.696C46.6542 19.344 45.3022 20.936 43.5422 22.472L42.5822 20.816ZM59.8622 16.112C60.5182 16.992 61.2862 17.816 62.1662 18.584C63.0622 19.352 63.9982 20.008 64.9742 20.552L64.1102 22.184C61.8862 20.68 60.2142 19.072 59.0942 17.36V22.256H57.2942V17.408C56.3662 19.12 55.1102 20.608 53.5262 21.872L52.3982 20.552C54.0782 19.288 55.4462 17.808 56.5022 16.112H53.8382V14.456H57.2942V11.816H59.0942V14.456H63.8942V16.112H59.8622ZM52.4462 22.184C52.1582 22.568 51.8462 22.952 51.5102 23.336H61.3982V25.136C60.3102 26.56 59.0862 27.792 57.7262 28.832C56.3662 29.872 54.6462 30.824 52.5662 31.688C50.4862 32.552 47.8942 33.352 44.7902 34.088L43.6622 32.312C47.8222 31.416 51.0702 30.376 53.4062 29.192C55.7582 27.992 57.5662 26.6 58.8302 25.016H49.8782C49.4942 25.368 49.1982 25.624 48.9902 25.784C50.3022 26.376 51.5422 27 52.7102 27.656L51.7022 29.264C50.4542 28.448 49.0782 27.664 47.5742 26.912C46.5342 27.648 45.5502 28.28 44.6222 28.808L43.4942 27.272C44.9502 26.472 46.2862 25.568 47.5022 24.56C48.7342 23.552 49.7742 22.536 50.6222 21.512L52.4462 22.184ZM76.3742 24.8C76.7422 25.632 77.2062 26.752 77.7662 28.16C78.3422 29.568 78.8542 30.872 79.3022 32.072L77.4062 32.888C77.1822 32.2 76.9102 31.456 76.5902 30.656C76.3182 30.704 75.5982 30.832 74.4302 31.04L71.1182 31.664L67.8542 32.288L67.2542 30.344C67.6702 30.184 67.9742 30.032 68.1662 29.888C68.3742 29.728 68.5822 29.512 68.7902 29.24C69.9902 27.816 71.4942 25.504 73.3022 22.304C72.2142 22.432 70.8382 22.624 69.1742 22.88C68.7902 22.928 68.1902 23.032 67.3742 23.192L66.8702 21.2C67.2702 21.024 67.5502 20.872 67.7102 20.744C67.8862 20.616 68.0702 20.408 68.2622 20.12C68.7262 19.432 69.3982 18.216 70.2782 16.472C71.1582 14.712 71.8382 13.248 72.3182 12.08L74.0702 12.824C73.5742 14.008 72.9102 15.448 72.0782 17.144C71.2462 18.84 70.5502 20.144 69.9902 21.056L74.3342 20.456C75.0542 19.128 75.6542 17.96 76.1342 16.952L77.8862 17.72C77.1022 19.32 75.9022 21.488 74.2862 24.224C72.6702 26.944 71.4382 28.88 70.5902 30.032C71.7742 29.808 73.5662 29.456 75.9662 28.976C75.3262 27.344 74.8782 26.224 74.6222 25.616L76.3742 24.8ZM87.7262 13.808C87.7422 16.176 87.6782 18.992 87.5342 22.256C87.4062 25.504 87.2302 28.12 87.0062 30.104C86.8782 31.256 86.5582 32.08 86.0462 32.576C85.5342 33.072 84.7022 33.32 83.5502 33.32C82.4782 33.32 81.5502 33.28 80.7662 33.2L80.3822 31.256C81.4702 31.416 82.3662 31.496 83.0702 31.496C83.5822 31.496 83.9742 31.432 84.2462 31.304C84.5182 31.16 84.7182 30.928 84.8462 30.608C84.9902 30.272 85.0942 29.8 85.1582 29.192C85.3662 27.368 85.5262 25.224 85.6382 22.76C85.7502 20.296 85.7982 17.952 85.7822 15.728H77.2382V13.808H87.7262ZM94.3022 15.032V21.536C94.3022 23.552 94.2382 25.232 94.1102 26.576C93.9982 27.904 93.7902 29.136 93.4862 30.272C93.1822 31.392 92.7422 32.584 92.1662 33.848L90.5822 33.032C91.1102 31.864 91.5182 30.768 91.8062 29.744C92.0942 28.72 92.2942 27.576 92.4062 26.312C92.5342 25.048 92.5982 23.48 92.5982 21.608V13.52H101.646L100.782 11.912L102.678 11.336C102.806 11.56 103.062 12.056 103.446 12.824C103.494 12.92 103.542 13.032 103.59 13.16C103.654 13.272 103.718 13.392 103.782 13.52H112.23V15.032H107.982V16.52H111.702V17.912H109.062C109.862 18.984 110.966 20.016 112.374 21.008L111.414 22.136C109.926 21 108.782 19.776 107.982 18.464V21.728H106.446V18.488C106.174 19 105.83 19.504 105.414 20C104.998 20.48 104.478 21.016 103.854 21.608L102.75 20.6C103.39 20.072 103.91 19.608 104.31 19.208C104.726 18.792 105.086 18.36 105.39 17.912H103.614V16.52H106.446V15.032H100.182V16.52H102.606V17.912H100.182V18.224C100.71 18.544 101.022 18.728 101.118 18.776L102.75 19.76L101.982 20.864C101.374 20.368 100.774 19.944 100.182 19.592V21.896H98.6462V19.304C97.8302 20.44 96.8142 21.416 95.5982 22.232L94.6622 20.936C96.2622 19.96 97.4382 18.952 98.1902 17.912H95.2622V16.52H98.6462V15.032H94.3022ZM112.542 29.528L112.494 30.296C112.478 30.52 112.462 30.76 112.446 31.016C112.43 31.256 112.406 31.496 112.374 31.736C112.31 32.392 112.078 32.84 111.678 33.08C111.278 33.336 110.598 33.496 109.638 33.56C108.87 33.608 108.094 33.632 107.31 33.632C106.558 33.632 105.782 33.608 104.982 33.56C104.086 33.512 103.454 33.344 103.086 33.056C102.734 32.768 102.558 32.264 102.558 31.544V30.08C101.838 30.832 100.838 31.52 99.5582 32.144C98.2942 32.768 96.6862 33.376 94.7342 33.968L94.1582 32.312C96.1422 31.8 97.7422 31.232 98.9582 30.608C100.19 29.984 101.094 29.288 101.67 28.52H96.2462V22.784H101.214C101.502 22.144 101.702 21.64 101.814 21.272L103.47 21.608C103.374 21.912 103.222 22.304 103.014 22.784H110.31V28.52H107.766C107.254 29.464 106.878 30.104 106.638 30.44C107.55 30.312 108.278 30.224 108.822 30.176C108.598 29.808 108.398 29.496 108.222 29.24L109.158 28.736L109.614 29.456C110.078 30.144 110.446 30.744 110.718 31.256L109.734 31.808L109.374 31.16C107.918 31.272 106.662 31.4 105.606 31.544C105.318 31.592 105.07 31.64 104.862 31.688L104.55 30.728C104.71 30.68 104.87 30.624 105.03 30.56C105.19 30.48 105.31 30.384 105.39 30.272C105.662 29.952 105.902 29.6 106.11 29.216C106.318 28.816 106.438 28.584 106.47 28.52H103.614C103.486 28.776 103.406 28.928 103.374 28.976H104.166V31.088C104.166 31.536 104.246 31.824 104.406 31.952C104.566 32.08 104.91 32.16 105.438 32.192C106.11 32.24 106.774 32.264 107.43 32.264C108.118 32.264 108.782 32.24 109.422 32.192C110.03 32.16 110.43 32.088 110.622 31.976C110.814 31.848 110.918 31.584 110.934 31.184C110.95 30.912 110.958 30.584 110.958 30.2C110.974 29.816 110.974 29.48 110.958 29.192L112.542 29.528ZM102.486 25.064V24.008H97.9262V25.064H102.486ZM104.118 25.064H108.63V24.008H104.118V25.064ZM97.9262 27.296H102.294C102.39 27.008 102.454 26.648 102.486 26.216H97.9262V27.296ZM108.63 27.296V26.216H104.118C104.118 26.568 104.078 26.928 103.998 27.296H108.63ZM136.59 17.264V18.728H114.942V17.264H121.23C121.006 16.528 120.83 15.984 120.702 15.632C120.67 15.504 120.606 15.312 120.51 15.056H116.238V13.64H125.046C124.822 13.176 124.558 12.688 124.254 12.176L126.246 11.672C126.63 12.456 126.926 13.112 127.134 13.64H135.294V15.056H131.286C131.062 15.84 130.822 16.576 130.566 17.264H136.59ZM122.382 15.056C122.638 15.744 122.878 16.48 123.102 17.264H128.67C128.974 16.416 129.23 15.68 129.438 15.056H122.382ZM134.79 30.296H126.678V31.808H136.374V33.2H115.158V31.808H124.854V30.296H116.766V28.88H124.854V27.392H117.582V20.168H133.974V27.392H126.678V28.88H134.79V30.296ZM124.854 23.12V21.608H119.382V23.12H124.854ZM126.678 23.12H132.15V21.608H126.678V23.12ZM119.382 24.488V26.024H124.854V24.488H119.382ZM126.678 24.488V26.024H132.15V24.488H126.678Z" fill="white"/>
</g>
</g>
<defs>
<filter id="filter0_d_981_261" x="0" y="0" width="158" height="56" filterUnits="userSpaceOnUse" color-interpolation-filters="sRGB">
<feFlood flood-opacity="0" result="BackgroundImageFix"/>
<feColorMatrix in="SourceAlpha" type="matrix" values="0 0 0 0 0 0 0 0 0 0 0 0 0 0 0 0 0 0 127 0" result="hardAlpha"/>
<feOffset dy="4"/>
<feGaussianBlur stdDeviation="2"/>
<feComposite in2="hardAlpha" operator="out"/>
<feColorMatrix type="matrix" values="0 0 0 0 0 0 0 0 0 0 0 0 0 0 0 0 0 0 0.25 0"/>
<feBlend mode="normal" in2="BackgroundImageFix" result="effect1_dropShadow_981_261"/>
<feBlend mode="normal" in="SourceGraphic" in2="effect1_dropShadow_981_261" result="shape"/>
</filter>
<filter id="filter1_d_981_261" x="15.668" y="11.336" width="124.922" height="30.752" filterUnits="userSpaceOnUse" color-interpolation-filters="sRGB">
<feFlood flood-opacity="0" result="BackgroundImageFix"/>
<feColorMatrix in="SourceAlpha" type="matrix" values="0 0 0 0 0 0 0 0 0 0 0 0 0 0 0 0 0 0 127 0" result="hardAlpha"/>
<feOffset dy="4"/>
<feGaussianBlur stdDeviation="2"/>
<feComposite in2="hardAlpha" operator="out"/>
<feColorMatrix type="matrix" values="0 0 0 0 0 0 0 0 0 0 0 0 0 0 0 0 0 0 0.25 0"/>
<feBlend mode="normal" in2="BackgroundImageFix" result="effect1_dropShadow_981_261"/>
<feBlend mode="normal" in="SourceGraphic" in2="effect1_dropShadow_981_261" result="shape"/>
</filter>
</defs>
</svg>
