<svg width="158" height="56" viewBox="0 0 158 56" fill="none" xmlns="http://www.w3.org/2000/svg">
<g filter="url(#filter0_d_981_328)">
<rect x="4" width="150" height="48" rx="24" fill="#84D1FC" shape-rendering="crispEdges"/>
<rect x="5.5" y="1.5" width="147" height="45" rx="22.5" stroke="white" stroke-width="3" shape-rendering="crispEdges"/>
<g filter="url(#filter1_d_981_328)">
<path d="M28.212 14.432L35.268 32H32.892L30.948 26.96H23.676L21.828 32H19.668L26.412 14.432H28.212ZM30.204 25.04L27.228 17.288L24.396 25.04H30.204ZM39.6615 32H37.5255V14.432H39.6615V32ZM58.5662 16.784C58.1182 17.696 57.4622 18.832 56.5982 20.192C55.7342 21.536 55.0302 22.552 54.4862 23.24L58.7582 22.592C59.9742 20.784 60.8542 19.36 61.3982 18.32L63.0302 19.28C62.2942 20.576 60.9982 22.496 59.1422 25.04C57.2862 27.584 55.7022 29.56 54.3902 30.968C56.0222 30.744 57.5262 30.552 58.9022 30.392L61.3262 30.08C60.6382 28.288 60.1742 27.12 59.9342 26.576L61.5902 25.856C62.2302 27.28 63.1342 29.656 64.3022 32.984L62.6222 33.752C62.4462 33.224 62.2142 32.544 61.9262 31.712C60.6622 31.824 59.3742 31.968 58.0622 32.144C56.7502 32.32 55.9342 32.432 55.6142 32.48L53.6942 32.744C52.7342 32.888 52.0782 32.992 51.7262 33.056L51.1982 31.136C51.6622 30.976 51.9822 30.848 52.1582 30.752C52.3502 30.656 52.5742 30.48 52.8302 30.224C54.0782 28.944 55.6222 27.024 57.4622 24.464L54.7502 24.776L54.1262 24.848C53.4222 24.944 52.7022 25.056 51.9662 25.184L51.4862 23.288C51.7742 23.208 51.9982 23.128 52.1582 23.048C52.3182 22.952 52.4702 22.824 52.6142 22.664C53.1102 22.12 53.7422 21.256 54.5102 20.072C55.2942 18.872 55.9262 17.776 56.4062 16.784H51.6542V15.08H57.0782L55.7102 12.056L57.5822 11.624C58.3022 13.208 58.8142 14.36 59.1182 15.08H64.5182V16.784H58.5662ZM50.5262 30.152C50.2062 29.72 49.2222 28.536 47.5742 26.6C47.3022 27.864 46.9102 29.072 46.3982 30.224C45.8862 31.376 45.2062 32.584 44.3582 33.848L42.7982 32.816C43.8062 31.456 44.5662 30.128 45.0782 28.832C45.6062 27.52 45.9582 26.208 46.1342 24.896C46.3102 23.584 46.3982 22.064 46.3982 20.336V11.984H48.1502V18.032C49.1742 16.752 49.8222 15.896 50.0942 15.464L51.3662 16.52C50.9982 17.032 50.5022 17.696 49.8782 18.512C49.2542 19.328 48.6782 20.064 48.1502 20.72C48.1182 22.144 48.0382 23.4 47.9102 24.488C48.5342 25.144 49.2142 25.88 49.9502 26.696C50.6862 27.512 51.2622 28.16 51.6782 28.64L50.5262 30.152ZM44.0222 22.88C44.0062 22.464 43.8782 21.336 43.6382 19.496C43.3982 17.656 43.2142 16.28 43.0862 15.368L44.6942 15.104C44.8382 16.032 45.0302 17.4 45.2702 19.208C45.5102 21 45.6462 22.104 45.6782 22.52L44.0222 22.88ZM87.3662 13.304C86.3742 14.456 85.2782 15.568 84.0782 16.64C82.8782 17.696 81.6622 18.632 80.4302 19.448L79.4222 17.864C81.9502 16.232 84.1342 14.344 85.9742 12.2L87.3662 13.304ZM79.3262 14.288C77.6462 14.576 75.6862 14.848 73.4462 15.104C71.2062 15.36 69.2622 15.528 67.6142 15.608L67.3982 13.76C69.1422 13.712 71.1102 13.568 73.3022 13.328C75.4942 13.088 77.4062 12.808 79.0382 12.488L79.3262 14.288ZM75.3182 20.408C75.7182 19.688 76.1422 18.864 76.5902 17.936C77.0542 17.008 77.4302 16.192 77.7182 15.488L79.2542 16.136C78.3742 18.088 77.5742 19.744 76.8542 21.104L75.3182 20.408ZM73.2782 19.88L72.7742 18.608C72.2622 17.312 71.9262 16.504 71.7662 16.184L73.2782 15.536C73.4062 15.792 73.7662 16.616 74.3582 18.008C74.5502 18.488 74.7102 18.872 74.8382 19.16L73.2782 19.88ZM69.4622 20.72C68.7582 19.088 68.1502 17.784 67.6382 16.808L69.1262 15.992C69.4142 16.52 69.8382 17.408 70.3982 18.656L70.9742 19.904L69.4622 20.72ZM79.8782 23.864C81.2542 23.112 82.4702 22.304 83.5262 21.44C84.5982 20.56 85.6382 19.512 86.6462 18.296L88.0142 19.376C87.0382 20.624 85.9742 21.744 84.8222 22.736C83.6862 23.728 82.3902 24.664 80.9342 25.544L79.8782 23.864ZM78.2702 30.392C76.9262 29.32 75.6062 28.312 74.3102 27.368V33.824H72.5342V26.192C71.1582 28.432 69.5182 30.44 67.6142 32.216L66.7022 30.536C67.7582 29.576 68.6782 28.616 69.4622 27.656C70.2462 26.696 70.9822 25.632 71.6702 24.464H67.3022V22.736H72.5342V20.576H74.3102V22.736H79.3262V24.464H74.3102V25.424C75.7822 26.352 77.4462 27.48 79.3022 28.808L78.2702 30.392ZM88.7822 25.856C87.5502 27.392 86.0462 28.872 84.2702 30.296C82.5102 31.704 80.7022 32.904 78.8462 33.896L77.9342 32.192C79.7102 31.312 81.4062 30.24 83.0222 28.976C84.6542 27.712 86.1022 26.32 87.3662 24.8L88.7822 25.856ZM112.686 16.52V18.368H109.758V30.2C109.758 31.016 109.662 31.64 109.47 32.072C109.294 32.504 108.998 32.808 108.582 32.984C108.182 33.176 107.606 33.288 106.854 33.32C106.63 33.336 106.302 33.344 105.87 33.344C105.006 33.344 104.19 33.296 103.422 33.2L103.038 31.304C104.35 31.432 105.382 31.496 106.134 31.496C106.806 31.496 107.246 31.416 107.454 31.256C107.678 31.096 107.79 30.768 107.79 30.272V18.368H100.518V16.52H107.79V11.864H109.758V16.52H112.686ZM99.0542 31.712H91.6862V13.736H99.0542V31.712ZM97.2782 21.392V15.68H93.5342V21.392H97.2782ZM104.358 27.008C103.942 26.208 103.382 25.176 102.678 23.912C101.974 22.648 101.422 21.704 101.022 21.08L102.606 20.216C103.038 20.856 103.614 21.816 104.334 23.096C105.054 24.36 105.582 25.352 105.918 26.072L104.358 27.008ZM93.5342 23.192V29.84H97.2782V23.192H93.5342ZM126.726 18.488H134.958V30.44C134.958 31.304 134.87 31.952 134.694 32.384C134.534 32.816 134.222 33.12 133.758 33.296C133.31 33.472 132.614 33.56 131.67 33.56C130.934 33.56 130.046 33.504 129.006 33.392L128.67 31.52C129.71 31.68 130.646 31.76 131.478 31.76C131.958 31.76 132.302 31.704 132.51 31.592C132.734 31.464 132.878 31.28 132.942 31.04C133.006 30.8 133.038 30.432 133.038 29.936V20.312H118.422V33.512H116.502V18.488H124.734V11.912H126.726V18.488ZM134.646 14C134.054 14.592 133.326 15.28 132.462 16.064C131.598 16.848 130.862 17.496 130.254 18.008L128.958 16.544C129.662 15.952 130.438 15.28 131.286 14.528C132.134 13.76 132.79 13.12 133.254 12.608L134.646 14ZM121.182 17.984C120.638 17.44 119.918 16.76 119.022 15.944C118.142 15.128 117.414 14.48 116.838 14L118.182 12.656C118.694 13.072 119.382 13.672 120.246 14.456C121.126 15.24 121.886 15.936 122.526 16.544L121.182 17.984ZM121.278 22.808H130.182V30.32H121.278V22.808ZM123.006 28.568H128.454V24.584H123.006V28.568Z" fill="white"/>
</g>
</g>
<defs>
<filter id="filter0_d_981_328" x="0" y="0" width="158" height="56" filterUnits="userSpaceOnUse" color-interpolation-filters="sRGB">
<feFlood flood-opacity="0" result="BackgroundImageFix"/>
<feColorMatrix in="SourceAlpha" type="matrix" values="0 0 0 0 0 0 0 0 0 0 0 0 0 0 0 0 0 0 127 0" result="hardAlpha"/>
<feOffset dy="4"/>
<feGaussianBlur stdDeviation="2"/>
<feComposite in2="hardAlpha" operator="out"/>
<feColorMatrix type="matrix" values="0 0 0 0 0 0 0 0 0 0 0 0 0 0 0 0 0 0 0.25 0"/>
<feBlend mode="normal" in2="BackgroundImageFix" result="effect1_dropShadow_981_328"/>
<feBlend mode="normal" in="SourceGraphic" in2="effect1_dropShadow_981_328" result="shape"/>
</filter>
<filter id="filter1_d_981_328" x="15.668" y="11.624" width="123.29" height="30.272" filterUnits="userSpaceOnUse" color-interpolation-filters="sRGB">
<feFlood flood-opacity="0" result="BackgroundImageFix"/>
<feColorMatrix in="SourceAlpha" type="matrix" values="0 0 0 0 0 0 0 0 0 0 0 0 0 0 0 0 0 0 127 0" result="hardAlpha"/>
<feOffset dy="4"/>
<feGaussianBlur stdDeviation="2"/>
<feComposite in2="hardAlpha" operator="out"/>
<feColorMatrix type="matrix" values="0 0 0 0 0 0 0 0 0 0 0 0 0 0 0 0 0 0 0.25 0"/>
<feBlend mode="normal" in2="BackgroundImageFix" result="effect1_dropShadow_981_328"/>
<feBlend mode="normal" in="SourceGraphic" in2="effect1_dropShadow_981_328" result="shape"/>
</filter>
</defs>
</svg>
