<svg width="158" height="56" viewBox="0 0 158 56" fill="none" xmlns="http://www.w3.org/2000/svg">
<g filter="url(#filter0_d_981_379)">
<rect x="4" width="150" height="48" rx="24" fill="url(#paint0_linear_981_379)" shape-rendering="crispEdges"/>
<rect x="5.5" y="1.5" width="147" height="45" rx="22.5" stroke="white" stroke-width="3" shape-rendering="crispEdges"/>
<g filter="url(#filter1_d_981_379)">
<path d="M12.712 34.676C12.472 34.676 12.232 34.636 11.992 34.556C11.752 34.46 11.504 34.412 11.248 34.412C10.352 34.412 9.904 33.98 9.904 33.116C9.904 32.764 9.976 32.356 10.12 31.892C10.28 31.444 10.472 31.004 10.696 30.572C10.92 30.14 11.144 29.788 11.368 29.516H11.296L10.624 30.548H10.6C10.584 30.548 10.576 30.54 10.576 30.524C10.576 30.412 10.672 30.22 10.864 29.948C11.056 29.66 11.288 29.348 11.56 29.012C11.848 28.66 12.136 28.324 12.424 28.004C12.728 27.668 12.984 27.388 13.192 27.164C13.4 26.94 13.52 26.82 13.552 26.804C13.728 26.692 13.904 26.58 14.08 26.468C14.256 26.356 14.432 26.244 14.608 26.132C14.784 26.02 14.952 25.916 15.112 25.82C15.288 25.708 15.464 25.596 15.64 25.484C15.688 25.452 15.736 25.404 15.784 25.34C15.848 25.276 15.896 25.236 15.928 25.22C16.088 25.108 16.248 25.012 16.408 24.932C16.568 24.836 16.736 24.756 16.912 24.692C16.992 24.42 17.136 24.164 17.344 23.924C17.552 23.684 17.768 23.492 17.992 23.348C18.024 23.348 18.12 23.332 18.28 23.3C18.456 23.268 18.624 23.236 18.784 23.204C18.944 23.156 19.04 23.116 19.072 23.084C19.68 22.956 20.288 22.852 20.896 22.772C21.52 22.692 22.144 22.652 22.768 22.652C22.928 22.652 23.08 22.652 23.224 22.652C23.384 22.636 23.544 22.62 23.704 22.604C23.864 22.588 24.016 22.572 24.16 22.556C24.32 22.54 24.48 22.524 24.64 22.508C24.704 22.492 24.768 22.484 24.832 22.484C24.912 22.484 24.992 22.484 25.072 22.484C25.152 22.5 25.224 22.508 25.288 22.508C25.352 22.492 25.416 22.476 25.48 22.46L25.768 22.388L26.032 22.316C26.16 22.188 26.28 22.052 26.392 21.908C26.52 21.764 26.64 21.62 26.752 21.476C26.88 21.348 27 21.212 27.112 21.068C27.24 20.924 27.368 20.788 27.496 20.66C27.72 20.42 27.952 20.18 28.192 19.94C28.432 19.7 28.672 19.46 28.912 19.22C29.376 18.724 29.824 18.228 30.256 17.732C30.464 17.476 30.664 17.22 30.856 16.964C31.064 16.708 31.256 16.452 31.432 16.196L32.512 14.66C32.64 14.484 32.76 14.308 32.872 14.132C33 13.94 33.12 13.748 33.232 13.556C33.344 13.38 33.456 13.204 33.568 13.028C33.696 12.852 33.84 12.684 34 12.524L33.976 12.5C33.976 12.452 34.048 12.372 34.192 12.26L34.456 12.044C34.296 12.06 34.136 12.068 33.976 12.068C33.832 12.068 33.688 12.076 33.544 12.092C33.384 12.108 33.224 12.124 33.064 12.14C32.92 12.14 32.768 12.14 32.608 12.14C32.208 12.14 31.816 12.228 31.432 12.404C31.048 12.58 30.656 12.668 30.256 12.668H29.944C29.896 12.668 29.848 12.668 29.8 12.668C29.752 12.652 29.696 12.636 29.632 12.62V12.644L29.776 12.716C29.744 12.764 29.704 12.804 29.656 12.836V12.74H29.608C29.592 12.74 29.584 12.732 29.584 12.716C29.44 12.716 29.312 12.748 29.2 12.812C29.136 12.844 29.064 12.876 28.984 12.908C28.92 12.94 28.856 12.964 28.792 12.98L28.768 13.076C28.688 13.076 28.536 13.092 28.312 13.124C28.104 13.14 27.976 13.172 27.928 13.22H28L27.136 13.316L27.208 13.244H27.04L27.016 13.316H27.088C27.104 13.316 27.08 13.324 27.016 13.34C26.952 13.34 26.92 13.356 26.92 13.388C26.92 13.42 26.944 13.428 26.992 13.412C27.024 13.396 27.056 13.388 27.088 13.388L27.16 13.484L27.136 13.532H26.824C26.728 13.548 26.624 13.548 26.512 13.532L26.368 13.676L25.984 13.748L25.912 13.7C25.864 13.748 25.832 13.788 25.816 13.82C25.8 13.868 25.76 13.908 25.696 13.94C25.664 13.956 25.504 14.02 25.216 14.132C24.928 14.228 24.6 14.34 24.232 14.468C23.88 14.596 23.56 14.716 23.272 14.828C23 14.94 22.856 15.012 22.84 15.044V15.068L22.864 15.044C22.896 15.028 22.992 14.988 23.152 14.924C23.312 14.86 23.408 14.828 23.44 14.828V14.852L23.416 14.876C23.384 14.892 23.352 14.908 23.32 14.924C23.304 14.94 23.28 14.956 23.248 14.972C23.184 15.036 23.128 15.076 23.08 15.092H23.224C22.936 15.236 22.576 15.436 22.144 15.692C21.712 15.948 21.288 16.212 20.872 16.484C20.456 16.756 20.12 16.988 19.864 17.18L19.912 17.228L19.6 17.516L19.432 17.588C19.304 17.844 19.168 18.068 19.024 18.26C18.88 18.436 18.808 18.668 18.808 18.956C18.808 19.068 18.864 19.196 18.976 19.34C19.088 19.484 19.192 19.612 19.288 19.724C19.4 19.836 19.448 19.916 19.432 19.964H19.408C19.408 19.98 19.4 19.988 19.384 19.988H19.36C19.168 19.988 18.936 19.9 18.664 19.724C18.408 19.548 18.184 19.332 17.992 19.076C17.8 18.82 17.704 18.588 17.704 18.38V18.356H17.896C17.928 18.356 17.96 18.356 17.992 18.356C18.04 18.356 18.072 18.348 18.088 18.332L18.112 18.308C18.112 18.308 18.072 18.228 17.992 18.068C17.912 17.94 17.872 17.852 17.872 17.804V17.78C17.904 17.78 17.944 17.732 17.992 17.636C18.056 17.54 18.096 17.476 18.112 17.444L18.064 17.492C18.032 17.524 18.008 17.532 17.992 17.516L18.328 16.988L18.376 17.012C18.568 16.772 18.792 16.58 19.048 16.436C19.32 16.292 19.56 16.148 19.768 16.004C19.976 15.844 20.104 15.628 20.152 15.356L20.128 15.308H20.272C20.336 15.276 20.4 15.244 20.464 15.212C20.528 15.164 20.592 15.108 20.656 15.044C20.784 14.916 20.904 14.844 21.016 14.828V14.876L22.192 14.108C22.192 14.14 22.208 14.156 22.24 14.156C22.24 14.156 22.288 14.14 22.384 14.108L22.36 14.156C22.296 14.156 22.248 14.18 22.216 14.228L22.768 14.084L22.696 14.132C22.84 14.084 22.984 14.02 23.128 13.94L23.032 13.916L23.176 13.82L22.792 13.892L22.84 13.844C22.968 13.78 23.168 13.692 23.44 13.58C23.728 13.452 24.008 13.348 24.28 13.268C24.568 13.172 24.776 13.14 24.904 13.172V13.148C25.192 13.02 25.44 12.956 25.648 12.956L25.672 12.908C25.656 12.892 25.584 12.884 25.456 12.884C25.392 12.9 25.344 12.908 25.312 12.908C25.28 12.908 25.248 12.908 25.216 12.908L25.864 12.716V12.74L27.352 12.236L27.4 12.26C27.592 12.26 27.784 12.212 27.976 12.116C28.152 12.02 28.344 11.972 28.552 11.972L28.576 11.996L29.68 11.828V11.804C29.808 11.788 29.936 11.772 30.064 11.756C30.192 11.74 30.312 11.716 30.424 11.684C30.552 11.652 30.672 11.62 30.784 11.588C30.912 11.556 31.032 11.532 31.144 11.516V11.54H31.24C31.304 11.54 31.36 11.54 31.408 11.54C31.472 11.524 31.536 11.508 31.6 11.492C31.664 11.476 31.72 11.468 31.768 11.468C31.832 11.452 31.896 11.444 31.96 11.444C31.992 11.444 32.032 11.444 32.08 11.444C32.128 11.444 32.168 11.452 32.2 11.468C32.248 11.484 32.32 11.492 32.416 11.492C32.592 11.492 32.776 11.492 32.968 11.492C33.16 11.476 33.344 11.46 33.52 11.444C33.696 11.428 33.872 11.42 34.048 11.42C34.24 11.404 34.424 11.396 34.6 11.396C34.792 11.396 34.968 11.42 35.128 11.468L35.104 11.444C35.312 11.444 35.536 11.476 35.776 11.54C36.016 11.604 36.136 11.756 36.136 11.996C36.136 12.14 36.104 12.268 36.04 12.38C35.96 12.556 35.864 12.716 35.752 12.86C35.656 13.004 35.544 13.148 35.416 13.292L33.28 15.692C32.928 16.092 32.568 16.492 32.2 16.892C31.848 17.276 31.488 17.676 31.12 18.092C30.512 18.78 29.904 19.46 29.296 20.132C28.688 20.804 28.056 21.468 27.4 22.124H27.496C27.576 22.124 27.648 22.124 27.712 22.124C27.792 22.108 27.864 22.092 27.928 22.076C27.992 22.06 28.056 22.052 28.12 22.052C28.2 22.052 28.272 22.044 28.336 22.028C28.928 21.964 29.512 21.916 30.088 21.884C30.68 21.836 31.272 21.796 31.864 21.764L31.888 21.692L31.936 21.644L31.912 21.74H31.96L31.912 21.356L32.2 21.308V21.26L32.128 21.14C32.128 21.092 32.144 21.084 32.176 21.116L33.52 18.428V18.356H33.424C33.392 18.372 33.352 18.38 33.304 18.38V18.284H33.352C33.368 18.252 33.432 18.14 33.544 17.948C33.656 17.756 33.776 17.548 33.904 17.324C34.048 17.084 34.176 16.876 34.288 16.7C34.416 16.508 34.496 16.404 34.528 16.388C34.512 16.308 34.568 16.148 34.696 15.908C34.84 15.668 34.992 15.42 35.152 15.164C35.328 14.908 35.44 14.74 35.488 14.66L35.56 14.612L35.536 14.42L35.848 14.132V14.084L35.536 14.132V14.084H35.584L36.232 13.196C36.376 13.004 36.472 12.804 36.52 12.596C36.568 12.388 36.632 12.212 36.712 12.068C36.792 11.908 36.944 11.804 37.168 11.756L37.216 11.684H37.264V11.636C37.456 11.636 37.688 11.676 37.96 11.756C38.248 11.82 38.496 11.924 38.704 12.068C38.928 12.196 39.04 12.364 39.04 12.572C39.04 12.78 38.936 13.02 38.728 13.292C38.52 13.564 38.264 13.852 37.96 14.156C37.672 14.46 37.384 14.764 37.096 15.068C36.824 15.356 36.608 15.628 36.448 15.884L36.112 16.436H36.064L36.112 16.292H36.016L35.848 16.532L35.872 16.58L35.944 16.532L35.968 16.58C35.888 16.628 35.768 16.732 35.608 16.892C35.464 17.052 35.392 17.172 35.392 17.252V17.276L35.416 17.3V17.252L35.536 17.156C35.504 17.38 35.44 17.596 35.344 17.804C35.248 17.996 35.136 18.18 35.008 18.356L35.152 18.5C35.152 18.5 35.136 18.548 35.104 18.644C35.072 18.724 35.048 18.764 35.032 18.764C35.016 18.764 35 18.748 34.984 18.716C34.968 18.684 34.96 18.66 34.96 18.644L35.008 17.828H35.056L34.936 17.588C35.048 17.444 35.112 17.348 35.128 17.3H35.032C34.904 17.524 34.816 17.796 34.768 18.116C34.736 18.436 34.712 18.732 34.696 19.004L34.552 18.956V19.004L34.648 19.148L34.432 19.244L34.384 19.292L34.456 19.34L34.48 19.292V19.34C34.464 19.356 34.456 19.38 34.456 19.412C34.424 19.524 34.392 19.708 34.36 19.964C34.344 20.22 34.264 20.348 34.12 20.348L34.144 20.636C34.144 20.668 34.104 20.772 34.024 20.948C33.96 21.108 33.928 21.228 33.928 21.308L33.88 21.332L33.808 21.284V21.476L33.688 21.692H34.288C34.528 21.692 34.864 21.7 35.296 21.716C35.744 21.716 36.168 21.74 36.568 21.788C36.984 21.836 37.256 21.924 37.384 22.052V22.076C37.384 22.14 37.312 22.188 37.168 22.22C37.024 22.236 36.936 22.244 36.904 22.244C36.936 22.164 36.912 22.124 36.832 22.124C36.784 22.14 36.736 22.148 36.688 22.148C36.656 22.148 36.608 22.148 36.544 22.148C36.496 22.132 36.44 22.116 36.376 22.1C36.312 22.116 36.256 22.132 36.208 22.148C36.16 22.148 36.112 22.14 36.064 22.124C36 22.108 35.896 22.14 35.752 22.22C35.656 22.22 35.56 22.22 35.464 22.22C35.368 22.22 35.28 22.212 35.2 22.196H34.624C34.528 22.196 34.432 22.204 34.336 22.22C34.24 22.22 34.144 22.228 34.048 22.244C33.856 22.292 33.664 22.316 33.472 22.316V22.292C33.472 22.26 33.464 22.252 33.448 22.268L33.472 22.172H33.592L33.616 22.1H33.472C33.104 22.692 32.792 23.3 32.536 23.924L32.464 24.188C32.448 24.236 32.432 24.284 32.416 24.332C32.4 24.38 32.384 24.428 32.368 24.476L31.648 27.164C31.616 27.308 31.576 27.532 31.528 27.836C31.48 28.14 31.456 28.372 31.456 28.532C31.456 28.692 31.488 28.828 31.552 28.94C31.6 29.052 31.624 29.188 31.624 29.348V29.54C31.624 29.796 31.72 30.036 31.912 30.26C32.12 30.468 32.352 30.572 32.608 30.572C32.848 30.572 33.064 30.508 33.256 30.38C33.464 30.252 33.664 30.124 33.856 29.996C33.856 29.996 33.872 30.028 33.904 30.092C33.952 30.108 33.976 30.148 33.976 30.212C33.976 30.308 33.864 30.412 33.64 30.524C33.432 30.636 33.184 30.74 32.896 30.836C32.608 30.948 32.344 31.036 32.104 31.1C31.864 31.164 31.72 31.196 31.672 31.196C31.336 31.196 31.032 31.116 30.76 30.956C30.488 30.796 30.288 30.556 30.16 30.236C30.208 30.188 30.232 30.132 30.232 30.068L30.16 29.948C30.096 29.82 30.032 29.692 29.968 29.564C29.904 29.436 29.84 29.308 29.776 29.18C29.712 29.052 29.648 28.924 29.584 28.796C29.52 28.668 29.448 28.548 29.368 28.436C29.128 28.052 28.84 27.628 28.504 27.164C28.184 26.7 27.84 26.26 27.472 25.844C27.104 25.412 26.736 25.076 26.368 24.836C26.288 24.788 26.208 24.74 26.128 24.692C26.064 24.644 25.992 24.596 25.912 24.548C25.832 24.516 25.752 24.476 25.672 24.428C25.592 24.38 25.512 24.332 25.432 24.284C25.208 24.476 24.992 24.676 24.784 24.884C24.592 25.076 24.392 25.276 24.184 25.484L23.656 25.988C23.576 26.068 23.488 26.156 23.392 26.252C23.312 26.348 23.232 26.444 23.152 26.54C23.072 26.636 22.96 26.764 22.816 26.924C22.688 27.068 22.52 27.252 22.312 27.476C21.912 27.908 21.448 28.388 20.92 28.916C20.408 29.444 19.864 29.988 19.288 30.548C18.984 30.82 18.696 31.084 18.424 31.34C18.152 31.612 17.88 31.86 17.608 32.084C17.336 32.324 17.04 32.572 16.72 32.828C16.416 33.084 16.136 33.292 15.88 33.452C15.624 33.628 15.424 33.724 15.28 33.74C15.2 33.868 14.984 34.004 14.632 34.148C14.28 34.292 13.912 34.412 13.528 34.508C13.16 34.62 12.888 34.676 12.712 34.676ZM30.064 28.244C30.08 28.1 30.088 27.964 30.088 27.836C30.104 27.692 30.112 27.548 30.112 27.404L30.16 27.38C30.24 27.044 30.32 26.708 30.4 26.372C30.496 26.036 30.576 25.7 30.64 25.364L30.712 25.004C30.712 24.94 30.712 24.884 30.712 24.836C30.728 24.772 30.744 24.708 30.76 24.644C30.776 24.58 30.808 24.5 30.856 24.404C30.904 24.308 30.96 24.244 31.024 24.212L30.952 24.044C30.984 24.028 31.016 23.98 31.048 23.9C31.048 23.852 31.088 23.812 31.168 23.78V23.732C31.152 23.732 31.144 23.724 31.144 23.708C31.144 23.596 31.2 23.404 31.312 23.132C31.424 22.844 31.512 22.62 31.576 22.46C31.464 22.476 31.344 22.484 31.216 22.484C31.104 22.484 30.984 22.484 30.856 22.484C30.616 22.484 30.384 22.508 30.16 22.556L30.136 22.412C29.96 22.508 29.648 22.588 29.2 22.652C28.768 22.7 28.32 22.748 27.856 22.796C27.392 22.844 27.04 22.908 26.8 22.988C26.72 23.068 26.632 23.148 26.536 23.228C26.456 23.308 26.376 23.388 26.296 23.468C26.216 23.532 26.128 23.612 26.032 23.708C25.952 23.788 25.872 23.868 25.792 23.948C26.496 24.332 27.08 24.732 27.544 25.148C28.024 25.548 28.456 26.004 28.84 26.516C29.224 27.012 29.632 27.588 30.064 28.244ZM19.456 23.948H19.528L19.816 23.924C20.152 23.748 20.552 23.652 21.016 23.636C21.496 23.604 21.936 23.524 22.336 23.396C22.384 23.38 22.496 23.364 22.672 23.348C22.864 23.332 23.064 23.316 23.272 23.3C23.48 23.268 23.632 23.252 23.728 23.252C23.776 23.236 23.824 23.228 23.872 23.228C23.92 23.228 23.968 23.22 24.016 23.204C24.064 23.204 24.112 23.204 24.16 23.204C24.208 23.188 24.256 23.172 24.304 23.156C24.448 23.124 24.512 23.1 24.496 23.084H23.128C22.904 23.084 22.672 23.084 22.432 23.084C22.208 23.084 21.984 23.092 21.76 23.108C21.52 23.108 21.296 23.148 21.088 23.228C20.896 23.26 20.672 23.292 20.416 23.324C20.176 23.356 19.96 23.42 19.768 23.516C19.592 23.596 19.488 23.74 19.456 23.948ZM12.664 33.668C13.24 33.668 13.872 33.492 14.56 33.14C15.264 32.772 15.992 32.3 16.744 31.724C17.512 31.148 18.288 30.5 19.072 29.78C19.456 29.412 19.832 29.052 20.2 28.7C20.584 28.348 20.952 27.996 21.304 27.644C21.688 27.26 22.096 26.836 22.528 26.372C22.976 25.908 23.392 25.468 23.776 25.052C24.16 24.636 24.472 24.308 24.712 24.068L24.688 24.044C24.464 24.012 24.232 23.988 23.992 23.972C23.768 23.94 23.536 23.924 23.296 23.924C23.04 23.924 22.672 23.956 22.192 24.02C21.728 24.084 21.232 24.164 20.704 24.26C20.192 24.356 19.704 24.46 19.24 24.572C18.776 24.668 18.424 24.756 18.184 24.836C17.976 24.916 17.76 25.012 17.536 25.124C17.328 25.236 17.136 25.356 16.96 25.484C16.288 25.884 15.576 26.404 14.824 27.044C14.072 27.684 13.376 28.38 12.736 29.132C12.112 29.868 11.656 30.596 11.368 31.316C11.192 31.7 11.104 32.068 11.104 32.42C11.104 32.884 11.256 33.204 11.56 33.38C11.88 33.572 12.248 33.668 12.664 33.668ZM33.6331 33.596C33.5691 33.596 33.4731 33.508 33.3451 33.332C33.2171 33.156 33.1051 32.964 33.0091 32.756C32.9131 32.564 32.8651 32.436 32.8651 32.372C32.8651 32.308 32.8731 32.244 32.8891 32.18C32.8891 32.116 32.8971 32.052 32.9131 31.988C32.9451 31.924 32.9691 31.86 32.9851 31.796C33.0011 31.748 33.0171 31.692 33.0331 31.628V31.724C33.1451 31.692 33.2011 31.628 33.2011 31.532V31.484L33.0571 31.58C33.1211 31.516 33.1691 31.46 33.2011 31.412C33.2491 31.332 33.3051 31.284 33.3691 31.268C33.4171 31.268 33.4731 31.236 33.5371 31.172C33.6011 31.108 33.6491 31.06 33.6811 31.028L33.5611 31.076L34.0171 30.74L34.0411 30.764C34.2331 30.636 34.4571 30.54 34.7131 30.476C34.9691 30.412 35.2091 30.332 35.4331 30.236C35.6571 30.14 35.8171 30.004 35.9131 29.828V29.756L36.0091 29.804C36.0091 29.484 36.0331 29.156 36.0811 28.82C36.1451 28.468 36.2411 28.156 36.3691 27.884C36.3691 27.788 36.4251 27.74 36.5371 27.74C36.5851 27.74 36.6171 27.796 36.6331 27.908C36.6491 28.004 36.6571 28.068 36.6571 28.1C36.6731 28.356 36.6491 28.604 36.5851 28.844C36.5531 28.972 36.5291 29.108 36.5131 29.252C36.4971 29.38 36.4811 29.516 36.4651 29.66C36.5131 29.644 36.5531 29.636 36.5851 29.636C36.6331 29.62 36.6811 29.612 36.7291 29.612V29.66L37.8331 29.324V29.372C37.8651 29.388 37.8891 29.388 37.9051 29.372H37.9771L37.9291 29.396C37.9131 29.396 37.8971 29.404 37.8811 29.42C37.8651 29.42 37.8411 29.428 37.8091 29.444H38.2651L38.1451 29.564H38.1691C38.2971 29.564 38.4251 29.524 38.5531 29.444L38.5051 29.396L38.6731 29.348L38.3371 29.3L38.4091 29.252H38.7451C38.8091 29.252 38.8651 29.252 38.9131 29.252C38.9771 29.236 39.0411 29.22 39.1051 29.204C39.1211 29.188 39.1691 29.18 39.2491 29.18H39.3691C39.4491 29.18 39.5771 29.188 39.7531 29.204C39.9451 29.22 40.0731 29.244 40.1371 29.276V29.252H40.4011C40.5771 29.252 40.6891 29.26 40.7371 29.276L40.7611 29.252C40.7291 29.22 40.6571 29.196 40.5451 29.18C40.4491 29.164 40.4171 29.156 40.4491 29.156H40.9771V29.18L42.2251 29.156L42.2491 29.204C42.2651 29.22 42.3451 29.228 42.4891 29.228C42.5691 29.1 42.6571 28.972 42.7531 28.844C42.8491 28.716 42.9371 28.596 43.0171 28.484C43.0971 28.356 43.1771 28.236 43.2571 28.124C43.3371 27.996 43.4171 27.868 43.4971 27.74C44.0091 26.924 44.4811 26.092 44.9131 25.244C45.3611 24.38 45.8011 23.516 46.2331 22.652H46.1611C46.0011 22.652 45.9211 22.58 45.9211 22.436C45.9211 22.404 45.9211 22.364 45.9211 22.316C45.9371 22.252 45.9531 22.188 45.9691 22.124L45.8251 22.268C45.8251 22.284 45.7771 22.38 45.6811 22.556C45.5851 22.716 45.4731 22.908 45.3451 23.132C45.2171 23.356 45.0971 23.556 44.9851 23.732C44.8891 23.892 44.8331 23.972 44.8171 23.972V23.924C44.8011 23.924 44.7931 23.908 44.7931 23.876C44.7931 23.652 44.8971 23.364 45.1051 23.012C45.3291 22.66 45.5611 22.292 45.8011 21.908C46.0571 21.524 46.2251 21.188 46.3051 20.9L46.4491 20.42C46.4811 20.34 46.5051 20.26 46.5211 20.18C46.5531 20.084 46.5851 19.996 46.6171 19.916C46.8091 19.42 47.0331 18.94 47.2891 18.476C47.5611 17.996 47.8331 17.524 48.1051 17.06C48.1531 16.9 48.2651 16.684 48.4411 16.412C48.6171 16.124 48.7051 15.916 48.7051 15.788C48.7051 15.756 48.6891 15.74 48.6571 15.74C48.6091 15.756 48.5851 15.724 48.5851 15.644C48.5851 15.532 48.6331 15.372 48.7291 15.164C48.8411 14.924 48.9051 14.764 48.9211 14.684C48.9851 14.572 49.0491 14.468 49.1131 14.372C49.1771 14.26 49.2411 14.156 49.3051 14.06L49.6891 13.532L49.4971 13.412L49.5451 13.364L49.4491 13.316L49.4251 13.364L49.4731 13.388H49.4011L49.3531 13.412C49.3531 13.444 49.3611 13.46 49.3771 13.46C49.3931 13.46 49.4091 13.468 49.4251 13.484V13.58L49.4011 13.604C49.3531 13.556 49.2971 13.516 49.2331 13.484C49.1851 13.452 49.1291 13.42 49.0651 13.388C49.0011 13.388 48.9531 13.412 48.9211 13.46L48.6811 13.388V13.292C48.6491 13.388 48.5931 13.436 48.5131 13.436C48.3851 13.436 48.2491 13.436 48.1051 13.436C47.9611 13.42 47.8251 13.404 47.6971 13.388C47.5531 13.372 47.4091 13.364 47.2651 13.364C47.1211 13.348 46.9851 13.34 46.8571 13.34H46.6891C46.6571 13.356 46.6011 13.364 46.5211 13.364L46.4731 13.388V13.412L46.4971 13.388H46.7371C46.8171 13.388 46.8731 13.396 46.9051 13.412L46.5931 13.532L46.6651 13.556C46.2331 13.588 45.7851 13.66 45.3211 13.772C44.8571 13.868 44.4171 14.004 44.0011 14.18L44.0251 14.204L43.7371 14.372L43.7851 14.276C43.5451 14.532 43.3451 14.716 43.1851 14.828C43.0411 14.924 42.9211 15.012 42.8251 15.092C42.7451 15.172 42.6891 15.292 42.6571 15.452C42.6251 15.612 42.6091 15.876 42.6091 16.244V16.34C42.6091 16.404 42.5931 16.436 42.5611 16.436C42.4971 16.436 42.4331 16.348 42.3691 16.172C42.3051 15.98 42.2491 15.78 42.2011 15.572C42.1691 15.364 42.1531 15.236 42.1531 15.188C42.1371 15.044 42.1611 14.892 42.2251 14.732C42.2571 14.668 42.2811 14.612 42.2971 14.564C42.3131 14.516 42.3291 14.468 42.3451 14.42C42.3771 14.404 42.4171 14.38 42.4651 14.348C42.5131 14.3 42.5371 14.26 42.5371 14.228L42.5131 14.204L42.4171 14.276C42.4651 14.228 42.5131 14.18 42.5611 14.132C42.6091 14.084 42.6491 14.028 42.6811 13.964H42.7291C42.7611 13.964 42.8011 13.94 42.8491 13.892C42.9131 13.828 42.9531 13.78 42.9691 13.748L42.8971 13.796H42.8731L43.2811 13.46V13.484C43.4731 13.356 43.6891 13.268 43.9291 13.22C44.1691 13.172 44.3851 13.116 44.5771 13.052C44.7691 12.972 44.8891 12.836 44.9371 12.644L45.0091 12.692C45.1371 12.692 45.2331 12.668 45.2971 12.62C45.3771 12.572 45.4731 12.548 45.5851 12.548H45.6331L45.6091 12.596L46.5451 12.356V12.404H46.6411L46.4971 12.476L46.8571 12.524L46.7611 12.596L46.8091 12.62C46.8411 12.62 46.8891 12.612 46.9531 12.596C47.0171 12.564 47.0651 12.54 47.0971 12.524L47.0731 12.476C47.0891 12.476 47.1051 12.476 47.1211 12.476C47.1371 12.46 47.1611 12.444 47.1931 12.428L46.9531 12.38L47.0011 12.332H47.6491C47.7291 12.332 47.8491 12.348 48.0091 12.38C48.1851 12.396 48.3051 12.436 48.3691 12.5V12.476C48.5771 12.476 48.7451 12.508 48.8731 12.572L48.8971 12.548L48.6571 12.38C48.7691 12.396 48.8811 12.412 48.9931 12.428C49.1051 12.444 49.2171 12.46 49.3291 12.476L49.9771 12.548C49.9931 12.452 50.0411 12.388 50.1211 12.356C50.2011 12.324 50.2811 12.308 50.3611 12.308C50.6971 12.308 51.0491 12.364 51.4171 12.476C51.7851 12.588 51.9771 12.828 51.9931 13.196C52.2331 13.244 52.4251 13.308 52.5691 13.388C52.7131 13.468 52.8811 13.58 53.0731 13.724C53.2491 13.868 53.4411 13.988 53.6491 14.084C53.8731 14.196 54.0651 14.316 54.2251 14.444C54.3371 14.524 54.4331 14.62 54.5131 14.732C54.5931 14.828 54.6331 14.94 54.6331 15.068C54.6331 15.132 54.6091 15.252 54.5611 15.428C54.5131 15.604 54.4491 15.692 54.3691 15.692C54.3371 15.692 54.3131 15.604 54.2971 15.428C54.2971 15.236 54.2651 15.124 54.2011 15.092L54.1531 15.116C54.1051 15.068 53.9851 14.996 53.7931 14.9C53.6011 14.788 53.4091 14.684 53.2171 14.588C53.0411 14.476 52.9211 14.396 52.8571 14.348C52.6331 14.22 52.4571 14.156 52.3291 14.156C52.2651 14.172 52.1851 14.18 52.0891 14.18C51.9931 14.164 51.8891 14.148 51.7771 14.132C51.2811 15.396 50.7291 16.644 50.1211 17.876L48.2971 21.548L47.2171 23.756C47.0411 24.124 46.8491 24.492 46.6411 24.86C46.4491 25.212 46.2411 25.572 46.0171 25.94C45.7291 26.404 45.3611 26.948 44.9131 27.572C44.4811 28.196 44.0171 28.788 43.5211 29.348C43.6491 29.364 43.7851 29.38 43.9291 29.396C44.0731 29.412 44.2171 29.436 44.3611 29.468L45.1771 29.612V29.636C45.2571 29.684 45.3531 29.708 45.4651 29.708L45.7771 29.78C45.8411 29.812 45.8971 29.844 45.9451 29.876C45.9931 29.892 46.0491 29.916 46.1131 29.948C46.3371 30.028 46.6171 30.116 46.9531 30.212C47.3051 30.308 47.6171 30.428 47.8891 30.572C48.1611 30.716 48.2971 30.9 48.2971 31.124C48.3131 31.188 48.2971 31.292 48.2491 31.436C48.2011 31.596 48.1451 31.676 48.0811 31.676C48.0171 31.676 47.9611 31.58 47.9131 31.388C47.8811 31.212 47.8331 31.124 47.7691 31.124L47.6971 31.148C47.6011 31.068 47.3851 30.972 47.0491 30.86C46.7131 30.764 46.3691 30.668 46.0171 30.572C45.6811 30.492 45.4491 30.452 45.3211 30.452C45.2731 30.452 45.2251 30.452 45.1771 30.452C45.1291 30.452 45.0811 30.46 45.0331 30.476H44.7451C44.5371 30.476 44.3531 30.452 44.1931 30.404C44.0331 30.34 43.8651 30.252 43.6891 30.14V30.164L43.7611 30.26L43.6651 30.332L43.6411 30.308L43.6651 30.26L43.6171 30.212C43.6011 30.196 43.5371 30.188 43.4251 30.188C43.3291 30.188 43.2571 30.196 43.2091 30.212H42.9691L42.8971 30.284H42.8731L42.7291 30.236C42.5531 30.412 42.3691 30.572 42.1771 30.716C42.0011 30.876 41.8251 31.02 41.6491 31.148C41.6011 31.18 41.5051 31.26 41.3611 31.388C41.2171 31.532 41.1291 31.62 41.0971 31.652C40.7291 31.892 40.3451 32.1 39.9451 32.276C39.5611 32.468 39.1291 32.564 38.6491 32.564C38.0251 32.564 37.4891 32.428 37.0411 32.156C36.6091 31.884 36.3051 31.476 36.1291 30.932C35.9371 30.996 35.7451 31.052 35.5531 31.1C35.3771 31.164 35.2011 31.244 35.0251 31.34L34.6891 31.532L34.7851 31.436C34.8491 31.372 34.8171 31.396 34.6891 31.508C34.5611 31.62 34.4571 31.692 34.3771 31.724C34.2491 31.788 34.1211 31.884 33.9931 32.012L34.1851 31.868C34.0251 31.996 33.8731 32.14 33.7291 32.3C33.5691 32.476 33.4971 32.676 33.5131 32.9L33.5851 33.212C33.6331 33.308 33.6571 33.412 33.6571 33.524V33.572C33.6411 33.572 33.6331 33.58 33.6331 33.596ZM42.3451 14.42C42.3611 14.388 42.3691 14.364 42.3691 14.348C42.3691 14.332 42.3771 14.316 42.3931 14.3V14.348L42.3451 14.42ZM38.6011 32.18C39.1771 32.18 39.7131 31.996 40.2091 31.628C40.7051 31.26 41.1371 30.876 41.5051 30.476C41.5371 30.476 41.5931 30.436 41.6731 30.356C41.7051 30.324 41.7371 30.284 41.7691 30.236C41.8171 30.188 41.8571 30.14 41.8891 30.092L41.6731 30.02L41.7211 29.972L41.6251 29.948L41.5771 29.996L41.6491 30.02H41.4811C41.4811 30.068 41.5211 30.092 41.6011 30.092V30.188L41.5771 30.212C41.5611 30.18 41.4891 30.156 41.3611 30.14C41.2651 30.124 41.1931 30.092 41.1451 30.044C41.0651 30.06 41.0011 30.092 40.9531 30.14L40.6651 30.068L40.6411 30.02C40.5451 30.116 40.4651 30.164 40.4011 30.164C40.3371 30.164 40.1851 30.164 39.9451 30.164C39.7051 30.164 39.4331 30.172 39.1291 30.188C38.8411 30.204 38.5771 30.22 38.3371 30.236C38.1131 30.252 37.9771 30.276 37.9291 30.308V30.332L37.9531 30.308H38.1691C38.2171 30.292 38.2891 30.284 38.3851 30.284C38.4011 30.284 38.4171 30.292 38.4331 30.308H38.4571L38.0971 30.428L38.1931 30.452C37.9211 30.5 37.6411 30.548 37.3531 30.596C37.0811 30.66 36.8011 30.732 36.5131 30.812C36.6251 31.292 36.8811 31.636 37.2811 31.844C37.6811 32.068 38.1211 32.18 38.6011 32.18ZM57.3745 25.124L58.7665 24.116C59.4705 24.42 60.2065 24.78 60.9745 25.196C61.7585 25.596 62.5025 26.004 63.2065 26.42C63.9105 26.82 64.4945 27.204 64.9585 27.572L63.4465 28.7C63.0305 28.348 62.4705 27.956 61.7665 27.524C61.0785 27.092 60.3505 26.668 59.5825 26.252C58.8145 25.82 58.0785 25.444 57.3745 25.124ZM60.7345 21.908H69.8065V23.444H59.1985L60.7345 21.908ZM52.4065 12.836H62.3665V14.42H52.4065V12.836ZM56.7505 10.34H58.4065V20.78H56.7505V10.34ZM63.1345 12.836H73.8385V14.42H63.1345V12.836ZM67.1665 10.34H68.8465V20.78H67.1665V10.34ZM69.1345 13.628C69.5025 14.3 69.9665 14.972 70.5265 15.644C71.1025 16.3 71.7185 16.908 72.3745 17.468C73.0465 18.012 73.7025 18.46 74.3425 18.812C74.1505 18.956 73.9345 19.164 73.6945 19.436C73.4705 19.692 73.2865 19.924 73.1425 20.132C72.5025 19.7 71.8465 19.164 71.1745 18.524C70.5185 17.884 69.9025 17.188 69.3265 16.436C68.7505 15.668 68.2705 14.9 67.8865 14.132L69.1345 13.628ZM58.3345 14.876C58.5105 14.972 58.7825 15.132 59.1505 15.356C59.5185 15.58 59.9025 15.828 60.3025 16.1C60.7185 16.356 61.1025 16.596 61.4545 16.82C61.8065 17.044 62.0465 17.204 62.1745 17.3L61.2145 18.764C61.0385 18.588 60.7905 18.364 60.4705 18.092C60.1505 17.804 59.7985 17.508 59.4145 17.204C59.0465 16.9 58.6865 16.612 58.3345 16.34C57.9985 16.068 57.7265 15.86 57.5185 15.716L58.3345 14.876ZM56.6065 13.652L57.8065 14.108C57.4705 14.876 57.0385 15.636 56.5105 16.388C55.9985 17.124 55.4465 17.82 54.8545 18.476C54.2625 19.116 53.6785 19.644 53.1025 20.06C52.9585 19.852 52.7745 19.628 52.5505 19.388C52.3265 19.132 52.1185 18.932 51.9265 18.788C52.5185 18.436 53.1105 17.988 53.7025 17.444C54.2945 16.884 54.8465 16.276 55.3585 15.62C55.8705 14.964 56.2865 14.308 56.6065 13.652ZM67.0945 13.652L68.2945 14.132C67.9425 14.884 67.4945 15.636 66.9505 16.388C66.4225 17.124 65.8465 17.804 65.2225 18.428C64.5985 19.052 63.9745 19.564 63.3505 19.964C63.2065 19.772 63.0225 19.548 62.7985 19.292C62.5745 19.036 62.3665 18.828 62.1745 18.668C62.7985 18.348 63.4145 17.916 64.0225 17.372C64.6465 16.828 65.2305 16.236 65.7745 15.596C66.3185 14.94 66.7585 14.292 67.0945 13.652ZM61.7425 19.988L63.5665 20.684C62.8305 21.532 61.9505 22.356 60.9265 23.156C59.9185 23.956 58.8385 24.692 57.6865 25.364C56.5345 26.036 55.3905 26.62 54.2545 27.116C54.1425 26.988 53.9985 26.844 53.8225 26.684C53.6625 26.524 53.4945 26.372 53.3185 26.228C53.1585 26.068 53.0065 25.932 52.8625 25.82C54.0145 25.372 55.1505 24.836 56.2705 24.212C57.4065 23.588 58.4545 22.908 59.4145 22.172C60.3905 21.436 61.1665 20.708 61.7425 19.988ZM69.1585 21.908H69.5665L69.9265 21.836L71.1745 22.676C70.4065 24.148 69.4145 25.444 68.1985 26.564C66.9985 27.668 65.6385 28.612 64.1185 29.396C62.5985 30.164 60.9745 30.804 59.2465 31.316C57.5185 31.844 55.7505 32.26 53.9425 32.564C53.8945 32.404 53.8145 32.212 53.7025 31.988C53.5905 31.78 53.4625 31.572 53.3185 31.364C53.1905 31.156 53.0705 30.988 52.9585 30.86C54.7345 30.62 56.4545 30.276 58.1185 29.828C59.7985 29.38 61.3585 28.812 62.7985 28.124C64.2385 27.42 65.5025 26.58 66.5905 25.604C67.6785 24.628 68.5345 23.508 69.1585 22.244V21.908ZM85.5025 12.26H96.1345V13.988H85.5025V12.26ZM95.4865 12.26H97.2865C97.2865 12.26 97.2865 12.332 97.2865 12.476C97.2865 12.604 97.2865 12.748 97.2865 12.908C97.2865 13.052 97.2865 13.172 97.2865 13.268C97.2065 16.404 97.1185 19.052 97.0225 21.212C96.9265 23.372 96.8145 25.14 96.6865 26.516C96.5745 27.876 96.4305 28.94 96.2545 29.708C96.0945 30.46 95.8945 30.988 95.6545 31.292C95.3825 31.66 95.0945 31.916 94.7905 32.06C94.5025 32.22 94.1425 32.324 93.7105 32.372C93.2785 32.42 92.7265 32.436 92.0545 32.42C91.3825 32.404 90.6865 32.38 89.9665 32.348C89.9505 32.076 89.8945 31.764 89.7985 31.412C89.7025 31.076 89.5745 30.78 89.4145 30.524C90.1985 30.588 90.9105 30.628 91.5505 30.644C92.2065 30.66 92.6865 30.668 92.9905 30.668C93.2145 30.668 93.4065 30.636 93.5665 30.572C93.7265 30.524 93.8705 30.412 93.9985 30.236C94.2065 30.012 94.3825 29.54 94.5265 28.82C94.6865 28.1 94.8225 27.06 94.9345 25.7C95.0465 24.34 95.1425 22.604 95.2225 20.492C95.3185 18.364 95.4065 15.772 95.4865 12.716V12.26ZM75.9505 28.052C76.7985 27.972 77.7745 27.876 78.8785 27.764C79.9985 27.652 81.1905 27.532 82.4545 27.404C83.7185 27.276 84.9905 27.14 86.2705 26.996L86.3185 28.58C85.1025 28.756 83.8865 28.924 82.6705 29.084C81.4705 29.228 80.3185 29.372 79.2145 29.516C78.1105 29.644 77.1025 29.772 76.1905 29.9L75.9505 28.052ZM75.9985 17.42L77.1025 16.172C77.7425 16.684 78.3905 17.252 79.0465 17.876C79.7185 18.5 80.3345 19.116 80.8945 19.724C81.4705 20.332 81.9265 20.892 82.2625 21.404L81.1105 22.868C80.7905 22.356 80.3425 21.78 79.7665 21.14C79.2065 20.5 78.5985 19.852 77.9425 19.196C77.2865 18.54 76.6385 17.948 75.9985 17.42ZM83.3905 23.996L84.8785 23.348C85.3585 24.004 85.8225 24.724 86.2705 25.508C86.7345 26.276 87.1425 27.028 87.4945 27.764C87.8465 28.5 88.1025 29.164 88.2625 29.756L86.6545 30.548C86.4945 29.956 86.2465 29.284 85.9105 28.532C85.5745 27.78 85.1905 27.004 84.7585 26.204C84.3265 25.404 83.8705 24.668 83.3905 23.996ZM80.9905 10.58L82.9345 11.156C82.5825 11.972 82.1985 12.836 81.7825 13.748C81.3665 14.66 80.9425 15.532 80.5105 16.364C80.0945 17.196 79.6945 17.932 79.3105 18.572L77.7505 17.996C78.1185 17.34 78.5025 16.58 78.9025 15.716C79.3185 14.852 79.7105 13.964 80.0785 13.052C80.4465 12.14 80.7505 11.316 80.9905 10.58ZM84.1345 15.716L85.9825 16.364C85.4865 17.404 84.9505 18.484 84.3745 19.604C83.8145 20.724 83.2225 21.844 82.5985 22.964C81.9745 24.068 81.3505 25.132 80.7265 26.156C80.1185 27.164 79.5345 28.076 78.9745 28.892L77.4145 28.244C77.9745 27.428 78.5585 26.508 79.1665 25.484C79.7745 24.444 80.3825 23.364 80.9905 22.244C81.5985 21.108 82.1665 19.98 82.6945 18.86C83.2385 17.74 83.7185 16.692 84.1345 15.716ZM104.439 15.38H112.695V16.604H104.439V15.38ZM113.343 15.38H121.623V16.604H113.343V15.38ZM107.943 13.964H109.335V20.156H107.943V13.964ZM111.855 21.452H113.487V26.54H111.855V21.452ZM116.535 13.964H117.951V20.156H116.535V13.964ZM107.127 24.572V26.036H118.287V24.572H107.127ZM107.127 22.124V23.564H118.287V22.124H107.127ZM105.567 20.972H119.919V27.212H105.567V20.972ZM114.927 28.988C115.615 28.956 116.375 28.924 117.207 28.892C118.055 28.86 118.951 28.82 119.895 28.772L119.871 29.66C118.991 29.74 118.159 29.812 117.375 29.876C116.591 29.94 115.839 30.004 115.119 30.068L114.927 28.988ZM107.943 15.884L108.951 16.316C108.647 16.796 108.263 17.276 107.799 17.756C107.351 18.236 106.863 18.676 106.335 19.076C105.807 19.476 105.279 19.812 104.751 20.084C104.639 19.908 104.495 19.716 104.319 19.508C104.143 19.3 103.975 19.132 103.815 19.004C104.327 18.812 104.839 18.556 105.351 18.236C105.879 17.9 106.367 17.532 106.815 17.132C107.279 16.716 107.655 16.3 107.943 15.884ZM116.487 15.884L117.519 16.316C117.231 16.796 116.855 17.276 116.391 17.756C115.943 18.236 115.455 18.676 114.927 19.076C114.415 19.476 113.903 19.812 113.391 20.084C113.279 19.908 113.127 19.716 112.935 19.508C112.759 19.3 112.599 19.132 112.455 19.004C112.967 18.812 113.479 18.556 113.991 18.236C114.503 17.9 114.975 17.532 115.407 17.132C115.855 16.716 116.215 16.3 116.487 15.884ZM118.119 16.028C118.423 16.412 118.799 16.796 119.247 17.18C119.695 17.564 120.175 17.924 120.687 18.26C121.199 18.58 121.687 18.844 122.151 19.052C121.991 19.164 121.815 19.332 121.623 19.556C121.431 19.764 121.279 19.948 121.167 20.108C120.687 19.852 120.191 19.532 119.679 19.148C119.167 18.748 118.679 18.316 118.215 17.852C117.767 17.388 117.383 16.94 117.063 16.508L118.119 16.028ZM108.615 26.924H110.367C110.175 27.884 109.847 28.716 109.383 29.42C108.919 30.124 108.255 30.724 107.391 31.22C106.527 31.732 105.383 32.156 103.959 32.492C103.911 32.348 103.831 32.188 103.719 32.012C103.607 31.836 103.487 31.66 103.359 31.484C103.231 31.308 103.111 31.172 102.999 31.076C104.279 30.836 105.295 30.532 106.047 30.164C106.815 29.78 107.391 29.324 107.775 28.796C108.175 28.252 108.455 27.628 108.615 26.924ZM112.671 26.9H114.255V30.356C114.255 30.628 114.335 30.804 114.495 30.884C114.655 30.964 115.031 31.004 115.623 31.004C115.751 31.004 115.999 31.004 116.367 31.004C116.735 31.004 117.143 31.004 117.591 31.004C118.055 31.004 118.479 31.004 118.863 31.004C119.263 31.004 119.551 31.004 119.727 31.004C120.015 31.004 120.231 30.964 120.375 30.884C120.535 30.804 120.647 30.636 120.711 30.38C120.775 30.108 120.823 29.708 120.855 29.18C121.031 29.308 121.255 29.42 121.527 29.516C121.799 29.612 122.047 29.684 122.271 29.732C122.207 30.42 122.095 30.948 121.935 31.316C121.791 31.7 121.559 31.964 121.239 32.108C120.919 32.252 120.479 32.324 119.919 32.324C119.807 32.324 119.599 32.324 119.295 32.324C119.007 32.324 118.663 32.324 118.263 32.324C117.879 32.324 117.487 32.324 117.087 32.324C116.703 32.324 116.367 32.324 116.079 32.324C115.791 32.324 115.599 32.324 115.503 32.324C114.751 32.324 114.167 32.268 113.751 32.156C113.335 32.06 113.047 31.868 112.887 31.58C112.743 31.292 112.671 30.884 112.671 30.356V26.9ZM111.327 19.532L113.055 19.868C112.799 20.22 112.527 20.556 112.239 20.876C111.967 21.196 111.727 21.484 111.519 21.74L110.199 21.356C110.391 21.084 110.599 20.78 110.823 20.444C111.047 20.092 111.215 19.788 111.327 19.532ZM116.487 26.636L117.711 26.996C117.535 27.444 117.367 27.892 117.207 28.34C117.063 28.788 116.919 29.18 116.775 29.516L115.791 29.18C115.935 28.812 116.071 28.388 116.199 27.908C116.327 27.412 116.423 26.988 116.487 26.636ZM118.311 27.884L119.343 27.5C119.695 27.852 120.023 28.26 120.327 28.724C120.631 29.188 120.855 29.596 120.999 29.948L119.919 30.38C119.791 30.012 119.575 29.596 119.271 29.132C118.967 28.668 118.647 28.252 118.311 27.884ZM109.239 16.748C109.399 16.812 109.631 16.924 109.935 17.084C110.255 17.228 110.599 17.396 110.967 17.588C111.335 17.764 111.663 17.932 111.951 18.092C112.255 18.252 112.479 18.372 112.622 18.452L111.711 19.484C111.567 19.356 111.351 19.196 111.062 19.004C110.775 18.812 110.463 18.612 110.127 18.404C109.807 18.18 109.495 17.972 109.191 17.78C108.887 17.588 108.631 17.436 108.423 17.324L109.239 16.748ZM110.799 10.34H112.647V13.22H110.799V10.34ZM102.855 12.236H121.911V13.772H102.855V12.236ZM101.823 12.236H103.503V19.748C103.503 20.676 103.471 21.692 103.407 22.796C103.359 23.884 103.255 25.004 103.095 26.156C102.935 27.308 102.695 28.428 102.375 29.516C102.071 30.588 101.663 31.58 101.151 32.492C101.071 32.364 100.943 32.228 100.767 32.084C100.591 31.94 100.415 31.804 100.239 31.676C100.063 31.548 99.9025 31.452 99.7585 31.388C100.239 30.54 100.615 29.628 100.887 28.652C101.159 27.66 101.359 26.652 101.487 25.628C101.631 24.588 101.719 23.572 101.751 22.58C101.799 21.572 101.823 20.628 101.823 19.748V12.236ZM125.823 11.996H144.375V13.484H125.823V11.996ZM125.919 27.38H144.231V28.748H125.919V27.38ZM124.239 16.076H145.887V17.54H124.239V16.076ZM124.167 30.404H145.983V31.868H124.167V30.404ZM134.055 10.34H135.951V13.124H134.055V10.34ZM134.127 19.58H135.903V31.028H134.127V19.58ZM139.119 13.34L140.967 13.772C140.695 14.252 140.423 14.724 140.151 15.188C139.879 15.652 139.615 16.052 139.359 16.388L137.727 15.98C137.967 15.628 138.215 15.196 138.471 14.684C138.743 14.172 138.959 13.724 139.119 13.34ZM129.207 13.796L130.887 13.436C131.207 13.788 131.487 14.196 131.727 14.66C131.983 15.124 132.159 15.54 132.255 15.908L130.455 16.364C130.375 15.996 130.215 15.572 129.975 15.092C129.751 14.596 129.495 14.164 129.207 13.796ZM128.583 22.892V24.62H141.519V22.892H128.583ZM128.583 20.036V21.74H141.519V20.036H128.583ZM126.879 18.836H143.271V25.844H126.879V18.836Z" fill="white"/>
</g>
</g>
<defs>
<filter id="filter0_d_981_379" x="0" y="0" width="158" height="56" filterUnits="userSpaceOnUse" color-interpolation-filters="sRGB">
<feFlood flood-opacity="0" result="BackgroundImageFix"/>
<feColorMatrix in="SourceAlpha" type="matrix" values="0 0 0 0 0 0 0 0 0 0 0 0 0 0 0 0 0 0 127 0" result="hardAlpha"/>
<feOffset dy="4"/>
<feGaussianBlur stdDeviation="2"/>
<feComposite in2="hardAlpha" operator="out"/>
<feColorMatrix type="matrix" values="0 0 0 0 0 0 0 0 0 0 0 0 0 0 0 0 0 0 0.25 0"/>
<feBlend mode="normal" in2="BackgroundImageFix" result="effect1_dropShadow_981_379"/>
<feBlend mode="normal" in="SourceGraphic" in2="effect1_dropShadow_981_379" result="shape"/>
</filter>
<filter id="filter1_d_981_379" x="5.90405" y="10.34" width="144.078" height="32.336" filterUnits="userSpaceOnUse" color-interpolation-filters="sRGB">
<feFlood flood-opacity="0" result="BackgroundImageFix"/>
<feColorMatrix in="SourceAlpha" type="matrix" values="0 0 0 0 0 0 0 0 0 0 0 0 0 0 0 0 0 0 127 0" result="hardAlpha"/>
<feOffset dy="4"/>
<feGaussianBlur stdDeviation="2"/>
<feComposite in2="hardAlpha" operator="out"/>
<feColorMatrix type="matrix" values="0 0 0 0 0 0 0 0 0 0 0 0 0 0 0 0 0 0 0.25 0"/>
<feBlend mode="normal" in2="BackgroundImageFix" result="effect1_dropShadow_981_379"/>
<feBlend mode="normal" in="SourceGraphic" in2="effect1_dropShadow_981_379" result="shape"/>
</filter>
<linearGradient id="paint0_linear_981_379" x1="4" y1="24" x2="154" y2="24" gradientUnits="userSpaceOnUse">
<stop stop-color="#FEC143"/>
<stop offset="1" stop-color="#FE4B8C"/>
</linearGradient>
</defs>
</svg>
