<svg width="158" height="56" viewBox="0 0 158 56" fill="none" xmlns="http://www.w3.org/2000/svg">
<g filter="url(#filter0_d_970_238)">
<rect x="4" width="150" height="48" rx="24" fill="url(#paint0_linear_970_238)" shape-rendering="crispEdges"/>
<rect x="5.5" y="1.5" width="147" height="45" rx="22.5" stroke="white" stroke-width="3" shape-rendering="crispEdges"/>
<g filter="url(#filter1_d_970_238)">
<path d="M12.712 34.676C12.472 34.676 12.232 34.636 11.992 34.556C11.752 34.46 11.504 34.412 11.248 34.412C10.352 34.412 9.904 33.98 9.904 33.116C9.904 32.764 9.976 32.356 10.12 31.892C10.28 31.444 10.472 31.004 10.696 30.572C10.92 30.14 11.144 29.788 11.368 29.516H11.296L10.624 30.548H10.6C10.584 30.548 10.576 30.54 10.576 30.524C10.576 30.412 10.672 30.22 10.864 29.948C11.056 29.66 11.288 29.348 11.56 29.012C11.848 28.66 12.136 28.324 12.424 28.004C12.728 27.668 12.984 27.388 13.192 27.164C13.4 26.94 13.52 26.82 13.552 26.804C13.728 26.692 13.904 26.58 14.08 26.468C14.256 26.356 14.432 26.244 14.608 26.132C14.784 26.02 14.952 25.916 15.112 25.82C15.288 25.708 15.464 25.596 15.64 25.484C15.688 25.452 15.736 25.404 15.784 25.34C15.848 25.276 15.896 25.236 15.928 25.22C16.088 25.108 16.248 25.012 16.408 24.932C16.568 24.836 16.736 24.756 16.912 24.692C16.992 24.42 17.136 24.164 17.344 23.924C17.552 23.684 17.768 23.492 17.992 23.348C18.024 23.348 18.12 23.332 18.28 23.3C18.456 23.268 18.624 23.236 18.784 23.204C18.944 23.156 19.04 23.116 19.072 23.084C19.68 22.956 20.288 22.852 20.896 22.772C21.52 22.692 22.144 22.652 22.768 22.652C22.928 22.652 23.08 22.652 23.224 22.652C23.384 22.636 23.544 22.62 23.704 22.604C23.864 22.588 24.016 22.572 24.16 22.556C24.32 22.54 24.48 22.524 24.64 22.508C24.704 22.492 24.768 22.484 24.832 22.484C24.912 22.484 24.992 22.484 25.072 22.484C25.152 22.5 25.224 22.508 25.288 22.508C25.352 22.492 25.416 22.476 25.48 22.46L25.768 22.388L26.032 22.316C26.16 22.188 26.28 22.052 26.392 21.908C26.52 21.764 26.64 21.62 26.752 21.476C26.88 21.348 27 21.212 27.112 21.068C27.24 20.924 27.368 20.788 27.496 20.66C27.72 20.42 27.952 20.18 28.192 19.94C28.432 19.7 28.672 19.46 28.912 19.22C29.376 18.724 29.824 18.228 30.256 17.732C30.464 17.476 30.664 17.22 30.856 16.964C31.064 16.708 31.256 16.452 31.432 16.196L32.512 14.66C32.64 14.484 32.76 14.308 32.872 14.132C33 13.94 33.12 13.748 33.232 13.556C33.344 13.38 33.456 13.204 33.568 13.028C33.696 12.852 33.84 12.684 34 12.524L33.976 12.5C33.976 12.452 34.048 12.372 34.192 12.26L34.456 12.044C34.296 12.06 34.136 12.068 33.976 12.068C33.832 12.068 33.688 12.076 33.544 12.092C33.384 12.108 33.224 12.124 33.064 12.14C32.92 12.14 32.768 12.14 32.608 12.14C32.208 12.14 31.816 12.228 31.432 12.404C31.048 12.58 30.656 12.668 30.256 12.668H29.944C29.896 12.668 29.848 12.668 29.8 12.668C29.752 12.652 29.696 12.636 29.632 12.62V12.644L29.776 12.716C29.744 12.764 29.704 12.804 29.656 12.836V12.74H29.608C29.592 12.74 29.584 12.732 29.584 12.716C29.44 12.716 29.312 12.748 29.2 12.812C29.136 12.844 29.064 12.876 28.984 12.908C28.92 12.94 28.856 12.964 28.792 12.98L28.768 13.076C28.688 13.076 28.536 13.092 28.312 13.124C28.104 13.14 27.976 13.172 27.928 13.22H28L27.136 13.316L27.208 13.244H27.04L27.016 13.316H27.088C27.104 13.316 27.08 13.324 27.016 13.34C26.952 13.34 26.92 13.356 26.92 13.388C26.92 13.42 26.944 13.428 26.992 13.412C27.024 13.396 27.056 13.388 27.088 13.388L27.16 13.484L27.136 13.532H26.824C26.728 13.548 26.624 13.548 26.512 13.532L26.368 13.676L25.984 13.748L25.912 13.7C25.864 13.748 25.832 13.788 25.816 13.82C25.8 13.868 25.76 13.908 25.696 13.94C25.664 13.956 25.504 14.02 25.216 14.132C24.928 14.228 24.6 14.34 24.232 14.468C23.88 14.596 23.56 14.716 23.272 14.828C23 14.94 22.856 15.012 22.84 15.044V15.068L22.864 15.044C22.896 15.028 22.992 14.988 23.152 14.924C23.312 14.86 23.408 14.828 23.44 14.828V14.852L23.416 14.876C23.384 14.892 23.352 14.908 23.32 14.924C23.304 14.94 23.28 14.956 23.248 14.972C23.184 15.036 23.128 15.076 23.08 15.092H23.224C22.936 15.236 22.576 15.436 22.144 15.692C21.712 15.948 21.288 16.212 20.872 16.484C20.456 16.756 20.12 16.988 19.864 17.18L19.912 17.228L19.6 17.516L19.432 17.588C19.304 17.844 19.168 18.068 19.024 18.26C18.88 18.436 18.808 18.668 18.808 18.956C18.808 19.068 18.864 19.196 18.976 19.34C19.088 19.484 19.192 19.612 19.288 19.724C19.4 19.836 19.448 19.916 19.432 19.964H19.408C19.408 19.98 19.4 19.988 19.384 19.988H19.36C19.168 19.988 18.936 19.9 18.664 19.724C18.408 19.548 18.184 19.332 17.992 19.076C17.8 18.82 17.704 18.588 17.704 18.38V18.356H17.896C17.928 18.356 17.96 18.356 17.992 18.356C18.04 18.356 18.072 18.348 18.088 18.332L18.112 18.308C18.112 18.308 18.072 18.228 17.992 18.068C17.912 17.94 17.872 17.852 17.872 17.804V17.78C17.904 17.78 17.944 17.732 17.992 17.636C18.056 17.54 18.096 17.476 18.112 17.444L18.064 17.492C18.032 17.524 18.008 17.532 17.992 17.516L18.328 16.988L18.376 17.012C18.568 16.772 18.792 16.58 19.048 16.436C19.32 16.292 19.56 16.148 19.768 16.004C19.976 15.844 20.104 15.628 20.152 15.356L20.128 15.308H20.272C20.336 15.276 20.4 15.244 20.464 15.212C20.528 15.164 20.592 15.108 20.656 15.044C20.784 14.916 20.904 14.844 21.016 14.828V14.876L22.192 14.108C22.192 14.14 22.208 14.156 22.24 14.156C22.24 14.156 22.288 14.14 22.384 14.108L22.36 14.156C22.296 14.156 22.248 14.18 22.216 14.228L22.768 14.084L22.696 14.132C22.84 14.084 22.984 14.02 23.128 13.94L23.032 13.916L23.176 13.82L22.792 13.892L22.84 13.844C22.968 13.78 23.168 13.692 23.44 13.58C23.728 13.452 24.008 13.348 24.28 13.268C24.568 13.172 24.776 13.14 24.904 13.172V13.148C25.192 13.02 25.44 12.956 25.648 12.956L25.672 12.908C25.656 12.892 25.584 12.884 25.456 12.884C25.392 12.9 25.344 12.908 25.312 12.908C25.28 12.908 25.248 12.908 25.216 12.908L25.864 12.716V12.74L27.352 12.236L27.4 12.26C27.592 12.26 27.784 12.212 27.976 12.116C28.152 12.02 28.344 11.972 28.552 11.972L28.576 11.996L29.68 11.828V11.804C29.808 11.788 29.936 11.772 30.064 11.756C30.192 11.74 30.312 11.716 30.424 11.684C30.552 11.652 30.672 11.62 30.784 11.588C30.912 11.556 31.032 11.532 31.144 11.516V11.54H31.24C31.304 11.54 31.36 11.54 31.408 11.54C31.472 11.524 31.536 11.508 31.6 11.492C31.664 11.476 31.72 11.468 31.768 11.468C31.832 11.452 31.896 11.444 31.96 11.444C31.992 11.444 32.032 11.444 32.08 11.444C32.128 11.444 32.168 11.452 32.2 11.468C32.248 11.484 32.32 11.492 32.416 11.492C32.592 11.492 32.776 11.492 32.968 11.492C33.16 11.476 33.344 11.46 33.52 11.444C33.696 11.428 33.872 11.42 34.048 11.42C34.24 11.404 34.424 11.396 34.6 11.396C34.792 11.396 34.968 11.42 35.128 11.468L35.104 11.444C35.312 11.444 35.536 11.476 35.776 11.54C36.016 11.604 36.136 11.756 36.136 11.996C36.136 12.14 36.104 12.268 36.04 12.38C35.96 12.556 35.864 12.716 35.752 12.86C35.656 13.004 35.544 13.148 35.416 13.292L33.28 15.692C32.928 16.092 32.568 16.492 32.2 16.892C31.848 17.276 31.488 17.676 31.12 18.092C30.512 18.78 29.904 19.46 29.296 20.132C28.688 20.804 28.056 21.468 27.4 22.124H27.496C27.576 22.124 27.648 22.124 27.712 22.124C27.792 22.108 27.864 22.092 27.928 22.076C27.992 22.06 28.056 22.052 28.12 22.052C28.2 22.052 28.272 22.044 28.336 22.028C28.928 21.964 29.512 21.916 30.088 21.884C30.68 21.836 31.272 21.796 31.864 21.764L31.888 21.692L31.936 21.644L31.912 21.74H31.96L31.912 21.356L32.2 21.308V21.26L32.128 21.14C32.128 21.092 32.144 21.084 32.176 21.116L33.52 18.428V18.356H33.424C33.392 18.372 33.352 18.38 33.304 18.38V18.284H33.352C33.368 18.252 33.432 18.14 33.544 17.948C33.656 17.756 33.776 17.548 33.904 17.324C34.048 17.084 34.176 16.876 34.288 16.7C34.416 16.508 34.496 16.404 34.528 16.388C34.512 16.308 34.568 16.148 34.696 15.908C34.84 15.668 34.992 15.42 35.152 15.164C35.328 14.908 35.44 14.74 35.488 14.66L35.56 14.612L35.536 14.42L35.848 14.132V14.084L35.536 14.132V14.084H35.584L36.232 13.196C36.376 13.004 36.472 12.804 36.52 12.596C36.568 12.388 36.632 12.212 36.712 12.068C36.792 11.908 36.944 11.804 37.168 11.756L37.216 11.684H37.264V11.636C37.456 11.636 37.688 11.676 37.96 11.756C38.248 11.82 38.496 11.924 38.704 12.068C38.928 12.196 39.04 12.364 39.04 12.572C39.04 12.78 38.936 13.02 38.728 13.292C38.52 13.564 38.264 13.852 37.96 14.156C37.672 14.46 37.384 14.764 37.096 15.068C36.824 15.356 36.608 15.628 36.448 15.884L36.112 16.436H36.064L36.112 16.292H36.016L35.848 16.532L35.872 16.58L35.944 16.532L35.968 16.58C35.888 16.628 35.768 16.732 35.608 16.892C35.464 17.052 35.392 17.172 35.392 17.252V17.276L35.416 17.3V17.252L35.536 17.156C35.504 17.38 35.44 17.596 35.344 17.804C35.248 17.996 35.136 18.18 35.008 18.356L35.152 18.5C35.152 18.5 35.136 18.548 35.104 18.644C35.072 18.724 35.048 18.764 35.032 18.764C35.016 18.764 35 18.748 34.984 18.716C34.968 18.684 34.96 18.66 34.96 18.644L35.008 17.828H35.056L34.936 17.588C35.048 17.444 35.112 17.348 35.128 17.3H35.032C34.904 17.524 34.816 17.796 34.768 18.116C34.736 18.436 34.712 18.732 34.696 19.004L34.552 18.956V19.004L34.648 19.148L34.432 19.244L34.384 19.292L34.456 19.34L34.48 19.292V19.34C34.464 19.356 34.456 19.38 34.456 19.412C34.424 19.524 34.392 19.708 34.36 19.964C34.344 20.22 34.264 20.348 34.12 20.348L34.144 20.636C34.144 20.668 34.104 20.772 34.024 20.948C33.96 21.108 33.928 21.228 33.928 21.308L33.88 21.332L33.808 21.284V21.476L33.688 21.692H34.288C34.528 21.692 34.864 21.7 35.296 21.716C35.744 21.716 36.168 21.74 36.568 21.788C36.984 21.836 37.256 21.924 37.384 22.052V22.076C37.384 22.14 37.312 22.188 37.168 22.22C37.024 22.236 36.936 22.244 36.904 22.244C36.936 22.164 36.912 22.124 36.832 22.124C36.784 22.14 36.736 22.148 36.688 22.148C36.656 22.148 36.608 22.148 36.544 22.148C36.496 22.132 36.44 22.116 36.376 22.1C36.312 22.116 36.256 22.132 36.208 22.148C36.16 22.148 36.112 22.14 36.064 22.124C36 22.108 35.896 22.14 35.752 22.22C35.656 22.22 35.56 22.22 35.464 22.22C35.368 22.22 35.28 22.212 35.2 22.196H34.624C34.528 22.196 34.432 22.204 34.336 22.22C34.24 22.22 34.144 22.228 34.048 22.244C33.856 22.292 33.664 22.316 33.472 22.316V22.292C33.472 22.26 33.464 22.252 33.448 22.268L33.472 22.172H33.592L33.616 22.1H33.472C33.104 22.692 32.792 23.3 32.536 23.924L32.464 24.188C32.448 24.236 32.432 24.284 32.416 24.332C32.4 24.38 32.384 24.428 32.368 24.476L31.648 27.164C31.616 27.308 31.576 27.532 31.528 27.836C31.48 28.14 31.456 28.372 31.456 28.532C31.456 28.692 31.488 28.828 31.552 28.94C31.6 29.052 31.624 29.188 31.624 29.348V29.54C31.624 29.796 31.72 30.036 31.912 30.26C32.12 30.468 32.352 30.572 32.608 30.572C32.848 30.572 33.064 30.508 33.256 30.38C33.464 30.252 33.664 30.124 33.856 29.996C33.856 29.996 33.872 30.028 33.904 30.092C33.952 30.108 33.976 30.148 33.976 30.212C33.976 30.308 33.864 30.412 33.64 30.524C33.432 30.636 33.184 30.74 32.896 30.836C32.608 30.948 32.344 31.036 32.104 31.1C31.864 31.164 31.72 31.196 31.672 31.196C31.336 31.196 31.032 31.116 30.76 30.956C30.488 30.796 30.288 30.556 30.16 30.236C30.208 30.188 30.232 30.132 30.232 30.068L30.16 29.948C30.096 29.82 30.032 29.692 29.968 29.564C29.904 29.436 29.84 29.308 29.776 29.18C29.712 29.052 29.648 28.924 29.584 28.796C29.52 28.668 29.448 28.548 29.368 28.436C29.128 28.052 28.84 27.628 28.504 27.164C28.184 26.7 27.84 26.26 27.472 25.844C27.104 25.412 26.736 25.076 26.368 24.836C26.288 24.788 26.208 24.74 26.128 24.692C26.064 24.644 25.992 24.596 25.912 24.548C25.832 24.516 25.752 24.476 25.672 24.428C25.592 24.38 25.512 24.332 25.432 24.284C25.208 24.476 24.992 24.676 24.784 24.884C24.592 25.076 24.392 25.276 24.184 25.484L23.656 25.988C23.576 26.068 23.488 26.156 23.392 26.252C23.312 26.348 23.232 26.444 23.152 26.54C23.072 26.636 22.96 26.764 22.816 26.924C22.688 27.068 22.52 27.252 22.312 27.476C21.912 27.908 21.448 28.388 20.92 28.916C20.408 29.444 19.864 29.988 19.288 30.548C18.984 30.82 18.696 31.084 18.424 31.34C18.152 31.612 17.88 31.86 17.608 32.084C17.336 32.324 17.04 32.572 16.72 32.828C16.416 33.084 16.136 33.292 15.88 33.452C15.624 33.628 15.424 33.724 15.28 33.74C15.2 33.868 14.984 34.004 14.632 34.148C14.28 34.292 13.912 34.412 13.528 34.508C13.16 34.62 12.888 34.676 12.712 34.676ZM30.064 28.244C30.08 28.1 30.088 27.964 30.088 27.836C30.104 27.692 30.112 27.548 30.112 27.404L30.16 27.38C30.24 27.044 30.32 26.708 30.4 26.372C30.496 26.036 30.576 25.7 30.64 25.364L30.712 25.004C30.712 24.94 30.712 24.884 30.712 24.836C30.728 24.772 30.744 24.708 30.76 24.644C30.776 24.58 30.808 24.5 30.856 24.404C30.904 24.308 30.96 24.244 31.024 24.212L30.952 24.044C30.984 24.028 31.016 23.98 31.048 23.9C31.048 23.852 31.088 23.812 31.168 23.78V23.732C31.152 23.732 31.144 23.724 31.144 23.708C31.144 23.596 31.2 23.404 31.312 23.132C31.424 22.844 31.512 22.62 31.576 22.46C31.464 22.476 31.344 22.484 31.216 22.484C31.104 22.484 30.984 22.484 30.856 22.484C30.616 22.484 30.384 22.508 30.16 22.556L30.136 22.412C29.96 22.508 29.648 22.588 29.2 22.652C28.768 22.7 28.32 22.748 27.856 22.796C27.392 22.844 27.04 22.908 26.8 22.988C26.72 23.068 26.632 23.148 26.536 23.228C26.456 23.308 26.376 23.388 26.296 23.468C26.216 23.532 26.128 23.612 26.032 23.708C25.952 23.788 25.872 23.868 25.792 23.948C26.496 24.332 27.08 24.732 27.544 25.148C28.024 25.548 28.456 26.004 28.84 26.516C29.224 27.012 29.632 27.588 30.064 28.244ZM19.456 23.948H19.528L19.816 23.924C20.152 23.748 20.552 23.652 21.016 23.636C21.496 23.604 21.936 23.524 22.336 23.396C22.384 23.38 22.496 23.364 22.672 23.348C22.864 23.332 23.064 23.316 23.272 23.3C23.48 23.268 23.632 23.252 23.728 23.252C23.776 23.236 23.824 23.228 23.872 23.228C23.92 23.228 23.968 23.22 24.016 23.204C24.064 23.204 24.112 23.204 24.16 23.204C24.208 23.188 24.256 23.172 24.304 23.156C24.448 23.124 24.512 23.1 24.496 23.084H23.128C22.904 23.084 22.672 23.084 22.432 23.084C22.208 23.084 21.984 23.092 21.76 23.108C21.52 23.108 21.296 23.148 21.088 23.228C20.896 23.26 20.672 23.292 20.416 23.324C20.176 23.356 19.96 23.42 19.768 23.516C19.592 23.596 19.488 23.74 19.456 23.948ZM12.664 33.668C13.24 33.668 13.872 33.492 14.56 33.14C15.264 32.772 15.992 32.3 16.744 31.724C17.512 31.148 18.288 30.5 19.072 29.78C19.456 29.412 19.832 29.052 20.2 28.7C20.584 28.348 20.952 27.996 21.304 27.644C21.688 27.26 22.096 26.836 22.528 26.372C22.976 25.908 23.392 25.468 23.776 25.052C24.16 24.636 24.472 24.308 24.712 24.068L24.688 24.044C24.464 24.012 24.232 23.988 23.992 23.972C23.768 23.94 23.536 23.924 23.296 23.924C23.04 23.924 22.672 23.956 22.192 24.02C21.728 24.084 21.232 24.164 20.704 24.26C20.192 24.356 19.704 24.46 19.24 24.572C18.776 24.668 18.424 24.756 18.184 24.836C17.976 24.916 17.76 25.012 17.536 25.124C17.328 25.236 17.136 25.356 16.96 25.484C16.288 25.884 15.576 26.404 14.824 27.044C14.072 27.684 13.376 28.38 12.736 29.132C12.112 29.868 11.656 30.596 11.368 31.316C11.192 31.7 11.104 32.068 11.104 32.42C11.104 32.884 11.256 33.204 11.56 33.38C11.88 33.572 12.248 33.668 12.664 33.668ZM33.6331 33.596C33.5691 33.596 33.4731 33.508 33.3451 33.332C33.2171 33.156 33.1051 32.964 33.0091 32.756C32.9131 32.564 32.8651 32.436 32.8651 32.372C32.8651 32.308 32.8731 32.244 32.8891 32.18C32.8891 32.116 32.8971 32.052 32.9131 31.988C32.9451 31.924 32.9691 31.86 32.9851 31.796C33.0011 31.748 33.0171 31.692 33.0331 31.628V31.724C33.1451 31.692 33.2011 31.628 33.2011 31.532V31.484L33.0571 31.58C33.1211 31.516 33.1691 31.46 33.2011 31.412C33.2491 31.332 33.3051 31.284 33.3691 31.268C33.4171 31.268 33.4731 31.236 33.5371 31.172C33.6011 31.108 33.6491 31.06 33.6811 31.028L33.5611 31.076L34.0171 30.74L34.0411 30.764C34.2331 30.636 34.4571 30.54 34.7131 30.476C34.9691 30.412 35.2091 30.332 35.4331 30.236C35.6571 30.14 35.8171 30.004 35.9131 29.828V29.756L36.0091 29.804C36.0091 29.484 36.0331 29.156 36.0811 28.82C36.1451 28.468 36.2411 28.156 36.3691 27.884C36.3691 27.788 36.4251 27.74 36.5371 27.74C36.5851 27.74 36.6171 27.796 36.6331 27.908C36.6491 28.004 36.6571 28.068 36.6571 28.1C36.6731 28.356 36.6491 28.604 36.5851 28.844C36.5531 28.972 36.5291 29.108 36.5131 29.252C36.4971 29.38 36.4811 29.516 36.4651 29.66C36.5131 29.644 36.5531 29.636 36.5851 29.636C36.6331 29.62 36.6811 29.612 36.7291 29.612V29.66L37.8331 29.324V29.372C37.8651 29.388 37.8891 29.388 37.9051 29.372H37.9771L37.9291 29.396C37.9131 29.396 37.8971 29.404 37.8811 29.42C37.8651 29.42 37.8411 29.428 37.8091 29.444H38.2651L38.1451 29.564H38.1691C38.2971 29.564 38.4251 29.524 38.5531 29.444L38.5051 29.396L38.6731 29.348L38.3371 29.3L38.4091 29.252H38.7451C38.8091 29.252 38.8651 29.252 38.9131 29.252C38.9771 29.236 39.0411 29.22 39.1051 29.204C39.1211 29.188 39.1691 29.18 39.2491 29.18H39.3691C39.4491 29.18 39.5771 29.188 39.7531 29.204C39.9451 29.22 40.0731 29.244 40.1371 29.276V29.252H40.4011C40.5771 29.252 40.6891 29.26 40.7371 29.276L40.7611 29.252C40.7291 29.22 40.6571 29.196 40.5451 29.18C40.4491 29.164 40.4171 29.156 40.4491 29.156H40.9771V29.18L42.2251 29.156L42.2491 29.204C42.2651 29.22 42.3451 29.228 42.4891 29.228C42.5691 29.1 42.6571 28.972 42.7531 28.844C42.8491 28.716 42.9371 28.596 43.0171 28.484C43.0971 28.356 43.1771 28.236 43.2571 28.124C43.3371 27.996 43.4171 27.868 43.4971 27.74C44.0091 26.924 44.4811 26.092 44.9131 25.244C45.3611 24.38 45.8011 23.516 46.2331 22.652H46.1611C46.0011 22.652 45.9211 22.58 45.9211 22.436C45.9211 22.404 45.9211 22.364 45.9211 22.316C45.9371 22.252 45.9531 22.188 45.9691 22.124L45.8251 22.268C45.8251 22.284 45.7771 22.38 45.6811 22.556C45.5851 22.716 45.4731 22.908 45.3451 23.132C45.2171 23.356 45.0971 23.556 44.9851 23.732C44.8891 23.892 44.8331 23.972 44.8171 23.972V23.924C44.8011 23.924 44.7931 23.908 44.7931 23.876C44.7931 23.652 44.8971 23.364 45.1051 23.012C45.3291 22.66 45.5611 22.292 45.8011 21.908C46.0571 21.524 46.2251 21.188 46.3051 20.9L46.4491 20.42C46.4811 20.34 46.5051 20.26 46.5211 20.18C46.5531 20.084 46.5851 19.996 46.6171 19.916C46.8091 19.42 47.0331 18.94 47.2891 18.476C47.5611 17.996 47.8331 17.524 48.1051 17.06C48.1531 16.9 48.2651 16.684 48.4411 16.412C48.6171 16.124 48.7051 15.916 48.7051 15.788C48.7051 15.756 48.6891 15.74 48.6571 15.74C48.6091 15.756 48.5851 15.724 48.5851 15.644C48.5851 15.532 48.6331 15.372 48.7291 15.164C48.8411 14.924 48.9051 14.764 48.9211 14.684C48.9851 14.572 49.0491 14.468 49.1131 14.372C49.1771 14.26 49.2411 14.156 49.3051 14.06L49.6891 13.532L49.4971 13.412L49.5451 13.364L49.4491 13.316L49.4251 13.364L49.4731 13.388H49.4011L49.3531 13.412C49.3531 13.444 49.3611 13.46 49.3771 13.46C49.3931 13.46 49.4091 13.468 49.4251 13.484V13.58L49.4011 13.604C49.3531 13.556 49.2971 13.516 49.2331 13.484C49.1851 13.452 49.1291 13.42 49.0651 13.388C49.0011 13.388 48.9531 13.412 48.9211 13.46L48.6811 13.388V13.292C48.6491 13.388 48.5931 13.436 48.5131 13.436C48.3851 13.436 48.2491 13.436 48.1051 13.436C47.9611 13.42 47.8251 13.404 47.6971 13.388C47.5531 13.372 47.4091 13.364 47.2651 13.364C47.1211 13.348 46.9851 13.34 46.8571 13.34H46.6891C46.6571 13.356 46.6011 13.364 46.5211 13.364L46.4731 13.388V13.412L46.4971 13.388H46.7371C46.8171 13.388 46.8731 13.396 46.9051 13.412L46.5931 13.532L46.6651 13.556C46.2331 13.588 45.7851 13.66 45.3211 13.772C44.8571 13.868 44.4171 14.004 44.0011 14.18L44.0251 14.204L43.7371 14.372L43.7851 14.276C43.5451 14.532 43.3451 14.716 43.1851 14.828C43.0411 14.924 42.9211 15.012 42.8251 15.092C42.7451 15.172 42.6891 15.292 42.6571 15.452C42.6251 15.612 42.6091 15.876 42.6091 16.244V16.34C42.6091 16.404 42.5931 16.436 42.5611 16.436C42.4971 16.436 42.4331 16.348 42.3691 16.172C42.3051 15.98 42.2491 15.78 42.2011 15.572C42.1691 15.364 42.1531 15.236 42.1531 15.188C42.1371 15.044 42.1611 14.892 42.2251 14.732C42.2571 14.668 42.2811 14.612 42.2971 14.564C42.3131 14.516 42.3291 14.468 42.3451 14.42C42.3771 14.404 42.4171 14.38 42.4651 14.348C42.5131 14.3 42.5371 14.26 42.5371 14.228L42.5131 14.204L42.4171 14.276C42.4651 14.228 42.5131 14.18 42.5611 14.132C42.6091 14.084 42.6491 14.028 42.6811 13.964H42.7291C42.7611 13.964 42.8011 13.94 42.8491 13.892C42.9131 13.828 42.9531 13.78 42.9691 13.748L42.8971 13.796H42.8731L43.2811 13.46V13.484C43.4731 13.356 43.6891 13.268 43.9291 13.22C44.1691 13.172 44.3851 13.116 44.5771 13.052C44.7691 12.972 44.8891 12.836 44.9371 12.644L45.0091 12.692C45.1371 12.692 45.2331 12.668 45.2971 12.62C45.3771 12.572 45.4731 12.548 45.5851 12.548H45.6331L45.6091 12.596L46.5451 12.356V12.404H46.6411L46.4971 12.476L46.8571 12.524L46.7611 12.596L46.8091 12.62C46.8411 12.62 46.8891 12.612 46.9531 12.596C47.0171 12.564 47.0651 12.54 47.0971 12.524L47.0731 12.476C47.0891 12.476 47.1051 12.476 47.1211 12.476C47.1371 12.46 47.1611 12.444 47.1931 12.428L46.9531 12.38L47.0011 12.332H47.6491C47.7291 12.332 47.8491 12.348 48.0091 12.38C48.1851 12.396 48.3051 12.436 48.3691 12.5V12.476C48.5771 12.476 48.7451 12.508 48.8731 12.572L48.8971 12.548L48.6571 12.38C48.7691 12.396 48.8811 12.412 48.9931 12.428C49.1051 12.444 49.2171 12.46 49.3291 12.476L49.9771 12.548C49.9931 12.452 50.0411 12.388 50.1211 12.356C50.2011 12.324 50.2811 12.308 50.3611 12.308C50.6971 12.308 51.0491 12.364 51.4171 12.476C51.7851 12.588 51.9771 12.828 51.9931 13.196C52.2331 13.244 52.4251 13.308 52.5691 13.388C52.7131 13.468 52.8811 13.58 53.0731 13.724C53.2491 13.868 53.4411 13.988 53.6491 14.084C53.8731 14.196 54.0651 14.316 54.2251 14.444C54.3371 14.524 54.4331 14.62 54.5131 14.732C54.5931 14.828 54.6331 14.94 54.6331 15.068C54.6331 15.132 54.6091 15.252 54.5611 15.428C54.5131 15.604 54.4491 15.692 54.3691 15.692C54.3371 15.692 54.3131 15.604 54.2971 15.428C54.2971 15.236 54.2651 15.124 54.2011 15.092L54.1531 15.116C54.1051 15.068 53.9851 14.996 53.7931 14.9C53.6011 14.788 53.4091 14.684 53.2171 14.588C53.0411 14.476 52.9211 14.396 52.8571 14.348C52.6331 14.22 52.4571 14.156 52.3291 14.156C52.2651 14.172 52.1851 14.18 52.0891 14.18C51.9931 14.164 51.8891 14.148 51.7771 14.132C51.2811 15.396 50.7291 16.644 50.1211 17.876L48.2971 21.548L47.2171 23.756C47.0411 24.124 46.8491 24.492 46.6411 24.86C46.4491 25.212 46.2411 25.572 46.0171 25.94C45.7291 26.404 45.3611 26.948 44.9131 27.572C44.4811 28.196 44.0171 28.788 43.5211 29.348C43.6491 29.364 43.7851 29.38 43.9291 29.396C44.0731 29.412 44.2171 29.436 44.3611 29.468L45.1771 29.612V29.636C45.2571 29.684 45.3531 29.708 45.4651 29.708L45.7771 29.78C45.8411 29.812 45.8971 29.844 45.9451 29.876C45.9931 29.892 46.0491 29.916 46.1131 29.948C46.3371 30.028 46.6171 30.116 46.9531 30.212C47.3051 30.308 47.6171 30.428 47.8891 30.572C48.1611 30.716 48.2971 30.9 48.2971 31.124C48.3131 31.188 48.2971 31.292 48.2491 31.436C48.2011 31.596 48.1451 31.676 48.0811 31.676C48.0171 31.676 47.9611 31.58 47.9131 31.388C47.8811 31.212 47.8331 31.124 47.7691 31.124L47.6971 31.148C47.6011 31.068 47.3851 30.972 47.0491 30.86C46.7131 30.764 46.3691 30.668 46.0171 30.572C45.6811 30.492 45.4491 30.452 45.3211 30.452C45.2731 30.452 45.2251 30.452 45.1771 30.452C45.1291 30.452 45.0811 30.46 45.0331 30.476H44.7451C44.5371 30.476 44.3531 30.452 44.1931 30.404C44.0331 30.34 43.8651 30.252 43.6891 30.14V30.164L43.7611 30.26L43.6651 30.332L43.6411 30.308L43.6651 30.26L43.6171 30.212C43.6011 30.196 43.5371 30.188 43.4251 30.188C43.3291 30.188 43.2571 30.196 43.2091 30.212H42.9691L42.8971 30.284H42.8731L42.7291 30.236C42.5531 30.412 42.3691 30.572 42.1771 30.716C42.0011 30.876 41.8251 31.02 41.6491 31.148C41.6011 31.18 41.5051 31.26 41.3611 31.388C41.2171 31.532 41.1291 31.62 41.0971 31.652C40.7291 31.892 40.3451 32.1 39.9451 32.276C39.5611 32.468 39.1291 32.564 38.6491 32.564C38.0251 32.564 37.4891 32.428 37.0411 32.156C36.6091 31.884 36.3051 31.476 36.1291 30.932C35.9371 30.996 35.7451 31.052 35.5531 31.1C35.3771 31.164 35.2011 31.244 35.0251 31.34L34.6891 31.532L34.7851 31.436C34.8491 31.372 34.8171 31.396 34.6891 31.508C34.5611 31.62 34.4571 31.692 34.3771 31.724C34.2491 31.788 34.1211 31.884 33.9931 32.012L34.1851 31.868C34.0251 31.996 33.8731 32.14 33.7291 32.3C33.5691 32.476 33.4971 32.676 33.5131 32.9L33.5851 33.212C33.6331 33.308 33.6571 33.412 33.6571 33.524V33.572C33.6411 33.572 33.6331 33.58 33.6331 33.596ZM42.3451 14.42C42.3611 14.388 42.3691 14.364 42.3691 14.348C42.3691 14.332 42.3771 14.316 42.3931 14.3V14.348L42.3451 14.42ZM38.6011 32.18C39.1771 32.18 39.7131 31.996 40.2091 31.628C40.7051 31.26 41.1371 30.876 41.5051 30.476C41.5371 30.476 41.5931 30.436 41.6731 30.356C41.7051 30.324 41.7371 30.284 41.7691 30.236C41.8171 30.188 41.8571 30.14 41.8891 30.092L41.6731 30.02L41.7211 29.972L41.6251 29.948L41.5771 29.996L41.6491 30.02H41.4811C41.4811 30.068 41.5211 30.092 41.6011 30.092V30.188L41.5771 30.212C41.5611 30.18 41.4891 30.156 41.3611 30.14C41.2651 30.124 41.1931 30.092 41.1451 30.044C41.0651 30.06 41.0011 30.092 40.9531 30.14L40.6651 30.068L40.6411 30.02C40.5451 30.116 40.4651 30.164 40.4011 30.164C40.3371 30.164 40.1851 30.164 39.9451 30.164C39.7051 30.164 39.4331 30.172 39.1291 30.188C38.8411 30.204 38.5771 30.22 38.3371 30.236C38.1131 30.252 37.9771 30.276 37.9291 30.308V30.332L37.9531 30.308H38.1691C38.2171 30.292 38.2891 30.284 38.3851 30.284C38.4011 30.284 38.4171 30.292 38.4331 30.308H38.4571L38.0971 30.428L38.1931 30.452C37.9211 30.5 37.6411 30.548 37.3531 30.596C37.0811 30.66 36.8011 30.732 36.5131 30.812C36.6251 31.292 36.8811 31.636 37.2811 31.844C37.6811 32.068 38.1211 32.18 38.6011 32.18ZM60.3745 13.964H74.0305V15.644H60.3745V13.964ZM66.1825 10.436H67.9585V14.9H66.1825V10.436ZM60.0385 29.588C61.0625 29.556 62.2465 29.516 63.5905 29.468C64.9505 29.42 66.3905 29.356 67.9105 29.276C69.4305 29.196 70.9585 29.124 72.4945 29.06L72.4705 30.692C70.9985 30.788 69.5185 30.876 68.0305 30.956C66.5585 31.036 65.1585 31.116 63.8305 31.196C62.5025 31.276 61.3105 31.34 60.2545 31.388L60.0385 29.588ZM68.7505 25.82L70.2145 25.028C70.7745 25.716 71.3185 26.46 71.8465 27.26C72.3905 28.044 72.8785 28.82 73.3105 29.588C73.7425 30.34 74.0705 31.02 74.2945 31.628L72.7105 32.54C72.5025 31.932 72.1825 31.244 71.7505 30.476C71.3345 29.692 70.8625 28.892 70.3345 28.076C69.8225 27.26 69.2945 26.508 68.7505 25.82ZM60.5665 20.252L61.6465 19.004C62.3185 19.484 63.0145 20.012 63.7345 20.588C64.4545 21.164 65.1265 21.748 65.7505 22.34C66.3905 22.916 66.9025 23.444 67.2865 23.924L66.1105 25.364C65.7425 24.868 65.2465 24.324 64.6225 23.732C63.9985 23.124 63.3345 22.516 62.6305 21.908C61.9265 21.3 61.2385 20.748 60.5665 20.252ZM69.9985 18.188L71.6785 19.028C71.0705 20.004 70.3985 21.02 69.6625 22.076C68.9265 23.116 68.1665 24.164 67.3825 25.22C66.6145 26.276 65.8465 27.284 65.0785 28.244C64.3105 29.188 63.5825 30.036 62.8945 30.788L61.5985 30.02C62.2865 29.252 63.0065 28.388 63.7585 27.428C64.5265 26.452 65.2865 25.436 66.0385 24.38C66.8065 23.308 67.5265 22.244 68.1985 21.188C68.8705 20.116 69.4705 19.116 69.9985 18.188ZM65.7265 14.972L67.4305 15.812C67.0465 16.452 66.6305 17.124 66.1825 17.828C65.7505 18.516 65.3105 19.188 64.8625 19.844C64.4305 20.484 64.0145 21.052 63.6145 21.548L62.3185 20.828C62.7025 20.316 63.1025 19.724 63.5185 19.052C63.9345 18.364 64.3345 17.668 64.7185 16.964C65.1025 16.244 65.4385 15.58 65.7265 14.972ZM55.6705 10.46H57.3025V18.668C57.3025 19.9 57.2545 21.132 57.1585 22.364C57.0785 23.596 56.9025 24.804 56.6305 25.988C56.3745 27.172 55.9665 28.308 55.4065 29.396C54.8625 30.484 54.1265 31.516 53.1985 32.492C53.1025 32.364 52.9745 32.22 52.8145 32.06C52.6705 31.916 52.5105 31.772 52.3345 31.628C52.1745 31.5 52.0225 31.396 51.8785 31.316C53.0305 30.132 53.8705 28.844 54.3985 27.452C54.9265 26.06 55.2705 24.62 55.4305 23.132C55.5905 21.644 55.6705 20.156 55.6705 18.668V10.46ZM53.3425 15.284L54.6385 15.476C54.6385 16.228 54.5905 16.996 54.4945 17.78C54.3985 18.548 54.2465 19.276 54.0385 19.964C53.8305 20.636 53.5505 21.228 53.1985 21.74L51.9265 21.092C52.2465 20.66 52.5025 20.132 52.6945 19.508C52.9025 18.884 53.0545 18.212 53.1505 17.492C53.2625 16.756 53.3265 16.02 53.3425 15.284ZM59.3665 14.468L60.9025 15.092C60.5505 15.908 60.1745 16.772 59.7745 17.684C59.3745 18.596 58.9985 19.372 58.6465 20.012L57.5185 19.46C57.7265 19.012 57.9425 18.5 58.1665 17.924C58.4065 17.332 58.6305 16.732 58.8385 16.124C59.0465 15.516 59.2225 14.964 59.3665 14.468ZM56.7985 23.684C56.9745 23.86 57.2385 24.148 57.5905 24.548C57.9585 24.948 58.3425 25.388 58.7425 25.868C59.1425 26.332 59.5105 26.764 59.8465 27.164C60.1985 27.564 60.4465 27.852 60.5905 28.028L59.2945 29.372C59.1185 29.068 58.8625 28.7 58.5265 28.268C58.2065 27.836 57.8625 27.388 57.4945 26.924C57.1265 26.444 56.7745 25.996 56.4385 25.58C56.1025 25.164 55.8305 24.836 55.6225 24.596L56.7985 23.684ZM76.4305 21.332H88.7425V22.988H76.4305V21.332ZM82.0225 18.812H83.7745V32.372H82.0225V18.812ZM81.9985 22.052L83.3665 22.892C82.9025 23.836 82.3105 24.796 81.5905 25.772C80.8865 26.748 80.1185 27.668 79.2865 28.532C78.4545 29.38 77.6305 30.1 76.8145 30.692C76.7345 30.532 76.6305 30.356 76.5025 30.164C76.3905 29.972 76.2625 29.788 76.1185 29.612C75.9905 29.42 75.8545 29.252 75.7105 29.108C76.5105 28.628 77.3025 28.004 78.0865 27.236C78.8865 26.468 79.6305 25.636 80.3185 24.74C81.0065 23.828 81.5665 22.932 81.9985 22.052ZM87.6385 10.628L88.7665 12.14C87.9825 12.364 87.1025 12.564 86.1265 12.74C85.1665 12.916 84.1505 13.076 83.0785 13.22C82.0225 13.364 80.9505 13.492 79.8625 13.604C78.7905 13.716 77.7505 13.804 76.7425 13.868C76.7265 13.66 76.6625 13.412 76.5505 13.124C76.4545 12.82 76.3585 12.572 76.2625 12.38C77.2385 12.284 78.2545 12.188 79.3105 12.092C80.3665 11.98 81.3985 11.852 82.4065 11.708C83.4305 11.548 84.3905 11.38 85.2865 11.204C86.1985 11.012 86.9825 10.82 87.6385 10.628ZM76.9585 15.476L78.3265 14.852C78.7905 15.444 79.2225 16.092 79.6225 16.796C80.0225 17.5 80.3185 18.116 80.5105 18.644L79.0465 19.34C78.8865 18.796 78.6065 18.164 78.2065 17.444C77.8225 16.708 77.4065 16.052 76.9585 15.476ZM81.2065 14.636L82.6465 14.18C82.9985 14.772 83.3265 15.42 83.6305 16.124C83.9505 16.812 84.1745 17.412 84.3025 17.924L82.7905 18.476C82.6785 17.932 82.4705 17.308 82.1665 16.604C81.8785 15.884 81.5585 15.228 81.2065 14.636ZM86.9905 14.108L88.7185 14.612C88.4785 15.14 88.2065 15.692 87.9025 16.268C87.5985 16.844 87.3025 17.396 87.0145 17.924C86.7265 18.436 86.4545 18.892 86.1985 19.292L84.8305 18.812C85.0705 18.38 85.3265 17.892 85.5985 17.348C85.8705 16.804 86.1265 16.244 86.3665 15.668C86.6065 15.092 86.8145 14.572 86.9905 14.108ZM95.3425 10.748L97.1425 11.468C96.5825 12.172 95.9425 12.868 95.2225 13.556C94.5025 14.244 93.7425 14.884 92.9425 15.476C92.1585 16.052 91.3825 16.564 90.6145 17.012C90.4545 16.804 90.2465 16.572 89.9905 16.316C89.7505 16.06 89.5105 15.844 89.2705 15.668C89.9905 15.3 90.7265 14.852 91.4785 14.324C92.2465 13.796 92.9665 13.22 93.6385 12.596C94.3265 11.972 94.8945 11.356 95.3425 10.748ZM96.0385 17.348L97.7665 18.092C97.1745 18.828 96.4865 19.556 95.7025 20.276C94.9185 20.98 94.1025 21.636 93.2545 22.244C92.4065 22.852 91.5745 23.38 90.7585 23.828C90.5985 23.636 90.3905 23.412 90.1345 23.156C89.8945 22.9 89.6545 22.684 89.4145 22.508C90.1985 22.108 90.9985 21.628 91.8145 21.068C92.6465 20.508 93.4305 19.908 94.1665 19.268C94.9025 18.628 95.5265 17.988 96.0385 17.348ZM96.5905 24.116L98.3665 24.836C97.7105 25.908 96.9105 26.916 95.9665 27.86C95.0225 28.804 93.9905 29.66 92.8705 30.428C91.7505 31.196 90.5825 31.86 89.3665 32.42C89.2225 32.18 89.0305 31.916 88.7905 31.628C88.5505 31.34 88.3105 31.1 88.0705 30.908C89.2385 30.444 90.3585 29.868 91.4305 29.18C92.5185 28.476 93.5025 27.7 94.3825 26.852C95.2785 25.988 96.0145 25.076 96.5905 24.116ZM82.8625 23.9L84.0145 22.868C84.5905 23.3 85.1665 23.78 85.7425 24.308C86.3185 24.836 86.8465 25.356 87.3265 25.868C87.8065 26.38 88.1825 26.844 88.4545 27.26L87.2305 28.46C86.9425 28.028 86.5585 27.548 86.0785 27.02C85.6145 26.476 85.1025 25.932 84.5425 25.388C83.9825 24.844 83.4225 24.348 82.8625 23.9ZM101.895 12.356H108.519V27.956H101.895V26.324H106.839V13.988H101.895V12.356ZM101.967 19.244H107.463V20.852H101.967V19.244ZM101.007 12.356H102.735V29.9H101.007V12.356ZM109.623 15.14H122.151V16.94H109.623V15.14ZM117.399 10.46H119.223V29.708C119.223 30.364 119.127 30.844 118.935 31.148C118.759 31.468 118.455 31.7 118.023 31.844C117.591 32.004 116.983 32.1 116.199 32.132C115.415 32.164 114.423 32.18 113.223 32.18C113.175 31.924 113.087 31.612 112.959 31.244C112.831 30.892 112.695 30.588 112.551 30.332C113.191 30.348 113.791 30.364 114.351 30.38C114.927 30.396 115.423 30.404 115.839 30.404C116.255 30.388 116.551 30.372 116.727 30.356C116.967 30.356 117.135 30.308 117.231 30.212C117.343 30.116 117.399 29.948 117.399 29.708V10.46ZM110.439 19.652L111.927 18.86C112.359 19.468 112.815 20.124 113.295 20.828C113.775 21.532 114.223 22.212 114.639 22.868C115.071 23.524 115.423 24.1 115.695 24.596L114.111 25.508C113.855 25.012 113.519 24.428 113.103 23.756C112.703 23.068 112.263 22.364 111.783 21.644C111.319 20.924 110.871 20.26 110.439 19.652ZM134.079 10.34H135.927V18.116H134.079V10.34ZM126.015 11.78L127.575 11.084C128.007 11.564 128.431 12.092 128.847 12.668C129.279 13.228 129.663 13.788 129.999 14.348C130.351 14.892 130.623 15.396 130.815 15.86L129.159 16.652C128.983 16.204 128.719 15.7 128.367 15.14C128.031 14.564 127.655 13.98 127.239 13.388C126.839 12.796 126.431 12.26 126.015 11.78ZM142.383 10.94L144.159 11.588C143.807 12.164 143.423 12.764 143.007 13.388C142.607 13.996 142.199 14.588 141.783 15.164C141.367 15.724 140.975 16.228 140.607 16.676L139.095 16.052C139.479 15.604 139.871 15.084 140.271 14.492C140.687 13.9 141.079 13.292 141.447 12.668C141.831 12.028 142.143 11.452 142.383 10.94ZM130.647 21.452H132.303V29.852H130.647V21.452ZM131.631 21.452H139.479V28.316H131.631V26.756H137.799V23.012H131.631V21.452ZM125.967 17.372H143.559V19.052H127.767V32.42H125.967V17.372ZM142.479 17.372H144.255V30.164C144.255 30.676 144.183 31.076 144.039 31.364C143.911 31.668 143.655 31.9 143.271 32.06C142.903 32.188 142.391 32.268 141.735 32.3C141.079 32.332 140.279 32.348 139.335 32.348C139.287 32.092 139.207 31.796 139.095 31.46C138.983 31.124 138.855 30.836 138.711 30.596C139.463 30.612 140.143 30.62 140.751 30.62C141.359 30.636 141.767 30.636 141.975 30.62C142.183 30.62 142.319 30.58 142.383 30.5C142.447 30.436 142.479 30.316 142.479 30.14V17.372Z" fill="white"/>
</g>
</g>
<defs>
<filter id="filter0_d_970_238" x="0" y="0" width="158" height="56" filterUnits="userSpaceOnUse" color-interpolation-filters="sRGB">
<feFlood flood-opacity="0" result="BackgroundImageFix"/>
<feColorMatrix in="SourceAlpha" type="matrix" values="0 0 0 0 0 0 0 0 0 0 0 0 0 0 0 0 0 0 127 0" result="hardAlpha"/>
<feOffset dy="4"/>
<feGaussianBlur stdDeviation="2"/>
<feComposite in2="hardAlpha" operator="out"/>
<feColorMatrix type="matrix" values="0 0 0 0 0 0 0 0 0 0 0 0 0 0 0 0 0 0 0.25 0"/>
<feBlend mode="normal" in2="BackgroundImageFix" result="effect1_dropShadow_970_238"/>
<feBlend mode="normal" in="SourceGraphic" in2="effect1_dropShadow_970_238" result="shape"/>
</filter>
<filter id="filter1_d_970_238" x="5.90399" y="10.34" width="142.351" height="32.336" filterUnits="userSpaceOnUse" color-interpolation-filters="sRGB">
<feFlood flood-opacity="0" result="BackgroundImageFix"/>
<feColorMatrix in="SourceAlpha" type="matrix" values="0 0 0 0 0 0 0 0 0 0 0 0 0 0 0 0 0 0 127 0" result="hardAlpha"/>
<feOffset dy="4"/>
<feGaussianBlur stdDeviation="2"/>
<feComposite in2="hardAlpha" operator="out"/>
<feColorMatrix type="matrix" values="0 0 0 0 0 0 0 0 0 0 0 0 0 0 0 0 0 0 0.25 0"/>
<feBlend mode="normal" in2="BackgroundImageFix" result="effect1_dropShadow_970_238"/>
<feBlend mode="normal" in="SourceGraphic" in2="effect1_dropShadow_970_238" result="shape"/>
</filter>
<linearGradient id="paint0_linear_970_238" x1="4" y1="24" x2="154" y2="24" gradientUnits="userSpaceOnUse">
<stop stop-color="#FEC143"/>
<stop offset="1" stop-color="#FE4B8C"/>
</linearGradient>
</defs>
</svg>
