<svg width="158" height="56" viewBox="0 0 158 56" fill="none" xmlns="http://www.w3.org/2000/svg">
<g filter="url(#filter0_d_981_259)">
<rect x="4" width="150" height="48" rx="24" fill="#84D1FC" shape-rendering="crispEdges"/>
<rect x="5.5" y="1.5" width="147" height="45" rx="22.5" stroke="white" stroke-width="3" shape-rendering="crispEdges"/>
<g filter="url(#filter1_d_981_259)">
<path d="M28.212 14.432L35.268 32H32.892L30.948 26.96H23.676L21.828 32H19.668L26.412 14.432H28.212ZM30.204 25.04L27.228 17.288L24.396 25.04H30.204ZM39.6615 32H37.5255V14.432H39.6615V32ZM58.5662 16.784C58.1182 17.696 57.4622 18.832 56.5982 20.192C55.7342 21.536 55.0302 22.552 54.4862 23.24L58.7582 22.592C59.9742 20.784 60.8542 19.36 61.3982 18.32L63.0302 19.28C62.2942 20.576 60.9982 22.496 59.1422 25.04C57.2862 27.584 55.7022 29.56 54.3902 30.968C56.0222 30.744 57.5262 30.552 58.9022 30.392L61.3262 30.08C60.6382 28.288 60.1742 27.12 59.9342 26.576L61.5902 25.856C62.2302 27.28 63.1342 29.656 64.3022 32.984L62.6222 33.752C62.4462 33.224 62.2142 32.544 61.9262 31.712C60.6622 31.824 59.3742 31.968 58.0622 32.144C56.7502 32.32 55.9342 32.432 55.6142 32.48L53.6942 32.744C52.7342 32.888 52.0782 32.992 51.7262 33.056L51.1982 31.136C51.6622 30.976 51.9822 30.848 52.1582 30.752C52.3502 30.656 52.5742 30.48 52.8302 30.224C54.0782 28.944 55.6222 27.024 57.4622 24.464L54.7502 24.776L54.1262 24.848C53.4222 24.944 52.7022 25.056 51.9662 25.184L51.4862 23.288C51.7742 23.208 51.9982 23.128 52.1582 23.048C52.3182 22.952 52.4702 22.824 52.6142 22.664C53.1102 22.12 53.7422 21.256 54.5102 20.072C55.2942 18.872 55.9262 17.776 56.4062 16.784H51.6542V15.08H57.0782L55.7102 12.056L57.5822 11.624C58.3022 13.208 58.8142 14.36 59.1182 15.08H64.5182V16.784H58.5662ZM50.5262 30.152C50.2062 29.72 49.2222 28.536 47.5742 26.6C47.3022 27.864 46.9102 29.072 46.3982 30.224C45.8862 31.376 45.2062 32.584 44.3582 33.848L42.7982 32.816C43.8062 31.456 44.5662 30.128 45.0782 28.832C45.6062 27.52 45.9582 26.208 46.1342 24.896C46.3102 23.584 46.3982 22.064 46.3982 20.336V11.984H48.1502V18.032C49.1742 16.752 49.8222 15.896 50.0942 15.464L51.3662 16.52C50.9982 17.032 50.5022 17.696 49.8782 18.512C49.2542 19.328 48.6782 20.064 48.1502 20.72C48.1182 22.144 48.0382 23.4 47.9102 24.488C48.5342 25.144 49.2142 25.88 49.9502 26.696C50.6862 27.512 51.2622 28.16 51.6782 28.64L50.5262 30.152ZM44.0222 22.88C44.0062 22.464 43.8782 21.336 43.6382 19.496C43.3982 17.656 43.2142 16.28 43.0862 15.368L44.6942 15.104C44.8382 16.032 45.0302 17.4 45.2702 19.208C45.5102 21 45.6462 22.104 45.6782 22.52L44.0222 22.88ZM87.3662 13.304C86.3742 14.456 85.2782 15.568 84.0782 16.64C82.8782 17.696 81.6622 18.632 80.4302 19.448L79.4222 17.864C81.9502 16.232 84.1342 14.344 85.9742 12.2L87.3662 13.304ZM79.3262 14.288C77.6462 14.576 75.6862 14.848 73.4462 15.104C71.2062 15.36 69.2622 15.528 67.6142 15.608L67.3982 13.76C69.1422 13.712 71.1102 13.568 73.3022 13.328C75.4942 13.088 77.4062 12.808 79.0382 12.488L79.3262 14.288ZM75.3182 20.408C75.7182 19.688 76.1422 18.864 76.5902 17.936C77.0542 17.008 77.4302 16.192 77.7182 15.488L79.2542 16.136C78.3742 18.088 77.5742 19.744 76.8542 21.104L75.3182 20.408ZM73.2782 19.88L72.7742 18.608C72.2622 17.312 71.9262 16.504 71.7662 16.184L73.2782 15.536C73.4062 15.792 73.7662 16.616 74.3582 18.008C74.5502 18.488 74.7102 18.872 74.8382 19.16L73.2782 19.88ZM69.4622 20.72C68.7582 19.088 68.1502 17.784 67.6382 16.808L69.1262 15.992C69.4142 16.52 69.8382 17.408 70.3982 18.656L70.9742 19.904L69.4622 20.72ZM79.8782 23.864C81.2542 23.112 82.4702 22.304 83.5262 21.44C84.5982 20.56 85.6382 19.512 86.6462 18.296L88.0142 19.376C87.0382 20.624 85.9742 21.744 84.8222 22.736C83.6862 23.728 82.3902 24.664 80.9342 25.544L79.8782 23.864ZM78.2702 30.392C76.9262 29.32 75.6062 28.312 74.3102 27.368V33.824H72.5342V26.192C71.1582 28.432 69.5182 30.44 67.6142 32.216L66.7022 30.536C67.7582 29.576 68.6782 28.616 69.4622 27.656C70.2462 26.696 70.9822 25.632 71.6702 24.464H67.3022V22.736H72.5342V20.576H74.3102V22.736H79.3262V24.464H74.3102V25.424C75.7822 26.352 77.4462 27.48 79.3022 28.808L78.2702 30.392ZM88.7822 25.856C87.5502 27.392 86.0462 28.872 84.2702 30.296C82.5102 31.704 80.7022 32.904 78.8462 33.896L77.9342 32.192C79.7102 31.312 81.4062 30.24 83.0222 28.976C84.6542 27.712 86.1022 26.32 87.3662 24.8L88.7822 25.856ZM97.2782 12.368C96.7502 14.128 96.1262 15.816 95.4062 17.432V33.752H93.5342V21.08C93.0222 21.992 92.3262 23.064 91.4462 24.296L90.4862 22.352C91.4782 20.976 92.4142 19.36 93.2942 17.504C94.1902 15.632 94.9022 13.752 95.4302 11.864L97.2782 12.368ZM109.59 30.32V15.92H111.462V33.416H109.59V32.192H98.4542V15.92H100.302V30.32H103.974V11.888H105.894V30.32H109.59ZM116.382 21.008C116.19 21.056 115.822 21.136 115.278 21.248L114.822 19.4C115.062 19.304 115.238 19.208 115.35 19.112C115.478 19.016 115.606 18.864 115.734 18.656C116.15 18.016 116.638 17.064 117.198 15.8C117.758 14.536 118.302 13.216 118.83 11.84L120.534 12.392C119.062 15.944 118.022 18.256 117.414 19.328L119.91 18.68C120.582 17.4 121.118 16.304 121.518 15.392L123.102 16.088C122.51 17.352 121.662 18.992 120.558 21.008C119.47 23.008 118.67 24.4 118.158 25.184L121.398 24.104L121.422 25.928C119.582 26.408 118.102 26.808 116.982 27.128L115.758 27.464L115.254 25.496C115.574 25.4 115.806 25.304 115.95 25.208C116.094 25.112 116.238 24.968 116.382 24.776C117.022 23.848 117.878 22.416 118.95 20.48L118.326 20.6C117.462 20.76 116.814 20.896 116.382 21.008ZM135.678 32.24C134.718 31.248 133.942 30.248 133.35 29.24C132.774 28.216 132.254 27.032 131.79 25.688L130.998 26.168C131.238 27.192 131.358 28.464 131.358 29.984C131.358 31.248 131.166 32.144 130.782 32.672C130.414 33.2 129.79 33.48 128.91 33.512C128.302 33.528 127.566 33.496 126.702 33.416L126.39 31.784C127.062 31.88 127.726 31.928 128.382 31.928C128.846 31.928 129.166 31.752 129.342 31.4C129.534 31.032 129.63 30.384 129.63 29.456C129.63 29.136 129.614 28.672 129.582 28.064C128.542 28.992 127.334 29.88 125.958 30.728C124.598 31.576 123.254 32.288 121.926 32.864L121.23 31.28C122.526 30.784 123.894 30.088 125.334 29.192C126.79 28.28 128.102 27.296 129.27 26.24C129.206 26 129.094 25.656 128.934 25.208C128.022 25.896 127.014 26.552 125.91 27.176C124.806 27.8 123.726 28.32 122.67 28.736L121.974 27.2C122.95 26.88 124.014 26.408 125.166 25.784C126.334 25.16 127.374 24.512 128.286 23.84C128.078 23.472 127.878 23.136 127.686 22.832C126.886 23.328 126.054 23.784 125.19 24.2C124.342 24.616 123.566 24.936 122.862 25.16L122.286 23.528C123.15 23.288 124.078 22.944 125.07 22.496C126.078 22.032 126.99 21.544 127.806 21.032H122.742V19.424H131.742L132.006 18.056H124.014L125.454 11.84L127.23 12.008L126.87 13.52H134.598L133.566 19.424H136.566V21.032H130.182C129.974 21.224 129.598 21.528 129.054 21.944C129.694 22.888 130.166 23.752 130.47 24.536C131.254 24.088 132.038 23.592 132.822 23.048C133.622 22.488 134.286 21.968 134.814 21.488L135.798 22.952C135.142 23.48 134.254 24.112 133.134 24.848C133.582 26.16 134.062 27.248 134.574 28.112C135.102 28.96 135.87 29.888 136.878 30.896L135.678 32.24ZM126.51 14.984L126.126 16.568H132.294L132.582 14.984H126.51ZM121.47 30.392C120.462 30.6 118.278 31.096 114.918 31.88L114.486 30.104C115.158 30.04 117.086 29.616 120.27 28.832L121.158 28.616L121.47 30.392Z" fill="white"/>
</g>
</g>
<defs>
<filter id="filter0_d_981_259" x="0" y="0" width="158" height="56" filterUnits="userSpaceOnUse" color-interpolation-filters="sRGB">
<feFlood flood-opacity="0" result="BackgroundImageFix"/>
<feColorMatrix in="SourceAlpha" type="matrix" values="0 0 0 0 0 0 0 0 0 0 0 0 0 0 0 0 0 0 127 0" result="hardAlpha"/>
<feOffset dy="4"/>
<feGaussianBlur stdDeviation="2"/>
<feComposite in2="hardAlpha" operator="out"/>
<feColorMatrix type="matrix" values="0 0 0 0 0 0 0 0 0 0 0 0 0 0 0 0 0 0 0.25 0"/>
<feBlend mode="normal" in2="BackgroundImageFix" result="effect1_dropShadow_981_259"/>
<feBlend mode="normal" in="SourceGraphic" in2="effect1_dropShadow_981_259" result="shape"/>
</filter>
<filter id="filter1_d_981_259" x="15.668" y="11.624" width="125.21" height="30.272" filterUnits="userSpaceOnUse" color-interpolation-filters="sRGB">
<feFlood flood-opacity="0" result="BackgroundImageFix"/>
<feColorMatrix in="SourceAlpha" type="matrix" values="0 0 0 0 0 0 0 0 0 0 0 0 0 0 0 0 0 0 127 0" result="hardAlpha"/>
<feOffset dy="4"/>
<feGaussianBlur stdDeviation="2"/>
<feComposite in2="hardAlpha" operator="out"/>
<feColorMatrix type="matrix" values="0 0 0 0 0 0 0 0 0 0 0 0 0 0 0 0 0 0 0.25 0"/>
<feBlend mode="normal" in2="BackgroundImageFix" result="effect1_dropShadow_981_259"/>
<feBlend mode="normal" in="SourceGraphic" in2="effect1_dropShadow_981_259" result="shape"/>
</filter>
</defs>
</svg>
